<?xml version="1.0" encoding="UTF-8"?>
<svg width="72px" height="72px" viewBox="0 0 72 72" version="1.1" xmlns="http://www.w3.org/2000/svg" xmlns:xlink="http://www.w3.org/1999/xlink">
    <!-- Generator: Sketch 41.2 (35397) - http://www.bohemiancoding.com/sketch -->
    <title>哭脸</title>
    <desc>Created with Sketch.</desc>
    <defs></defs>
    <g id="Page-1" stroke="none" stroke-width="1" fill="none" fill-rule="evenodd">
        <g id="哭脸">
            <path d="M36,72 C55.882251,72 72,55.882251 72,36 C72,16.117749 55.882251,0 36,0 C16.117749,0 0,16.117749 0,36 C0,55.882251 16.117749,72 36,72 Z M36,70 C54.7776815,70 70,54.7776815 70,36 C70,17.2223185 54.7776815,2 36,2 C17.2223185,2 2,17.2223185 2,36 C2,54.7776815 17.2223185,70 36,70 Z" id="Combined-Shape" fill="#FFFFFF"></path>
            <rect id="Rectangle-483" fill="#FFFFFF" x="47" y="22" width="2" height="6"></rect>
            <rect id="Rectangle-483" fill="#FFFFFF" x="23" y="22" width="2" height="6"></rect>
            <path d="M21,51 C21,51 25.5997148,44 36,44 C46.4002852,44 51,51 51,51" id="Path-534" stroke="#FFFFFF" stroke-width="2"></path>
        </g>
    </g>
</svg>