<?xml version="1.0" encoding="UTF-8"?>
<svg width="60px" height="60px" viewBox="0 0 60 60" version="1.1" xmlns="http://www.w3.org/2000/svg" xmlns:xlink="http://www.w3.org/1999/xlink">
    <!-- Generator: Sketch 40.3 (33839) - http://www.bohemiancoding.com/sketch -->
    <title>dislike</title>
    <desc>Created with Sketch.</desc>
    <defs></defs>
    <g id="Page-1" stroke="none" stroke-width="1" fill="none" fill-rule="evenodd">
        <g id="dislike">
            <rect id="Rectangle" fill="#D8D8D8" opacity="0" x="-2.27373675e-13" y="0" width="60" height="60"></rect>
            <path d="M30,59 C13.9835942,59 1,46.0164058 1,30 C1,13.9835942 13.9835942,1 30,1 C46.0164058,1 59,13.9835942 59,30 C59,46.0164058 46.0164058,59 30,59 L30,59 Z M30.2658062,3.68518519 C15.4667037,3.68518519 3.68518519,15.4667037 3.68518519,30.2658062 C3.68518519,44.5332963 15.4667037,56.3148148 30.2658062,56.3148148 C44.5332963,56.3148148 56.3148148,44.5332963 56.3148148,30.2658062 C56.3148148,15.4667037 44.5332963,3.68518519 30.2658062,3.68518519 L30.2658062,3.68518519 Z M42.3518519,26.2407407 C40.1555718,26.2407407 38.5925926,24.6777616 38.5925926,23.0185185 C38.5925926,20.8222384 40.1555718,19.2592593 42.3518519,19.2592593 C44.0110949,19.2592593 45.5740741,20.8222384 45.5740741,23.0185185 C45.5740741,24.6777616 44.0110949,26.2407407 42.3518519,26.2407407 L42.3518519,26.2407407 Z M43.962963,43.962963 L43.4259259,43.962963 C39.7762916,41.1301242 35.0656486,39.4455338 30,39.6666667 C24.9197764,39.4455338 20.2720142,41.0779684 16.5740741,43.962963 L14.962963,41.8148148 L14.962963,41.8148148 C19.1389113,38.8155577 24.3292803,36.9814815 30,36.9814815 C35.6211646,36.9814815 40.8452644,38.8447157 45.037037,41.8148148 L43.962963,43.962963 L43.962963,43.962963 Z M18.1851852,26.2407407 C15.9889051,26.2407407 14.4259259,24.6777616 14.4259259,23.0185185 C14.4259259,20.8222384 15.9889051,19.2592593 18.1851852,19.2592593 C19.8444282,19.2592593 21.4074074,20.8222384 21.4074074,23.0185185 C21.4074074,24.6777616 19.8444282,26.2407407 18.1851852,26.2407407 L18.1851852,26.2407407 Z" id="Imported-Layers-Copy" stroke="#4A4A4A" fill="#4A4A4A"></path>
        </g>
    </g>
</svg>