<?xml version="1.0" encoding="UTF-8"?>
<svg width="120px" height="120px" viewBox="0 0 120 120" version="1.1" xmlns="http://www.w3.org/2000/svg" xmlns:xlink="http://www.w3.org/1999/xlink">
    <!-- Generator: Sketch 41.2 (35397) - http://www.bohemiancoding.com/sketch -->
    <title>支</title>
    <desc>Created with Sketch.</desc>
    <defs></defs>
    <g id="Page-1" stroke="none" stroke-width="1" fill="none" fill-rule="evenodd">
        <g id="支">
            <ellipse id="bg" fill="#108EE9" cx="60" cy="60" rx="60" ry="60"></ellipse>
            <path d="M119.019881,92.852 L119.020881,92.852 C119.020881,92.852 119.019881,95.381 119.019881,96.909 C119.019881,100.908 119.024881,100.985 119.024881,100.985 C119.024881,100.985 87.3698811,85.206 71.0828811,77.263 C65.9418811,83.123 58.3398811,88.999 49.7558811,91.553 C44.3598811,93.158 39.4978811,93.77 34.4138811,92.729 C29.3788811,91.698 25.6698811,89.342 23.5098811,86.979 C22.4078811,85.773 21.1428811,84.239 20.2288811,82.417 C20.3138811,82.647 20.3728811,82.786 20.3728811,82.786 C20.3728811,82.786 19.8458811,81.878 19.4438811,80.432 C19.2378811,79.736 19.0978811,79.008 19.0428811,78.244 C18.9988811,77.746 18.9868811,77.219 19.0158811,76.672 C18.9728811,75.743 19.0098811,74.768 19.2178811,73.768 C19.7228811,71.329 20.7658811,68.485 23.4608811,65.847 C29.3788811,60.052 37.3038811,59.74 41.4098811,59.765 C47.4908811,59.8 58.0588811,62.459 66.9558811,65.608 C69.4218811,60.357 71.0038811,54.744 72.0248811,51 L35.0248811,51 L35.0248811,47 L54.0248811,47 L54.0248811,39 L31.0248811,39 L31.0248811,35 L54.0248811,35 L54.0248811,27 C54.0248811,25.902 54.2418811,25 56.0248811,25 L65.0248811,25 L65.0248811,35 L90.0248811,35 L90.0248811,39 L65.0248811,39 L65.0248811,47 L85.0248811,47 C85.0248811,47 83.0158811,58.196 76.7358811,69.231 C93.6658811,75.281 119.020881,85.316 119.020881,85.316 C119.020881,85.316 119.019881,88.682 119.019881,92.852 L119.019881,92.852 Z M25.2578811,82.776 C28.7348811,86.315 34.0188811,87.286 36.3018811,87.451 C42.4998811,87.9 49.1088811,84.827 54.0898811,81.318 C56.0408811,79.943 59.3828811,77.177 62.5788811,72.91 C55.4178811,69.214 46.4788811,65.123 36.9248811,65.523 C32.0418811,65.728 28.5468811,66.739 25.9908811,68.091 C24.5318811,69.264 22.9688811,70.976 22.5168811,73.156 C21.8998811,76.13 22.3868811,79.854 25.2578811,82.776 L25.2578811,82.776 Z" id="Imported-Layers-2" fill="#FFFFFF"></path>
        </g>
    </g>
</svg>