<?xml version="1.0" encoding="UTF-8"?>
<svg width="42px" height="42px" viewBox="0 0 42 42" version="1.1" xmlns="http://www.w3.org/2000/svg" xmlns:xlink="http://www.w3.org/1999/xlink">
    <!-- Generator: Sketch 41.1 (35376) - http://www.bohemiancoding.com/sketch -->
    <title>财富按下</title>
    <desc>Created with Sketch.</desc>
    <defs></defs>
    <g id="Page-1" stroke="transparent" stroke-width="4" fill-rule="evenodd">
        <g id="财富按下">
            <g id="Clipped">
                <path d="M21,0 C9.40227273,0 0,9.40227273 0,21 C0,32.5986818 9.40227273,42 21,42 C32.5977273,42 42,32.5986818 42,21 C42,9.40227273 32.5977273,0 21,0 L21,0 Z" id="path-1"></path>
            </g>
            <path d="M29,18.7305825 C29,18.1785256 28.552666,17.7304795 28.0014865,17.7304795 L23.3578769,17.7304795 L27.7862844,12.6791831 C28.1926794,12.2191357 28.1926794,11.4720588 27.7862844,11.0120114 C27.3788909,10.550964 26.717875,10.550964 26.3104815,11.0120114 L21.1002382,16.902618 L15.8909933,11.0120114 C15.4835998,10.550964 14.8225839,10.550964 14.4151904,11.0120114 C14.0087954,11.4720588 14.0087954,12.2191357 14.4151904,12.6791831 L18.8435974,17.7304795 L14.2309419,17.7304795 C13.6797624,17.7304795 13.2324284,18.1785256 13.2324284,18.7305825 C13.2324284,19.2836394 13.6797624,19.7008317 14.2309418,19.7008317 L20.1326041,19.7008317 L20.1326039,23.6415353 L14.2309416,23.6415353 C13.6797622,23.6415353 13.2324282,24.0895815 13.2324282,24.6416383 C13.2324282,25.1936951 13.6797626,25.6268144 14.2309421,25.6268144 L20.1326044,25.6268144 L20.1326044,30.5228409 C20.1326044,31.0748978 20.5799385,31.5229439 21.1311179,31.5229439 C21.6822974,31.5229439 22.0998247,31.2390942 22.0998247,30.6870374 L22.0998246,25.6268144 L28.0014867,25.6268144 C28.5526662,25.6268144 28.9999998,25.1936951 28.9999998,24.6416383 C28.9999998,24.0895815 28.5526657,23.6415353 28.0014863,23.6415353 L22.0998242,23.6415353 L22.0998244,19.7008317 L28.0014865,19.7008317 C28.5526659,19.7008317 29,19.2836394 29,18.7305825 Z" id="Path" fill="#FFFFFF"></path>
        </g>
    </g>
</svg>
