<svg width="44" height="44" viewBox="0 0 44 44" xmlns="http://www.w3.org/2000/svg"><title>System Icons Copy 4</title><g transform="translate(.688 2.063)" fill-rule="evenodd"><path d="M24.162 21.313c-.16-.267-.21-.547-.21-.91 0-.05.003-.104.01-.16.048-.378.252-.84.568-1.323.24-.367.48-.658.628-.81.84-.878 1.403-2.171 1.771-3.777.215-.935.35-1.927.424-2.921.046-.619.06-1.123.06-1.456v-.502c0-4.048-1.692-6.753-4.476-8.254A10.263 10.263 0 0 0 19.933.158 8.553 8.553 0 0 0 18.53 0h-.503a8.545 8.545 0 0 0-1.413.158c-1.02.19-2.042.523-3.003 1.042-2.785 1.501-4.476 4.206-4.476 8.254v.498c-.001.338.014.842.06 1.46.073.995.209 1.986.423 2.92.368 1.607.931 2.9 1.771 3.777.147.153.388.444.629.811.315.482.519.945.567 1.322.007.057.011.111.011.162 0 1.14-.442 1.624-3.404 3.088-6.343 3.134-8.956 4.99-8.956 7.861l-.233 3.334a.99.99 0 0 0 .91 1.06.985.985 0 0 0 1.048-.921l.235-3.404c.002-1.73 2.473-3.484 7.857-6.144 3.563-1.761 4.505-2.793 4.505-4.874 0-.138-.009-.277-.027-.417-.093-.73-.411-1.451-.878-2.164a7.86 7.86 0 0 0-.855-1.097c-.543-.567-.974-1.556-1.268-2.842a18.069 18.069 0 0 1-.432-3.919v-.51c0-3.296 1.276-5.337 3.435-6.5a8.343 8.343 0 0 1 2.435-.842 6.755 6.755 0 0 1 1.067-.126h.486c.186.002.563.034 1.06.126a8.344 8.344 0 0 1 2.434.841c2.16 1.164 3.436 3.205 3.436 6.5v.498a18.092 18.092 0 0 1-.432 3.932c-.295 1.286-.726 2.275-1.27 2.842a7.86 7.86 0 0 0-.854 1.097c-.467.713-.785 1.434-.878 2.164-.018.14-.027.279-.027.417 0 .328.024.629.08.909h2.093z"/><rect x="32.313" y="21.313" width="2.75" height="18.563" rx="1"/><rect x="24.75" y="28.875" width="17.875" height="2.75" rx="1"/></g></svg>