<?xml version="1.0" encoding="utf-8"?>
<!-- Generator: Adobe Illustrator 17.0.2, SVG Export Plug-In . SVG Version: 6.00 Build 0)  -->
<!DOCTYPE svg PUBLIC "-//W3C//DTD SVG 1.1//EN" "http://www.w3.org/Graphics/SVG/1.1/DTD/svg11.dtd">
<svg version="1.1" id="图层_1" xmlns="http://www.w3.org/2000/svg" xmlns:xlink="http://www.w3.org/1999/xlink" x="0px" y="0px"
	 width="48px" height="48px" viewBox="0 0 48 48" enable-background="new 0 0 48 48" xml:space="preserve">
<title>内容</title>
<g>
	<path d="M10.396,27.236c-0.583,0.47-1.208,1.154-1.39,2.026c-0.246,1.19-0.051,2.68,1.097,3.848
		c1.391,1.416,3.505,1.804,4.418,1.87c2.479,0.18,5.123-1.05,7.115-2.453c0.78-0.55,2.117-1.656,3.396-3.363
		c-2.865-1.478-6.44-3.115-10.262-2.955C12.817,26.291,11.419,26.696,10.396,27.236z"/>
	<path d="M28.433,30.905c-2.056,2.344-5.097,4.695-8.53,5.716c-2.159,0.642-4.104,0.887-6.137,0.47
		c-2.014-0.412-3.498-1.354-4.362-2.3c-0.44-0.482-0.947-1.095-1.312-1.824c0.034,0.092,0.057,0.147,0.057,0.147
		s-0.21-0.363-0.371-0.941c-0.085-0.285-0.138-0.578-0.16-0.875c-0.018-0.2-0.023-0.41-0.012-0.63
		c-0.022-0.389,0.005-0.778,0.081-1.16c0.202-0.976,0.62-2.114,1.697-3.17c2.368-2.317,5.538-2.442,7.18-2.432
		c2.432,0.014,6.66,1.078,10.218,2.337c0.987-2.1,1.62-4.345,2.028-5.843h-14.8v-1.6h7.6v-3.2h-9.2V14h9.2v-3.2
		c0-0.44,0.087-0.8,0.8-0.8h3.6v4h10v1.6h-10v3.2h8c0,0-0.804,4.478-3.316,8.892c5.147,1.839,12.237,4.598,15.345,5.816
		C47.299,30.592,48,27.379,48,24C48,10.745,37.255,0,24,0S0,10.745,0,24s10.745,24,24,24c7.917,0,14.936-3.835,19.308-9.747
		C39.026,36.125,32.52,32.898,28.433,30.905z"/>
</g>
</svg>
