<svg width="42" height="42" viewBox="0 0 42 42" xmlns="http://www.w3.org/2000/svg"><title>支付宝</title><path d="M0 21c0 11.598 9.401 21 21 21 11.598 0 21-9.402 21-21S32.598 0 21 0C9.401 0 0 9.402 0 21zm1.91 0C1.91 10.456 10.455 1.91 21 1.91S40.09 10.455 40.09 21c0 3.535-.978 6.835-2.653 9.674-3.201-1.874-9.4-5.498-11.759-6.707 1.08-1.943 1.764-4.227 2.958-6.785h-6.681v-1.91h8.59v-1.908h-8.59V9.545c.012-.026-.37-.003-1.271.002-.584.003-.575.736-.575.736l-.064 3.08h-8.59v1.91h8.59v1.909h-6.681v1.909h12.033c-.79 1.98-.84 2.465-1.621 3.782.033.042-1.664-1.091-6.292-1.803-4-.615-7.855 1.347-7.99 5.201-.037 1.082.2 4.895 5.201 5.29 4.496.354 7.135-1.124 10.083-5.705 2.347 1.12 8.017 4.909 11.158 7.014-3.498 4.395-8.883 7.22-14.936 7.22-10.544 0-19.09-8.546-19.09-19.09zm20.94 3.82c-2.549 4.03-4.965 5.104-7.827 4.858-3.74-.321-3.882-3.2-3.357-4.433.694-1.627 2.646-2.658 5.52-2.18 2.063.342 3.963.938 5.664 1.754zm14.586 5.856z" fill-rule="evenodd"/></svg>