<?xml version="1.0" encoding="UTF-8" standalone="no"?>
<svg width="42px" height="42px" viewBox="0 0 42 42" version="1.1" xmlns="http://www.w3.org/2000/svg" xmlns:xlink="http://www.w3.org/1999/xlink">
    <!-- Generator: Sketch 40.1 (33804) - http://www.bohemiancoding.com/sketch -->
    <title>支付宝</title>
    <desc>Created with Sketch.</desc>
    <defs></defs>
    <g id="UI-KIT_基础元件" stroke="none" stroke-width="1" fill-rule="evenodd">
        <g id="9.9基础元件" transform="translate(-6266.000000, -3398.000000)">
            <g id="COMPONENTS" transform="translate(2402.000000, 1311.000000)">
                <g id="Tab-bar" transform="translate(3709.000000, 1764.000000)">
                    <g id="tab2" transform="translate(86.000000, 304.000000)">
                        <path d="M69,40 C69,51.5977273 78.4013182,61 90,61 C101.597727,61 111,51.5977273 111,40 C111,28.4022727 101.597727,19 90,19 C78.4013182,19 69,28.4022727 69,40 Z M70.9090909,40 C70.9090909,29.4560909 79.4560909,20.9090909 90,20.9090909 C100.543909,20.9090909 109.090909,29.4560909 109.090909,40 C109.090909,43.5346818 108.1125,46.8345455 106.437273,49.6743182 C103.235727,47.7995909 97.0378636,44.1761364 94.6782273,42.9667273 C95.7578182,41.0242273 96.4422273,38.74 97.6363636,36.1818182 L90.9545455,36.1818182 L90.9545455,34.2727273 L99.5454545,34.2727273 L99.5454545,32.3636364 L90.9545455,32.3636364 L90.9545455,28.5454545 C90.9669545,28.5187273 90.5851364,28.5416364 89.6840455,28.5473636 C89.0998636,28.5502273 89.1094091,29.2833182 89.1094091,29.2833182 L89.0454545,32.3636364 L80.4545455,32.3636364 L80.4545455,34.2727273 L89.0454545,34.2727273 L89.0454545,36.1818182 L82.3636364,36.1818182 L82.3636364,38.0909091 L94.3966364,38.0909091 C93.6072273,40.0706364 93.5575909,40.5555455 92.7758182,41.8728182 C92.8092273,41.9148182 91.1120455,40.7817727 86.4844091,40.0696818 C82.4848636,39.4549545 78.6294545,41.4175 78.4948636,45.271 C78.4566818,46.3534545 78.6943636,50.1659091 83.6952273,50.5610909 C88.1911364,50.9152273 90.8304545,49.4366364 93.7780909,44.8557727 C96.1253182,45.9764091 101.795318,49.765 104.935773,51.8697727 C101.438318,56.2654545 96.0527727,59.0909091 90,59.0909091 C79.4560909,59.0909091 70.9090909,50.5439091 70.9090909,40 Z M91.8499091,43.8191364 C89.3012727,47.8501818 86.8853182,48.9240455 84.0226364,48.6777727 C80.2836818,48.3570455 80.1405,45.4781364 80.6664545,44.2448636 C81.3604091,42.6183182 83.3124545,41.5874091 86.1856364,42.0646818 C88.2493636,42.4073636 90.1489091,43.003 91.8499091,43.8191364 L91.8499091,43.8191364 Z M106.436318,49.6762273 C105.984818,50.4417727 105.4875,51.1767727 104.936727,51.8688182 C105.4875,51.1767727 105.984818,50.4417727 106.436318,49.6762273 L106.436318,49.6762273 Z" id="支付宝"></path>
                    </g>
                </g>
            </g>
        </g>
    </g>
</svg>