<svg width="48" height="48" viewBox="0 0 48 48" xmlns="http://www.w3.org/2000/svg" xmlns:xlink="http://www.w3.org/1999/xlink"><title>内容</title><defs><circle id="a" cx="24" cy="24" r="24"/></defs><g fill="none" fill-rule="evenodd"><mask id="b" fill="#fff"><use xlink:href="#a"/></mask><use fill="#CCC" xlink:href="#a"/><path d="M47.608 37.14v1.624c0 1.6.002 1.63.002 1.63s-12.662-6.312-19.177-9.489c-2.056 2.344-5.097 4.695-8.53 5.716-2.159.642-4.104.887-6.137.47-2.014-.412-3.498-1.354-4.362-2.3-.44-.482-.947-1.095-1.312-1.824.034.092.057.147.057.147s-.21-.363-.371-.941a4.115 4.115 0 0 1-.16-.875c-.018-.2-.023-.41-.012-.63a4.619 4.619 0 0 1 .081-1.16c.202-.976.62-2.114 1.697-3.17 2.368-2.317 5.538-2.442 7.18-2.432 2.432.014 6.66 1.078 10.218 2.337.987-2.1 1.62-4.345 2.028-5.843h-14.8v-1.6h7.6v-3.2h-9.2V14h9.2v-3.2c0-.44.087-.8.8-.8h3.6v4h10v1.6h-10v3.2h8s-.804 4.478-3.316 8.892c6.772 2.42 16.914 6.434 16.914 6.434v3.015zm-37.505-4.03c1.391 1.416 3.505 1.804 4.418 1.87 2.479.18 5.123-1.05 7.115-2.453.78-.55 2.117-1.656 3.396-3.363-2.865-1.478-6.44-3.115-10.262-2.955-1.953.082-3.351.487-4.374 1.027-.583.47-1.208 1.154-1.39 2.026-.246 1.19-.051 2.68 1.097 3.848z" fill="#FFF" mask="url(#b)"/></g></svg>