<?xml version="1.0" encoding="utf-8"?>
<!-- Generator: Adobe Illustrator 17.0.2, SVG Export Plug-In . SVG Version: 6.00 Build 0)  -->
<!DOCTYPE svg PUBLIC "-//W3C//DTD SVG 1.1//EN" "http://www.w3.org/Graphics/SVG/1.1/DTD/svg11.dtd">
<svg version="1.1" id="图层_3" xmlns="http://www.w3.org/2000/svg" xmlns:xlink="http://www.w3.org/1999/xlink" x="0px" y="0px"
	 width="44px" height="44px" viewBox="0 0 44 44" enable-background="new 0 0 44 44" xml:space="preserve">
<path fill-rule="evenodd" clip-rule="evenodd" d="M10.462,13.538c0-0.552,0.44-1,0.992-1h21.094c0.548,0,0.992,0.457,0.992,1v0.77
	c0,0.552-0.44,1-0.992,1H11.453c-0.548,0-0.992-0.457-0.992-1V13.538z"/>
<path fill-rule="evenodd" clip-rule="evenodd" d="M10.462,21.846c0-0.552,0.441-1,1.001-1h17.382c0.553,0,1.001,0.457,1.001,1v0.77
	c0,0.552-0.441,1-1.001,1H11.463c-0.553,0-1.001-0.457-1.001-1V21.846z"/>
<path fill-rule="evenodd" clip-rule="evenodd" d="M10.462,31.077c0-0.552,0.445-1,0.996-1h11.855c0.55,0,0.996,0.457,0.996,1v0.77
	c0,0.552-0.445,1-0.996,1H11.457c-0.55,0-0.996-0.457-0.996-1V31.077z"/>
<path d="M38,2.385H6c-1.11,0-2,0.896-2,2V41c0,1.114,0.895,2,2,2H38c1.11,0,2-0.896,2-2V4.385
	C40,3.271,39.105,2.385,38,2.385z M36.917,39.917h-30V5.442h30V39.917z"/>
</svg>
