<svg width="64" height="64" viewBox="0 0 64 64" xmlns="http://www.w3.org/2000/svg"><title>Share Icons Copy 8</title><g transform="translate(-.333)" fill="none" fill-rule="evenodd"><circle fill="#4A4A4A" cx="19.5" cy="30.5" r="2.5"/><circle fill="#4A4A4A" cx="29.5" cy="30.5" r="2.5"/><ellipse fill="#4A4A4A" cx="39.5" cy="30.5" rx="2.5" ry="2.5"/><path d="M13.864 44.15c2.339 1.865.977 5.85.977 5.85h15.636C41.374 50 51 41.27 51 30.5S41.374 11 30.477 11C17.626 11 8 19.73 8 30.5c0 5.389 2.41 10.267 5.864 13.65z" stroke="#4A4A4A" stroke-width="3" stroke-linecap="round" stroke-linejoin="round"/><path d="M56 35c.39 1.864 1 3.97 1 6 0 4.013-1.784 7.465-4 10-2.073 1.18-1.306 4-2 4h-7c-2.18 0-6-1.2-6-1" stroke="#4A4A4A" stroke-width="3" stroke-linecap="round" stroke-linejoin="round"/></g></svg>