<?xml version="1.0" encoding="utf-8"?>
<!-- Generator: Adobe Illustrator 17.0.2, SVG Export Plug-In . SVG Version: 6.00 Build 0)  -->
<!DOCTYPE svg PUBLIC "-//W3C//DTD SVG 1.1//EN" "http://www.w3.org/Graphics/SVG/1.1/DTD/svg11.dtd">
<svg version="1.1" id="图层_1" xmlns="http://www.w3.org/2000/svg" xmlns:xlink="http://www.w3.org/1999/xlink" x="0px" y="0px"
	 width="64px" height="64px" viewBox="0 0 64 64" enable-background="new 0 0 64 64" xml:space="preserve">
<g>
	<circle cx="19.167" cy="30.5" r="2.5"/>
	<circle cx="29.167" cy="30.5" r="2.5"/>
	<circle cx="39.167" cy="30.5" r="2.5"/>
	<path d="M50.411,30.65c0-10.77-9.626-19.5-20.523-19.5c-12.851,0-22.477,8.73-22.477,19.5
		c0,5.389,2.41,10.267,5.864,13.65c0.544,0.434,0.874,0.986,1.081,1.572c0.146,0.976,0.005,1.542-0.138,1.847
		c-0.077,0.092-0.143,0.192-0.197,0.3c-0.001,0-0.005,0.004-0.005,0.004l0.002,0.001c-0.094,0.195-0.152,0.411-0.152,0.642
		c0,0.819,0.664,1.483,1.483,1.483h14.538C40.786,50.15,50.411,41.42,50.411,30.65z M29.737,47.117H17.25
		c0,0,0.433-3.365-1.543-4.94c-2.917-2.857-4.952-6.976-4.952-11.527c0-9.095,8.129-16.467,18.981-16.467
		c9.202,0,17.331,7.372,17.331,16.467C47.067,39.745,38.939,47.117,29.737,47.117z"/>
	<path d="M57.13,34.942c-0.031-0.793-0.678-1.427-1.479-1.427c-0.82,0-1.484,0.665-1.484,1.484
		c0,0.062,0.011,0.121,0.018,0.181l-0.029,0.006c0,0,1.062,4.125,1.031,5.875s-0.719,4.969-2.281,7.156s-1.716,1.941-2.062,2.281
		c-0.805,0.791-1.271,2.625-1.26,3h-6.292c0,0-1.76-0.188-3.885-0.75s-2.75-0.125-3.125,0.75s0.365,2.031,1.386,2
		s0.458,0.001,0.458,0.001s3.797,0.937,4.758,0.968s6.618-0.031,7.368,0s1.867,0.081,2.25-1.812
		c0.258-1.279,0.412-1.806,0.686-2.157c0.391-0.5,0.719-0.219,2.281-2.812s2.438-4.625,2.625-7.594
		C58.249,39.635,57.42,36.089,57.13,34.942z"/>
</g>
</svg>
