<?xml version="1.0" encoding="UTF-8" standalone="no"?>
<svg width="64px" height="64px" viewBox="0 0 64 64" version="1.1" xmlns="http://www.w3.org/2000/svg" xmlns:xlink="http://www.w3.org/1999/xlink">
    <!-- Generator: Sketch 39.1 (31720) - http://www.bohemiancoding.com/sketch -->
    <title>Share Icons  Copy 8</title>
    <desc>Created with Sketch.</desc>
    <defs></defs>
    <g id="ALL-ICON" stroke="none" stroke-width="1" fill="none" fill-rule="evenodd">
        <g id="Circle--Icons-" transform="translate(-334.000000, -53.000000)">
            <g id="Group-4-Copy" transform="translate(333.666667, 53.000000)">
                <circle id="Oval-419" fill="#4A4A4A" cx="19.5" cy="30.5" r="2.5"></circle>
                <circle id="Oval-419-Copy" fill="#4A4A4A" cx="29.5" cy="30.5" r="2.5"></circle>
                <ellipse id="Oval-419-Copy-2" fill="#4A4A4A" cx="39.5" cy="30.5" rx="2.5" ry="2.5"></ellipse>
                <path d="M13.8636364,44.15 C16.2030064,46.0151432 14.8409091,50 14.8409091,50 C14.8409091,50 26.4606125,50 30.4772727,50 C41.3741221,50 51,41.2695526 51,30.5 C51,19.7304474 41.3741221,11 30.4772727,11 C17.6258779,11 8,19.7304474 8,30.5 C8,35.8887835 10.4100525,40.7670318 13.8636364,44.15 Z" id="Oval-424" stroke="#4A4A4A" stroke-width="3" stroke-linecap="round" stroke-linejoin="round"></path>
                <path d="M56,35 C56.3904845,36.8638119 57,38.9695106 57,41 C57,45.0126176 55.2156931,48.4652562 53,51 C50.9268206,52.1796699 51.6940853,55 51,55 L44,55 C41.8202586,54.9999995 38,53.7998814 38,54" id="Oval-424-Copy" stroke="#4A4A4A" stroke-width="3" stroke-linecap="round" stroke-linejoin="round"></path>
            </g>
        </g>
    </g>
</svg>