<?xml version="1.0" encoding="utf-8"?>
<!-- Generator: Adobe Illustrator 17.0.2, SVG Export Plug-In . SVG Version: 6.00 Build 0)  -->
<!DOCTYPE svg PUBLIC "-//W3C//DTD SVG 1.1//EN" "http://www.w3.org/Graphics/SVG/1.1/DTD/svg11.dtd">
<svg version="1.1" id="图层_1" xmlns="http://www.w3.org/2000/svg" xmlns:xlink="http://www.w3.org/1999/xlink" x="0px" y="0px"
	 width="44px" height="44px" viewBox="0 0 44 44" enable-background="new 0 0 44 44" xml:space="preserve">
<path d="M23.029,3C12.772,3,4.457,11.188,4.457,21.289c0,3.699,1.124,7.136,3.041,10.013L7.477,41l7.283-3.352
	c2.493,1.224,5.294,1.93,8.269,1.93c10.257,0,18.572-8.188,18.572-18.289C41.601,11.188,33.286,3,23.029,3z M31.457,22
	c0,0.552-0.448,1-1,1h-6v6c0,0.552-0.448,1-1,1h-1c-0.552,0-1-0.448-1-1v-6h-6c-0.552,0-1-0.448-1-1v-1c0-0.552,0.448-1,1-1h6v-6
	c0-0.552,0.448-1,1-1h1c0.552,0,1,0.448,1,1v6h6c0.552,0,1,0.448,1,1V22z"/>
</svg>
