<?xml version="1.0" encoding="UTF-8" standalone="no"?>
<svg width="44px" height="44px" viewBox="0 0 44 44" version="1.1" xmlns="http://www.w3.org/2000/svg" xmlns:xlink="http://www.w3.org/1999/xlink">
    <!-- Generator: Sketch 39.1 (31720) - http://www.bohemiancoding.com/sketch -->
    <title>Operation Icons  Copy 9</title>
    <desc>Created with Sketch.</desc>
    <defs>
        <path d="M2.26530612,26.6 C2.11288269,26.8391381 3.02040816,28.88 3.02040816,28.88 L3.02040816,38 L9.81632653,34.96 C12.7537985,35.9608195 15.5460485,36.6465318 18.877551,36.48 C28.7172679,36.6465318 37,28.4429262 37,18.24 C37,8.20360557 28.7172679,0 18.877551,0 C8.28273213,0 0,8.20360557 0,18.24 C0,21.3009087 0.717111921,24.1126611 2.26530612,26.6 Z" id="path-1"></path>
        <mask id="mask-2" maskContentUnits="userSpaceOnUse" maskUnits="objectBoundingBox" x="0" y="0" width="37" height="38" fill="white">
            <use xlink:href="#path-1"></use>
        </mask>
    </defs>
    <g id="ALL-ICON" stroke="none" stroke-width="1" fill="none" fill-rule="evenodd">
        <g id="Float-Icons-" transform="translate(-265.000000, -60.000000)">
            <g id="chats" transform="translate(266.456790, 61.000000)">
                <g id="发起群聊" transform="translate(3.000000, 2.000000)">
                    <use id="Oval-102" stroke="#4A4A4A" mask="url(#mask-2)" stroke-width="6" xlink:href="#path-1"></use>
                    <g id="Path-+-Path" transform="translate(10.000000, 10.000000)" fill="#4A4A4A">
                        <rect id="Path" x="7" y="0" width="3" height="17" rx="1"></rect>
                        <rect id="Path" x="0" y="7" width="17" height="3" rx="1"></rect>
                    </g>
                </g>
            </g>
        </g>
    </g>
</svg>