<?xml version="1.0" encoding="utf-8"?>
<!-- Generator: Adobe Illustrator 17.0.2, SVG Export Plug-In . SVG Version: 6.00 Build 0)  -->
<!DOCTYPE svg PUBLIC "-//W3C//DTD SVG 1.1//EN" "http://www.w3.org/Graphics/SVG/1.1/DTD/svg11.dtd">
<svg version="1.1" id="图层_1" xmlns="http://www.w3.org/2000/svg" xmlns:xlink="http://www.w3.org/1999/xlink" x="0px" y="0px"
	 width="44px" height="44px" viewBox="0 0 44 44" enable-background="new 0 0 44 44" xml:space="preserve">
<g>
	<path d="M22.026,1c-11.598,0-21,9.402-21,21s9.402,21,21,21c11.598,0,21-9.402,21-21S33.624,1,22.026,1z M22.026,39.865
		C12.16,39.865,4.161,31.866,4.161,22S12.16,4.135,22.026,4.135c9.866,0,17.865,7.998,17.865,17.865S31.892,39.865,22.026,39.865z"
		/>
	<polygon points="18.625,27.188 12,20.5 9.875,22.688 18.875,31.562 34.25,13.438 32,11.562 	"/>
</g>
</svg>
