<?xml version="1.0" encoding="UTF-8"?>
<svg width="48px" height="48px" viewBox="0 0 48 48" version="1.1" xmlns="http://www.w3.org/2000/svg" xmlns:xlink="http://www.w3.org/1999/xlink">
    <defs></defs>
    <g id="Page-1" stroke="none" stroke-width="1" fill-rule="evenodd">
        <g id="step-48px-对勾">
            <path d="M24,48 C37.254834,48 48,37.254834 48,24 C48,10.745166 37.254834,0 24,0 C10.745166,0 0,10.745166 0,24 C0,37.254834 10.745166,48 24,48 Z M24,45 C35.5979797,45 45,35.5979797 45,24 C45,12.4020203 35.5979797,3 24,3 C12.4020203,3 3,12.4020203 3,24 C3,35.5979797 12.4020203,45 24,45 Z" id="Combined-Shape"></path>
            <polygon id="Path-3" points="12.2000122 23.2000122 10 25.2999878 20 35.2000122 37.2000122 15 35 13 19.8000031 30.7999878"></polygon>
        </g>
    </g>
</svg>
