<?xml version="1.0" encoding="UTF-8" standalone="no"?>
<svg width="44px" height="44px" viewBox="0 0 44 44" version="1.1" xmlns="http://www.w3.org/2000/svg" xmlns:xlink="http://www.w3.org/1999/xlink">
    <!-- Generator: Sketch 39.1 (31720) - http://www.bohemiancoding.com/sketch -->
    <title>Operation Icons  Copy 3</title>
    <desc>Created with Sketch.</desc>
    <defs>
        <path d="M7.54177184,28.3855991 C2.97887229,25.5481191 0.004413285,20.8993792 0.004413285,15.6458921 C0.004413285,7.00490449 8.0515134,0 17.9781144,0 C27.9047155,0 35.9518156,7.00490449 35.9518156,15.6458921 C35.9518156,24.2868797 27.9047155,31.2917842 17.9781144,31.2917842 C17.0062387,31.2917842 16.0523791,31.2246378 15.1223239,31.0953836 L8.34975151,35.9302711 C7.90351666,36.2488347 7.54177184,36.0582012 7.54177184,35.5082916 L7.54177184,28.3855991 Z" id="path-1"></path>
        <mask id="mask-2" maskContentUnits="userSpaceOnUse" maskUnits="objectBoundingBox" x="-2.5" y="-2.5" width="40.9474023" height="41.0846844">
            <rect x="-2.49558672" y="-2.5" width="40.9474023" height="41.0846844" fill="white"></rect>
            <use xlink:href="#path-1" fill="black"></use>
        </mask>
    </defs>
    <g id="ALL-ICON" stroke="none" stroke-width="1" fill="none" fill-rule="evenodd">
        <g id="Operation-Icons-" transform="translate(-592.000000, -51.000000)">
            <g id="Comment" transform="translate(596.000000, 55.000000)">
                <use id="Oval-441" stroke="#4A4A4A" mask="url(#mask-2)" stroke-width="5" xlink:href="#path-1"></use>
                <ellipse id="Oval-442-Copy-2" fill="#4A4A4A" cx="26.9237113" cy="15.0507311" rx="2.28167045" ry="2.2804138"></ellipse>
                <ellipse id="Oval-442-Copy" fill="#4A4A4A" cx="17.7970295" cy="15.0507311" rx="2.28167045" ry="2.2804138"></ellipse>
                <ellipse id="Oval-442" fill="#4A4A4A" cx="8.6703477" cy="15.0507311" rx="2.28167045" ry="2.2804138"></ellipse>
            </g>
        </g>
    </g>
</svg>