<?xml version="1.0" encoding="utf-8"?>
<!-- Generator: Adobe Illustrator 17.0.2, SVG Export Plug-In . SVG Version: 6.00 Build 0)  -->
<!DOCTYPE svg PUBLIC "-//W3C//DTD SVG 1.1//EN" "http://www.w3.org/Graphics/SVG/1.1/DTD/svg11.dtd">
<svg version="1.1" id="图层_1" xmlns="http://www.w3.org/2000/svg" xmlns:xlink="http://www.w3.org/1999/xlink" x="0px" y="0px"
	 width="44px" height="44px" viewBox="0 0 44 44" enable-background="new 0 0 44 44" xml:space="preserve">
<g>
	<circle cx="13.828" cy="19.63" r="1.938"/>
	<circle cx="21.767" cy="19.63" r="1.938"/>
	<circle cx="29.767" cy="19.63" r="1.938"/>
	<path d="M22.102,4.161c-9.918,0-17.958,7.146-17.958,15.961c0,4.935,2.522,9.345,6.481,12.273v5.667l0.038,0.012
		c0.182,1.28,1.272,2.267,2.602,2.267c0.747,0,1.419-0.313,1.899-0.812l0.002,0.001l5.026-3.539
		c0.628,0.059,1.265,0.093,1.911,0.093c9.918,0,17.958-7.146,17.958-15.961C40.06,11.307,32.02,4.161,22.102,4.161z M22.062,34.062
		c-0.902,0-1.781-0.081-2.642-0.207l-5.882,4.234c-0.024,0.025-0.055,0.04-0.083,0.06l-0.008,0.006l0,0
		c-0.083,0.055-0.177,0.095-0.284,0.095c-0.29,0-0.525-0.235-0.525-0.525l0.005-6.375c-3.91-2.516-6.456-6.544-6.456-11.1
		c0-7.628,7.107-13.812,15.875-13.812s15.875,6.184,15.875,13.812S30.83,34.062,22.062,34.062z"/>
</g>
</svg>
