<svg width="44" height="44" viewBox="0 0 44 44" xmlns="http://www.w3.org/2000/svg" xmlns:xlink="http://www.w3.org/1999/xlink"><title>Operation Icons Copy 3</title><defs><path d="M7.542 28.386C2.979 25.548.004 20.899.004 15.646.004 7.005 8.052 0 17.978 0c9.927 0 17.974 7.005 17.974 15.646 0 8.64-8.047 15.646-17.974 15.646-.972 0-1.926-.067-2.856-.197L8.35 35.93c-.446.319-.808.128-.808-.422v-7.122z" id="a"/><mask id="b" x="-2.5" y="-2.5" width="40.947" height="41.085"><path fill="#fff" d="M-2.496-2.5h40.947v41.085H-2.496z"/><use xlink:href="#a"/></mask></defs><g transform="translate(4 4)" fill="none" fill-rule="evenodd"><use stroke="#4A4A4A" mask="url(#b)" stroke-width="5" xlink:href="#a"/><ellipse fill="#4A4A4A" cx="26.924" cy="15.051" rx="2.282" ry="2.28"/><ellipse fill="#4A4A4A" cx="17.797" cy="15.051" rx="2.282" ry="2.28"/><ellipse fill="#4A4A4A" cx="8.67" cy="15.051" rx="2.282" ry="2.28"/></g></svg>