<svg width="44" height="44" viewBox="0 0 44 44" xmlns="http://www.w3.org/2000/svg"><title>Pop down menu Icons Copy 2</title><path d="M28.776 4.424C26.508 3.474 24.806 2 22.118 2c-1.134 0-2.267.245-3.033.553C14.062 4.545 9.366 7.623 3 8.803c0 20.112 9.562 27.42 19.118 33.18C33.316 36.35 41.075 24.701 41 8.803c-4.598-.76-8.49-2.815-12.223-4.38zM20 11.975c0-1.1.888-1.992 2-1.992 1.105 0 2 .894 2 1.992v11.016c0 1.1-.888 1.992-2 1.992-1.105 0-2-.893-2-1.992V11.975zm0 18.008c0-1.104.888-2 2-2 1.105 0 2 .888 2 2 0 1.105-.888 2-2 2-1.105 0-2-.888-2-2z"  fill-rule="evenodd"/></svg>