<?xml version="1.0" encoding="UTF-8" standalone="no"?>
<svg width="64px" height="64px" viewBox="0 0 64 64" version="1.1" xmlns="http://www.w3.org/2000/svg" xmlns:xlink="http://www.w3.org/1999/xlink">
    <!-- Generator: Sketch 39.1 (31720) - http://www.bohemiancoding.com/sketch -->
    <title>Share Icons  Copy 3</title>
    <desc>Created with Sketch.</desc>
    <defs></defs>
    <g id="ALL-ICON" stroke="none" stroke-width="1" fill="none" fill-rule="evenodd">
        <g id="Share-Icons-" transform="translate(-835.000000, -50.000000)">
            <g id="Complaints" transform="translate(837.000000, 52.000000)">
                <rect id="Rectangle-2" fill="#D8D8D8" opacity="0" x="0" y="0" width="60" height="60"></rect>
                <path d="M57.5796958,38.8888889 L39.1932803,7.11111111 C37.1348337,3.38221699 33.7229198,1 29.3871921,1 C26.2777415,1 22.8658277,3.38221699 20.8068648,7.11111111 L2.42044938,38.8888889 C-0.368030868,43.5254456 -0.706280945,47.7007423 1.19468834,51.1111111 C3.01569545,54.2081426 5.57217972,56 11.0007766,56 L47.7736075,56 C53.2017123,56 56.9837404,54.2081426 58.8054568,51.1111111 C60.7057167,47.7007423 60.3686922,43.5266679 57.5796958,38.8888889 L57.5796958,38.8888889 Z M55.1281737,49.8888889 C54.4929402,51.5835343 51.3257865,52.3333333 47.7736075,52.3333333 L11.0007766,52.3333333 C7.41004821,52.3333333 5.50754807,51.5835343 4.87197144,49.8888889 C3.15978194,47.4785989 3.49710466,44.6274057 4.87197144,41.3333333 L23.2583869,9.55555556 C25.3740163,6.38765717 27.6518647,4.66666667 29.3871921,4.66666667 C32.3486236,4.66666667 34.6264719,6.38765717 36.7417583,9.55555556 L55.1281737,41.3333333 C56.5021569,44.6274057 56.8407063,47.4785989 55.1281737,49.8888889 L55.1281737,49.8888889 Z M29.3871921,16.8888889 C28.9834837,16.8888889 28.161431,17.7247414 28.161431,19.3333333 L28.161431,35.2222222 C28.161431,36.8308142 28.9834837,37.6666667 29.3871921,37.6666667 C31.0154418,37.6666667 31.8387141,36.8308142 31.8387141,35.2222222 L31.8387141,19.3333333 C31.8387141,17.7247414 31.0154418,16.8888889 29.3871921,16.8888889 L29.3871921,16.8888889 Z M29.3871921,40.1111111 C28.9834837,40.1111111 28.161431,40.8987789 28.161431,41.3333333 L28.161431,43.7777778 C28.161431,44.2123322 28.9834837,45 29.3871921,45 C31.0154418,45 31.8387141,44.2123322 31.8387141,43.7777778 L31.8387141,41.3333333 C31.8387141,40.8987789 31.0154418,40.1111111 29.3871921,40.1111111 L29.3871921,40.1111111 Z" id="投诉" fill="#4A4A4A"></path>
            </g>
        </g>
    </g>
</svg>