<?xml version="1.0" encoding="utf-8"?>
<!-- Generator: Adobe Illustrator 17.0.2, SVG Export Plug-In . SVG Version: 6.00 Build 0)  -->
<!DOCTYPE svg PUBLIC "-//W3C//DTD SVG 1.1//EN" "http://www.w3.org/Graphics/SVG/1.1/DTD/svg11.dtd">
<svg version="1.1" id="图层_2" xmlns="http://www.w3.org/2000/svg" xmlns:xlink="http://www.w3.org/1999/xlink" x="0px" y="0px"
	 width="44px" height="44px" viewBox="0 0 44 44" enable-background="new 0 0 44 44" xml:space="preserve">
<g>
	<path d="M42.133,35.44l0.003-0.005L23.845,3.963c-0.075-0.179-0.176-0.343-0.289-0.497l-0.013-0.022h-0.005
		c-0.455-0.607-1.173-1.006-1.99-1.006s-1.536,0.399-1.99,1.006H19.55L19.535,3.47c-0.111,0.153-0.21,0.314-0.285,0.49L1.174,35.094
		c-0.205,0.236-0.365,0.509-0.471,0.811l-0.012,0.021l0.004,0.006c-0.084,0.25-0.14,0.513-0.14,0.791
		c0,1.286,0.978,2.333,2.229,2.466l0.005,0.008l0.071,0c0.063,0.005,0.123,0.019,0.187,0.019c0.063,0,0.123-0.014,0.185-0.019
		l36.773,0.019c1.377,0,2.493-1.116,2.493-2.493C42.498,36.251,42.36,35.816,42.133,35.44z M3.833,36.208L21.512,5.875
		l17.571,30.333H3.833z"/>
	<path d="M19.73,16.235c0,1.085,0.895,8.037,2,8.037c1.105,0,2-6.952,2-8.037c0-1.084-0.895-1.963-2-1.963
		C20.625,14.272,19.73,15.151,19.73,16.235z"/>
	<circle cx="21.73" cy="29.472" r="2"/>
</g>
</svg>
