<?xml version="1.0" encoding="UTF-8" standalone="no"?>
<svg width="44px" height="44px" viewBox="0 0 44 44" version="1.1" xmlns="http://www.w3.org/2000/svg" xmlns:xlink="http://www.w3.org/1999/xlink">
    <!-- Generator: Sketch 39.1 (31720) - http://www.bohemiancoding.com/sketch -->
    <title>Pop down menu Icons  Copy 2</title>
    <desc>Created with Sketch.</desc>
    <defs></defs>
    <g id="ALL-ICON" stroke="none" stroke-width="1" fill="none" fill-rule="evenodd">
        <g id="Pop-down-menu-Icons-" transform="translate(-476.000000, -53.000000)" fill="#4A4A4A">
            <g id="Group" transform="translate(103.000000, 54.000000)">
                <g id="Complain" transform="translate(376.000000, 1.000000)">
                    <path d="M25.7759386,2.42360925 C23.5081711,1.47315074 21.8051815,0 19.1183662,0 C17.9839153,0 16.8505997,0.244891908 16.0853246,0.553065899 C11.0616266,2.54519549 6.36645511,5.62231526 0,6.80281785 C0,26.9150471 9.56150939,34.2238526 19.1183672,39.9831885 C30.3161253,34.3496473 38.0747228,22.7007439 37.9994572,6.80281785 C33.4006811,6.04329272 29.5085411,3.98826582 25.7759386,2.42360925 Z M17,9.97507266 C17,8.8749854 17.8877296,7.98318847 19,7.98318847 C20.1045695,7.98318847 21,8.8765858 21,9.97507266 L21,20.9913043 C21,22.0913915 20.1122704,22.9831885 19,22.9831885 C17.8954305,22.9831885 17,22.0897911 17,20.9913043 L17,9.97507266 Z M17,27.9831885 C17,26.878619 17.8877296,25.9831885 19,25.9831885 C20.1045695,25.9831885 21,26.8709181 21,27.9831885 C21,29.087758 20.1122704,29.9831885 19,29.9831885 C17.8954305,29.9831885 17,29.0954588 17,27.9831885 Z" id="投诉"></path>
                </g>
            </g>
        </g>
    </g>
</svg>