<svg width="48" height="48" viewBox="0 0 48 48" xmlns="http://www.w3.org/2000/svg"><g fill-rule="evenodd"><path d="M24 48c13.255 0 24-10.745 24-24S37.255 0 24 0 0 10.745 0 24s10.745 24 24 24zm0-3c11.598 0 21-9.402 21-21S35.598 3 24 3 3 12.402 3 24s9.402 21 21 21z"/><path d="M24.34 22.219l-7.775-7.774a1.499 1.499 0 1 0-2.121 2.121l7.774 7.774-7.774 7.775a1.499 1.499 0 1 0 2.12 2.12l7.775-7.773 7.775 7.774a1.499 1.499 0 1 0 2.121-2.121L26.46 24.34l7.774-7.774a1.499 1.499 0 1 0-2.121-2.121l-7.775 7.774z"/></g></svg>