<?xml version="1.0" encoding="utf-8"?>
<!-- Generator: Adobe Illustrator 17.0.2, SVG Export Plug-In . SVG Version: 6.00 Build 0)  -->
<!DOCTYPE svg PUBLIC "-//W3C//DTD SVG 1.1//EN" "http://www.w3.org/Graphics/SVG/1.1/DTD/svg11.dtd">
<svg version="1.1" id="图层_2" xmlns="http://www.w3.org/2000/svg" xmlns:xlink="http://www.w3.org/1999/xlink" x="0px" y="0px"
	 width="44px" height="44px" viewBox="0 0 44 44" enable-background="new 0 0 44 44" xml:space="preserve">
<path fill-rule="evenodd" clip-rule="evenodd" d="M22,42c11.046,0,20-8.954,20-20S33.046,2,22,2S2,10.954,2,22S10.954,42,22,42z
	 M22.074,19.698l-5.917-5.917c-0.652-0.652-1.704-0.653-2.352-0.005c-0.653,0.653-0.646,1.701,0.005,2.352l5.917,5.917l-6.064,6.064
	c-0.594,0.594-0.597,1.554,0.002,2.153c0.595,0.595,1.559,0.596,2.153,0.002l6.064-6.064l5.961,5.961
	c0.652,0.652,1.704,0.653,2.352,0.005c0.653-0.653,0.646-1.701-0.005-2.352l-5.961-5.961l5.828-5.828
	c0.594-0.594,0.597-1.554-0.002-2.153c-0.595-0.595-1.559-0.596-2.153-0.002L22.074,19.698z"/>
</svg>
