<svg viewBox="0 0 1195 1195" xmlns="http://www.w3.org/2000/svg"><path d="M643.333 640l195-191q9-10 9.5-23t-8.5-23q-10-9-23-9t-23 9l-196 192-196-192q-10-9-23-9t-23 10q-9 9-9 22.5t10 22.5l195 191-195 191q-9 10-9.5 23t8.5 23q10 9 23 9t23-9l196-192 196 192q10 9 23 9t23-10q9-9 9-22.5t-10-22.5zm-46-448q91 0 174 35 81 34 143 96t96 143q35 83 35 174t-35 174q-34 81-96 143t-143 96q-83 35-174 35t-174-35q-81-34-143-96t-96-143q-35-83-35-174t35-174q34-81 96-143t143-96q83-35 174-35zm0-64q-139 0-257 68.5T153.833 383t-68.5 257 68.5 257 186.5 186.5 257 68.5 257-68.5 186.5-186.5 68.5-257-68.5-257-186.5-186.5-257-68.5z"/></svg>