<?xml version="1.0" encoding="UTF-8" standalone="no"?>
<svg width="44px" height="44px" viewBox="0 0 44 44" version="1.1" xmlns="http://www.w3.org/2000/svg" xmlns:xlink="http://www.w3.org/1999/xlink">
    <!-- Generator: Sketch 39.1 (31720) - http://www.bohemiancoding.com/sketch -->
    <title>System Icons Copy 7</title>
    <desc>Created with Sketch.</desc>
    <defs></defs>
    <g id="ALL-ICON" stroke="none" stroke-width="1" fill="none" fill-rule="evenodd">
        <g id="System-Icons" transform="translate(-1263.000000, -62.000000)">
            <g id="titlebar_delete" transform="translate(1262.000000, 61.000000)">
                <rect id="Rectangle-45" fill="#D8D8D8" opacity="0" x="0" y="0" width="44" height="44"></rect>
                <path d="M14.1280302,5 L14,5 L14,9 L4.50494945,9 C3.67691803,9 3,9.67157288 3,10.5 C3,11.3342028 3.67378882,12 4.50494945,12 L7,12 L7,40 C7,41.0035714 8.35,42 10,42 L10,12 L36,12 L36,42 C37.65,42 39,41.0035714 39,40 L39,12 L40.4950505,12 C41.323082,12 42,11.3284271 42,10.5 C42,9.66579723 41.3262112,9 40.4950505,9 L32,9 L32,5 L31.8719698,5 C31.5660445,3.8377678 30.7529456,3 29.8823529,3 L16.1176471,3 C15.2470544,3 14.4339555,3.8377678 14.1280302,5 Z M17,6 L17,9 L29,9 L29,6 L17,6 Z M29,17.5037099 C29,16.6732339 29.6657972,16 30.5,16 C31.3284271,16 32,16.661977 32,17.5037099 L32,32.4962901 C32,33.3267661 31.3342028,34 30.5,34 C29.6715729,34 29,33.338023 29,32.4962901 L29,17.5037099 Z M14,17.5037099 C14,16.6732339 14.6657972,16 15.5,16 C16.3284271,16 17,16.661977 17,17.5037099 L17,32.4962901 C17,33.3267661 16.3342028,34 15.5,34 C14.6715729,34 14,33.338023 14,32.4962901 L14,17.5037099 Z M21,17.5037099 C21,16.6732339 21.6657972,16 22.5,16 C23.3284271,16 24,16.661977 24,17.5037099 L24,32.4962901 C24,33.3267661 23.3342028,34 22.5,34 C21.6715729,34 21,33.338023 21,32.4962901 L21,17.5037099 Z M10,39 L36,39 L36,42 L10,42 L10,39 Z" id="Fill-1" fill="#4A4A4A"></path>
            </g>
        </g>
    </g>
</svg>