<?xml version="1.0" encoding="UTF-8" standalone="no"?>
<svg width="44px" height="44px" viewBox="0 0 44 44" version="1.1" xmlns="http://www.w3.org/2000/svg" xmlns:xlink="http://www.w3.org/1999/xlink">
    <!-- Generator: Sketch 39.1 (31720) - http://www.bohemiancoding.com/sketch -->
    <title>Pop down menu Icons  Copy 5</title>
    <desc>Created with Sketch.</desc>
    <defs></defs>
    <g id="ALL-ICON" stroke="none" stroke-width="1" fill="none" fill-rule="evenodd">
        <g id="Pop-down-menu-Icons-" transform="translate(-1036.000000, -53.000000)" fill="#4A4A4A">
            <g id="Group" transform="translate(103.000000, 54.000000)">
                <g id="Delete" transform="translate(934.000000, 0.000000)">
                    <path d="M36,12 L36,37.0039514 C36,39.7631929 33.7696334,42 30.9955644,42 L11.0044356,42 C8.24056212,42 6,39.7573497 6,37.0039514 L6,12 L2.50151253,12 C1.12339854,12 0,10.8807119 0,9.5 C0,8.10966206 1.11996531,7 2.50151253,7 L39.4984875,7 C40.8766015,7 42,8.11928813 42,9.5 C42,10.8903379 40.8800347,12 39.4984875,12 L36,12 Z M13,2 C13,3.1045695 13.8945138,4 14.9940603,4 L27.0059397,4 C28.1072288,4 29,3.11227036 29,2 C29,0.8954305 28.1054862,0 27.0059397,0 L14.9940603,0 C13.8927712,0 13,0.887729645 13,2 Z M15.5,36 C16.3284271,36 17,35.056877 17,33.9096651 L17,17.0903349 C17,15.9358748 16.3342028,15 15.5,15 C14.6715729,15 14,15.943123 14,17.0903349 L14,33.9096651 C14,35.0641252 14.6657972,36 15.5,36 Z M26.5,36 C27.3284271,36 28,35.056877 28,33.9096651 L28,17.0903349 C28,15.9358748 27.3342028,15 26.5,15 C25.6715729,15 25,15.943123 25,17.0903349 L25,33.9096651 C25,35.0641252 25.6657972,36 26.5,36 Z" id="删除"></path>
                </g>
            </g>
        </g>
    </g>
</svg>