<svg width="44" height="44" viewBox="0 0 44 44" xmlns="http://www.w3.org/2000/svg"><title>Pop down menu Icons Copy 5</title><path d="M37 13v25.004C37 40.764 34.77 43 31.996 43H12.004A5.004 5.004 0 0 1 7 38.004V13H3.502A2.503 2.503 0 0 1 1 10.5C1 9.11 2.12 8 3.502 8h36.996A2.503 2.503 0 0 1 43 10.5c0 1.39-1.12 2.5-2.502 2.5H37zM14 3c0 1.105.895 2 1.994 2h12.012A1.992 1.992 0 0 0 30 3c0-1.105-.895-2-1.994-2H15.994A1.992 1.992 0 0 0 14 3zm2.5 34c.828 0 1.5-.943 1.5-2.09V18.09c0-1.154-.666-2.09-1.5-2.09-.828 0-1.5.943-1.5 2.09v16.82c0 1.154.666 2.09 1.5 2.09zm11 0c.828 0 1.5-.943 1.5-2.09V18.09c0-1.154-.666-2.09-1.5-2.09-.828 0-1.5.943-1.5 2.09v16.82c0 1.154.666 2.09 1.5 2.09z" fill-rule="evenodd"/></svg>