<?xml version="1.0" encoding="UTF-8" standalone="no"?>
<svg width="44px" height="44px" viewBox="0 0 44 44" version="1.1" xmlns="http://www.w3.org/2000/svg" xmlns:xlink="http://www.w3.org/1999/xlink">
    <!-- Generator: Sketch 39.1 (31720) - http://www.bohemiancoding.com/sketch -->
    <title>Operation Icons  Copy 16</title>
    <desc>Created with Sketch.</desc>
    <defs></defs>
    <g id="ALL-ICON" stroke="none" stroke-width="1" fill="none" fill-rule="evenodd">
        <g id="Float-Icons-" transform="translate(-1426.000000, -60.000000)">
            <g id="titlebar_edit" transform="translate(1426.654321, 61.000000)">
                <rect id="Rectangle-132" fill="#D8D8D8" opacity="0" x="0" y="0" width="42" height="42"></rect>
                <g id="edit" transform="translate(2.863636, 2.863636)" fill="#4A4A4A">
                    <path d="M29.5073648,0.048951049 L3.60345231,0.048951049 C1.60222814,0.048951049 0,1.66328056 0,3.65465692 L0,32.6670214 C0,34.6694971 1.61332055,36.2727273 3.60345231,36.2727273 L32.5976841,36.2727273 C34.5989082,36.2727273 36.2011364,34.6583978 36.2011364,32.6670214 L36.2011364,7.72592986 L36.2011364,11.7972028 L33.2659091,11.7972028 L33.2659091,2.98601399 L26.4170455,2.98601399 L26.4170455,0.048951049 L29.5073648,0.048951049 Z M2.93522727,2.98601399 L33.2659091,2.98601399 L33.2659091,33.3356643 L2.93522727,33.3356643 L2.93522727,2.98601399 Z" id="Combined-Shape"></path>
                    <ellipse id="Fill-1" cx="13.6977273" cy="23.5454545" rx="1.95681818" ry="1.95804196"></ellipse>
                    <rect id="Rectangle-2200" transform="translate(27.070488, 10.779211) rotate(-315.000000) translate(-27.070488, -10.779211) " x="25.6028743" y="-2.9270827" width="2.93522727" height="27.4125874" rx="1.46761364"></rect>
                </g>
            </g>
        </g>
    </g>
</svg>