<?xml version="1.0" encoding="utf-8"?>
<!-- Generator: Adobe Illustrator 17.0.2, SVG Export Plug-In . SVG Version: 6.00 Build 0)  -->
<!DOCTYPE svg PUBLIC "-//W3C//DTD SVG 1.1//EN" "http://www.w3.org/Graphics/SVG/1.1/DTD/svg11.dtd">
<svg version="1.1" id="图层_2" xmlns="http://www.w3.org/2000/svg" xmlns:xlink="http://www.w3.org/1999/xlink" x="0px" y="0px"
	 width="64px" height="64px" viewBox="0 0 64 64" enable-background="new 0 0 64 64" xml:space="preserve">
<path d="M55.511,35c-0.751,0-1.361,0.578-1.425,1.312h-0.003v0.028c-0.002,0.033-0.01,0.064-0.01,0.097
	s0.008,0.065,0.01,0.097v9.002c0,1.913-1.641,3.464-3.664,3.464H13.164c-2.024,0-3.664-1.551-3.664-3.464V17.964
	c0-1.913,1.641-3.464,3.664-3.464h37.255c2.024,0,3.664,1.551,3.664,3.464v1.629c0,0.858-0.227,1.273-0.479,1.573
	c-0.045,0.021-0.393,0.413-0.438,0.438l-0.875,0.5L33.875,32.5L15.107,20.844c-0.82-0.511-1.862-0.319-2.327,0.428
	c-0.465,0.747-0.178,1.767,0.642,2.277l19.031,11.855c0.072,0.045,0.148,0.078,0.223,0.112c0.517,0.287,1.195,0.302,1.788-0.028
	l19.622-10.893c0.899-0.564,1.313-0.987,1.425-1.127c1.614-1.891,1.411-4.156,1.411-4.156V17.63c0-3.362-2.778-6.088-6.206-6.088
	H12.794c-3.427,0-6.205,2.726-6.205,6.088v28.243c0,3.362,2.778,6.088,6.205,6.088h37.922c3.427,0,6.206-2.726,6.206-6.088v-9.174
	c0.016-0.085,0.026-0.172,0.026-0.261C56.948,35.644,56.305,35,55.511,35z"/>
</svg>
