<?xml version="1.0" encoding="UTF-8" standalone="no"?>
<svg width="44px" height="44px" viewBox="0 0 44 44" version="1.1" xmlns="http://www.w3.org/2000/svg" xmlns:xlink="http://www.w3.org/1999/xlink">
    <!-- Generator: Sketch 39.1 (31720) - http://www.bohemiancoding.com/sketch -->
    <title>Operation Icons  Copy 5</title>
    <desc>Created with Sketch.</desc>
    <defs></defs>
    <g id="ALL-ICON" stroke="none" stroke-width="1" fill="none" fill-rule="evenodd">
        <g id="Operation-Icons-" transform="translate(-924.000000, -53.000000)">
            <g id="map" transform="translate(925.000000, 54.000000)">
                <rect id="Rectangle-138" fill="#D8D8D8" opacity="0" x="0" y="0" width="42" height="42"></rect>
                <g id="Group-4" transform="translate(6.000000, 2.000000)" stroke="#4A4A4A" stroke-width="3">
                    <path d="M15,37.546505 C15,37.546505 30,23.2842712 30,15 C30,6.71572875 23.2842712,0 15,0 C6.71572875,0 0,6.71572875 0,15 C0,23.2842712 15,37.546505 15,37.546505 Z" id="Oval-24"></path>
                    <path d="M15,22 C18.8659932,22 22,18.8659932 22,15 C22,11.1340068 18.8659932,8 15,8 C11.1340068,8 8,11.1340068 8,15 C8,18.8659932 11.1340068,22 15,22 Z" id="Oval-25"></path>
                </g>
            </g>
        </g>
    </g>
</svg>