<svg width="64" height="64" viewBox="0 0 64 64" xmlns="http://www.w3.org/2000/svg"><title>Share Icons</title><path d="M32.526 22c.382-.228.363-.251 0 0 .321-.324.295-.369 0 0 .234-.451.203-.486 0 0 .138-.558.105-.594 0-1.053.03.39-.012.359 0 0-.09.3-.128.273 0 0-.218.217-.27.19 0 0-.352.153-.375.136 0 0-.415.12-.429.118 0 0-.5.09-.56.074-1.052 0 .391.049.353.036 0 0 .251.018.191.013 0 0 .088.006.047 0 0 0-.053 0-.113.007 0 0-.215.017-.258.02 0 0-.353.036-.405.052 0 0-.507.08-.557.093-1.053 0 .432.117.418.12 0 0 .371.137.346.156 0 0 .267.194.217.218 0 0 .128.273.089.301 0 0 .01.36-.03.39 0 0-.105.459-.138.496 0 1.053-.204-.485-.234-.451 0 0-.294-.369-.32-.324 0 0-.363-.251-.383-.228 0 0l-9.474 17.895c-.22.795.139 1.65 1.053 2.105.097-.041.317 0 1.053 0 .088 0 .667-.319 1.052-1.053l3.158-5.263h8.421l3.158 5.263c.384.734.964 1.053 1.053 1.053.734 0 .955-.041 1.052 0 .915-.454 1.273-1.31 1.053-2.105L32.526 22zm-4.21 10.526l3.158-6.315 3.158 6.315h-6.316zM59.895 13.58c1.146.207 2.105-.752 2.105-2.105V4.105A2.127 2.127 0 0 0 59.895 2h-7.369c-1.353 0-2.312.959-2.105 2.105v2.106H13.58V4.105C13.786 2.96 12.827 2 11.474 2H4.105A2.127 2.127 0 0 0 2 4.105v7.369c0 1.353.959 2.312 2.105 2.105h2.106V50.42H4.105C2.96 50.214 2 51.173 2 52.526v7.369C2 61.04 2.959 62 4.105 62h7.369c1.353 0 2.312-.959 2.105-2.105v-2.106H50.42v2.106C50.214 61.04 51.173 62 52.526 62h7.369A2.127 2.127 0 0 0 62 59.895v-7.369c0-1.353-.959-2.312-2.105-2.105h-2.106V13.58h2.106zM5.158 5.158h5.263v5.263H5.158V5.158zm0 48.42h5.263v5.264H5.158V53.58zm45.263-1.052v2.106H13.58v-2.106c.1-1.24-.864-2.205-2.105-2.105H9.368V13.58h2.106c1.24.1 2.205-.864 2.105-2.105V9.368H50.42v2.106c-.1 1.24.864 2.205 2.105 2.105h2.106V50.42h-2.106c-1.24-.1-2.205.864-2.105 2.105zm3.158 1.053h5.263v5.263H53.58V53.58zm0-48.421h5.263v5.263H53.58V5.158z" fill-rule="evenodd"/></svg>