<?xml version="1.0" encoding="UTF-8" standalone="no"?>
<svg width="64px" height="64px" viewBox="0 0 64 64" version="1.1" xmlns="http://www.w3.org/2000/svg" xmlns:xlink="http://www.w3.org/1999/xlink">
    <!-- Generator: Sketch 39.1 (31720) - http://www.bohemiancoding.com/sketch -->
    <title>Share Icons </title>
    <desc>Created with Sketch.</desc>
    <defs></defs>
    <g id="ALL-ICON" stroke="none" stroke-width="1" fill="none" fill-rule="evenodd">
        <g id="Share-Icons-" transform="translate(-86.000000, -50.000000)">
            <g id="font-size" transform="translate(88.000000, 52.000000)">
                <rect id="Rectangle" fill="#D8D8D8" opacity="0" x="0" y="0" width="60" height="60"></rect>
                <path d="M30.5263158,20 C30.9081595,19.7718895 30.8892016,19.7487524 30.5263158,20 C30.8470731,19.6761862 30.8207428,19.6309637 30.5263158,20 C30.7596565,19.5489323 30.7291133,19.5142267 30.5263158,20 C30.6638142,19.4416604 30.6311646,19.4059031 30.5263158,18.9473684 C30.5553333,19.3364919 30.514258,19.305993 30.5263158,18.9473684 C30.4352671,19.2470987 30.3984047,19.2197549 30.5263158,18.9473684 C30.3078284,19.1640155 30.2551678,19.1377234 30.5263158,18.9473684 C30.1740704,19.0998628 30.1508998,19.0830358 30.5263158,18.9473684 C30.1108777,19.0662088 30.0971859,19.0651571 30.5263158,18.9473684 C30.0266207,19.0378133 29.9665876,19.0209864 29.4736842,18.9473684 C29.8654792,18.9957459 29.8265104,18.9831257 29.4736842,18.9473684 C29.725402,18.9652471 29.6653689,18.9599886 29.4736842,18.9473684 C29.562154,18.9526268 29.5210788,18.9473684 29.4736842,18.9473684 C29.4210236,18.9473684 29.3609905,18.9536785 29.4736842,18.9473684 C29.2588289,18.9641954 29.2156472,18.9662988 29.4736842,18.9473684 C29.1208581,18.9831257 29.0692507,18.998901 29.4736842,18.9473684 C28.9670891,19.0262448 28.9165349,19.0399167 28.4210526,18.9473684 C28.8533421,19.0641055 28.8385972,19.0662088 28.4210526,18.9473684 C28.7922558,19.0840875 28.7669787,19.1030178 28.4210526,18.9473684 C28.6879878,19.1408785 28.6384868,19.1650672 28.4210526,18.9473684 C28.5489638,19.2197549 28.5099949,19.2481503 28.4210526,18.9473684 C28.431004,19.3070447 28.3909819,19.3375436 28.4210526,18.9473684 C28.3162038,19.4059031 28.282501,19.4427121 28.4210526,20 C28.2172019,19.5152784 28.1866587,19.5489323 28.4210526,20 C28.1266256,19.6309637 28.1002953,19.6761862 28.4210526,20 C28.0581668,19.7487524 28.0381558,19.7718895 28.4210526,20 L18.9473684,37.8947368 C18.7277585,38.6896004 19.0858507,39.5456721 20,40 C20.0969345,39.9589843 20.3170559,40 21.0526316,40 C21.140668,40 21.7199348,39.6813394 22.1052632,38.9473684 L25.2631579,33.6842105 L33.6842105,33.6842105 L36.8421053,38.9473684 C37.2263804,39.6813394 37.8056472,40 37.8947368,40 C38.6292593,40 38.8504339,39.9589843 38.9473684,40 C39.8615178,39.5456721 40.21961,38.6896004 40,37.8947368 L30.5263158,20 L30.5263158,20 Z M26.3157895,30.5263158 L29.4736842,24.2105263 L32.6315789,30.5263158 L26.3157895,30.5263158 L26.3157895,30.5263158 Z M57.8947368,11.5789474 C59.0410714,11.7857143 60,10.8267857 60,9.47368421 L60,2.10526316 C60,0.958928571 59.0410714,0 57.8947368,0 L50.5263158,0 C49.1732143,0 48.2142857,0.958928571 48.4210526,2.10526316 L48.4210526,4.21052632 L11.5789474,4.21052632 L11.5789474,2.10526316 C11.7857143,0.958928571 10.8267857,0 9.47368421,0 L2.10526316,0 C0.958928571,0 0,0.958928571 0,2.10526316 L0,9.47368421 C0,10.8267857 0.958928571,11.7857143 2.10526316,11.5789474 L4.21052632,11.5789474 L4.21052632,48.4210526 L2.10526316,48.4210526 C0.958928571,48.2142857 0,49.1732143 0,50.5263158 L0,57.8947368 C0,59.0410714 0.958928571,60 2.10526316,60 L9.47368421,60 C10.8267857,60 11.7857143,59.0410714 11.5789474,57.8947368 L11.5789474,55.7894737 L48.4210526,55.7894737 L48.4210526,57.8947368 C48.2142857,59.0410714 49.1732143,60 50.5263158,60 L57.8947368,60 C59.0410714,60 60,59.0410714 60,57.8947368 L60,50.5263158 C60,49.1732143 59.0410714,48.2142857 57.8947368,48.4210526 L55.7894737,48.4210526 L55.7894737,11.5789474 L57.8947368,11.5789474 L57.8947368,11.5789474 Z M3.15789474,3.15789474 L8.42105263,3.15789474 L8.42105263,8.42105263 L3.15789474,8.42105263 L3.15789474,3.15789474 Z M3.15789474,51.5789474 L8.42105263,51.5789474 L8.42105263,56.8421053 L3.15789474,56.8421053 L3.15789474,51.5789474 Z M48.4210526,50.5263158 L48.4210526,52.6315789 L11.5789474,52.6315789 L11.5789474,50.5263158 C11.679198,49.2853383 10.7146617,48.320802 9.47368421,48.4210526 L7.36842105,48.4210526 L7.36842105,11.5789474 L9.47368421,11.5789474 C10.7146617,11.679198 11.679198,10.7146617 11.5789474,9.47368421 L11.5789474,7.36842105 L48.4210526,7.36842105 L48.4210526,9.47368421 C48.320802,10.7146617 49.2853383,11.679198 50.5263158,11.5789474 L52.6315789,11.5789474 L52.6315789,48.4210526 L50.5263158,48.4210526 C49.2853383,48.320802 48.320802,49.2853383 48.4210526,50.5263158 L48.4210526,50.5263158 Z M51.5789474,51.5789474 L56.8421053,51.5789474 L56.8421053,56.8421053 L51.5789474,56.8421053 L51.5789474,51.5789474 Z M51.5789474,3.15789474 L56.8421053,3.15789474 L56.8421053,8.42105263 L51.5789474,8.42105263 L51.5789474,3.15789474 Z" id="字号" fill="#4A4A4A"></path>
            </g>
        </g>
    </g>
</svg>