<?xml version="1.0" encoding="utf-8"?>
<!-- Generator: Adobe Illustrator 17.0.2, SVG Export Plug-In . SVG Version: 6.00 Build 0)  -->
<!DOCTYPE svg PUBLIC "-//W3C//DTD SVG 1.1//EN" "http://www.w3.org/Graphics/SVG/1.1/DTD/svg11.dtd">
<svg version="1.1" id="图层_1" xmlns="http://www.w3.org/2000/svg" xmlns:xlink="http://www.w3.org/1999/xlink" x="0px" y="0px"
	 width="49px" height="39px" viewBox="0 0 49 39" enable-background="new 0 0 49 39" xml:space="preserve">
<g>
	<path d="M48.789,30.388c0-2.739-3.31-4.71-9.841-7.72c-3.095-1.427-3.576-1.918-3.576-3.043c0-0.05,0.004-0.104,0.012-0.16
		c0.051-0.373,0.266-0.827,0.597-1.3c0.199-0.282,0.419-0.547,0.66-0.794c0.857-0.835,1.436-2.075,1.815-3.616
		c0.22-0.9,0.36-1.856,0.437-2.814c0.048-0.596,0.063-1.082,0.061-1.403V9.054c0-3.89-1.734-6.478-4.583-7.91
		c-0.969-0.48-2.003-0.815-3.069-0.994C30.831,0.063,30.354,0.013,29.875,0h-0.52c-0.452,0.001-0.904,0.033-1.352,0.094
		c-0.755,0.106-1.294,0.274-1.657,0.653l1.33,1.354c-0.015,0.016,0.245-0.065,0.603-0.115c0.364-0.05,0.731-0.075,1.098-0.077h0.511
		c0.377,0.018,0.752,0.06,1.123,0.124c0.889,0.148,1.752,0.426,2.561,0.825c2.267,1.14,3.582,2.995,3.582,6.196v0.48
		c0,0.008-0.108,2.42-0.449,3.805c-0.307,1.251-0.757,2.215-1.331,2.774c-0.323,0.322-0.615,0.673-0.875,1.048
		c-0.478,0.68-0.804,1.37-0.9,2.067c-0.018,0.132-0.027,0.264-0.027,0.397c0,1.986,0.952,2.959,4.611,4.646
		c5.605,2.583,8.662,4.481,8.662,6.117v2.402c0.001,0.056-0.022,0.398-0.11,0.575c-0.145,0.294-0.42,0.462-1.037,0.462l-4.384,0.06
		v1.915l4.384-0.06c1.305,0,2.32-0.596,2.768-1.503c0.238-0.483,0.34-1.045,0.323-1.449C48.787,32.757,48.789,30.388,48.789,30.388z
		"/>
	<path d="M40.371,32.864c0-2.926-3.409-4.831-10.125-7.995c-0.069-0.037-0.13-0.071-0.204-0.11c-3.152-1.666-3.69-2.009-3.69-3.184
		c0-0.053,0.003-0.108,0.012-0.167c0.052-0.389,0.272-0.866,0.615-1.363c0.261-0.379,0.521-0.68,0.681-0.836
		c0.91-0.904,1.52-2.238,1.921-3.894c0.232-0.965,0.378-1.987,0.459-3.012c0.05-0.638,0.065-1.158,0.064-1.501v-0.518
		c0-4.173-1.832-6.962-4.851-8.511c-1.024-0.518-2.121-0.88-3.255-1.074c-0.137-0.026-0.275-0.041-0.413-0.061
		c-0.041-0.006-0.082-0.013-0.122-0.018c-0.113-0.015-0.225-0.03-0.338-0.041c-0.243-0.025-0.446-0.038-0.613-0.041
		c-0.013,0-0.025-0.002-0.038-0.003h-0.035h-0.51h-0.035c-0.013,0-0.025,0.002-0.038,0.003c-0.167,0.004-0.37,0.016-0.613,0.041
		C19.13,0.59,19.018,0.606,18.905,0.62c-0.039,0.005-0.081,0.012-0.122,0.018c-0.138,0.02-0.276,0.035-0.413,0.061
		c-1.133,0.194-2.231,0.556-3.255,1.074c-3.018,1.548-4.851,4.337-4.851,8.511v0.518c-0.001,0.343,0.014,0.863,0.064,1.501
		c0.08,1.025,0.227,2.047,0.459,3.012c0.4,1.655,1.01,2.989,1.921,3.894c0.159,0.157,0.42,0.457,0.681,0.836
		c0.342,0.496,0.562,0.973,0.615,1.363c0.008,0.059,0.012,0.114,0.012,0.167c0,1.175-0.538,1.518-3.69,3.184
		c-0.077,0.041-0.142,0.077-0.214,0.115c-6.693,3.16-9.463,5.065-9.463,7.99l0.002,3.21c-0.003,0.044,0.015,0.083,0.018,0.126
		c-0.033,0.18-0.018,0.393,0.078,0.655c0.571,1.562,2.846,1.521,2.846,1.521s0.01-0.014,0.025-0.033
		c0.059,0.01,0.113,0.033,0.176,0.033h32.552H38c0,0,0.15-0.011,0.368-0.07c0.018-0.006,0.036-0.01,0.053-0.017
		c0.526-0.153,1.395-0.618,1.8-1.928c0.095-0.167,0.161-0.352,0.149-0.558c0.061-0.37,0.052-0.625,0-0.809L40.371,32.864z
		 M37.062,36.417H3.792c-0.023,0-0.042,0.011-0.064,0.012c-0.045-0.005-0.085-0.012-0.137-0.012c-0.372,0-0.638-0.067-0.829-0.167
		c0.001-0.012,0.009-0.021,0.01-0.033l0.001-3.281c0.002-1.583,2.119-3.189,6.675-5.448c0.572-0.159,1.009-0.458,1.596-0.772
		c0.083-0.039,0.159-0.076,0.243-0.116c3.862-1.815,4.884-2.88,4.884-5.025c0-0.143-0.01-0.287-0.03-0.431
		c-0.101-0.752-0.446-1.496-0.951-2.231c-0.101-0.148-0.23-0.274-0.341-0.416c-0.122-0.156-0.232-0.293-0.34-0.416
		c-0.086-0.097-0.155-0.207-0.246-0.3c-0.589-0.584-1.056-1.605-1.375-2.931c-0.31-1.325-0.467-2.68-0.468-4.04v-0.528
		c0-3.397,1.382-5.502,3.723-6.702c0.831-0.419,1.72-0.711,2.639-0.867c0.538-0.094,0.946-0.127,1.157-0.129h0.491
		c0.211,0.002,0.619,0.035,1.157,0.129c0.919,0.156,1.808,0.449,2.639,0.867c2.341,1.2,3.723,3.305,3.723,6.702v0.528
		c-0.001,1.36-0.158,2.715-0.468,4.04c-0.319,1.326-0.786,2.347-1.375,2.931c-0.091,0.093-0.159,0.203-0.246,0.3
		c-0.109,0.122-0.219,0.259-0.34,0.416c-0.11,0.141-0.24,0.267-0.341,0.416c-0.505,0.735-0.85,1.479-0.951,2.231
		c-0.02,0.144-0.03,0.288-0.03,0.431c0,2.145,1.022,3.209,4.884,5.025c0.078,0.037,0.151,0.072,0.229,0.108
		c0.616,0.328,1.064,0.643,1.673,0.798c4.647,2.25,7.261,3.85,7.263,5.429l0,2.745C38.229,35.913,38.073,36.417,37.062,36.417z"/>
</g>
</svg>
