<svg width="49" height="39" viewBox="0 0 49 39" xmlns="http://www.w3.org/2000/svg"><title>朋友</title><g  fill-rule="evenodd"><path d="M41.314 35.802l4.384-.06c1.305 0 2.32-.596 2.768-1.503.238-.483.34-1.045.323-1.449-.002-.033 0-2.402 0-2.402 0-2.739-3.31-4.71-9.841-7.72-3.095-1.427-3.576-1.918-3.576-3.043 0-.05.004-.104.012-.16.051-.373.266-.827.597-1.3a6.537 6.537 0 0 1 .66-.794c.857-.835 1.436-2.075 1.815-3.616.22-.9.36-1.856.437-2.814.048-.596.063-1.082.061-1.403v-.484c0-3.89-1.734-6.478-4.583-7.91A10.998 10.998 0 0 0 31.302.15 9.315 9.315 0 0 0 29.875 0h-.52a10.174 10.174 0 0 0-1.352.094c-.755.106-1.294.274-1.657.653l1.33 1.354c-.015.016.245-.065.603-.115a8.399 8.399 0 0 1 1.098-.077h.511a9.228 9.228 0 0 1 1.123.124 9.203 9.203 0 0 1 2.561.825c2.267 1.14 3.582 2.995 3.582 6.196v.48c0 .008-.108 2.42-.449 3.805-.307 1.251-.757 2.215-1.331 2.774a7.613 7.613 0 0 0-.875 1.048c-.478.68-.804 1.37-.9 2.067a2.922 2.922 0 0 0-.027.397c0 1.986.952 2.959 4.611 4.646 5.605 2.583 8.662 4.481 8.662 6.117v2.402c.001.056-.022.398-.11.575-.145.294-.42.462-1.037.462l-4.384.06v1.915z"/><path d="M39.434 32.847c0-2.81-5.905-5.52-9.775-7.304-3.87-1.784-4.309-2.586-4.309-4.046 0-1.461 1.616-3.035 1.616-3.035 2.207-2.15 2.155-7.587 2.155-7.587v-.506c0-8.528-8.618-8.599-8.618-8.599h-.539s-8.617.07-8.617 8.599v.506s-.053 5.436 2.154 7.587c0 0 1.616 1.574 1.616 3.035 0 1.46-.438 2.262-4.308 4.046-3.87 1.784-9.165 4.494-9.165 7.304v2.529s-.159 2.023 2.155 2.023h33.48c2.314 0 2.155-2.023 2.155-2.023v-2.529z"/></g></svg>