<svg width="64" height="64" viewBox="0 0 64 64" xmlns="http://www.w3.org/2000/svg"><title>Share Icons Copy 5</title><path d="M32.333 61c-16.016 0-29-12.984-29-29s12.984-29 29-29c16.017 0 29 12.984 29 29s-12.983 29-29 29zM32.6 5.685c-14.799 0-26.58 11.782-26.58 26.58 0 14.268 11.781 26.05 26.58 26.05 14.268 0 26.05-11.782 26.05-26.05 0-14.798-11.782-26.58-26.05-26.58zm12.086 22.556c-2.196 0-3.76-1.563-3.76-3.222 0-2.197 1.564-3.76 3.76-3.76 1.66 0 3.222 1.563 3.222 3.76 0 1.659-1.563 3.222-3.222 3.222zm1.611 17.722h-.537c-3.65-2.833-8.36-4.517-13.426-4.296-5.08-.221-9.728 1.411-13.426 4.296l-1.61-2.148a25.71 25.71 0 0 1 15.036-4.834c5.621 0 10.846 1.864 15.037 4.834l-1.074 2.148zM20.52 28.241c-2.197 0-3.76-1.563-3.76-3.222 0-2.197 1.563-3.76 3.76-3.76 1.659 0 3.222 1.563 3.222 3.76 0 1.659-1.563 3.222-3.222 3.222z"  fill-rule="evenodd"/></svg>