<?xml version="1.0" encoding="utf-8"?>
<!-- Generator: Adobe Illustrator 17.0.2, SVG Export Plug-In . SVG Version: 6.00 Build 0)  -->
<!DOCTYPE svg PUBLIC "-//W3C//DTD SVG 1.1//EN" "http://www.w3.org/Graphics/SVG/1.1/DTD/svg11.dtd">
<svg version="1.1" id="图层_2" xmlns="http://www.w3.org/2000/svg" xmlns:xlink="http://www.w3.org/1999/xlink" x="0px" y="0px"
	 width="40px" height="34px" viewBox="0 0 40 34" enable-background="new 0 0 40 34" xml:space="preserve">
<g>
	<path d="M27,22.125c-4.031-2.531-6.333-3-6.333-3l-0.01-0.438c0,0,1-0.875,1.531-1.906s0.656-2.094,0.656-2.094
		s1.469-0.438,1.719-2.375S23.75,9.625,23.75,9.625s0.655-3.772-1.031-6.186c-1.847-2.644-5.292-2.634-5.905-2.61
		c-0.613-0.024-4.058-0.033-5.905,2.61C9.223,5.853,9.878,9.625,9.878,9.625S8.25,10.438,8.5,12.375s2.284,2.312,2.284,2.312
		s0.125,1.062,0.656,2.094c0.16,0.311,0.363,0.603,0.568,0.865c0.684-0.661,1.361-1.425,2.021-1.425h2.368
		c1.967-0.004,3.566,1.588,3.57,3.555v9.515H31.5v-1.625C31.5,27.667,31.709,25.082,27,22.125z"/>
	<path d="M39.91,27.079C39.91,27.079,39.91,27.079,39.91,27.079c-0.089-0.654-0.482-1.818-2.398-3.985
		c-1.917-2.167-6.208-5.5-6.208-5.5l-0.393-0.217c0.031-0.054,0.064-0.105,0.092-0.16c0.513-0.996,0.634-2.023,0.634-2.023
		s1.419-0.423,1.66-2.294c0.242-1.872-0.785-2.596-0.785-2.596s0.633-3.644-0.996-5.976C30.739,3.216,29.669,2.59,28.66,2.24
		l-0.008,0.027c-1.162-0.44-2.746-0.923-2.746-0.923s0.655,1.092,1.2,2.103L27.095,3.45l0.333,0.811c0,0,0.315,1.111,0.382,2.395
		c0.002,0.06,0.003,0.094,0.003,0.094l0.003-0.001c0.018,0.429,0.008,0.875-0.054,1.304c-0.25,1.75-0.25,1.75-0.25,1.75h0.125
		c0,0,0.75,0.5,0.917,1.292c0.167,0.792-0.583,1.208-0.583,1.208h-0.875c0,0-0.083,2.083-1.042,3.25
		c-0.958,1.167-2.708,1.875-2.708,1.875s3.958,1.833,6.208,4.167c2.25,2.333,2.5,3.208,3.167,5.083s0.833,2.625,0.833,2.625h6.446
		v-0.958v-0.611C39.999,27.732,40.017,27.493,39.91,27.079z"/>
	<path d="M13.161,25.682l3.384-3.293c0.784-0.778,0.839-1.995,0.121-2.718c-0.717-0.723-1.934-0.679-2.719,0.099
		l-3.431,3.339L7.05,19.736c-0.784-0.778-2.001-0.822-2.719-0.099c-0.717,0.723-0.663,1.94,0.121,2.718l3.419,3.327l-3.878,3.773
		c-0.784,0.778-0.839,1.995-0.121,2.718c0.717,0.723,1.934,0.679,2.719-0.099l3.925-3.819l3.89,3.785
		c0.784,0.778,2.001,0.822,2.719,0.099s0.663-1.94-0.121-2.718L13.161,25.682z"/>
</g>
</svg>
