<?xml version="1.0" encoding="UTF-8" standalone="no"?>
<svg width="42px" height="42px" viewBox="0 0 42 42" version="1.1" xmlns="http://www.w3.org/2000/svg" xmlns:xlink="http://www.w3.org/1999/xlink">
    <!-- Generator: Sketch 39.1 (31720) - http://www.bohemiancoding.com/sketch -->
    <title>Operation Icons  Copy 8</title>
    <desc>Created with Sketch.</desc>
    <defs></defs>
    <g id="ALL-ICON" stroke="none" stroke-width="1" fill="none" fill-rule="evenodd">
        <g id="Float-Icons-" transform="translate(-100.000000, -62.000000)" fill="#4A4A4A">
            <g id="Group" transform="translate(100.000000, 63.000000)">
                <path d="M29.5093613,25.6266268 C29.3554974,25.12714 28.8266004,24.7530213 27.4692325,24.0281107 C24.7617542,22.5821656 24.2994903,22.2844834 24.2994903,21.2635584 C24.2994903,21.2180528 24.3028198,21.1698428 24.3095886,21.1190169 C24.3545509,20.7814052 24.5444012,20.3672399 24.8380921,19.9356621 C25.061696,19.607077 25.2862672,19.3468182 25.422808,19.2097827 C26.2048627,18.4245185 26.7294313,17.2668764 27.0721803,15.8294822 C27.2717862,14.9923905 27.398033,14.1047899 27.4668376,13.2146961 C27.5096309,12.6610971 27.5234076,12.2098049 27.5219848,11.9115073 C27.521939,11.9034167 27.5219485,11.4623941 27.5219485,11.4623941 C27.5219485,7.83920981 25.9477558,5.41792769 23.355063,4.07413072 C22.4594934,3.6099555 21.5083822,3.31098331 20.5585545,3.14156692 C19.9850336,3.03927065 19.5307089,3.00236096 19.2509666,3.00001189 L18.7828883,2.99997881 C18.4952789,3.00236103 18.0409797,3.03927131 17.4674926,3.14156898 C16.5177226,3.31098735 15.5666694,3.60996299 14.6711549,4.07414329 C12.0786372,5.41794691 10.5045606,7.83922598 10.5045606,11.4623941 L10.5045606,11.9083268 C10.5030807,12.2103817 10.5168391,12.6618928 10.5596052,13.215535 C10.6283389,14.1053465 10.7544852,14.9926239 10.9539492,15.829415 C11.2965829,17.2668323 11.8210928,18.4244987 12.6030149,19.2096298 C12.739708,19.3468182 12.9642793,19.607077 13.1878832,19.9356621 C13.4815741,20.3672399 13.6714244,20.7814052 13.7163866,21.1190169 C13.7231555,21.1698428 13.726485,21.2180528 13.726485,21.2635584 C13.726485,22.2844955 13.3148962,22.7176657 10.5571696,24.0281616 C4.65203903,26.8329507 2.21884971,28.4942543 2.21884971,31.064203 L2.00226292,34.0485504 C1.96706915,34.5385314 2.34655202,34.9635141 2.84986163,34.9977758 C3.35317124,35.0320376 3.78971449,34.6626042 3.82490825,34.1726232 L4.04372027,31.1262394 C4.04594549,29.578007 6.34656816,28.0072157 11.3584909,25.6266779 C14.6761868,24.0500797 15.5535807,23.1266799 15.5535807,21.2635584 C15.5535807,21.1399356 15.5449855,21.0154784 15.5283172,20.8903201 C15.4413586,20.2373669 15.1452009,19.5912883 14.7110528,18.953309 C14.4167329,18.5208071 14.1233805,18.1808368 13.9146389,17.9713389 C13.4093682,17.4639945 13.0081286,16.5784027 12.7337524,15.4273398 C12.4287201,14.147668 12.3271896,12.8332761 12.3315985,11.9199824 C12.3316229,11.9158055 12.3316564,11.4623941 12.3316564,11.4623941 C12.3316564,8.51325213 13.5193723,6.68628155 15.5298419,5.64417628 C16.245373,5.27328847 17.02044,5.02963631 17.7967903,4.89115224 C18.2589754,4.80870845 18.610199,4.78017272 18.7907686,4.77865632 L19.2430869,4.77868941 C19.4157971,4.78017278 19.7670535,4.80870912 20.2292799,4.8911543 C21.0056976,5.02964035 21.7808318,5.27329596 22.4964245,5.64418885 C24.5070527,6.68630077 25.6948527,8.5132683 25.6948527,11.4623941 L25.6948527,11.9083268 C25.6992626,12.8325873 25.5976416,14.1472122 25.2924091,15.4272726 C25.0179307,16.5783586 24.6166267,17.4639747 24.111184,17.9714918 C23.9025947,18.1808368 23.6092423,18.5208071 23.3149225,18.953309 C22.8807743,19.5912883 22.5846166,20.2373669 22.497658,20.8903201 C22.4809897,21.0154784 22.4723945,21.1399356 22.4723945,21.2635584 C22.4723945,23.1267439 23.3901589,23.9678511 26.6679112,25.626627 C27.5219493,26.0588311 27.9611874,26.4999998 29,26.4999998 C29.3476545,26.4999998 29.5867553,25.8778701 29.5093613,25.6266268 Z" id="通讯录" stroke="#4A4A4A"></path>
                <path d="M40.7148142,28.2180908 C41.4328506,28.2180908 42.0143645,28.7996047 42.0143645,29.516905 C42.0143645,30.2342053 41.4328506,30.8157193 40.7148142,30.8157193 L26.2982682,30.8157193 C25.5816089,30.8157193 25,30.2342053 25,29.516905 C25,28.7996047 25.581514,28.2180908 26.2982682,28.2180908 L40.7148142,28.2180908 Z" id="Fill-4"></path>
                <path d="M34.8053911,36.7248575 C34.8053911,37.4422528 34.2237821,38.0237668 33.5072416,38.0237668 C32.7891816,38.0237668 32.2075726,37.4422528 32.2075726,36.7248575 L32.2075726,22.3089525 C32.2075726,21.5915573 32.7891816,21.0100433 33.5072416,21.0100433 C34.2237821,21.0100433 34.8053911,21.5915573 34.8053911,22.3089525 L34.8053911,36.7248575 Z" id="Fill-1"></path>
            </g>
        </g>
    </g>
</svg>