<svg width="40" height="34" viewBox="0 0 40 34" xmlns="http://www.w3.org/2000/svg"><title>Group 6</title><g fill="none" fill-rule="evenodd"><g stroke-linecap="round" stroke-width="2.375" stroke="#4A4A4A" fill="#4A4A4A"><path d="M19.46 18.317s1.975-1.935 2.406-4.536c.642 0 1.462-.73 1.588-1.653.101-.743-.357-1.653-.873-2.086C22.629 9.017 24.069 2 16.779 2c-7.291 0-5.851 7.017-5.803 8.042-.509.428-1.453 1.352-1.36 2.086.12.934 1.427 1.653 2.075 1.653.43 2.601 2.406 4.536 2.406 4.536s-.015 1.829-.688 1.934c-2.165.341-10.318 3.954-10.318 7.823h27.238c0-3.87-8.016-7.482-10.181-7.823-.673-.105-.688-1.934-.688-1.934z"/><path d="M28.205 3.44c4.218 1.387 3.183 6.52 3.143 7.367.495.416.934 1.289.837 2.001-.121.885-.908 1.586-1.523 1.586-.413 2.495-1.383 3.013-1.383 3.013s.65.68 1.383 1.337c.732.658 8.118 5.647 8.117 9.359h-4.341c-.504-1.736-1.316-4.11-2.784-5.955-2.051-2.578-5.937-4.74-5.937-4.74s1.775-1.063 2.252-3.942c.71 0 1.617-.807 1.757-1.829.112-.821-.395-1.828-.966-2.308.031-.66.585-3.574-.555-5.89z"/></g><path d="M.967 28.235c0-.516 2.375-2.608 2.375-3.124 0-.613-2.375-2.19-2.375-2.804v-2.522a3.563 3.563 0 0 1 3.567-3.563h2.5c1.138 0 2.275 2.37 3.412 2.37 1.211 0 2.423-2.37 3.583-2.37h2.368a3.563 3.563 0 0 1 3.57 3.555v10.668A3.554 3.554 0 0 1 16.404 34H4.53a3.556 3.556 0 0 1-3.562-3.554v-2.21z" fill="#FFF"/><g stroke="#4A4A4A" stroke-width="3.563" stroke-linecap="round"><path d="M5.56 20.807l10.25 10.23M15.373 20.807l-10.25 10.23"/></g></g></svg>