<?xml version="1.0" encoding="UTF-8" standalone="no"?>
<svg width="40px" height="34px" viewBox="0 0 40 34" version="1.1" xmlns="http://www.w3.org/2000/svg" xmlns:xlink="http://www.w3.org/1999/xlink">
    <!-- Generator: Sketch 39.1 (31720) - http://www.bohemiancoding.com/sketch -->
    <title>Group 6</title>
    <desc>Created with Sketch.</desc>
    <defs></defs>
    <g id="ALL-ICON" stroke="none" stroke-width="1" fill="none" fill-rule="evenodd">
        <g id="Pop-down-menu-Icons-" transform="translate(-663.000000, -60.000000)">
            <g id="Group-6" transform="translate(662.966819, 55.000000)">
                <rect id="Rectangle-3" fill="#D8D8D8" opacity="0" x="1" y="1" width="38" height="38"></rect>
                <g id="Group-3" transform="translate(3.000000, 7.000000)" stroke-linecap="round" stroke-width="2.375" stroke="#4A4A4A" fill="#4A4A4A">
                    <g id="Group-2-Copy">
                        <path d="M16.4934676,16.3167931 C16.4934676,16.3167931 18.4685774,14.382075 18.8989158,11.7806061 C19.5408218,11.7806061 20.3608469,11.0507118 20.4870526,10.12753 C20.5885442,9.38512962 20.130343,8.47539988 19.6141379,8.04165811 C19.6624289,7.01732971 21.1025976,0 13.8118214,0 C6.52100372,0 7.96121397,7.01732971 8.00950497,8.04165811 C7.50022641,8.46956444 6.5562538,9.39392845 6.64981124,10.12753 C6.76901319,11.062215 8.07571996,11.7806061 8.72447763,11.7806061 C9.15485759,14.382075 11.1301337,16.3167931 11.1301337,16.3167931 C11.1301337,16.3167931 11.1147571,18.145702 10.4426313,18.2513867 C8.27747428,18.5924977 0.123943692,22.2045965 0.123943692,26.0740741 L27.3624319,26.0740741 C27.3627228,22.2045965 19.3461686,18.5924562 17.1810116,18.2513867 C16.5086364,18.145702 16.4934676,16.3167931 16.4934676,16.3167931 Z" id="Shape"></path>
                        <path d="M25.2385241,1.4397929 C29.4559241,2.82687223 28.4209367,7.95922045 28.3809502,8.8073985 C28.8760533,9.22340925 29.3155235,10.0959499 29.2181808,10.8080016 C29.0971343,11.6934444 28.3106312,12.3935012 27.6949659,12.3935012 C27.2822194,14.888624 26.3125,15.4074078 26.3125,15.4074078 C26.3125,15.4074078 26.962454,16.0866628 27.6949658,16.7442529 C28.4274775,17.4018429 35.812779,22.3913669 35.8125,26.1026633 L31.4710669,26.1026633 C30.9675067,24.3671859 30.1555922,21.9933277 28.6874999,20.1481475 C26.6358889,17.5695686 22.7499999,15.4074079 22.7499999,15.4074079 C22.7499999,15.4074079 24.525584,14.3449054 25.0017585,11.4663491 C25.712035,11.4663491 26.6194026,10.6587125 26.7590507,9.63720086 C26.8713524,8.81572601 26.3643473,7.80909925 25.7931602,7.32915883 C25.8243032,6.66856707 26.3786041,3.75541636 25.2385241,1.4397929 Z" id="Combined-Shape"></path>
                    </g>
                </g>
                <g id="Group-5" transform="translate(1.000000, 21.222222)">
                    <path d="M0,12.013241 C3.37866844e-17,11.4969571 2.375,9.4051728 2.375,8.88888889 C2.375,8.27552856 1.0646591e-17,6.69798612 1.59698865e-17,6.08462579 L3.15151092e-17,3.56229372 C1.4109795e-17,1.59489323 1.59487881,0 3.56734111,0 L6.06808394,0 C7.20526005,0 8.34243616,2.37037037 9.47961226,2.37037037 C10.690662,2.37037037 11.9017118,0 13.0625,0 L15.4304711,0 C17.4018675,0 19,1.59330457 19,3.55487108 L19,14.2229067 C19,16.1862078 17.4127506,17.7777778 15.4373957,17.7777778 L3.5626043,17.7777778 C1.59503228,17.7777778 0,16.1906927 0,14.2234573 L0,12.013241 Z" id="Rectangle-202" fill="#FFFFFF"></path>
                    <g id="Group-4" transform="translate(3.562500, 3.555556)" stroke="#4A4A4A" stroke-width="3.5625" stroke-linecap="round">
                        <path d="M1.03153584,1.02952505 L11.28125,11.2592593" id="Line-Copy-2"></path>
                        <path d="M1.03153584,1.02952505 L11.28125,11.2592593" id="Line-Copy-3" transform="translate(5.937500, 5.925926) scale(-1, 1) translate(-5.937500, -5.925926) "></path>
                    </g>
                </g>
            </g>
        </g>
    </g>
</svg>