<svg width="42" height="42" viewBox="0 0 42 42" xmlns="http://www.w3.org/2000/svg"><title>Operation Icons Copy 8</title><g fill-rule="evenodd"><path d="M29.51 26.627c-.155-.5-.683-.874-2.04-1.599-2.708-1.446-3.17-1.744-3.17-2.764 0-.046.003-.094.01-.145.045-.338.234-.752.528-1.183.224-.329.448-.59.585-.726.782-.785 1.306-1.943 1.65-3.38.199-.838.325-1.725.394-2.615.043-.554.056-1.005.055-1.303v-.45c0-3.623-1.574-6.044-4.167-7.388a9.815 9.815 0 0 0-2.796-.932A8.27 8.27 0 0 0 19.25 4h-.468c-.288.002-.742.04-1.316.142-.95.169-1.9.468-2.796.932-2.592 1.344-4.166 3.765-4.166 7.388v.446c-.002.302.012.754.055 1.308.068.89.194 1.777.394 2.613.343 1.438.867 2.595 1.649 3.38.137.138.361.398.585.727.294.431.483.845.528 1.183.007.05.01.1.01.145 0 1.02-.411 1.454-3.169 2.764-5.905 2.805-8.338 4.466-8.338 7.036l-.217 2.985a.898.898 0 0 0 .848.949.906.906 0 0 0 .975-.825l.219-3.047c.002-1.548 2.303-3.119 7.314-5.5 3.318-1.576 4.196-2.5 4.196-4.362 0-.124-.009-.249-.026-.374-.087-.653-.383-1.299-.817-1.937a7.084 7.084 0 0 0-.796-.982c-.506-.507-.907-1.393-1.181-2.544a15.574 15.574 0 0 1-.402-3.507v-.458c0-2.949 1.187-4.776 3.198-5.818a7.979 7.979 0 0 1 2.267-.753c.462-.082.813-.11.994-.112h.452c.173.001.524.03.986.112a7.98 7.98 0 0 1 2.267.753c2.011 1.042 3.199 2.87 3.199 5.818v.446c.004.925-.097 2.24-.403 3.52-.274 1.15-.675 2.036-1.18 2.543-.21.21-.503.55-.797.982-.434.638-.73 1.284-.817 1.937-.017.125-.026.25-.026.374 0 1.863.918 2.704 4.196 4.363.854.432 1.293.873 2.332.873.348 0 .587-.622.51-.873z"/><path d="M40.715 29.218a1.299 1.299 0 1 1 0 2.598H26.298a1.299 1.299 0 0 1 0-2.598h14.417z"/><path d="M34.805 37.725a1.299 1.299 0 1 1-2.597 0V23.309a1.3 1.3 0 0 1 2.597 0v14.416z"/></g></svg>