<?xml version="1.0" encoding="UTF-8" standalone="no"?>
<svg width="44px" height="44px" viewBox="0 0 44 44" version="1.1" xmlns="http://www.w3.org/2000/svg" xmlns:xlink="http://www.w3.org/1999/xlink">
    <!-- Generator: Sketch 39.1 (31720) - http://www.bohemiancoding.com/sketch -->
    <title>Operation Icons  Copy 12</title>
    <desc>Created with Sketch.</desc>
    <defs></defs>
    <g id="ALL-ICON" stroke="none" stroke-width="1" fill="none" fill-rule="evenodd">
        <g id="Float-Icons-" transform="translate(-763.000000, -60.000000)" fill="#4A4A4A">
            <g id="Help" transform="translate(762.827160, 61.000000)">
                <g id="帮助" transform="translate(2.000000, 2.000000)">
                    <path d="M19.3584906,0 C8.5063,0 0,8.5063 0,19.3584906 C0,29.4937 8.5063,38 19.3584906,38 C29.4918,38 38,29.4937 38,19.3584906 C38,8.5063 29.4918,0 19.3584906,0 M35,19 C35,27.8231111 27.8213333,35 19,35 C10.1768889,35 3,27.8231111 3,19 C3,10.1768889 10.1768889,3 19,3 C27.8213333,3 35,10.1768889 35,19 Z" id="Fill-1"></path>
                    <path d="M21,28.5 C21,29.3278195 20.3300752,30 19.5,30 C18.6721805,30 18,29.3278195 18,28.5 C18,27.6721805 18.6721805,27 19.5,27 C20.3300752,27 21,27.6721805 21,28.5" id="Fill-3"></path>
                    <path d="M25,13.0208503 C25,13.9769365 24.7971606,14.8417006 24.3896867,15.613279 C23.9624674,16.4053582 23.2731723,17.2253931 22.3164164,18.0696564 C21.4494125,18.8039604 20.8642298,19.5047175 20.5626632,20.1663366 C20.2610966,20.8652301 20.1103133,21.8585906 20.1103133,23.1445545 C20.1103133,23.4036109 20.0223564,23.6142108 19.8446475,23.7800815 C19.684889,23.9273151 19.5,24 19.2863903,24 C19.0566253,24 18.8627611,23.9273151 18.7030026,23.7800815 C18.5432441,23.6142108 18.4624674,23.4036109 18.4624674,23.1445545 C18.4624674,21.8399534 18.631201,20.7645894 18.9686684,19.9184624 C19.3043407,19.0350612 19.8984987,18.2355271 20.7475522,17.5179965 C21.7581593,16.6345952 22.4582245,15.8257426 22.847748,15.0895748 C23.1852154,14.4447292 23.352154,13.7104252 23.352154,12.8810716 C23.3342037,11.9454863 23.0523825,11.1813628 22.5013055,10.5924287 C21.8479112,9.87489808 20.8821802,9.51706465 19.6059073,9.51706465 C18.0998695,9.51706465 17.0102807,10.0519511 16.337141,11.1161328 C15.877611,11.8709377 15.647846,12.7617938 15.647846,13.7942924 C15.647846,14.0514851 15.558094,14.2714036 15.3821802,14.4540478 C15.2224217,14.6217822 15.0357376,14.7037857 14.823923,14.7037857 C14.5923629,14.7224228 14.3984987,14.6590565 14.2387402,14.5099592 C14.0789817,14.3459522 14,14.1167152 14,13.8203844 C14,12.0013978 14.5833877,10.5476995 15.7537533,9.46301689 C16.8164164,8.48642982 18.0998695,8 19.6059073,8 L19.8984987,8 C21.3506854,8 22.5372063,8.4137449 23.4598564,9.24123471 C24.4866188,10.1432732 25,11.403145 25,13.0208503 Z" id="Fill-2" stroke="#4A4A4A"></path>
                </g>
            </g>
        </g>
    </g>
</svg>