<svg xmlns="http://www.w3.org/2000/svg" width="44" height="44" viewBox="0 0 44 44"><circle cx="13.828" cy="19.63" r="1.938"/><circle cx="21.767" cy="19.63" r="1.938"/><circle cx="29.767" cy="19.63" r="1.938"/><path d="M22.102 4.161c-9.918 0-17.958 7.146-17.958 15.961 0 4.935 2.522 9.345 6.481 12.273v5.667l.038.012a2.627 2.627 0 1 0 4.501 1.455l.002.001 5.026-3.539c.628.059 1.265.093 1.911.093 9.918 0 17.958-7.146 17.958-15.961-.001-8.816-8.041-15.962-17.959-15.962zm-.04 29.901c-.902 0-1.781-.081-2.642-.207l-5.882 4.234c-.024.025-.055.04-.083.06l-.008.006a.511.511 0 0 1-.284.095.525.525 0 0 1-.525-.525l.005-6.375c-3.91-2.516-6.456-6.544-6.456-11.1 0-7.628 7.107-13.812 15.875-13.812s15.875 6.184 15.875 13.812-7.107 13.812-15.875 13.812z"/></svg>