<svg width="43" height="38" viewBox="0 0 43 38" xmlns="http://www.w3.org/2000/svg"><title>口碑</title><g fill-rule="evenodd"><path d="M4.921 1.227c-1.814 0-3.284 1.452-3.284 3.243v8.459c0 8.86 6.073 16.517 13.589 19.49a.701.701 0 0 1 .31.233c.138.196.122.388.122.388v2.148s-.012.463.393.865c.242.241.506.338.794.368.885.094 1.962.214 4.493-.119a23.972 23.972 0 0 0 12.492-5.61c5.866-5.067 8.145-11.896 8.145-17.763V4.563c0-1.792-1.47-3.336-3.285-3.336H4.92z"/><path d="M33.506 12.506c0-1.06.873-1.918 1.95-1.918 1.078 0 1.95.858 1.95 1.918 0 1.059-.872 1.918-1.95 1.918-1.077 0-1.95-.86-1.95-1.918z" fill="#FFF"/><path d="M9.127 13.465c0 6.087 5.564 12.847 12.626 12.784 3.336-.03 8.006-1.522 10.778-5.784" stroke="#FFF" stroke-width="2" stroke-linecap="round" stroke-linejoin="round"/></g></svg>