<svg xmlns="http://www.w3.org/2000/svg" width="43" height="38" viewBox="0 0 43 38"><path d="M37.75.227H5.25C2.125.227.66 2.652.66 4.542v8.03c0 9.346 5.751 17.213 13.64 20.35a.732.732 0 0 1 .325.246c.145.207.128.409.128.409l.001 2.033s.241.743.667 1.167c.254.254.899.545 1.201.577.929.099 2.059.226 4.716-.125a25.097 25.097 0 0 0 13.111-5.918c6.157-5.345 8.549-12.549 8.549-18.738V4.625c0-1.89-1.206-4.398-5.248-4.398zm3.287 13.045c0 5.58-2.277 11.784-7.87 16.603-3.366 2.896-7.511 4.831-11.917 5.417-2.413.317-3.347.186-4.191.096-.275-.029-.496-.076-.392-1.013.104-1.958-.194-2.156-.325-2.342-.076-.1-.261-.287-.378-.332C8.797 28.874 2.577 21.698 2.577 13.272V5.203c0-1.703.335-3.06 3.173-3.06h31.292c3.671 0 3.995 1.174 3.995 2.878v8.251z"/><path d="M32.531 19.444c-.336 0-.62.171-.809.42l-.01-.007-.002-.001a11.61 11.61 0 0 1-9.682 5.196c-6.419 0-11.623-5.204-11.623-11.623h-.038a1.027 1.027 0 0 0-1.023-.995c-.556 0-1.003.443-1.023.995h-.007l.001.029-.001.007.002.012c.026 7.552 6.154 13.667 13.713 13.667 4.757 0 8.945-2.423 11.406-6.101 0 0 .127-.368.127-.57a1.031 1.031 0 0 0-1.031-1.029z"/><ellipse cx="35.456" cy="12.506" rx="1.95" ry="1.918"/></svg>