<?xml version="1.0" encoding="utf-8"?>
<!-- Generator: Adobe Illustrator 17.0.2, SVG Export Plug-In . SVG Version: 6.00 Build 0)  -->
<!DOCTYPE svg PUBLIC "-//W3C//DTD SVG 1.1//EN" "http://www.w3.org/Graphics/SVG/1.1/DTD/svg11.dtd">
<svg version="1.1" id="图层_2" xmlns="http://www.w3.org/2000/svg" xmlns:xlink="http://www.w3.org/1999/xlink" x="0px" y="0px"
	 width="43px" height="38px" viewBox="0 0 43 38" enable-background="new 0 0 43 38" xml:space="preserve">
<g>
	<path d="M37.75,0.227H5.25c-3.125,0-4.59,2.425-4.59,4.315v8.03c0,9.346,5.751,17.213,13.64,20.35
		c0.129,0.049,0.242,0.135,0.325,0.246c0.145,0.207,0.128,0.409,0.128,0.409l0.001,2.033c0,0,0.241,0.743,0.667,1.167
		c0.254,0.254,0.899,0.545,1.201,0.577c0.929,0.099,2.059,0.226,4.716-0.125c4.85-0.649,9.406-2.706,13.111-5.918
		c6.157-5.345,8.549-12.549,8.549-18.738V4.625C42.998,2.735,41.792,0.227,37.75,0.227z M41.037,13.272
		c0,5.58-2.277,11.784-7.87,16.603c-3.366,2.896-7.511,4.831-11.917,5.417c-2.413,0.317-3.347,0.186-4.191,0.096
		c-0.275-0.029-0.496-0.076-0.392-1.013c0.104-1.958-0.194-2.156-0.325-2.342c-0.076-0.1-0.261-0.287-0.378-0.332
		C8.797,28.874,2.577,21.698,2.577,13.272V5.203c0-1.703,0.335-3.06,3.173-3.06h31.292c3.671,0,3.995,1.174,3.995,2.878V13.272z"/>
	<path d="M32.531,19.444c-0.336,0-0.62,0.171-0.809,0.42l-0.01-0.007l-0.002-0.001
		c-2.083,3.131-5.64,5.196-9.682,5.196c-6.419,0-11.623-5.204-11.623-11.623h-0.038c-0.02-0.552-0.467-0.995-1.023-0.995
		c-0.556,0-1.003,0.443-1.023,0.995H8.314c0,0.01,0.001,0.019,0.001,0.029c0,0.003-0.001,0.005-0.001,0.007
		c0,0.004,0.002,0.008,0.002,0.012c0.026,7.552,6.154,13.667,13.713,13.667c4.757,0,8.945-2.423,11.406-6.101
		c0,0,0.127-0.368,0.127-0.57C33.561,19.905,33.1,19.444,32.531,19.444z"/>
	<ellipse cx="35.456" cy="12.506" rx="1.95" ry="1.918"/>
</g>
</svg>
