<svg width="44" height="44" viewBox="0 0 44 44" xmlns="http://www.w3.org/2000/svg"><title>Operation Icons Copy 2</title><path d="M41.284 16.823c-.845-1.415-2.307-2.299-3.808-2.345l-9.308-.047a18.32 18.32 0 0 0 .934-5.783c0-.98-.081-1.98-.26-3.062l-.174-.781C28.173 2.567 26.288 1 24.08 1c-2.598 0-4.711 2.202-4.711 4.913 0 .157.005.31.02.44-.128 4.804-5.679 9.762-7.566 9.762h-.003l-6.915.004c-.903 0-1.638.769-1.638 1.71L3.25 37.99c0 .956.794 1.653 1.789 1.681l5.995-.011.23.044.201-.03 22.815.009a4.662 4.662 0 0 0 2.248-.764c.727-.486 1.314-1.171 1.58-1.774l.279-.483c1.572-3.9 3.49-15.84 3.567-16.345l.031-.484a5.097 5.097 0 0 0-.7-3.01zm-35.22 2.223l3.728-.005v17.724l-3.743.01.014-17.729zm29.832 16.31l-.177.292a2.022 2.022 0 0 1-.698.816c-.272.18-.593.288-.836.306l-21.596-.01V18.887c3.688-.748 9.436-6.622 9.592-12.676l-.017-.297c0-1.102.86-2 1.916-2 .898 0 1.664.636 1.865 1.548l.156.693c.137.836.204 1.672.204 2.489 0 1.654-.264 3.288-.79 4.853l-1.287 3.843 12.734.003.301.032a2.007 2.007 0 0 1 1.647.991c.22.37.322.801.288 1.475-.02.116-1.943 12.105-3.302 15.516z" stroke-width=".5" stroke="#FFF" fill-rule="evenodd"/></svg>