<?xml version="1.0" encoding="UTF-8" standalone="no"?>
<svg width="44px" height="44px" viewBox="0 0 44 44" version="1.1" xmlns="http://www.w3.org/2000/svg" xmlns:xlink="http://www.w3.org/1999/xlink">
    <!-- Generator: Sketch 39.1 (31720) - http://www.bohemiancoding.com/sketch -->
    <title>Operation Icons  Copy 2</title>
    <desc>Created with Sketch.</desc>
    <defs></defs>
    <g id="ALL-ICON" stroke="none" stroke-width="1" fill="none" fill-rule="evenodd">
        <g id="Operation-Icons-" transform="translate(-429.000000, -53.000000)" stroke-width="0.5" stroke="#FFFFFF" fill="#4A4A4A">
            <g id="Shape" transform="translate(432.000000, 54.000000)">
                <path d="M38.2840777,15.8233515 C37.4393038,14.4080873 35.9770957,13.5243534 34.4761366,13.477909 L25.168123,13.4314646 C25.7881406,11.5646574 26.1020245,9.61786269 26.1020245,7.64784574 C26.1020245,6.66864282 26.0206472,5.66750781 25.8411004,4.58638523 L25.6680122,3.80457104 C25.1732899,1.56749875 23.2886948,-1.42108547e-14 21.0798823,-1.42108547e-14 C18.4822671,-1.42108547e-14 16.3690406,2.20223898 16.3690406,4.91278619 C16.3690406,5.07018114 16.3742074,5.22370572 16.3884161,5.35271795 C16.2605375,10.1571338 10.7100887,15.1150743 8.82291026,15.1150743 L8.82032687,15.1150743 L1.90454773,15.1189447 C1.00164717,15.1189447 0.266668011,15.8878577 0.266668011,16.8283569 L0.249875881,36.9903902 C0.249875881,37.9463709 1.04427337,38.643037 2.03888488,38.6714197 L8.0336796,38.6598086 L8.26360277,38.7036728 L8.46510847,38.674 L31.2804628,38.6830308 C32.0826105,38.6249753 32.8563407,38.3656607 33.5280264,37.9192783 C34.2552553,37.4329022 34.8416886,36.7478472 35.1077794,36.14536 L35.3867873,35.6615641 C36.9587902,31.7628141 38.8769695,19.8214409 38.9544717,19.3170031 L38.9854726,18.8332072 C39.0642665,17.7611154 38.8214263,16.7212768 38.2840777,15.8233515 L38.2840777,15.8233515 L38.2840777,15.8233515 Z M3.06320553,18.0462325 L6.79235277,18.041072 L6.79235277,35.7647739 L3.04899678,35.7750949 L3.06320553,18.0462325 L3.06320553,18.0462325 L3.06320553,18.0462325 Z M32.8963835,34.3559602 L32.7194202,34.6475279 C32.5605407,34.9829597 32.3177004,35.2654965 32.0206087,35.4641754 C31.749351,35.6447925 31.4277169,35.7518727 31.1848767,35.7699344 L9.58889029,35.7609035 L9.58889029,17.8862573 C13.276703,17.1379863 19.0247824,11.2640589 19.1810785,5.20951436 L19.1642864,4.91278619 C19.1642864,3.81102166 20.0232691,2.91309645 21.0798823,2.91309645 C21.977616,2.91309645 22.7435961,3.54912679 22.9451018,4.46124336 L23.1013979,5.15403911 C23.2383184,5.99003844 23.305487,6.82603777 23.305487,7.64268527 C23.305487,9.2966222 23.0406878,10.9312073 22.5149646,12.4961258 L21.2284282,16.3394005 L33.9620387,16.3419808 L34.2630055,16.3742338 C34.939858,16.4000363 35.5547088,16.7703014 35.9099271,17.3650479 C36.1308084,17.735313 36.2315613,18.1662139 36.197977,18.8396578 C36.1786014,18.9557688 34.2552553,30.9448765 32.8963835,34.3559602 L32.8963835,34.3559602 L32.8963835,34.3559602 Z"></path>
            </g>
        </g>
    </g>
</svg>