<?xml version="1.0" encoding="UTF-8" standalone="no"?>
<svg width="64px" height="64px" viewBox="0 0 64 64" version="1.1" xmlns="http://www.w3.org/2000/svg" xmlns:xlink="http://www.w3.org/1999/xlink">
    <!-- Generator: Sketch 39.1 (31720) - http://www.bohemiancoding.com/sketch -->
    <title>Share Icons  Copy 2</title>
    <desc>Created with Sketch.</desc>
    <defs></defs>
    <g id="ALL-ICON" stroke="none" stroke-width="1" fill="none" fill-rule="evenodd">
        <g id="Share-Icons-" transform="translate(-585.000000, -51.000000)">
            <g id="Copy-Url" transform="translate(587.333333, 52.000000)">
                <rect id="Rectangle" fill="#D8D8D8" opacity="0" x="0" y="0" width="60" height="60"></rect>
                <path d="M55.4552045,5.42315596 L54.576844,4.54479548 C48.5171167,-1.51493183 38.6931588,-1.51493183 32.6334315,4.54479548 L23.8558265,13.3224005 C23.4346454,13.7423816 23.0506627,14.1851617 22.688279,14.6387413 L28.7648056,13.8431771 L35.3489093,7.26027329 C39.4683239,3.13965872 47.7407517,3.13965872 51.8613662,7.26027329 L52.7397267,8.13863376 C56.8603413,12.2580484 56.8603413,20.5316761 52.7397267,24.6510907 L43.9621217,33.4298957 C39.8415071,37.5493103 31.3302901,37.6297067 27.2096756,33.5090921 L26.3313151,32.6319316 C25.7157428,32.0151593 25.2033658,31.3371898 24.7713853,30.623222 L20.6651701,30.6052228 C21.4175362,32.2947467 22.4698889,33.8810754 23.8558265,35.267013 L24.732987,36.1441735 C30.7927143,42.2039008 40.6178722,42.2039008 46.6763996,36.1441735 L55.4552045,27.3665685 C61.5149318,21.3068412 61.5149318,11.4828833 55.4552045,5.42315596 L55.4552045,5.42315596 Z M24.6513907,52.7406267 C20.5307761,56.8612412 12.2583484,56.8612412 8.1377338,52.7406267 L7.25937333,51.8622662 C3.13875876,47.7416516 3.13875876,39.4692239 7.25937333,35.3486093 L16.0369783,26.5710043 C20.1575929,22.4503897 28.4300206,22.4503897 32.5506352,26.5710043 L33.4289957,27.4481648 C34.044568,28.0649371 34.5569449,28.7429066 34.9889255,29.4556745 L39.33393,29.3956772 C38.5815638,27.7061532 37.5292112,26.1186247 36.1444735,24.733887 L35.266113,23.8555265 C29.2063857,17.7957992 19.3812278,17.7957992 13.3227005,23.8555265 L4.54389552,32.6343315 C-1.51463184,38.6928588 -1.51463184,48.5180167 4.54389552,54.577744 L5.422256,55.4561045 C11.4819833,61.5146318 21.3071412,61.5146318 27.3668685,55.4561045 L36.3832628,46.0413281 L31.2342945,46.156523 L24.6513907,52.7406267 L24.6513907,52.7406267 Z" id="复制链接" fill="#4A4A4A"></path>
            </g>
        </g>
    </g>
</svg>