<?xml version="1.0" encoding="utf-8"?>
<!-- Generator: Adobe Illustrator 17.0.2, SVG Export Plug-In . SVG Version: 6.00 Build 0)  -->
<!DOCTYPE svg PUBLIC "-//W3C//DTD SVG 1.1//EN" "http://www.w3.org/Graphics/SVG/1.1/DTD/svg11.dtd">
<svg version="1.1" id="图层_1" xmlns="http://www.w3.org/2000/svg" xmlns:xlink="http://www.w3.org/1999/xlink" x="0px" y="0px"
	 width="44px" height="44px" viewBox="0 0 44 44" enable-background="new 0 0 44 44" xml:space="preserve">
<path d="M22,2C10.954,2,2,10.954,2,22s8.954,20,20,20s20-8.954,20-20S33.046,2,22,2z M29,32.323l-14.964,0.086
	c-2.218,0.012-2.78-1.285-1.275-2.898c0,0,3.934-4.249,6.34-6.655c0.268-0.268,0.392-0.743,0.45-1.111
	c-0.058-0.368-0.182-0.842-0.45-1.111c-2.406-2.405-6.34-6.655-6.34-6.655c-1.505-1.613-0.943-2.91,1.275-2.897L29,11.168
	c2.209,0.013,2.784,1.324,1.264,2.944c0,0-3.898,4.193-6.286,6.581c-0.17,0.17-0.258,0.66-0.302,1.052
	c0.044,0.393,0.132,0.883,0.302,1.053c2.388,2.388,6.286,6.581,6.286,6.581C31.784,30.998,31.21,32.31,29,32.323z"/>
</svg>
