<svg width="44" height="44" viewBox="0 0 44 44" xmlns="http://www.w3.org/2000/svg"><title>Pop down menu Icons Copy 8</title><g transform="translate(2 2)"  fill-rule="evenodd"><circle cx="20" cy="20" r="20"/><path d="M21.676 19.745c.044-.392.132-.882.302-1.052 2.388-2.388 6.286-6.581 6.286-6.581 1.52-1.62.945-2.931-1.264-2.944l-14.964-.086c-2.218-.013-2.78 1.284-1.275 2.897 0 0 3.934 4.25 6.34 6.655.268.269.392.743.45 1.111-.058.368-.182.843-.45 1.111-2.406 2.406-6.34 6.655-6.34 6.655-1.505 1.613-.943 2.91 1.275 2.898L27 30.323c2.21-.013 2.784-1.325 1.264-2.944 0 0-3.898-4.193-6.286-6.581-.17-.17-.258-.66-.302-1.053z" fill="#FFF"/><path d="M21.548 23.518L20.13 22.1l.672.672c-.392-.392-1.157-.726-1.712-.746l.539.02c-.554-.02-1.32.28-1.708.667l.6-.598c-.389.388-1.02 1.022-1.402 1.416l-4.183 4.436c-.376.404-.232.73.312.73l12.454-.03c.548-.002.672-.323.288-.707l-4.443-4.443z" /></g></svg>