<?xml version="1.0" encoding="UTF-8" standalone="no"?>
<svg width="44px" height="44px" viewBox="0 0 44 44" version="1.1" xmlns="http://www.w3.org/2000/svg" xmlns:xlink="http://www.w3.org/1999/xlink">
    <!-- Generator: Sketch 39.1 (31720) - http://www.bohemiancoding.com/sketch -->
    <title>Pop down menu Icons  Copy 8</title>
    <desc>Created with Sketch.</desc>
    <defs></defs>
    <g id="ALL-ICON" stroke="none" stroke-width="1" fill="none" fill-rule="evenodd">
        <g id="Pop-down-menu-Icons-" transform="translate(-1596.000000, -53.000000)">
            <g id="Group" transform="translate(103.000000, 54.000000)">
                <g id="Loading" transform="translate(1495.000000, 1.000000)">
                    <circle id="Oval-129" fill="#4A4A4A" cx="20" cy="20" r="20"></circle>
                    <path d="M21.6758648,19.7452811 C21.7198733,19.353439 21.80761,18.8632913 21.978013,18.6928883 C24.3661784,16.304723 28.2641689,12.1118006 28.2641689,12.1118006 C29.7835923,10.4922518 29.2091674,9.18077887 26.9999607,9.16804542 L12.0356373,9.08179392 C9.81839689,9.06901418 9.25578313,10.3663645 10.7610605,11.9794034 C10.7610605,11.9794034 14.6950081,16.2285651 17.1005962,18.6341531 C17.3691729,18.9027299 17.4931215,19.3773044 17.550235,19.7452811 C17.4931215,20.1132577 17.3691729,20.5878323 17.1005962,20.8564091 C14.6950081,23.2619971 10.7610605,27.5111587 10.7610605,27.5111587 C9.25578313,29.1241977 9.81839689,30.421548 12.0356373,30.4087682 L26.9999607,30.3225167 C29.2091674,30.3097833 29.7835923,28.9983103 28.2641689,27.3787616 C28.2641689,27.3787616 24.3661784,23.1858392 21.978013,20.7976739 C21.80761,20.6272709 21.7198733,20.1371232 21.6758648,19.7452811 Z" id="Combined-Shape" fill="#FFFFFF"></path>
                    <path d="M21.5478457,23.5176941 C21.1581767,23.128025 20.5229387,22.492787 20.1314916,22.1013399 L20.8029132,22.7727615 C20.4113962,22.3812445 19.6457709,22.0474602 19.0909118,22.0271629 L19.6297183,22.046873 C19.0757231,22.0266073 18.3101135,22.3266862 17.9223468,22.714453 L18.5212968,22.115503 C18.1330821,22.5037177 17.5021164,23.1384951 17.1196415,23.532144 L12.9371431,27.9678977 C12.5613158,28.3720834 12.7045986,28.6986655 13.2490702,28.6973586 L25.7028132,28.6674663 C26.2509131,28.6661507 26.3752582,28.3451066 25.9910245,27.9608729 L21.5478457,23.5176941 Z" id="Rectangle-34" fill="#E1E1E1"></path>
                </g>
            </g>
        </g>
    </g>
</svg>