<svg width="42" height="42" viewBox="0 0 42 42" xmlns="http://www.w3.org/2000/svg"><title>Pop down menu Icons</title><path d="M30.57 14.801v-2.56C30.57 6.186 26.926 2 21.17 2c-6.94 0-9.803 4.186-9.803 10.241v2.56h-3.84C5.923 14.801 5 15.848 5 17.361v18.17c0 1.514.923 2.313 2.527 2.313H34.41c1.604 0 2.56-1.047 2.56-2.56V17.361c0-1.514-.956-2.56-2.56-2.56h-3.84zm-9.123-9.46c3.407 0 5.379 3.004 5.379 6.628v2.878H15.24v-2.878c0-1.297.894-6.628 6.206-6.628zm-3.351 18.802c0 .858.361 1.647.952 2.18l.167 2.97c0 1.071.719 1.636 1.79 1.636 1.07 0 2.095-.565 2.095-1.635l-.211-2.972c.59-.532 1.219-1.207 1.219-2.065 0-1.607-1.416-3.022-3.023-3.022-1.606 0-2.99 1.301-2.99 2.908z" fill-rule="evenodd"/></svg>