<?xml version="1.0" encoding="UTF-8" standalone="no"?>
<svg width="42px" height="42px" viewBox="0 0 42 42" version="1.1" xmlns="http://www.w3.org/2000/svg" xmlns:xlink="http://www.w3.org/1999/xlink">
    <!-- Generator: Sketch 39.1 (31720) - http://www.bohemiancoding.com/sketch -->
    <title>Pop down menu Icons </title>
    <desc>Created with Sketch.</desc>
    <defs></defs>
    <g id="ALL-ICON" stroke="none" stroke-width="1" fill="none" fill-rule="evenodd">
        <g id="Pop-down-menu-Icons-" transform="translate(-289.000000, -55.000000)" fill="#4A4A4A">
            <path d="M319.569363,69.8012735 L319.569363,67.2410188 C319.569363,61.1858233 315.927246,57 310.170824,57 C303.230453,57 300.367452,61.1858663 300.367452,67.2410188 L300.367452,69.8012735 L296.527069,69.8012735 C294.922992,69.8012735 294,70.8476648 294,72.3615282 L294,90.5310777 C294,92.045113 294.923265,92.8435658 296.527069,92.8435658 L323.409745,92.8435658 C325.013549,92.8435658 325.969999,91.7973894 325.969999,90.2833111 L325.969999,72.3615282 C325.969999,70.8478798 325.013549,69.8012735 323.409745,69.8012735 L319.569363,69.8012735 Z M310.447369,60.3407327 C313.853909,60.3407327 315.82582,63.3454728 315.82582,66.9687041 L315.82582,69.8466841 L304.241019,69.8466841 L304.241019,66.9687041 C304.241019,65.6719779 305.134697,60.3407327 310.447369,60.3407327 Z M307.095862,79.142739 C307.095862,80.0012646 307.457393,80.7904744 308.048216,81.3224197 L308.214619,84.2935172 C308.214619,85.3641015 308.933765,85.9294356 310.004622,85.9294356 C311.075207,85.9294356 312.100205,85.3641015 312.100205,84.2935172 L311.888597,81.3224197 C312.47942,80.7904744 313.107579,80.1149454 313.107579,79.2566474 C313.107579,77.6502017 311.691993,76.2345255 310.085457,76.2345255 C308.478692,76.2345255 307.095862,77.5362934 307.095862,79.142739 Z" id="Shape"></path>
        </g>
    </g>
</svg>