<?xml version="1.0" encoding="utf-8"?>
<!-- Generator: Adobe Illustrator 17.0.2, SVG Export Plug-In . SVG Version: 6.00 Build 0)  -->
<!DOCTYPE svg PUBLIC "-//W3C//DTD SVG 1.1//EN" "http://www.w3.org/Graphics/SVG/1.1/DTD/svg11.dtd">
<svg version="1.1" id="图层_2" xmlns="http://www.w3.org/2000/svg" xmlns:xlink="http://www.w3.org/1999/xlink" x="0px" y="0px"
	 width="44px" height="44px" viewBox="0 0 44 44" enable-background="new 0 0 44 44" xml:space="preserve">
<g>
	<path opacity="0.5" d="M22,1.5c-9.113,0-16.5,7.36-16.5,16.44S22,42.651,22,42.651S38.5,27.019,38.5,17.94S31.113,1.5,22,1.5z
		 M22.042,38.458c0,0-13.521-12.906-13.521-20.403c0-7.496,6.054-13.574,13.521-13.574c7.468,0,13.521,6.077,13.521,13.574
		C35.563,25.552,22.042,38.458,22.042,38.458z"/>
	<path opacity="0.5" d="M22,9.5c-4.694,0-8.5,3.806-8.5,8.5s3.806,8.5,8.5,8.5s8.5-3.806,8.5-8.5S26.694,9.5,22,9.5z M22,23.5
		c-3.038,0-5.5-2.462-5.5-5.5s2.462-5.5,5.5-5.5s5.5,2.462,5.5,5.5S25.038,23.5,22,23.5z"/>
</g>
</svg>
