<?xml version="1.0" encoding="UTF-8" standalone="no"?>
<svg width="44px" height="44px" viewBox="0 0 44 44" version="1.1" xmlns="http://www.w3.org/2000/svg" xmlns:xlink="http://www.w3.org/1999/xlink">
    <!-- Generator: Sketch 39.1 (31720) - http://www.bohemiancoding.com/sketch -->
    <title>Pop down menu Icons  Copy 7</title>
    <desc>Created with Sketch.</desc>
    <defs></defs>
    <g id="ALL-ICON" stroke="none" stroke-width="1" fill="none" fill-rule="evenodd">
        <g id="Pop-down-menu-Icons-" transform="translate(-1410.000000, -53.000000)" fill="#4A4A4A">
            <g id="Group" transform="translate(103.000000, 54.000000)">
                <g id="Not-receive" transform="translate(1309.000000, 1.000000)">
                    <path d="M20,40 C31.045695,40 40,31.045695 40,20 C40,8.954305 31.045695,3.55271368e-15 20,3.55271368e-15 C8.954305,3.55271368e-15 0,8.954305 0,20 C0,31.045695 8.954305,40 20,40 Z M30.9964051,18 C32.10296,18 33,18.8877296 33,20 C33,21.1045695 32.1102368,22 30.9964051,22 L10.0035949,22 C8.89703997,22 8,21.1122704 8,20 C8,18.8954305 8.88976324,18 10.0035949,18 L30.9964051,18 Z" id="不再接收"></path>
                </g>
            </g>
        </g>
    </g>
</svg>