<?xml version="1.0" encoding="utf-8"?>
<!-- Generator: Adobe Illustrator 17.0.2, SVG Export Plug-In . SVG Version: 6.00 Build 0)  -->
<!DOCTYPE svg PUBLIC "-//W3C//DTD SVG 1.1//EN" "http://www.w3.org/Graphics/SVG/1.1/DTD/svg11.dtd">
<svg version="1.1" id="图层_2" xmlns="http://www.w3.org/2000/svg" xmlns:xlink="http://www.w3.org/1999/xlink" x="0px" y="0px"
	 width="64px" height="64px" viewBox="0 0 64 64" enable-background="new 0 0 64 64" xml:space="preserve">
<g>
	<path d="M41.216,33.542c0.851,0,1.542-0.69,1.542-1.542s-0.69-1.542-1.542-1.542h-5.198l4.943-6.539
		c0.516-0.677,0.386-1.645-0.292-2.161c-0.677-0.516-1.645-0.386-2.161,0.292l-6.193,8.192c-0.029,0.039-0.049,0.081-0.075,0.121
		c-0.025-0.04-0.045-0.083-0.075-0.121l-6.193-8.192c-0.516-0.677-1.484-0.808-2.161-0.292c-0.677,0.516-0.808,1.483-0.292,2.161
		l4.943,6.539h-5.498c-0.851,0-1.542,0.69-1.542,1.542s0.69,1.542,1.542,1.542h7.583V37.5h-7.583c-0.851,0-1.542,0.69-1.542,1.542
		s0.69,1.542,1.542,1.542h7.583v5.375c0,0.851,0.69,1.542,1.542,1.542s1.542-0.69,1.542-1.542v-5.375h7.583
		c0.851,0,1.542-0.69,1.542-1.542s-0.69-1.542-1.542-1.542h-7.583v-3.958H41.216z"/>
	<path d="M12.506,42.289c-1.319-2.818-2.068-5.96-2.068-9.282c0-12.052,9.7-21.822,21.665-21.822
		c4.944,0,9.495,1.677,13.141,4.485c0.281,0.323,0.69,0.531,1.152,0.531c0.847,0,1.534-0.687,1.534-1.534
		c0-0.396-0.154-0.753-0.4-1.025l0.008-0.008c-0.012-0.01-0.025-0.018-0.037-0.028c-0.111-0.116-0.242-0.21-0.385-0.286
		c-4.16-3.224-9.357-5.157-15.012-5.157c-13.622,0-24.665,11.123-24.665,24.844c0,1.216,0.097,2.407,0.266,3.576L4.67,32.978
		c-0.565-0.637-1.539-0.696-2.176-0.131c-0.637,0.565-0.696,1.539-0.131,2.176l7.723,9.176c0.003,0.005,0.005,0.011,0.007,0.016
		l0.004-0.002l0.395,0.469c0.565,0.637,1.539,0.696,2.176,0.131c0.637-0.565,0.696-1.539,0.131-2.176L12.506,42.289z"/>
	<path d="M61.861,30.978l-8.129-9.658c-0.565-0.637-1.539-0.696-2.176-0.131c-0.637,0.565-0.696,1.539-0.131,2.176
		l0.238,0.283c1.342,2.838,2.105,6.007,2.105,9.359c0,12.052-9.7,21.822-21.665,21.822c-5.192,0-9.956-1.841-13.687-4.909
		l-0.017,0.017c-0.256-0.191-0.569-0.307-0.913-0.307c-0.847,0-1.534,0.687-1.534,1.534c0,0.669,0.431,1.232,1.029,1.442
		c4.178,3.276,9.416,5.245,15.121,5.245c13.622,0,24.665-11.123,24.665-24.844c0-1.228-0.098-2.433-0.269-3.613l3.055,3.629
		c0.565,0.637,1.539,0.696,2.176,0.131C62.367,32.589,62.426,31.615,61.861,30.978z"/>
</g>
</svg>
