<?xml version="1.0" encoding="UTF-8" standalone="no"?>
<svg width="64px" height="64px" viewBox="0 0 64 64" version="1.1" xmlns="http://www.w3.org/2000/svg" xmlns:xlink="http://www.w3.org/1999/xlink">
    <!-- Generator: Sketch 39.1 (31720) - http://www.bohemiancoding.com/sketch -->
    <title>Share Icons  Copy 7</title>
    <desc>Created with Sketch.</desc>
    <defs></defs>
    <g id="ALL-ICON" stroke="none" stroke-width="1" fill="none" fill-rule="evenodd" stroke-linecap="round" stroke-linejoin="round">
        <g id="Circle--Icons-" transform="translate(-83.000000, -52.000000)" stroke-width="3" stroke="#4A4A4A">
            <g id="Group-4-Copy" transform="translate(82.000000, 52.000000)">
                <g id="Group-11-Copy">
                    <g id="Group-2">
                        <path d="M56.3610433,30.2622941 C55.0172088,18.701349 45.2307162,9.72950006 33.0905434,9.72950006 C22.9059363,9.72950006 14.0712642,16.6815445 11.1888964,26.1557353 L12.1568216,13.4351311 M9.82004345,35.7377059 C11.1913738,47.3032085 20.9806077,56.2704999 33.0905434,56.2704999 C43.2445169,56.2704999 52.0401644,49.4006733 54.9921904,39.8442647 L54.0242652,52.5648689" id="Oval-49-Copy" transform="translate(33.090543, 33.000000) rotate(-225.000000) translate(-33.090543, -33.000000) "></path>
                        <g id="Group-11" transform="translate(23.310345, 21.896552)">
                            <path d="M0.689655172,10.1034483 L18.6896553,10.1034483" id="Path-79"></path>
                            <path d="M0.689655172,17.1034483 L18.6896553,17.1034483" id="Path-79-Copy"></path>
                            <path d="M9.68965518,11.1034483 L9.68965518,24.1034483" id="Path-79-Copy-2"></path>
                            <path d="M2.44827586,0.965517227 L9.68965517,11.103448" id="Path-79-Copy-3"></path>
                            <path d="M18.3793103,0.965517227 L9.68965517,11.103448" id="Path-79-Copy-4"></path>
                        </g>
                    </g>
                </g>
            </g>
        </g>
    </g>
</svg>