<?xml version="1.0" encoding="utf-8"?>
<!-- Generator: Adobe Illustrator 17.0.2, SVG Export Plug-In . SVG Version: 6.00 Build 0)  -->
<!DOCTYPE svg PUBLIC "-//W3C//DTD SVG 1.1//EN" "http://www.w3.org/Graphics/SVG/1.1/DTD/svg11.dtd">
<svg version="1.1" id="图层_2" xmlns="http://www.w3.org/2000/svg" xmlns:xlink="http://www.w3.org/1999/xlink" x="0px" y="0px"
	 width="44px" height="44px" viewBox="0 0 44 44" enable-background="new 0 0 44 44" xml:space="preserve">
<g>
	<path d="M25,22.518c0-0.05,0.003-0.104,0.01-0.161c0.049-0.377,0.151-0.689,0.466-1.171c0.24-0.367,0.481-0.658,0.628-0.811
		c0.84-0.877,1.49-2.508,1.858-4.115c0.214-0.935,0.35-1.926,0.424-2.92c0.045-0.62,0.06-1.123,0.059-1.457v-0.501
		c0-3.812-1.508-6.944-4.725-8.586c-0.941-0.501-1.954-0.853-3.003-1.042c-0.463-0.091-0.933-0.144-1.405-0.158H18.81
		c-0.474,0.013-1.74,0.146-2.205,0.238c-1.02,0.189-2.209,0.604-2.917,1.083c-2.562,1.396-4.409,4.499-4.409,8.547v0.498
		c-0.002,0.337,0.013,0.842,0.06,1.46c0.101,1.38,0.181,1.87,0.423,2.92c0.368,1.606,0.847,2.908,1.613,3.814
		c0.148,0.153,0.604,0.665,0.844,1.031c0.562,0.558,0.458,1.402,0.453,1.453c-0.077,0.815-1.043,1.395-4.005,2.859
		c-6.342,3.133-8.312,5.109-8.312,7.979l-0.146,3.479c-0.04,0.544,0.748,1.291,1.292,1.333c0.543,0.036,1.458-0.458,1.625-1.208
		c0.021-0.34,0.219-3.49,0.219-3.49c0.002-1.727,1.635-2.844,6.99-5.719c3.542-1.625,5.448-3.021,5.375-5.229
		c-0.005-0.138-0.01-0.277-0.027-0.417c-0.094-0.73-0.394-1.76-0.86-2.474c-0.252-0.39-0.538-0.757-0.855-1.097
		c-0.543-0.566-0.991-1.394-1.286-2.68c-0.286-1.286-0.431-2.6-0.432-3.918v-0.511c0-3.295,1.093-5.01,3.252-6.174
		c0.763-0.405,1.537-0.571,2.387-0.724c0.352-0.07,0.886-0.177,1.171-0.144c0.285,0.033,0.935,0.095,1.582,0.258
		c0.647,0.163,1.19,0.393,1.953,0.798c2.16,1.164,2.948,3.04,2.948,6.335v0.498c0,1.322-0.234,2.564-0.521,3.854
		c-0.295,1.286-0.811,1.912-1.354,2.479c-0.317,0.34-0.51,0.79-0.762,1.18c-0.466,0.713-0.704,1.362-0.798,2.091
		c-0.018,0.14,0.035,0.718,0.035,0.854c0,0.329,0.087,0.745,0.142,1.024l3.303-0.029C25.426,23.584,25,22.88,25,22.518z"/>
	<path d="M41.602,28.589l-0.02-0.041l0.019-0.007l-0.117-0.338l1.004-1.957l-1.499-1.499l-1.498-1.498l-1.957,1.004l-0.191-0.066
		l-0.192-0.093L36.476,22h-0.003h-2.117h-0.003h-2.117h-0.003l-0.674,2.094l-0.192,0.093l-0.191,0.066l-1.957-1.004l-1.498,1.498
		l-1.499,1.499l1.004,1.957l-0.117,0.338l0.019,0.007l-0.02,0.041l-2.094,0.674v0.039v2.08v0.039v2.08v0.039l2.094,0.674l0.02,0.041
		l-0.019,0.007l0.117,0.338l-1.004,1.957l1.499,1.499l1.498,1.498l1.957-1.004l0.191,0.066l0.192,0.093l0.674,2.094h0.003h2.117
		h0.003h2.117h0.003l0.674-2.094l0.192-0.093l0.191-0.066l1.957,1.004l1.498-1.498l1.499-1.499l-1.004-1.957l0.117-0.338
		l-0.019-0.007l0.02-0.041l2.094-0.674v-0.039v-2.08v-0.039v-2.08v-0.039L41.602,28.589z M41.711,31.383v0.039v0.635l-1.078,0.375
		l-0.596,0.008l-0.31,1.159l-0.577,1.124l0.416,0.427l0.497,1.027l-0.477,0.477l-0.477,0.477l-1.027-0.497l-0.427-0.416
		l-0.913,0.527l-1.308,0.395l-0.023,0.006l-0.008,0.596l-0.375,1.078h-0.672h-0.003h-0.672l-0.375-1.078L33.3,37.146l-0.023-0.006
		l-1.308-0.395l-0.913-0.527l-0.427,0.416l-1.027,0.497l-0.477-0.477l-0.477-0.477l0.497-1.027l0.416-0.427l-0.577-1.124
		l-0.31-1.159l-0.596-0.008L27,32.057v-0.635v-0.039v-0.635l1.078-0.375l0.596-0.008l0.31-1.159l0.577-1.124l-0.416-0.427
		l-0.497-1.027l0.477-0.477l0.477-0.477l1.027,0.497l0.427,0.416l0.913-0.527l1.308-0.395l0.023-0.006l0.008-0.596l0.375-1.078
		h0.672h0.003h0.672l0.375,1.078l0.008,0.596l0.023,0.006l1.308,0.395l0.913,0.527l0.427-0.416l1.027-0.497l0.477,0.477l0.477,0.477
		l-0.497,1.027l-0.416,0.427l0.577,1.124l0.31,1.159l0.596,0.008l1.078,0.375V31.383z"/>
	<path d="M34.366,26.793c-2.56,0-4.635,2.075-4.635,4.635c0,2.56,2.075,4.635,4.635,4.635c2.56,0,4.635-2.075,4.635-4.635
		C39.001,28.868,36.926,26.793,34.366,26.793z M34.366,34.126c-1.49,0-2.698-1.208-2.698-2.698c0-1.49,1.208-2.698,2.698-2.698
		c1.49,0,2.698,1.208,2.698,2.698C37.064,32.918,35.856,34.126,34.366,34.126z"/>
</g>
</svg>
