<svg width="44" height="44" viewBox="0 0 44 44" xmlns="http://www.w3.org/2000/svg"><title>System Icons Copy 12</title><g stroke="#4A4A4A" fill="none" fill-rule="evenodd"><path d="M24.85 23.375c-.161-.266-.211-.547-.211-.909 0-.05.003-.104.01-.161.049-.377.253-.84.568-1.322.24-.367.481-.658.628-.811.84-.877 1.403-2.17 1.772-3.777.214-.935.35-1.926.424-2.92.045-.62.06-1.123.059-1.457v-.501c0-4.048-1.691-6.753-4.476-8.254a10.263 10.263 0 0 0-3.003-1.042 8.553 8.553 0 0 0-1.405-.158h-.503a8.545 8.545 0 0 0-1.412.158c-1.02.189-2.042.523-3.004 1.042-2.784 1.5-4.475 4.206-4.475 8.254v.498c-.002.337.013.842.06 1.46.073.994.208 1.986.423 2.92.368 1.606.931 2.9 1.77 3.777.148.153.389.444.629.81.315.483.52.946.568 1.323.007.057.01.11.01.161 0 1.14-.442 1.625-3.404 3.089-6.342 3.133-8.955 4.99-8.955 7.86L.69 36.75a.99.99 0 0 0 .91 1.06.985.985 0 0 0 1.048-.922l.235-3.403c.002-1.73 2.473-3.485 7.856-6.144 3.564-1.762 4.506-2.793 4.506-4.875 0-.138-.01-.277-.027-.417-.094-.73-.412-1.45-.878-2.164a7.86 7.86 0 0 0-.855-1.097c-.543-.566-.974-1.556-1.269-2.842a18.068 18.068 0 0 1-.432-3.918v-.511c0-3.295 1.276-5.336 3.435-6.5a8.343 8.343 0 0 1 2.435-.842 6.755 6.755 0 0 1 1.068-.125h.486c.185.001.562.033 1.059.125a8.344 8.344 0 0 1 2.435.842c2.16 1.164 3.435 3.205 3.435 6.5v.498a18.091 18.091 0 0 1-.432 3.931c-.295 1.286-.726 2.275-1.269 2.842a7.86 7.86 0 0 0-.855 1.097c-.466.713-.784 1.435-.878 2.164-.018.14-.027.28-.027.417 0 .329.025.63.08.909h2.094z" fill="#4A4A4A"/><path d="M41.054 29.517l1.946.566v2.834l-1.946.566h-.053a6.78 6.78 0 0 1-.503 1.21l.05.051.964 1.765-2.003 2.003-1.789-.987-.025-.025a6.707 6.707 0 0 1-1.212.504v.067L35.917 40h-2.834l-.566-1.962v-.034a6.701 6.701 0 0 1-1.212-.504l-.049.05-1.765.962-2.003-2.003.987-1.789.027-.027a6.822 6.822 0 0 1-.503-1.21h-.07L26 32.917v-2.834l1.963-.566h.036c.13-.422.3-.827.503-1.21l-.039-.039-.975-1.777 2.003-2.003 1.777.975.037.037a6.701 6.701 0 0 1 1.212-.504v-.05L33.083 23h2.834l.566 1.946v.05c.424.128.829.299 1.212.504l.037-.037 1.777-.975 2.003 2.003-.975 1.777-.04.04c.205.382.375.787.504 1.209h.053zm-6.554-1.7a3.683 3.683 0 1 0 0 7.366 3.683 3.683 0 0 0 0-7.366z" stroke-width="2"/></g></svg>