<?xml version="1.0" encoding="UTF-8" standalone="no"?>
<svg width="44px" height="44px" viewBox="0 0 44 44" version="1.1" xmlns="http://www.w3.org/2000/svg" xmlns:xlink="http://www.w3.org/1999/xlink">
    <!-- Generator: Sketch 39.1 (31720) - http://www.bohemiancoding.com/sketch -->
    <title>System Icons Copy 12</title>
    <desc>Created with Sketch.</desc>
    <defs></defs>
    <g id="ALL-ICON" stroke="none" stroke-width="1" fill="none" fill-rule="evenodd">
        <g id="System-Icons" transform="translate(-432.000000, -182.000000)">
            <rect id="Rectangle-15" fill="#D8D8D8" opacity="0" x="433" y="182" width="44" height="44"></rect>
            <path d="M456.849847,205.375 C456.688597,205.108942 456.638584,204.828338 456.638584,204.466343 C456.638584,204.415505 456.64216,204.361645 456.64943,204.304863 C456.697722,203.927687 456.901634,203.464987 457.217077,202.982834 C457.457242,202.615743 457.698446,202.324985 457.845099,202.17189 C458.685076,201.294603 459.248496,200.0013 459.616631,198.395461 C459.83102,197.460272 459.966617,196.468656 460.040518,195.474254 C460.086481,194.855781 460.101278,194.351603 460.09975,194.018348 C460.099701,194.00931 460.099711,193.516605 460.099711,193.516605 C460.099711,189.468828 458.408927,186.763802 455.624208,185.262529 C454.662309,184.743958 453.640755,184.40995 452.620579,184.22068 C452.00458,184.106396 451.516606,184.065161 451.216145,184.062537 L450.713399,184.0625 C450.404488,184.065161 449.916542,184.106397 449.30058,184.220683 C448.280466,184.409955 447.258974,184.743967 446.297134,185.262543 C443.512603,186.763824 441.821944,189.468846 441.821944,193.516605 L441.821944,194.014795 C441.820354,194.352247 441.835132,194.85667 441.881065,195.475192 C441.95489,196.469278 442.090379,197.460533 442.304616,198.395386 C442.672627,200.00125 443.235984,201.294581 444.075819,202.171719 C444.222636,202.324985 444.46384,202.615743 444.704005,202.982834 C445.019447,203.464987 445.223359,203.927687 445.271651,204.304863 C445.278921,204.361645 445.282497,204.415505 445.282497,204.466343 C445.282497,205.606921 444.840425,206.090853 441.878449,207.554923 C435.53596,210.688398 432.922559,212.544386 432.922559,215.4155 L432.689931,218.749576 C432.65213,219.296977 433.059719,219.771762 433.600306,219.810039 C434.140893,219.848316 434.609768,219.435589 434.647569,218.888189 L434.882587,215.484807 C434.884977,213.755141 437.355993,212.000272 442.73912,209.340765 C446.302538,207.57941 447.244916,206.547799 447.244916,204.466343 C447.244916,204.328233 447.235684,204.189191 447.217781,204.049366 C447.124382,203.319894 446.806289,202.598104 446.339986,201.885361 C446.023868,201.402175 445.708789,201.022365 445.484587,200.788316 C444.941894,200.221518 444.510937,199.232145 444.216239,197.946192 C443.888615,196.516559 443.779564,195.048137 443.7843,194.027816 C443.784326,194.02315 443.784362,193.516605 443.784362,193.516605 C443.784362,190.22186 445.060045,188.180791 447.219419,187.016564 C447.987945,186.602213 448.820417,186.330008 449.654267,186.175295 C450.150683,186.08319 450.52792,186.05131 450.721863,186.049616 L451.207682,186.049653 C451.393184,186.05131 451.770456,186.083191 452.266917,186.175298 C453.100839,186.330013 453.933383,186.602221 454.701975,187.016578 C456.861519,188.180813 458.137293,190.221878 458.137293,193.516605 L458.137293,194.014795 C458.142029,195.047367 458.032882,196.51605 457.705042,197.946117 C457.410235,199.232096 456.979209,200.221495 456.436331,200.788487 C456.212292,201.022365 455.897213,201.402175 455.581095,201.885361 C455.114792,202.598104 454.796699,203.319894 454.7033,204.049366 C454.685397,204.189191 454.676166,204.328233 454.676166,204.466343 C454.676166,204.794998 454.70074,205.095187 454.755985,205.375 L456.849847,205.375 Z" id="Combined-Shape" stroke="#4A4A4A" fill="#4A4A4A"></path>
            <path d="M473.054067,211.516667 L475,212.083333 L475,214.916667 L473.054067,215.483333 L473.0008,215.483333 C472.8716,215.9055 472.702167,216.3101 472.4976,216.693167 L472.5486,216.744167 L473.511933,218.508767 L471.508767,220.5125 L469.720367,219.5248 L469.695433,219.499867 C469.3118,219.705 468.906633,219.875567 468.483333,220.0042 L468.483333,220.071067 L467.916667,222 L465.083333,222 L464.516667,220.037633 L464.516667,220.0042 C464.093367,219.875567 463.688767,219.705 463.305133,219.499867 L463.2564,219.549167 L461.491233,220.5125 L459.488067,218.508767 L460.4752,216.720367 L460.5024,216.693167 C460.2984,216.3101 460.1284,215.9055 459.9992,215.483333 L459.928933,215.483333 L458,214.916667 L458,212.083333 L459.962933,211.516667 L459.9992,211.516667 C460.1284,211.0945 460.2984,210.690467 460.5024,210.3074 L460.4633,210.2683 L459.488067,208.491233 L461.491233,206.488067 L463.2683,207.4633 L463.305133,207.500133 C463.688767,207.295 464.093367,207.124433 464.516667,206.9958 L464.516667,206.9465 L465.083333,205 L467.916667,205 L468.483333,206.9465 L468.483333,206.9958 C468.906633,207.124433 469.3118,207.295 469.695433,207.500133 L469.7317,207.4633 L471.508767,206.488067 L473.511933,208.491233 L472.5367,210.2683 L472.4976,210.3074 C472.702167,210.690467 472.8716,211.0945 473.0008,211.516667 L473.054067,211.516667 L473.054067,211.516667 Z M466.5,209.816667 C464.465667,209.816667 462.816667,211.465667 462.816667,213.5 C462.816667,215.534333 464.465667,217.183333 466.5,217.183333 C468.534333,217.183333 470.183333,215.534333 470.183333,213.5 C470.183333,211.465667 468.534333,209.816667 466.5,209.816667 L466.5,209.816667 Z" id="Imported-Layers" stroke="#4A4A4A" stroke-width="2"></path>
        </g>
    </g>
</svg>