<svg width="42" height="42" viewBox="0 0 42 42" xmlns="http://www.w3.org/2000/svg" xmlns:xlink="http://www.w3.org/1999/xlink"><title>财富</title><defs><path d="M21 0C9.402 0 0 9.402 0 21c0 11.599 9.402 21 21 21s21-9.401 21-21C42 9.402 32.598 0 21 0z" id="a"/><mask id="b" x="0" y="0" width="42" height="42" fill="#fff"><use xlink:href="#a"/></mask></defs><g fill="none" fill-rule="evenodd"><use stroke="#888" mask="url(#b)" stroke-width="4" xlink:href="#a"/><path d="M29 18.73a1 1 0 0 0-.999-1h-4.643l4.428-5.05a1.292 1.292 0 0 0 0-1.668.96.96 0 0 0-1.476 0l-5.21 5.89-5.209-5.89a.96.96 0 0 0-1.476 0 1.292 1.292 0 0 0 0 1.667l4.429 5.051H14.23a1 1 0 0 0-.999 1c0 .554.448.97.999.97h5.902v3.942H14.23a1 1 0 0 0-.999 1c0 .552.448.985.999.985h5.902v4.896a1 1 0 0 0 .998 1c.551 0 .969-.284.969-.836v-5.06H28a.987.987 0 0 0 .999-.985 1 1 0 0 0-.999-1H22.1V19.7H28c.552 0 .999-.417.999-.97z" fill="#888"/></g></svg>