<?xml version="1.0" encoding="utf-8"?>
<!-- Generator: Adobe Illustrator 17.0.2, SVG Export Plug-In . SVG Version: 6.00 Build 0)  -->
<!DOCTYPE svg PUBLIC "-//W3C//DTD SVG 1.1//EN" "http://www.w3.org/Graphics/SVG/1.1/DTD/svg11.dtd">
<svg version="1.1" id="图层_1" xmlns="http://www.w3.org/2000/svg" xmlns:xlink="http://www.w3.org/1999/xlink" x="0px" y="0px"
	 width="42px" height="42px" viewBox="0 0 42 42" enable-background="new 0 0 42 42" xml:space="preserve">
<g>
	<path d="M28.001,17.73h-4.643l4.428-5.05c0.407-0.482,0.407-1.186,0-1.668c-0.339-0.408-0.944-0.463-1.352-0.124
		c-0.045,0.037-0.087,0.079-0.124,0.124l-5.21,5.89l-5.209-5.89c-0.339-0.408-0.944-0.463-1.352-0.124
		c-0.045,0.037-0.087,0.079-0.124,0.124c-0.406,0.481-0.406,1.186,0,1.667l4.429,5.051H14.23c-0.552,0.001-0.999,0.448-0.999,1
		c0,0.554,0.448,0.97,0.999,0.97h5.902v3.942H14.23c-0.552,0.001-0.999,0.448-0.999,1c0,0.552,0.448,0.985,0.999,0.985h5.902v4.896
		c0,0.552,0.446,0.999,0.998,1c0.551,0,0.969-0.284,0.969-0.836v-5.06H28c0.545,0.007,0.992-0.43,0.999-0.975
		c0-0.003,0-0.007,0-0.01c0-0.552-0.447-0.999-0.999-1h-5.9V19.7H28c0.552,0,0.999-0.417,0.999-0.97H29
		C29,18.178,28.553,17.731,28.001,17.73z"/>
	<path d="M21.058,0c-11.598,0-21,9.402-21,21c0,11.599,9.402,21,21,21c11.598,0,21-9.401,21-21C42.058,9.402,32.656,0,21.058,0z
		 M21.058,39.5c-10.217,0-18.5-8.282-18.5-18.5c0-10.217,8.283-18.5,18.5-18.5s18.5,8.283,18.5,18.5
		C39.558,31.218,31.275,39.5,21.058,39.5z"/>
</g>
</svg>
