<?xml version="1.0" encoding="utf-8"?>
<!-- Generator: Adobe Illustrator 17.0.2, SVG Export Plug-In . SVG Version: 6.00 Build 0)  -->
<!DOCTYPE svg PUBLIC "-//W3C//DTD SVG 1.1//EN" "http://www.w3.org/Graphics/SVG/1.1/DTD/svg11.dtd">
<svg version="1.1" id="图层_2" xmlns="http://www.w3.org/2000/svg" xmlns:xlink="http://www.w3.org/1999/xlink" x="0px" y="0px"
	 width="44px" height="44px" viewBox="0 0 44 44" enable-background="new 0 0 44 44" xml:space="preserve">
<g>
	<path d="M40.542,4.125H23.375h-0.042V21.5h17.25V4.125H40.542z M37.542,18.5H26.375V7.125h11.167V18.5z"/>
	<rect x="29" y="9.917" width="5.667" height="5.667"/>
	<path d="M4.042,4.125H4V21.5h17.25V4.125h-0.042H4.042z M18.208,18.5H7.042V7.125h11.167V18.5z"/>
	<rect x="9.667" y="9.917" width="5.667" height="5.667"/>
	<path d="M4.042,23.542H4v17.375h17.25V23.542h-0.042H4.042z M18.208,37.917H7.042V26.542h11.167V37.917z"/>
	<rect x="9.667" y="29.333" width="5.667" height="5.667"/>
	<polygon points="23.5,23.958 23.5,26.583 23.502,26.583 23.505,30.876 26.13,30.874 26.127,26.583 31.833,26.583 31.833,23.958 	
		"/>
	<polygon points="26.127,32.229 25.972,32.229 23.333,32.229 23.333,32.231 23.333,32.231 23.333,32.309 23.333,34.854 
		23.335,34.854 23.34,40.918 26.134,40.916 26.129,34.854 28.982,34.854 28.982,32.229 26.127,32.229 	"/>
	<rect x="32.208" y="28.083" width="4.125" height="4.146"/>
	<rect x="36.458" y="23.958" width="4.125" height="4.146"/>
	<rect x="36.458" y="32.229" width="4.125" height="4.146"/>
	<rect x="31.958" y="37.875" width="8.625" height="3.042"/>
</g>
</svg>
