<svg width="44" height="44" viewBox="0 0 44 44" xmlns="http://www.w3.org/2000/svg"><title>Operation Icons Copy 12</title><g fill-rule="evenodd"><path d="M21.186 3C10.333 3 1.827 11.506 1.827 22.358 1.827 32.494 10.333 41 21.186 41c10.133 0 18.641-8.506 18.641-18.642C39.827 11.506 31.32 3 21.186 3m15.641 19c0 8.823-7.179 16-16 16-8.823 0-16-7.177-16-16s7.177-16 16-16c8.821 0 16 7.177 16 16z"/><path d="M22.827 31.5a1.5 1.5 0 1 1-2.999.001 1.5 1.5 0 0 1 3-.001M26.827 16.02c0 .957-.203 1.822-.61 2.593-.427.792-1.117 1.612-2.073 2.457-.867.734-1.453 1.435-1.754 2.096-.302.7-.453 1.693-.453 2.979a.828.828 0 0 1-.823.855.828.828 0 0 1-.584-.22.877.877 0 0 1-.24-.635c0-1.305.168-2.38.506-3.227.336-.883.93-1.682 1.779-2.4 1.01-.883 1.71-1.692 2.1-2.428.337-.645.504-1.38.504-2.209-.018-.936-.3-1.7-.85-2.289-.654-.717-1.62-1.075-2.896-1.075-1.506 0-2.596.535-3.269 1.6-.46.754-.689 1.645-.689 2.677a.92.92 0 0 1-.266.66.747.747 0 0 1-.558.25.73.73 0 0 1-.585-.194c-.16-.164-.239-.393-.239-.69 0-1.819.584-3.272 1.754-4.357C18.644 11.486 19.927 11 21.433 11h.293c1.452 0 2.638.414 3.561 1.241 1.027.902 1.54 2.162 1.54 3.78z"/></g></svg>