<?xml version="1.0" encoding="UTF-8" standalone="no"?>
<svg width="64px" height="64px" viewBox="0 0 64 64" version="1.1" xmlns="http://www.w3.org/2000/svg" xmlns:xlink="http://www.w3.org/1999/xlink">
    <!-- Generator: Sketch 39.1 (31720) - http://www.bohemiancoding.com/sketch -->
    <title>Share Icons  Copy</title>
    <desc>Created with Sketch.</desc>
    <defs></defs>
    <g id="ALL-ICON" stroke="none" stroke-width="1" fill="none" fill-rule="evenodd">
        <g id="Share-Icons-" transform="translate(-336.000000, -50.000000)">
            <g id="Group" transform="translate(337.666667, 52.000000)">
                <rect id="Rectangle" fill="#D8D8D8" opacity="0" x="0" y="0" width="60" height="60"></rect>
                <path d="M57.5107109,27.4996362 C57.5107109,27.4996362 56.2604781,27.4996362 56.2604781,30.0006261 C56.2604781,44.4713537 44.474533,56.2435132 30.0068385,56.2435132 C15.539144,56.2435132 3.75069854,44.4713537 3.75069854,30.0006261 C3.75069854,16.1638995 15.1640742,4.71061626 28.7553555,3.74023218 L28.7553555,9.99270693 C28.7553555,10.6154534 28.4377963,11.6283543 28.9528922,11.9784929 C29.2692012,12.1923275 29.6367696,12.3011206 30.0068385,12.3011206 C30.2418823,12.3011206 30.4781763,12.2573533 30.7032182,12.1673177 L52.0734483,3.62268565 C52.909854,3.2888035 53.7600124,2.48973723 53.7600124,1.23924228 C53.7587621,-0.0112526717 52.2772362,1.78285453e-06 51.3770686,1.78285453e-06 L30.0068385,1.78285453e-06 C13.4675082,1.78285453e-06 0,13.4590789 0,30.0006261 C0,46.5434238 13.4675082,60 30.0068385,60 C46.5449186,60 59.9249105,46.5421733 59.9999245,29.9993756 C60.0111766,27.4996362 58.7609438,27.4996362 58.7609438,27.4996362 L57.5107109,27.4996362" id="刷新" fill="#4A4A4A"></path>
            </g>
        </g>
    </g>
</svg>