<svg width="44" height="44" viewBox="0 0 44 44" xmlns="http://www.w3.org/2000/svg" xmlns:xlink="http://www.w3.org/1999/xlink"><title>Operation Icons Copy 11</title><defs><path id="a" d="M0 0h17v17H0z"/><mask id="e" x="0" y="0" width="17" height="17" fill="#fff"><use xlink:href="#a"/></mask><path id="b" d="M0 0h17v17H0z"/><mask id="f" x="0" y="0" width="17" height="17" fill="#fff"><use xlink:href="#b"/></mask><path id="c" d="M19 0h17v17H19z"/><mask id="g" x="0" y="0" width="17" height="17" fill="#fff"><use xlink:href="#c"/></mask><path id="d" d="M0 19h17v17H0z"/><mask id="h" x="0" y="0" width="17" height="17" fill="#fff"><use xlink:href="#d"/></mask></defs><g fill="none" fill-rule="evenodd"><g transform="translate(4.37 4)"><path fill="#797979" d="M5.653 11.236h5.563V5.674H5.653z"/><use stroke="#797979" mask="url(#e)" stroke-width="6" xlink:href="#a"/></g><g transform="translate(4.37 4)"><path fill="#4A4A4A" d="M5.653 11.236h5.563V5.674H5.653z"/><use stroke="#4A4A4A" mask="url(#f)" stroke-width="6" xlink:href="#b"/><path fill="#4A4A4A" d="M31.888 23.537H36v-4.15h-4.112zM27.738 27.688h4.15v-4.15h-4.15zM31.888 31.838H36v-4.15h-4.112zM27.738 35.86H36v-2.74h-8.262zM19.17 27.688h5.456v2.697h-2.76v5.476H19.17zM19.17 19.387v6.91h2.696v-4.213h5.477v-2.697zM24.653 11.236h5.563V5.674h-5.563z"/><use stroke="#4A4A4A" mask="url(#g)" stroke-width="6" xlink:href="#c"/><path fill="#4A4A4A" d="M5.653 30.236h5.563v-5.562H5.653z"/><use stroke="#4A4A4A" mask="url(#h)" stroke-width="6" xlink:href="#d"/></g></g></svg>