<?xml version="1.0" encoding="utf-8"?>
<!-- Generator: Adobe Illustrator 17.0.2, SVG Export Plug-In . SVG Version: 6.00 Build 0)  -->
<!DOCTYPE svg PUBLIC "-//W3C//DTD SVG 1.1//EN" "http://www.w3.org/Graphics/SVG/1.1/DTD/svg11.dtd">
<svg version="1.1" id="图层_4" xmlns="http://www.w3.org/2000/svg" xmlns:xlink="http://www.w3.org/1999/xlink" x="0px" y="0px"
	 width="44px" height="44px" viewBox="0 0 44 44" enable-background="new 0 0 44 44" xml:space="preserve">
<g>
	<path d="M7.25,16V9.083c0-1.105,0.895-2,2-2h8V4H8.274c-2.204,0-3.99,1.786-3.99,3.99V16H7.25z"/>
	<path d="M27.333,7.083h7.917c1.105,0,2,0.895,2,2V16h3.033V7.99c0-2.204-1.786-3.99-3.99-3.99h-8.961V7.083z"/>
	<path d="M17.25,37.084h-8c-1.105,0-2-0.895-2-2v-9.001H4.284v9.927c0,2.204,1.786,3.99,3.99,3.99h8.976V37.084z"/>
	<path d="M37.251,26.083v9.001c0,1.105-0.895,2-2,2h-7.917V40h8.961c2.204,0,3.99-1.786,3.99-3.99v-9.927H37.251z"/>
</g>
<path d="M40.284,21c0,0.552-0.448,1-1,1h-34c-0.552,0-1-0.448-1-1v-1c0-0.552,0.448-1,1-1h34c0.552,0,1,0.448,1,1V21z"/>
</svg>
