<?xml version="1.0" encoding="UTF-8" standalone="no"?>
<svg width="44px" height="44px" viewBox="0 0 44 44" version="1.1" xmlns="http://www.w3.org/2000/svg" xmlns:xlink="http://www.w3.org/1999/xlink">
    <!-- Generator: Sketch 39.1 (31720) - http://www.bohemiancoding.com/sketch -->
    <title>Operation Icons  Copy 11</title>
    <desc>Created with Sketch.</desc>
    <defs>
        <rect id="path-1" x="0" y="0" width="17" height="17"></rect>
        <mask id="mask-2" maskContentUnits="userSpaceOnUse" maskUnits="objectBoundingBox" x="0" y="0" width="17" height="17" fill="white">
            <use xlink:href="#path-1"></use>
        </mask>
        <rect id="path-3" x="0" y="0" width="17" height="17"></rect>
        <mask id="mask-4" maskContentUnits="userSpaceOnUse" maskUnits="objectBoundingBox" x="0" y="0" width="17" height="17" fill="white">
            <use xlink:href="#path-3"></use>
        </mask>
        <rect id="path-5" x="19" y="0" width="17" height="17"></rect>
        <mask id="mask-6" maskContentUnits="userSpaceOnUse" maskUnits="objectBoundingBox" x="0" y="0" width="17" height="17" fill="white">
            <use xlink:href="#path-5"></use>
        </mask>
        <rect id="path-7" x="0" y="19" width="17" height="17"></rect>
        <mask id="mask-8" maskContentUnits="userSpaceOnUse" maskUnits="objectBoundingBox" x="0" y="0" width="17" height="17" fill="white">
            <use xlink:href="#path-7"></use>
        </mask>
    </defs>
    <g id="ALL-ICON" stroke="none" stroke-width="1" fill="none" fill-rule="evenodd">
        <g id="Float-Icons-" transform="translate(-596.000000, -60.000000)">
            <g id="QRcode" transform="translate(597.370370, 61.000000)">
                <g id="Page-1" transform="translate(3.000000, 3.000000)">
                    <g id="Group-16">
                        <polygon id="Fill-1" fill="#797979" points="5.65327174 11.2363533 11.2162011 11.2363533 11.2162011 5.67361957 5.65327174 5.67361957"></polygon>
                        <use id="Rectangle-1678" stroke="#797979" mask="url(#mask-2)" stroke-width="6" xlink:href="#path-1"></use>
                    </g>
                    <g id="Group-16">
                        <g id="Group-17">
                            <polygon id="Fill-1" fill="#4A4A4A" points="5.65327174 11.2363533 11.2162011 11.2363533 11.2162011 5.67361957 5.65327174 5.67361957"></polygon>
                            <use id="Rectangle-1678" stroke="#4A4A4A" mask="url(#mask-4)" stroke-width="6" xlink:href="#path-3"></use>
                            <polygon id="Fill-4" fill="#4A4A4A" points="31.8878804 23.5373967 36 23.5373967 36 19.3870272 31.8878804 19.3870272"></polygon>
                            <polygon id="Fill-5" fill="#4A4A4A" points="27.7375109 27.6877174 31.8878804 27.6877174 31.8878804 23.5373967 27.7375109 23.5373967"></polygon>
                            <polygon id="Fill-6" fill="#4A4A4A" points="31.8878804 31.838087 36 31.838087 36 27.6877174 31.8878804 27.6877174"></polygon>
                            <polygon id="Fill-7" fill="#4A4A4A" points="27.7375109 35.8605978 36 35.8605978 36 33.1209293 27.7375109 33.1209293"></polygon>
                            <polygon id="Fill-8" fill="#4A4A4A" points="19.1704891 27.6877174 24.6260054 27.6877174 24.6260054 30.3848315 21.8658424 30.3848315 21.8658424 35.8605978 19.1704891 35.8605978"></polygon>
                            <polygon id="Fill-9" fill="#4A4A4A" points="19.1704891 19.3870272 19.1704891 26.2975598 21.8658424 26.2975598 21.8658424 22.0839457 27.3433696 22.0839457 27.3433696 19.3870272"></polygon>
                            <polygon id="Fill-1" fill="#4A4A4A" points="24.6532717 11.2363533 30.2162011 11.2363533 30.2162011 5.67361957 24.6532717 5.67361957"></polygon>
                            <use id="Rectangle-1678" stroke="#4A4A4A" mask="url(#mask-6)" stroke-width="6" xlink:href="#path-5"></use>
                            <polygon id="Fill-1" fill="#4A4A4A" points="5.65327174 30.2363533 11.2162011 30.2363533 11.2162011 24.6736196 5.65327174 24.6736196"></polygon>
                            <use id="Rectangle-1678" stroke="#4A4A4A" mask="url(#mask-8)" stroke-width="6" xlink:href="#path-7"></use>
                        </g>
                    </g>
                </g>
            </g>
        </g>
    </g>
</svg>