<?xml version="1.0" encoding="UTF-8" standalone="no"?>
<svg width="44px" height="44px" viewBox="0 0 44 44" version="1.1" xmlns="http://www.w3.org/2000/svg" xmlns:xlink="http://www.w3.org/1999/xlink">
    <!-- Generator: Sketch 39.1 (31720) - http://www.bohemiancoding.com/sketch -->
    <title>search@1x</title>
    <desc>Created with Sketch.</desc>
    <defs></defs>
    <g id="UI-KIT_基础元件" stroke="none" stroke-width="1"  fill-rule="evenodd">
        <path d="M31.9774969,29.2521309 L40.8899994,37.543702 L38.5983233,39.9954669 L29.7407267,31.7549765 C26.901114,34.3311276 23.1283049,35.9012737 18.9880009,35.9012737 C10.1583045,35.9012737 3,28.7601399 3,19.9496502 C3,11.1411338 10.1583045,4 18.9880009,4 C27.8176973,4 34.9760019,11.1411338 34.9760019,19.9496502 C34.9760019,23.4212415 33.8646099,26.63365 31.9774969,29.2521309 Z M32.0268459,20.0432929 C32.0268459,27.1648048 26.3267159,32.9590099 19.1496093,32.9590099 C11.9725027,32.9590099 6.13490214,27.1648048 6.13490214,20.0432929 C6.13490214,12.9236041 11.9725027,7.12757585 19.1496093,7.12757585 C26.3267159,7.12757585 32.0268459,12.9236041 32.0268459,20.0432929 Z" id="Fill-1" ></path>
    </g>
</svg>