<?xml version="1.0" encoding="utf-8"?>
<!-- Generator: Adobe Illustrator 17.0.2, SVG Export Plug-In . SVG Version: 6.00 Build 0)  -->
<!DOCTYPE svg PUBLIC "-//W3C//DTD SVG 1.1//EN" "http://www.w3.org/Graphics/SVG/1.1/DTD/svg11.dtd">
<svg version="1.1" id="图层_2" xmlns="http://www.w3.org/2000/svg" xmlns:xlink="http://www.w3.org/1999/xlink" x="0px" y="0px"
	 width="44px" height="44px" viewBox="0 0 44 44" enable-background="new 0 0 44 44" xml:space="preserve">
<g>
	<path d="M38.657,15.822l-0.046-0.093l0.043-0.016l-0.266-0.769l2.285-4.454l-3.412-3.412l-3.41-3.41l-4.454,2.285l-0.435-0.15
		l-0.437-0.212L26.99,0.825h-0.007h-4.818h-0.007h-4.818h-0.007l-1.534,4.766l-0.437,0.212l-0.435,0.15l-4.454-2.285l-3.41,3.41
		L3.651,10.49l2.285,4.454l-0.266,0.769l0.043,0.016l-0.045,0.093l-4.766,1.534v0.089v4.734v0.089v4.734v0.089l4.766,1.534
		l0.045,0.093l-0.043,0.016l0.266,0.769l-2.285,4.454l3.412,3.412l3.41,3.41l4.454-2.285l0.435,0.15l0.437,0.212l1.534,4.766h0.007
		h4.818h0.007h4.818h0.007l1.534-4.766l0.437-0.212l0.435-0.15l4.454,2.285l3.41-3.41l3.412-3.412l-2.285-4.454l0.266-0.769
		l-0.043-0.016l0.046-0.093l4.766-1.534v-0.089v-4.734V22.18v-4.734v-0.089L38.657,15.822z M40.693,22.177h-0.005v0.098v1.599
		l-2.715,0.944l-1.501,0.02l-0.781,2.919l-1.453,2.831l1.048,1.075l1.252,2.587l-1.201,1.201l-1.201,1.201l-2.587-1.252
		l-1.075-1.048l-2.299,1.327l-3.294,0.995l-0.058,0.015l-0.02,1.501l-0.944,2.715h-1.692h-0.008h-1.692l-0.944-2.715l-0.015-1.501
		l-0.058-0.015l-3.294-0.995l-2.299-1.327l-1.075,1.048l-2.587,1.252L8.99,35.452l-1.201-1.201l1.252-2.587l1.048-1.075
		l-1.453-2.831l-0.781-2.919l-1.501-0.02l-2.715-0.944v-1.599v-0.098v-1.599l2.715-0.944l1.501-0.02l0.781-2.919l1.453-2.831
		L9.04,12.788l-1.252-2.587L8.99,9l1.201-1.201l2.587,1.252l1.075,1.048l2.299-1.327l3.294-0.995l0.058-0.015l0.02-1.501
		l0.944-2.715h1.692h0.008h1.692l0.944,2.715l0.02,1.501l0.058,0.015l3.294,0.995l2.299,1.327l1.075-1.048l2.587-1.252L35.341,9
		l1.201,1.201l-1.252,2.587l-1.048,1.075l1.453,2.831l0.781,2.919l1.501,0.02l2.715,0.944V22.177z"/>
	<path d="M22.161,12.228c-5.521,0-9.996,4.475-9.996,9.996c0,5.521,4.475,9.996,9.996,9.996c5.521,0,9.996-4.475,9.996-9.996
		C32.157,16.703,27.682,12.228,22.161,12.228z M22.161,29.259c-3.885,0-7.035-3.15-7.035-7.035c0-3.885,3.15-7.035,7.035-7.035
		c3.885,0,7.035,3.15,7.035,7.035C29.196,26.109,26.046,29.259,22.161,29.259z"/>
</g>
</svg>
