<?xml version="1.0" encoding="utf-8"?>
<!-- Generator: Adobe Illustrator 17.0.2, SVG Export Plug-In . SVG Version: 6.00 Build 0)  -->
<!DOCTYPE svg PUBLIC "-//W3C//DTD SVG 1.1//EN" "http://www.w3.org/Graphics/SVG/1.1/DTD/svg11.dtd">
<svg version="1.1" id="图层_1" xmlns="http://www.w3.org/2000/svg" xmlns:xlink="http://www.w3.org/1999/xlink" x="0px" y="0px"
	 width="64px" height="64px" viewBox="0 0 64 64" enable-background="new 0 0 64 64" xml:space="preserve">
<title>Share Icons Copy 9</title>
<path display="none" fill="none" stroke="#4A4A4A" stroke-width="3" stroke-linecap="round" stroke-linejoin="round" d="
	M8.966,27.501C8.544,29.304,8.332,31.149,8.333,33c0,1.892,0.22,3.733,0.633,5.499c2.853,0.005,5.488,1.529,6.914,4.001
	c1.426,2.469,1.43,5.51,0.011,7.982c2.704,2.548,5.964,4.433,9.521,5.505c1.431-2.468,4.068-3.988,6.921-3.987
	c2.853-0.001,5.491,1.518,6.922,3.987c3.557-1.072,6.817-2.957,9.521-5.505c-1.419-2.473-1.414-5.514,0.012-7.982
	c1.425-2.471,4.059-3.996,6.912-4.001c0.422-1.803,0.634-3.648,0.633-5.499c0.001-1.851-0.211-3.696-0.633-5.499
	c-2.853-0.005-5.487-1.53-6.912-4.001c-1.426-2.468-1.431-5.509-0.012-7.982c-2.704-2.548-5.963-4.432-9.52-5.505
	c-1.431,2.469-4.07,3.989-6.924,3.987c-2.853,0.001-5.491-1.518-6.922-3.987c-3.557,1.073-6.816,2.957-9.52,5.505
	c1.419,2.473,1.414,5.514-0.012,7.982c-1.426,2.471-4.06,3.996-6.913,4.001H8.966z M32.333,41c4.418,0,8-3.582,8-8s-3.582-8-8-8
	s-8,3.582-8,8S27.915,41,32.333,41z"/>
<g>
	<path d="M32.333,23.583c-5.201,0-9.417,4.216-9.417,9.417s4.216,9.417,9.417,9.417S41.75,38.201,41.75,33
		S37.534,23.583,32.333,23.583z M32.333,39.46c-3.568,0-6.46-2.892-6.46-6.46c0-3.568,2.892-6.46,6.46-6.46
		c3.568,0,6.46,2.892,6.46,6.46C38.793,36.568,35.901,39.46,32.333,39.46z"/>
	<path d="M57.403,28.641c-0.014,0.003-0.028,0.004-0.042,0.007c-0.166-0.919-0.368-1.803-0.562-1.996
		c-0.434-0.434-0.526-0.545-1.531-0.671c-0.003,0-0.006-0.003-0.01-0.003c-2.108-0.104-4.122-1.234-5.266-3.192
		c-1.085-1.858-1.131-4.032-0.326-5.862l-0.002-0.007c0,0,0.012-0.023,0.03-0.059c0.032-0.071,0.064-0.141,0.098-0.211
		c0.194-0.437,0.443-1.254,0.178-1.714c-0.417-0.724-0.81-1.099-1.393-1.582c0.042-0.049-4.559-3.386-7.265-4.383V8.953h-0.039
		c-0.755-0.278-1.28-0.439-2.148-0.433c-0.53,0.003-1.111,0.63-1.39,1.018c-0.043,0.065-0.088,0.128-0.132,0.191
		c-0.022,0.034-0.035,0.055-0.035,0.055L37.56,9.786c-1.174,1.618-3.075,2.674-5.227,2.674c-2.268,0-4.259-1.171-5.411-2.938
		c-0.002-0.003-0.005-0.004-0.008-0.007c-0.616-0.805-0.758-0.828-1.352-0.984c-0.263-0.069-1.118,0.197-1.989,0.514h-0.127v0.023
		c-2.648,1.007-5.089,2.435-7.232,4.211c-0.496,0.512-0.983,0.962-1.419,1.721c-0.264,0.46-0.016,1.277,0.178,1.714
		c0.035,0.069,0.066,0.14,0.098,0.211c0.018,0.036,0.03,0.059,0.03,0.059l-0.002,0.007c0.805,1.83,0.759,4.004-0.326,5.862
		c-1.143,1.958-3.158,3.088-5.266,3.192c-0.003,0.001-0.006,0.003-0.01,0.003c-1.005,0.127-1.097,0.237-1.531,0.671
		c-0.192,0.192-0.629,1.96-0.665,1.953c-0.242,1.414-0.375,2.866-0.375,4.35c0,1.469,0.13,2.907,0.368,4.309
		c0.03-0.006,0.471,1.887,0.672,2.088c0.434,0.434,0.526,0.544,1.531,0.671c0.003,0,0.006,0.003,0.01,0.003
		c2.108,0.104,4.122,1.234,5.266,3.192c1.085,1.858,1.131,4.032,0.326,5.862l0.002,0.007c0,0-0.012,0.023-0.03,0.059
		c-0.032,0.071-0.064,0.141-0.098,0.211c-0.194,0.437-0.442,1.254-0.178,1.714c0.42,0.731,0.816,1.105,1.408,1.595
		c-0.003,0.004-0.006,0.008-0.01,0.012c2.201,1.828,4.714,3.293,7.446,4.307c0.001-0.004,0.003-0.008,0.004-0.012
		c0.867,0.315,1.716,0.579,1.977,0.51c0.594-0.156,0.735-0.179,1.352-0.984c0.002-0.003,0.005-0.004,0.008-0.007
		c1.153-1.767,3.144-2.938,5.411-2.938c2.152,0,4.053,1.056,5.227,2.674l0.007,0.002c0,0,0.014,0.022,0.035,0.055
		c0.045,0.063,0.09,0.126,0.132,0.191c0.28,0.388,0.86,1.014,1.39,1.018c0.875,0.006,2.132-0.523,2.116-0.566
		c2.64-0.997,5.152-2.516,7.294-4.276c-0.013-0.015-0.024-0.032-0.038-0.047c0.596-0.493,0.993-0.867,1.416-1.602
		c0.264-0.46,0.016-1.277-0.178-1.714c-0.035-0.07-0.066-0.14-0.098-0.211c-0.018-0.036-0.03-0.059-0.03-0.059l0.002-0.007
		c-0.805-1.83-0.759-4.004,0.326-5.862c1.143-1.958,3.158-3.088,5.266-3.192c0.003,0,0.006-0.003,0.01-0.003
		c1.005-0.127,1.097-0.237,1.531-0.671c0.194-0.194,0.396-1.078,0.562-1.997c0.016,0.003,0.033,0.004,0.048,0.008
		c0.241-1.411,0.373-2.86,0.373-4.34C57.783,31.527,57.648,30.065,57.403,28.641z M54.356,37.148
		c-2.79,0.362-5.388,1.959-6.917,4.578c-1.536,2.63-1.605,5.76-0.512,8.41c-2.058,1.737-4.553,3.255-7.139,4.17
		c-1.743-2.192-4.421-3.643-7.397-3.643c-3.015,0-5.69,1.423-7.411,3.628c-2.635-0.938-5.043-2.348-7.124-4.134
		c1.073-2.64,0.997-5.748-0.53-8.364c-1.537-2.633-4.155-4.234-6.962-4.585c-0.255-1.358-0.395-2.756-0.395-4.188
		c0-1.398,0.139-2.763,0.383-4.091c2.812-0.347,5.436-1.95,6.975-4.586c1.541-2.64,1.606-5.782,0.502-8.438
		c2.059-1.773,4.525-3.13,7.132-4.071c1.722,2.179,4.38,3.582,7.373,3.582c3.015,0,5.726-1.488,7.466-3.729h0.072
		c0,0,0,0.001-0.001,0.001c2.624,0.912,5.024,2.296,7.107,4.047c-1.148,2.677-1.099,5.867,0.461,8.54
		c1.527,2.616,4.122,4.212,6.909,4.577c0.253,1.352,0.393,2.743,0.393,4.169C54.742,34.432,54.603,35.809,54.356,37.148z"/>
</g>
</svg>
