<svg width="64" height="64" viewBox="0 0 64 64" xmlns="http://www.w3.org/2000/svg"><title>Share Icons Copy 9</title><path d="M8.966 27.501A24.07 24.07 0 0 0 8.333 33c0 1.892.22 3.733.633 5.499A7.997 7.997 0 0 1 15.88 42.5a7.997 7.997 0 0 1 .011 7.982 23.974 23.974 0 0 0 9.521 5.505A7.997 7.997 0 0 1 32.333 52a7.997 7.997 0 0 1 6.922 3.987 23.974 23.974 0 0 0 9.521-5.505 7.997 7.997 0 0 1 .012-7.982 7.997 7.997 0 0 1 6.912-4.001A24.07 24.07 0 0 0 56.333 33a24.07 24.07 0 0 0-.633-5.499 7.997 7.997 0 0 1-6.912-4.001 7.997 7.997 0 0 1-.012-7.982 23.974 23.974 0 0 0-9.52-5.505A7.997 7.997 0 0 1 32.332 14a7.997 7.997 0 0 1-6.922-3.987 23.974 23.974 0 0 0-9.52 5.505 7.997 7.997 0 0 1-.012 7.982 7.997 7.997 0 0 1-6.913 4.001zM32.333 41a8 8 0 1 0 0-16 8 8 0 0 0 0 16z" stroke="#4A4A4A" stroke-width="3" fill="none" fill-rule="evenodd" stroke-linecap="round" stroke-linejoin="round"/></svg>