<svg width="44" height="44" viewBox="0 0 44 44" xmlns="http://www.w3.org/2000/svg"><title>System Icons Copy 10</title><path d="M37.421 17.333L42 18.667v6.666l-4.579 1.334h-.125a15.954 15.954 0 0 1-1.184 2.846l.12.12 2.267 4.152-4.714 4.715-4.208-2.324-.058-.059a15.78 15.78 0 0 1-2.852 1.187v.157L25.333 42h-6.666l-1.334-4.617v-.079a15.768 15.768 0 0 1-2.85-1.187l-.115.116-4.153 2.267L5.5 33.785l2.323-4.208.064-.064c-.48-.901-.88-1.853-1.184-2.846h-.165L2 25.333v-6.666l4.619-1.334h.085a16.04 16.04 0 0 1 1.184-2.845l-.092-.092-2.295-4.181L10.215 5.5l4.181 2.295.087.087a15.768 15.768 0 0 1 2.85-1.187V6.58L18.667 2h6.666l1.334 4.58v.116c.996.303 1.949.704 2.852 1.187l.085-.087 4.181-2.295 4.714 4.714-2.295 4.181-.092.092c.481.901.88 1.852 1.184 2.845h.125zm-15.421-4A8.666 8.666 0 0 0 13.333 22 8.666 8.666 0 0 0 22 30.667 8.666 8.666 0 0 0 30.667 22 8.666 8.666 0 0 0 22 13.333z" stroke="#4A4A4A" stroke-width="3" fill="none" fill-rule="evenodd"/></svg>