<?xml version="1.0" encoding="UTF-8" standalone="no"?>
<svg width="64px" height="64px" viewBox="0 0 64 64" version="1.1" xmlns="http://www.w3.org/2000/svg" xmlns:xlink="http://www.w3.org/1999/xlink">
    <!-- Generator: Sketch 39.1 (31720) - http://www.bohemiancoding.com/sketch -->
    <title>Share Icons  Copy 9</title>
    <desc>Created with Sketch.</desc>
    <defs></defs>
    <g id="ALL-ICON" stroke="none" stroke-width="1" fill="none" fill-rule="evenodd" stroke-linecap="round" stroke-linejoin="round">
        <g id="Circle--Icons-" transform="translate(-583.000000, -53.000000)" stroke="#4A4A4A" stroke-width="3">
            <g id="Group-6-Copy" transform="translate(583.333333, 53.000000)">
                <g id="Group-3-Copy" transform="translate(8.000000, 10.000000)">
                    <path d="M0.632852841,17.5013027 C0.218934967,19.2670987 0,21.1079819 0,23 C0,24.8920181 0.218934967,26.7329013 0.632852841,28.4986973 C3.38957502,28.5066341 6.06786631,29.9406334 7.54551733,32.5 C9.02218922,35.0576707 8.9260307,38.0918107 7.55713952,40.4824398 C10.2278984,42.9953406 13.474514,44.9031081 17.0779594,45.9867152 C18.463078,43.6028378 21.0443576,42 24,42 C26.9556424,42 29.536922,43.6028378 30.9220406,45.9867152 C34.525486,44.9031081 37.7721016,42.9953406 40.4428605,40.4824398 C39.0739693,38.0918107 38.9778108,35.0576707 40.4544827,32.5 C41.9321337,29.9406334 44.610425,28.5066341 47.3671472,28.4986973 C47.781065,26.7329013 48,24.8920181 48,23 C48,21.1079819 47.781065,19.2670987 47.3671472,17.5013027 C44.610425,17.4933659 41.9321337,16.0593666 40.4544827,13.5 C38.9778108,10.9423293 39.0739693,7.90818929 40.4428605,5.51756017 C37.7721016,3.00465942 34.525486,1.09689194 30.9220406,0.013284793 C29.536922,2.39716222 26.9556424,4 24,4 C21.0443576,4 18.463078,2.39716222 17.0779594,0.013284793 C13.474514,1.09689194 10.2278984,3.00465942 7.55713952,5.51756017 C8.9260307,7.90818929 9.02218922,10.9423293 7.54551733,13.5 C6.06786631,16.0593666 3.38957502,17.4933659 0.632852841,17.5013027 Z M24,31 C28.418278,31 32,27.418278 32,23 C32,18.581722 28.418278,15 24,15 C19.581722,15 16,18.581722 16,23 C16,27.418278 19.581722,31 24,31 Z" id="Combined-Shape"></path>
                </g>
            </g>
        </g>
    </g>
</svg>