<?xml version="1.0" encoding="UTF-8" standalone="no"?>
<svg width="64px" height="64px" viewBox="0 0 64 64" version="1.1" xmlns="http://www.w3.org/2000/svg" xmlns:xlink="http://www.w3.org/1999/xlink">
    <!-- Generator: Sketch 39.1 (31720) - http://www.bohemiancoding.com/sketch -->
    <title>Share Icons  Copy 4</title>
    <desc>Created with Sketch.</desc>
    <defs></defs>
    <g id="ALL-ICON" stroke="none" stroke-width="1" fill="none" fill-rule="evenodd">
        <g id="Share-Icons-" transform="translate(-1085.000000, -49.000000)">
            <g id="keep" transform="translate(1086.666667, 52.000000)">
                <rect id="Rectangle" fill="#D8D8D8" opacity="0" x="0" y="0" width="60" height="60"></rect>
                <path d="M20.7285459,19.4467357 L0,22.4028551 L14.9975831,36.7463391 L11.4592356,57 L11.4594037,57 L30.0001261,47.4380347 L48.5405963,57 L48.5406803,57 L45.0023328,36.7463391 L59.9392201,22.4610818 L59.9392201,22.3941953 L39.27137,19.4467357 L30.0001261,1.02053605 L20.7285459,19.4467357 Z M19.4071089,35.3427123 L8.8164456,25.2115107 L23.4554862,23.1242561 L30.0001261,10.1113268 L36.5467836,23.1254932 L51.1835544,25.2128303 L40.592807,35.3427123 L43.0961311,49.6470211 L30.0001261,42.8916496 L16.9038689,49.6447943 L19.4071089,35.3427123 Z" id="Page-1" fill="#4A4A4A"></path>
            </g>
        </g>
    </g>
</svg>