<?xml version="1.0" encoding="utf-8"?>
<svg xmlns="http://www.w3.org/2000/svg" xmlns:xlink="http://www.w3.org/1999/xlink" version="1.1" style="width:0;height:0;position:absolute;overflow:hidden;">
  <defs>
<symbol viewBox="0 0 1010.3333740234375 1024" aria-labelledby="ab-aliwangwang-o-title" id="aliwangwang-o"><title id="ab-aliwangwang-o-title">icon aliwangwang-o</title><path d="M78.333 64q44 2 85 9 94 14 162 46l24 12 25-9q68-24 141-24 88 0 168 34 78 33 137.5 92.5t91.5 136.5q34 80 34 168t-34 168q-32 77-92 137t-137 92q-80 34-168 34t-167-34q-78-33-137.5-92.5t-92.5-136.5q-34-80-34-168 0-59 16-116t46-107l17-27-12-29zm-26-64h-12q-21 1-32 18t-3 36l87 219q-72 118-72 256 0 101 39 193 38 88 106 157 69 68 158 106 92 39 192 39 101 0 193-39 89-37 157-106 69-68 106-157 39-92 39-193t-39-193q-37-88-106-157-68-68-157-106-92-39-193-39-84 0-162 28-55-26-123.5-41t-106.5-18-71-3zm487 431q0 17-12 29t-29 12-29-12-12-29v-74q0-17 12-29t29-12 29 12 12 29v74zm238 0q0 17-12 29t-29 12-29-12-12-29v-74q0-17 12-29t29-12 29 12 12 29v74z"/></symbol>
<symbol viewBox="0 0 1010.3333129882812 1024.6666259765625" aria-labelledby="aa-aliwangwang-title" id="aliwangwang"><title id="aa-aliwangwang-title">icon aliwangwang</title><path d="M971.333 336.667q-37-88-106-157-68-68-157-106-92-39-193-39-84 0-162 27-39-18-85.5-31.5t-83-18.5-71.5-8.5-51-2.5-22 0q-21 1-32 18t-3 36l87 219q-72 118-72 256 0 101 39 193 38 88 106 157 69 68 158 106 92 39 192 39 101 0 193-39 89-37 157-106 69-68 106-157 39-92 39-193t-39-193zm-432 95q0 17-12 29t-29 12-29-12-12-29v-74q0-17 12-29t29-12 29 12 12 29v74zm238 0q0 17-12 29t-29 12-29-12-12-29v-74q0-17 12-29t29-12 29 12 12 29v74z"/></symbol>
  </defs>
</svg>
