<?xml version="1.0" encoding="UTF-8" standalone="no"?>
<svg width="42px" height="42px" viewBox="0 0 42 42" version="1.1" xmlns="http://www.w3.org/2000/svg" xmlns:xlink="http://www.w3.org/1999/xlink">
    <!-- Generator: Sketch 39.1 (31720) - http://www.bohemiancoding.com/sketch -->
    <title>Pop down menu Icons </title>
    <desc>Created with Sketch.</desc>
    <defs></defs>
    <g id="ALL-ICON" stroke="none" stroke-width="1" fill="none" fill-rule="evenodd" stroke-linecap="round">
        <g id="Pop-down-menu-Icons-" transform="translate(-474.000000, -54.000000)" stroke="#4A4A4A" stroke-width="2" fill="#4A4A4A">
            <path d="M493.380995,78.2091177 C493.380995,78.2091177 495.460058,76.1685947 495.913046,73.424858 C496.588736,73.424858 497.451921,72.6550476 497.584769,71.6813793 C497.691602,70.8983789 497.209285,69.9388983 496.665911,69.4814363 C496.716744,68.4010899 498.232711,61 490.55821,61 C482.883665,61 484.399676,68.4010899 484.450508,69.4814363 C483.914426,69.9327437 482.92077,70.9076589 483.019252,71.6813793 C483.144727,72.6671799 484.520208,73.424858 485.203111,73.424858 C485.656143,76.1685947 487.735381,78.2091177 487.735381,78.2091177 C487.735381,78.2091177 487.719195,80.1380451 487.011694,80.2495094 C484.732581,80.6092749 476.149917,84.4189103 476.149917,88.5 L504.82201,88.5 C504.822317,84.4189103 496.383838,80.6092312 494.104726,80.2495094 C493.396962,80.1380451 493.380995,78.2091177 493.380995,78.2091177 Z" id="Shape"></path>
            <path d="M502.586318,62.5185316 C507.025686,63.9814668 505.936226,69.3944903 505.894135,70.2890531 C506.415296,70.7278144 506.877896,71.6480722 506.77543,72.3990642 C506.648013,73.3329296 505.820115,74.0712708 505.172046,74.0712708 C504.737576,76.7028457 503.716819,77.2500004 503.716819,77.2500004 C503.716819,77.2500004 504.400981,77.9664022 505.172046,78.6599542 C505.943111,79.3535062 513.717113,84.6158948 513.716819,88.5301527 L511.998812,88.5301527 C510.684487,84.1060576 503.140558,78.4160246 500.841417,78.0531416 C500.058268,77.929805 499.535347,78.3872553 499.535347,78.3872553 C499.535347,78.3872553 501.835855,76.1293924 502.337091,73.0934151 C503.08475,73.0934151 504.039874,72.2416108 504.186872,71.1642353 C504.305085,70.297836 503.771395,69.2361594 503.170145,68.7299722 C503.202927,68.0332543 503.786402,64.9607907 502.586318,62.5185316 Z" id="Combined-Shape"></path>
        </g>
    </g>
</svg>