<svg width="42" height="42" viewBox="0 0 42 42" xmlns="http://www.w3.org/2000/svg"><title>Pop down menu Icons</title><g stroke="#4A4A4A" stroke-width="2" fill="#4A4A4A" fill-rule="evenodd" stroke-linecap="round"><path d="M19.381 24.21s2.08-2.041 2.532-4.785c.676 0 1.539-.77 1.672-1.744.107-.783-.376-1.742-.92-2.2C22.718 14.401 24.234 7 16.559 7c-7.674 0-6.158 7.401-6.107 8.481-.537.452-1.53 1.427-1.432 2.2.126.986 1.501 1.744 2.184 1.744.453 2.744 2.532 4.784 2.532 4.784s-.016 1.929-.723 2.04c-2.28.36-10.862 4.17-10.862 8.251h28.672c0-4.081-8.438-7.89-10.717-8.25-.708-.112-.724-2.04-.724-2.04z"/><path d="M28.586 8.519c4.44 1.462 3.35 6.875 3.308 7.77.521.439.984 1.36.881 2.11-.127.934-.955 1.672-1.603 1.672-.434 2.632-1.455 3.179-1.455 3.179s.684.716 1.455 1.41 8.545 5.956 8.545 9.87h-1.718c-1.315-4.424-8.858-10.114-11.158-10.477-.783-.123-1.306.334-1.306.334s2.3-2.258 2.802-5.294c.748 0 1.703-.851 1.85-1.929.118-.866-.416-1.928-1.017-2.434.033-.697.616-3.77-.584-6.211z"/></g></svg>