<?xml version="1.0" encoding="utf-8"?>
<!-- Generator: Adobe Illustrator 17.0.2, SVG Export Plug-In . SVG Version: 6.00 Build 0)  -->
<!DOCTYPE svg PUBLIC "-//W3C//DTD SVG 1.1//EN" "http://www.w3.org/Graphics/SVG/1.1/DTD/svg11.dtd">
<svg version="1.1" id="图层_2" xmlns="http://www.w3.org/2000/svg" xmlns:xlink="http://www.w3.org/1999/xlink" x="0px" y="0px"
	 width="42px" height="42px" viewBox="0 0 42 42" enable-background="new 0 0 42 42" xml:space="preserve">
<g>
	<path fill-rule="evenodd" clip-rule="evenodd" d="M20.625,25.375c-0.354-0.215-0.25-0.812-0.25-0.812
		s1.869-1.614,2.322-4.358c0.676,0,1.74-1.236,1.834-2.486c0.188-1.5-0.438-2.125-0.9-2.622c0.525-1.815,0.602-9.065-7.072-9.065
		c-7.675,0-7.403,6.688-7.176,9.094c-0.536,0.451-1.421,1.602-1.227,2.843C8.371,19.35,9.695,20,10.249,20.134
		c0.657,2.616,2.439,4.459,2.439,4.459s0.188,0.688-0.375,0.781C10.033,25.735,0,30.312,1.25,35.5h30.625
		C32.188,30,22.904,25.735,20.625,25.375z"/>
	<path fill-rule="evenodd" clip-rule="evenodd" d="M31.058,23.202c-0.235-0.035,0.609-0.16,0.963-2.487
		c0.687-0.048,1.616-1.147,1.703-2.308c0.174-1.393-0.406-1.973-0.835-2.435c0.477-1.651,0.985-7.665-6.134-9.007
		c0.264,0.509,1.662,3.26,1.662,4.619c0,1.5-0.292,3.583-0.292,3.583s1.458,0.833,0.917,2.458c-0.631,0.806-1.542,0.423-1.542,0.423
		s-0.042,3.16-2.708,5.618c0.272,0.347,1.375,1.5,1.375,1.5s1.312-1.021,7.25,4.5c2.453,2.281,3.452,4.671,3.834,5.833h3.499
		C40.57,29.521,34.792,26.708,31.058,23.202z"/>
</g>
</svg>
