<svg width="44" height="44" viewBox="0 0 44 44" xmlns="http://www.w3.org/2000/svg"><title>Operation Icons Copy 7</title><g fill-rule="evenodd"><path d="M9.05 28.077V16.255c0-.257.204-.186.459-.185h4.008c.098 0 .241.008.334-.003.106-.013.17-.059.256-.081.132-.035.12-.017.23-.077.225-.12.412-.236.609-.404.123-.105.23-.212.355-.32l1.171-1.042.016-.015.234-.195c.073-.074.097-.093.176-.162l.033-.03.046-.045c.034-.03.06-.05.102-.083l1.234-1.1c.075-.067.107-.079.184-.155l.703-.617c.065-.064.11-.097.178-.16l1.772-1.578.08-.074L22.786 8.6v26.854c-.101-.027-.194-.118-.275-.185l-.08-.074-.015-.015-.081-.073-.5-.422-.015-.015-.215-.185-.015-.015-.6-.505a4.935 4.935 0 0 0-.368-.31l-.296-.256c-.033-.032-.012-.015-.047-.046l-.616-.52c-.041-.035-.055-.05-.097-.088l-4.084-3.503c-.071-.06-.117-.09-.187-.151l-.358-.318c-.249-.2-.513-.409-.832-.488-.065-.016-.192-.032-.259-.048-.57-.131-1.655-.068-2.258-.068l-2.296.002c-.13.002-.243.03-.243-.094zM7 15.854v12.624c0 .202.08.434.165.605l.48.658c.179.166.4.326.632.412.082.03.093.014.177.038.163.047.081.078.319.08l4.377-.003c.516-.001.42.081.804.393l.426.372c.081.072.14.111.216.184.087.084.13.104.218.182l.094.09c.053.045.064.048.116.099l.907.782.017.014.876.752c.5.431.985.888 1.505 1.29l.765.65c.314.31.688.559 1.013.86l.276.246c.31.286.656.531.969.813.33.299.671.644 1.09.814.431.175.832.27 1.286.107.274-.099.455-.243.659-.447.26-.262.45-.622.45-.996V7.58c0-.344-.146-.615-.283-.824l-.575-.532c-.3-.187-.587-.187-.947-.187-.158 0-.204.058-.315.083-.085.02-.071 0-.152.032-.085.033-.045.036-.137.078-.05.022-.032.01-.068.024l-.18.097-.019.011c-.085.053-.16.114-.23.168-.086.066-.127.123-.21.19-.057.046-.043.028-.1.084l-.488.434c-.03.025-.035.03-.065.058L18.226 9.8l-.016.015-.224.205c-.044.04-.066.052-.116.1l-.865.763c-.087.067-.138.125-.225.205l-.358.318-.016.015-1.754 1.564c-.147.137-.289.249-.439.39l-.525.459c-.189.156-.206.137-.477.136-.54-.003-1.081 0-1.621 0-1.033 0-2.578-.16-3.404.208-.075.034-.057.034-.118.067-.304.163-.592.406-.768.707-.138.236-.138.279-.234.535L7 15.854zM26.398 10.699c0 .182.046.306.094.46.032.104-.006.017.049.106.184.294.374.412.695.533.128.048.117.026.255.051.102.018.15.06.257.081l.611.155c.093.033.03.02.107.047l1.125.438c.575.234 1.094.59 1.614.934l.019.012.4.306.018.014c.034.027.011.01.05.042l.017.013.017.014.687.603.016.015.39.41c.05.063.093.096.15.157l.63.783.015.016.65 1.011c.025.047.03.055.052.102l.72 1.619.398 1.482c.054.17.018.365.06.556.063.282.083.541.083.874l-.03 1.605c-.012.195-.084.333-.092.525-.012.285-.07.283-.092.525-.023.234-.119.517-.188.737l-.223.7c-.163.53-.445 1.007-.688 1.498l-.357.596c-.22.366-.523.7-.778 1.037l-1.078 1.104c-.059.055-.11.086-.172.135-.444.345-.732.602-1.24.91l-.392.221c-.048.025-.049.02-.102.052l-.2.107c-.047.026-.04.029-.096.058l-1.79.694c-.117.043-.15.034-.28.057-.113.02-.113.049-.231.075-.434.097-.925.195-1.072.77-.102.397-.125.27.02.719.036.11.102.192.184.277.362.369.538.346 1.003.346.114 0 .136-.052.258-.08.347-.078.724-.13 1.068-.28.105-.045.15-.043.257-.08l.252-.085a7.904 7.904 0 0 0 1.054-.45l2.22-1.37c.433-.327.816-.695 1.214-1.061l.048-.044c.239-.222.438-.483.65-.733l.03-.033.014-.016 1.087-1.526c.055-.083.082-.117.134-.205l.29-.54c.202-.342.348-.736.5-1.102.002-.007.006-.015.01-.021l.062-.122.023-.069c.04-.1.064-.143.093-.246l.168-.51c.037-.105.033-.153.078-.26.028-.067.01.007.04-.115l.102-.422c.075-.44.155-.648.205-1.15.05-.52.117-.59.117-1.271v-.957c0-.261-.086-1.294-.145-1.55-.046-.2-.053-.396-.117-.562l-.131-.546c-.026-.127-.022-.168-.067-.273-.104-.247-.203-.719-.379-1.13l-.159-.364c-.07-.167-.117-.337-.212-.496l-.405-.765c-.031-.061-.027-.064-.063-.122l-.4-.646c-.02-.034-.039-.058-.061-.092l-.038-.055-2.247-2.486-.774-.608c-.28-.176-.546-.394-.833-.55-.389-.21-.76-.434-1.163-.615l-.73-.314c-.106-.037-.14-.06-.245-.092-.105-.032-.163-.058-.249-.089-.1-.035-.15-.044-.25-.086l-.533-.142c-.103-.016-.176-.052-.26-.078l-.574-.13c-.359 0-.381-.028-.672.125-.101.053-.17.122-.254.206-.134.135-.298.423-.298.626"/><path d="M27.224 17.644c0 .038.034.113.048.168.046.19.076.31.187.46l.497.393c.265.161.546.33.77.55l.549.65.026.036.106.171c.317.546.54 1.294.54 1.924 0 .39-.08.762-.177 1.118l-.183.494c-.12.237-.24.487-.412.696-.075.091-.124.175-.204.257l-1.495 1.177c-.122.136-.252.46-.252.641l.139.478c.123.226.271.354.487.465.118.062.069.066.23.077.193.013.381.037.557-.027l.395-.218c.059-.036.118-.08.186-.12l.211-.128a5.43 5.43 0 0 0 .792-.651l.504-.573c.547-.772.26-.326.724-1.153l.469-1.471c.03-.117.04-.426.051-.565.042-.506.054-.627-.011-1.136-.01-.084-.014-.165-.023-.286-.01-.14-.05-.156-.077-.262-.03-.118-.027-.278-.07-.392-.026-.068-.012-.016-.038-.117l-.084-.223c-.072-.18-.085-.312-.171-.476l-.918-1.45-.547-.56c-.33-.282-1.226-.966-1.582-.966-.284 0-.437-.018-.679.118a.788.788 0 0 0-.27.22l-.097.15-.012.02-.067.117-.099.394"/></g></svg>