<?xml version="1.0" encoding="UTF-8" standalone="no"?>
<svg width="44px" height="44px" viewBox="0 0 44 44" version="1.1" xmlns="http://www.w3.org/2000/svg" xmlns:xlink="http://www.w3.org/1999/xlink">
    <!-- Generator: Sketch 39.1 (31720) - http://www.bohemiancoding.com/sketch -->
    <title>Operation Icons  Copy 7</title>
    <desc>Created with Sketch.</desc>
    <defs></defs>
    <g id="ALL-ICON" stroke="none" stroke-width="1" fill="none" fill-rule="evenodd">
        <g id="Operation-Icons-" transform="translate(-1265.000000, -48.000000)" fill="#4A4A4A">
            <g id="trips" transform="translate(1272.000000, 54.000000)">
                <g id="Group-3">
                    <path d="M2.0499723,22.0768711 L2.0499723,10.2548267 C2.0499723,9.99753778 2.25430457,10.0692267 2.50892724,10.06976 L6.51696636,10.06976 C6.61486089,10.06976 6.75798155,10.0780711 6.85067971,10.0667822 C6.95685322,10.0539378 7.02149972,10.0084711 7.10684367,9.98571556 C7.23877891,9.95082667 7.22640447,9.96887111 7.337334,9.90949333 C7.56183527,9.78953778 7.74881691,9.67322667 7.94597113,9.50500444 C8.06927509,9.39980444 8.17646145,9.29282667 8.30099845,9.18416 L9.4721218,8.14318222 C9.4767457,8.13887111 9.48313109,8.13242667 9.48775498,8.12807111 L9.7223848,7.93260444 C9.79482587,7.85949333 9.81873803,7.83989333 9.89835716,7.77078222 C9.90527099,7.76487111 9.92416291,7.74753778 9.93072445,7.74144889 L9.97749187,7.69616 C10.0112243,7.66522667 10.0375585,7.64664889 10.0789975,7.61331556 L11.313226,6.51264889 C11.3877368,6.44580444 11.4202362,6.43416 11.4967728,6.35829333 L12.2003539,5.74073778 C12.2646922,5.67651556 12.3090816,5.64442667 12.378396,5.58104889 L14.1498335,4.00344889 C14.1885421,3.96767111 14.1971734,3.96002667 14.2294967,3.92949333 L15.7874862,2.59998222 L15.7874862,29.4539378 C15.6858045,29.4265156 15.592754,29.3357156 15.5124303,29.2685156 L15.4324148,29.1949156 C15.4279671,29.1906044 15.4214056,29.1839822 15.4167817,29.1798044 C15.3892585,29.1539378 15.3668876,29.1348711 15.3357533,29.1072711 L14.8363723,28.6850489 C14.8317484,28.6806933 14.8255392,28.6740711 14.8209153,28.6699378 L14.6064104,28.4848711 C14.6017425,28.4805156 14.5954012,28.4740711 14.5907332,28.46976 L13.9900668,27.9647378 C13.8673794,27.8492711 13.7574627,27.7600267 13.6234577,27.65536 L13.3274402,27.39856 C13.2938839,27.3671378 13.3145373,27.3843378 13.2802764,27.3534489 L12.6637566,26.8333156 C12.6230223,26.7978933 12.6085341,26.7827822 12.5672713,26.7454489 L8.4826516,23.24216 C8.41161971,23.1824267 8.3661734,23.1515378 8.2961984,23.0906044 L7.93769215,22.7734044 C7.68927872,22.5739378 7.42505595,22.3640267 7.10578678,22.2851822 C7.04144854,22.2694044 6.91400509,22.2529156 6.84724481,22.2374489 C6.27771265,22.1058489 5.19158094,22.1694044 4.5893292,22.1694044 L2.29283706,22.1713156 C2.16297157,22.1734044 2.0499723,22.2018489 2.0499723,22.0768711 L2.0499723,22.0768711 Z M0,9.85362667 L0,22.4780711 C0,22.6798044 0.0799714227,22.9124711 0.164963078,23.0833156 L0.645584282,23.7406044 C0.823626387,23.9072711 1.04588177,24.0671378 1.27690054,24.1530933 C1.35863344,24.1836267 1.36977484,24.1667822 1.45357749,24.1909156 C1.61699927,24.23816 1.53526636,24.2690489 1.77284666,24.2701156 L6.14987287,24.2683822 C6.66576781,24.2667822 6.57082376,24.3490933 6.95425503,24.6607378 L7.38018212,25.0334489 C7.46103429,25.1050044 7.51933944,25.1442489 7.59552367,25.2174933 C7.68258507,25.30136 7.72578549,25.3207822 7.8136836,25.3989156 L7.9084515,25.4883378 C7.96125201,25.5339822 7.97243744,25.5372711 8.02404896,25.5878044 L8.93125781,26.3702933 C8.93610189,26.3744267 8.94297169,26.38016 8.94781577,26.3843378 L9.82406652,27.1364267 C10.3234475,27.5673156 10.8088688,28.0235822 11.3292555,28.4266933 L12.0935199,29.0756711 C12.4084734,29.3858933 12.7817761,29.6348711 13.1065499,29.9364267 L13.3834994,30.1817156 C13.6922878,30.4680267 14.0387278,30.7134933 14.3516116,30.9954489 C14.6825947,31.2938933 15.0230457,31.6391822 15.4418828,31.8091822 C15.8734907,31.9843378 16.2744487,32.07896 16.7284275,31.9155822 C17.0024705,31.81696 17.1832429,31.6730489 17.3867385,31.4686933 C17.6471741,31.2070933 17.8376346,30.8470044 17.8376346,30.4726933 L17.8376346,1.58140444 C17.8376346,1.23678222 17.6907268,0.966293333 17.5535952,0.75656 L16.9790428,0.22496 C16.6787096,0.03816 16.3918077,0.0379822222 16.0324207,0.0379822222 C15.8743714,0.0379822222 15.82756,0.0956266667 15.7171149,0.121137778 C15.6321672,0.140604444 15.6459068,0.121671111 15.5650547,0.152915556 C15.4802392,0.185893333 15.5200047,0.189182222 15.4276148,0.230515556 C15.378073,0.25256 15.3959521,0.240426667 15.3600178,0.254648889 L15.1807867,0.351715556 C15.1749298,0.355182222 15.1670031,0.359493333 15.1613223,0.36296 C15.0756701,0.41576 15.0016877,0.476693333 14.9303035,0.531226667 C14.8448275,0.596648889 14.8035206,0.654293333 14.720951,0.721315556 C14.6641872,0.767493333 14.6776185,0.748737778 14.6205023,0.805182222 L14.132659,1.23900444 C14.1035945,1.26402667 14.0977376,1.26922667 14.0676162,1.29682667 L11.2260325,3.80082667 C11.2213646,3.80518222 11.2150232,3.81176 11.2103553,3.81593778 L10.9857219,4.02149333 C10.9418609,4.06056 10.9201947,4.07304889 10.869596,4.12042667 L10.0048389,4.88398222 C9.91799772,4.95100444 9.86656235,5.00900444 9.77985325,5.08918222 L9.42205159,5.40709333 C9.41725154,5.41140444 9.41069001,5.41767111 9.40606611,5.42202667 L7.65197927,6.98589333 C7.50489527,7.12322667 7.36349205,7.23504889 7.21332545,7.37687111 L6.68796252,7.83469333 C6.49926343,7.99127111 6.48239721,7.97220444 6.21112851,7.97096 C5.67079296,7.96838222 5.129973,7.97078222 4.58950534,7.97078222 C3.55701086,7.97078222 2.01210037,7.81073778 1.18574368,8.17913778 C1.11074846,8.21264889 1.12946423,8.21296 1.06825263,8.24580444 C0.763779931,8.40864889 0.475821158,8.65184889 0.300157058,8.95256 C0.162232776,9.18869333 0.161704331,9.23171556 0.0657033936,9.48762667 L0,9.85362667 Z" id="Fill-1"></path>
                </g>
                <g id="Group-6" transform="translate(19.376336, 3.733333)">
                    <path d="M0.0216662665,0.965582222 C0.0216662665,1.14718222 0.0677731385,1.27131556 0.115949756,1.42598222 C0.148096858,1.52962667 0.109388224,1.44251556 0.164610781,1.53122667 C0.34886212,1.82598222 0.538265804,1.94371556 0.85991298,2.06438222 C0.987576611,2.11229333 0.976215032,2.09091556 1.11502006,2.11576 C1.21687793,2.13398222 1.26470225,2.17478222 1.37118402,2.19682667 L1.98285972,2.35136 C2.07524961,2.38469333 2.01210037,2.37096 2.08916534,2.39856 L3.21488642,2.83709333 C3.79009938,3.07078222 4.30894481,3.42758222 4.8289352,3.77060444 C4.83443984,3.77424889 4.84201423,3.77913778 4.84769502,3.78278222 L5.24816865,4.08851556 C5.253321,4.09251556 5.26019079,4.09820444 5.26516698,4.10220444 C5.29925172,4.12931556 5.27670471,4.11349333 5.3152372,4.14442667 C5.32021339,4.14838222 5.32730337,4.15393778 5.33227957,4.15793778 C5.33725576,4.16193778 5.344654,4.16731556 5.34980634,4.17131556 L6.03704975,4.77424889 C6.04167365,4.77860444 6.04823518,4.78504889 6.05285908,4.78918222 L6.44232343,5.19891556 C6.49256979,5.26247111 6.53519773,5.29580444 6.59213773,5.35620444 L7.22327784,6.13936 C7.22741733,6.14424889 7.23345041,6.15118222 7.2375899,6.15602667 L7.88779809,7.16678222 C7.91241484,7.21402667 7.91721489,7.22131556 7.9397619,7.26851556 L8.66051755,8.88727111 L9.05720399,10.3701156 C9.11119351,10.5398933 9.07525922,10.7345156 9.11810734,10.9259822 C9.1810364,11.2079378 9.20050081,11.4666489 9.20050081,11.7998044 L9.17002711,13.4050044 C9.15901783,13.6001156 9.08679694,13.7372711 9.07869411,13.93016 C9.06684812,14.2142044 9.00937967,14.2131378 8.98630422,14.4542933 C8.96380125,14.6888711 8.86780031,14.9716711 8.79901432,15.1912711 L8.5755259,15.8918044 C8.41263257,16.4214933 8.13070688,16.8990933 7.88762194,17.3895378 L7.53034872,17.9858933 C7.31016309,18.35136 7.00793629,18.6866044 6.75282921,19.0225156 L5.6747563,20.1265156 C5.61574655,20.1820711 5.56431119,20.21296 5.50239499,20.2612267 C5.05858882,20.6063822 4.77063005,20.8634933 4.26213334,21.1707822 L3.87029098,21.3928267 C3.82295107,21.4174933 3.82176207,21.4124711 3.76878541,21.4447378 L3.56907704,21.5518489 C3.52160501,21.5772267 3.52812251,21.5805156 3.4730761,21.6093156 L1.68252651,22.3032711 C1.5655639,22.3468267 1.53302047,22.3378044 1.40280268,22.36056 C1.28927497,22.38016 1.28962727,22.4094933 1.17147565,22.4357156 C0.73744573,22.5324267 0.247004246,22.6303378 0.0992596844,23.2060267 C-0.0025981905,23.6029156 -0.0252773109,23.4751378 0.1195608,23.9242489 C0.155318947,24.0348711 0.221903083,24.1171378 0.303944251,24.2011822 C0.665356953,24.5704267 0.841197201,24.5477156 1.30666963,24.5477156 C1.42090194,24.5477156 1.44256821,24.4954489 1.56433086,24.4680267 C1.91147554,24.3898933 2.2887416,24.3370933 2.63311194,24.18816 C2.73770011,24.1428267 2.7827501,24.1447378 2.88923187,24.1070933 L3.14196094,24.0223378 C3.49734056,23.9074044 3.85787251,23.7412711 4.19607765,23.5734044 L6.41634152,22.2018489 C6.8483017,21.87616 7.23155682,21.5074044 7.62925611,21.1412711 C7.65559031,21.1171378 7.65233157,21.1213156 7.67778503,21.0977156 C7.91668644,20.8759822 8.11573425,20.6142044 8.32781706,20.36456 C8.333674,20.35776 8.35071636,20.3386933 8.35674945,20.3320711 C8.36102105,20.3274044 8.36723029,20.3207822 8.37154593,20.3161156 L9.45904278,18.7895378 C9.51408919,18.7069156 9.54073165,18.6722044 9.59251931,18.5846933 L9.88272398,18.0440711 C10.0850305,17.7029156 10.2302209,17.3090044 10.3817527,16.9425156 C10.3846592,16.9357156 10.3886225,16.9278933 10.3917491,16.9214933 L10.454502,16.7998044 C10.4610636,16.7833156 10.4691224,16.7544711 10.4781059,16.7308711 C10.5169467,16.63016 10.5413873,16.5878044 10.5709802,16.4850489 L10.7383654,15.9747822 C10.7754887,15.8692267 10.7720538,15.8216711 10.8167955,15.71456 C10.8450233,15.6471822 10.8272763,15.7218489 10.8561647,15.5998044 L10.9583748,15.1780711 C11.0340306,14.7376267 11.1140461,14.5299822 11.1634117,14.0270489 C11.2144948,13.5070933 11.2810789,13.4367822 11.2810789,12.75656 L11.2810789,11.7998044 C11.2810789,11.5385156 11.1943698,10.5056711 11.1351839,10.2492711 C11.0892532,10.0504711 11.0822072,9.85393778 11.0185736,9.68762667 L10.8871668,9.14127111 C10.8618455,9.01438222 10.8654565,8.97340444 10.8211111,8.86838222 C10.7170073,8.62202667 10.6181,8.15011556 10.4417753,7.73869333 L10.2826692,7.37424889 C10.2126501,7.20811556 10.1660589,7.03762667 10.0707625,6.87824889 L9.66579709,6.11367111 C9.63448669,6.05238222 9.63862618,6.04927111 9.60269189,5.99216 L9.20305496,5.34598222 C9.18174099,5.31122667 9.16403806,5.28727111 9.14131491,5.25376 C9.12497713,5.22962667 9.12255509,5.22460444 9.10414757,5.19873778 L6.85706509,2.71229333 L6.08245202,2.10464889 C5.80171534,1.92878222 5.53647972,1.71056 5.25006225,1.55553778 C4.86112634,1.34473778 4.49059796,1.12096 4.08633713,0.939182222 L3.35695019,0.625493333 C3.25033631,0.589004444 3.21713232,0.565048889 3.11183955,0.533315556 C3.00672292,0.50136 2.94841777,0.475848889 2.86276556,0.445093333 C2.76244898,0.409182222 2.7124228,0.400648889 2.61228238,0.358293333 L2.07987351,0.216293333 C1.97687067,0.200471111 1.90390115,0.164737778 1.82049483,0.138337778 L1.24541399,0.00864888889 C0.887127924,0.00864888889 0.864404767,-0.0189511111 0.574023951,0.133626667 C0.472694522,0.18696 0.403203935,0.255182222 0.319269171,0.339715556 C0.185440342,0.474604444 0.0216662665,0.76296 0.0216662665,0.965582222" id="Fill-4"></path>
                </g>
                <path d="M20.2240506,11.6438933 C20.2240506,11.6822489 20.2582674,11.7569156 20.2716988,11.8119378 C20.3178056,12.0018489 20.3482353,12.1211378 20.4590327,12.2711378 L20.956344,12.66456 C21.220919,12.8263378 21.5023163,12.9950933 21.7266414,13.21456 L22.2745073,13.86576 C22.2798798,13.8730489 22.2956892,13.89336 22.3008415,13.9008267 L22.4066187,14.0720267 C22.7241704,14.6178489 22.9471304,15.3659378 22.9471304,15.99616 C22.9471304,16.3866044 22.8672911,16.7581156 22.7704534,17.1143822 L22.587259,17.6084711 C22.4665092,17.8450933 22.3471245,18.09456 22.1751155,18.3039378 C22.1002524,18.3950933 22.0507106,18.4794933 21.9714438,18.5614044 L20.4755466,19.7376267 C20.3544445,19.8742489 20.2240506,20.1982044 20.2240506,20.3791378 L20.3626795,20.85656 C20.4863798,21.0833156 20.6339922,21.21056 20.8496861,21.3222044 C20.9683661,21.3838044 20.9185161,21.3876267 21.080881,21.39856 C21.2731911,21.4115822 21.4610535,21.4357156 21.6366736,21.3720267 L22.0319948,21.1536267 C22.0910046,21.1176711 22.1501465,21.0744267 22.218448,21.0331378 C22.2934433,20.9876267 22.3615687,20.9464711 22.4291657,20.9060267 C22.6225327,20.7906044 23.0778766,20.41296 23.2214817,20.2546489 L23.7250022,19.6822489 C24.2718552,18.9102044 23.9840726,19.3560267 24.4485322,18.5293156 L24.9176157,17.0579378 C24.9479132,16.9407378 24.9576895,16.6320711 24.9692272,16.4925156 C25.0111946,15.9867822 25.0225561,15.8662933 24.9578656,15.3567378 C24.9472086,15.2728711 24.9437737,15.1918044 24.9348342,15.0711378 C24.9246616,14.9305156 24.8849401,14.9154044 24.8580775,14.8091822 C24.8283524,14.6914489 24.8309066,14.5308711 24.7877502,14.4171378 C24.7619444,14.3492711 24.7762125,14.4008267 24.7502306,14.3004711 L24.6659435,14.0768711 C24.5943832,13.8978933 24.5808197,13.7647378 24.4949473,13.6011822 L23.5769053,12.1504711 L23.0302284,11.5910933 C22.7002582,11.3094933 21.804411,10.6251378 21.4479745,10.6251378 C21.1643313,10.6251378 21.0110381,10.6069156 20.76901,10.7426489 C20.6547777,10.8067378 20.5715476,10.8648711 20.4980936,10.9631378 L20.4015643,11.1128267 C20.3981294,11.1186933 20.3936816,11.1265156 20.3902027,11.1322489 L20.3233103,11.2498044 C20.321769,11.2534489 20.2240506,11.6412711 20.2240506,11.6438933" id="Fill-7"></path>
            </g>
        </g>
    </g>
</svg>