<svg width="44" height="44" viewBox="0 0 44 44" xmlns="http://www.w3.org/2000/svg"><title>System Icons Copy 11</title><path d="M3.279 41.418c-.094.02-.192.027-.293.02a1.066 1.066 0 0 1-.983-1.14l.019-.275a.967.967 0 0 1 .038-.54l.194-2.77c0-3.087 2.824-5.083 9.679-8.452 3.2-1.575 3.679-2.095 3.679-3.321 0-.055-.004-.113-.012-.174-.052-.406-.273-.903-.613-1.422a6.44 6.44 0 0 0-.68-.872c-.907-.943-1.516-2.334-1.914-4.06a21.09 21.09 0 0 1-.457-3.14 20.67 20.67 0 0 1-.064-1.567v-.539c0-4.353 1.827-7.261 4.836-8.876a11.128 11.128 0 0 1 3.246-1.12A9.28 9.28 0 0 1 21.481 3h.543c.325.003.852.047 1.518.17a11.13 11.13 0 0 1 3.246 1.12c3.01 1.615 4.837 4.523 4.837 8.876v.539c.002.359-.014.9-.064 1.566a21.095 21.095 0 0 1-.458 3.14c-.398 1.727-1.007 3.118-1.915 4.061a6.44 6.44 0 0 0-.678.872c-.341.519-.562 1.016-.614 1.422a1.363 1.363 0 0 0-.012.174c0 1.226.478 1.746 3.68 3.32 6.855 3.37 9.678 5.366 9.678 8.453l-.006-.116.397 3.66c.007.057.008.115.005.171l.002.052a.96.96 0 0 1-.96.96H3.279v-.022zm.904-1.9l.19-2.73c.002-1.86 2.672-3.747 8.49-6.607 3.851-1.894 4.87-3.003 4.87-5.241 0-.149-.01-.298-.03-.449-.1-.784-.444-1.56-.948-2.327a8.458 8.458 0 0 0-.925-1.18c-.586-.609-1.052-1.673-1.37-3.055a19.334 19.334 0 0 1-.467-4.214v-.549c0-3.543 1.378-5.738 3.712-6.99a9.047 9.047 0 0 1 2.631-.904 7.336 7.336 0 0 1 1.154-.135h.525c.2.002.608.036 1.145.135.901.166 1.8.459 2.632.904 2.333 1.252 3.712 3.447 3.712 6.99v.549a19.335 19.335 0 0 1-.467 4.214c-.319 1.382-.784 2.446-1.371 3.056-.242.251-.583.66-.924 1.18-.504.766-.848 1.542-.949 2.326-.02.15-.03.3-.03.449 0 2.238 1.02 3.347 4.87 5.24 5.819 2.861 8.488 4.748 8.488 6.533l.007.116.292 2.69H4.183z" fill-rule="evenodd"/></svg>