<?xml version="1.0" encoding="UTF-8" standalone="no"?>
<svg width="44px" height="44px" viewBox="0 0 44 44" version="1.1" xmlns="http://www.w3.org/2000/svg" xmlns:xlink="http://www.w3.org/1999/xlink">
    <!-- Generator: Sketch 39.1 (31720) - http://www.bohemiancoding.com/sketch -->
    <title>System Icons Copy 11</title>
    <desc>Created with Sketch.</desc>
    <defs></defs>
    <g id="ALL-ICON" stroke="none" stroke-width="1" fill="none" fill-rule="evenodd">
        <g id="System-Icons" transform="translate(-266.000000, -182.000000)">
            <g id="titlebar_mine" transform="translate(266.000000, 182.000000)">
                <rect id="Rectangle-47" fill="#D8D8D8" opacity="0" x="0" y="0" width="44" height="44"></rect>
                <g id="Group" transform="translate(2.000000, 3.000000)" stroke="#4A4A4A" fill="#4A4A4A">
                    <path d="M1.27869805,38.4181781 C1.18489374,38.437998 1.08683529,38.4452351 0.986490538,38.4381659 C0.402265825,38.3970081 -0.0382250111,37.8864868 0.00262671858,37.2978848 L0.0219051267,37.0229774 C0.00755788605,36.9568678 -1.77635684e-14,36.8882192 -1.77635684e-14,36.8178017 C-1.77635684e-14,36.7000928 0.0211182168,36.5873266 0.0597650424,36.4831002 L0.25403332,33.7128617 C0.25403332,30.6256456 3.07839689,28.6299625 9.93287203,25.2606384 C13.1339474,23.6863719 13.6117057,23.1660152 13.6117057,21.9395886 C13.6117057,21.8849238 13.607841,21.8270103 13.5999839,21.7659544 C13.5477933,21.3603898 13.3274215,20.8628633 12.986515,20.3444195 C12.7269633,19.9496983 12.4662886,19.6370558 12.3076198,19.4722547 C11.3999912,18.5290961 10.7911579,17.1384199 10.3934403,15.4116859 C10.1619093,14.4064693 10.0154829,13.3406048 9.93569924,12.2716962 C9.88605771,11.6066194 9.87008743,11.0642303 9.87176153,10.7053391 C9.87181646,10.6954259 9.87181646,10.6954259 9.87180533,10.7013791 L9.87180533,10.1656912 C9.87180533,5.81326851 11.69894,2.90464555 14.7082465,1.29036735 C15.7477294,0.73275898 16.8516797,0.373606904 17.9541404,0.170088785 C18.6198248,0.0472011123 19.1471599,0.00286169913 19.4810071,0 L20.0243365,3.97421352e-05 C20.3490519,0.00286162146 20.8764166,0.0472003128 21.5421402,0.170086311 C22.6446679,0.373602045 23.7486855,0.732749983 24.7882323,1.29035225 C27.7977421,2.90462247 29.6250115,5.81324908 29.6250115,10.1656912 L29.6249675,10.6916387 C29.6250005,10.6954808 29.6250005,10.6954808 29.6250537,10.7051999 C29.6267052,11.0635374 29.6107138,11.6056636 29.5610406,12.2706884 C29.4811746,13.3399362 29.3346316,14.406189 29.1029359,15.4117667 C28.7050844,17.1384729 28.0961831,18.5291199 27.1884005,19.4724385 C27.0299086,19.6370558 26.7692339,19.9496983 26.5096821,20.3444195 C26.1687757,20.8628633 25.9484039,21.3603898 25.8962132,21.7659544 C25.8883562,21.8270103 25.8844914,21.8849238 25.8844914,21.9395886 C25.8844914,23.1660006 26.3623039,23.6863479 29.5638206,25.2605773 C36.4188602,28.6307228 39.2421638,30.6257433 39.2421638,33.7128617 L39.2358743,33.596674 L39.6332588,37.25622 C39.6395544,37.314197 39.641121,37.3715972 39.6382698,37.4280301 C39.6391792,37.4451842 39.6396396,37.4624576 39.6396396,37.4798387 C39.6396396,38.0105962 39.2102702,38.4408602 38.6806161,38.4408602 L38.5778276,38.4408602 C38.5778215,38.4408602 38.5778215,38.4408602 38.5778215,38.4408602 L1.27869805,38.4408602 L1.27869805,38.4181781 Z M2.18270694,36.5188172 L2.37228112,33.7873845 C2.37486408,31.927531 5.04534879,30.0405781 10.8630186,27.1808966 C14.7140873,25.286968 15.7325365,24.1777106 15.7325365,21.9395886 C15.7325365,21.7910836 15.7225594,21.6415762 15.7032115,21.4912266 C15.6022729,20.70685 15.2585031,19.9307317 14.7545586,19.1643429 C14.4129222,18.6447889 14.0724086,18.236391 13.8301084,17.9847264 C13.2436073,17.375266 12.777862,16.3114264 12.4593755,14.9286829 C12.1053043,13.3914447 11.9874512,11.812498 11.9925689,10.7153807 C11.9925972,10.7103632 11.9925972,10.7103632 11.992591,10.7112355 L11.9926361,10.1656912 C11.9926361,6.62295952 13.3712963,4.42826474 15.7049813,3.17640933 C16.5355454,2.73087093 17.435217,2.43817759 18.336378,2.27182009 C18.8728667,2.1727824 19.2805552,2.13850312 19.4901542,2.13668151 L20.0151901,2.13672125 C20.2156661,2.1385032 20.6233927,2.1727832 21.1599293,2.27182257 C22.0611687,2.43818245 22.9609181,2.73087993 23.7915539,3.17642443 C26.1254229,4.42828783 27.5041808,6.62297895 27.5041808,10.1656912 L27.5041808,10.7013791 C27.5042186,10.7102406 27.5042186,10.7102406 27.5042458,10.7151212 C27.5092996,11.8116705 27.3913414,13.3908971 27.0370379,14.9286021 C26.7184327,16.3113734 26.2526127,17.3752423 25.6659119,17.9849101 C25.4237885,18.236391 25.083275,18.6447889 24.7416386,19.1643429 C24.2376941,19.9307317 23.8939243,20.70685 23.7929857,21.4912266 C23.7736377,21.6415762 23.7636607,21.7910836 23.7636607,21.9395886 C23.7636607,24.1777875 24.7822271,25.2870266 28.633674,27.1808355 C34.4516669,30.0411374 37.1213331,31.9275936 37.1213331,33.7128617 L37.1276226,33.8290493 L37.4197004,36.5188172 L2.18270694,36.5188172 Z" id="Combined-Shape"></path>
                </g>
            </g>
        </g>
    </g>
</svg>