<?xml version="1.0" encoding="UTF-8" standalone="no"?>
<svg width="64px" height="64px" viewBox="0 0 64 64" version="1.1" xmlns="http://www.w3.org/2000/svg" xmlns:xlink="http://www.w3.org/1999/xlink">
    <!-- Generator: Sketch 39.1 (31720) - http://www.bohemiancoding.com/sketch -->
    <title>Share Icons  Copy 6</title>
    <desc>Created with Sketch.</desc>
    <defs></defs>
    <g id="ALL-ICON" stroke="none" stroke-width="1" fill="none" fill-rule="evenodd">
        <g id="Share-Icons-" transform="translate(-1584.000000, -50.000000)">
            <g id="keep-copy-2" transform="translate(1586.000000, 52.000000)">
                <rect id="Rectangle" fill="#D8D8D8" opacity="0" x="0" y="0" width="60" height="60"></rect>
                <path d="M57.6420139,18.3220694 C56.1312934,14.7495682 53.9683719,11.5413782 51.2134898,8.78649947 C48.4586812,6.0322827 45.2504873,3.8693638 41.6779817,2.35805676 C38.0180942,0.810561325 34.1337943,0.0175793246 30.1306315,0.000588429274 C30.0872347,0.000588429274 30.0441322,0 30.0001471,0 C29.9562355,0 29.9128388,0.000588429274 29.8694421,0.000588429274 C25.8662057,0.0175793246 21.9819058,0.810561325 18.3220919,2.35805676 C14.7495127,3.8693638 11.5413188,6.0322827 8.78651024,8.78649947 C6.03170167,11.5413782 3.86878011,14.7495682 2.35805965,18.3220694 C0.793571402,22.0215978 0,25.9506872 0,30.0001839 C0,34.0499013 0.793571402,37.9789906 2.35805965,41.6779306 C3.86878011,45.2505054 6.03170167,48.4586953 8.78651024,51.2135005 C11.5413188,53.9683057 14.7495127,56.1312246 18.3220919,57.6419432 C21.9819058,59.1900271 25.8662057,59.9824942 29.8694421,59.9994116 C29.9128388,59.9994116 29.9562355,60 30.0001471,60 C30.0441322,60 30.0872347,59.9994116 30.1306315,59.9994116 C34.1337943,59.9824942 38.0180942,59.1900271 41.6779817,57.6419432 C45.2504873,56.1312246 48.4586812,53.9683057 51.2134898,51.2135005 C53.9683719,48.4586953 56.1312934,45.2505054 57.6420139,41.6779306 C59.2064286,37.9789906 60,34.0499013 60,30.0001839 C60,25.9506872 59.2064286,22.0215978 57.6420139,18.3220694 L57.6420139,18.3220694 Z M10.4900151,10.4900758 C13.0238682,7.95563734 15.9749917,5.96623152 19.2601964,4.57643512 C20.387334,4.10010163 21.5374205,3.70070526 22.7080284,3.38177659 C21.2472509,4.84483243 19.9098231,6.76325897 18.7418631,9.09969095 C17.9933802,10.596655 17.3345592,12.2234413 16.7714317,13.9548209 C14.1746166,13.2620925 11.7947115,12.3639288 9.73005774,11.2804834 C9.977419,11.0126745 10.2311794,10.7489111 10.4900151,10.4900758 L10.4900151,10.4900758 Z M4.57644073,19.2601728 C5.50299732,17.0696713 6.69596558,15.028263 8.13975212,13.1597794 C10.4521349,14.42858 13.1448641,15.4721593 16.0930455,16.2613901 C15.0770476,20.1069225 14.4989886,24.3675182 14.4105035,28.7957427 L2.43499687,28.7957427 C2.57467544,25.4953165 3.29322202,22.2930844 4.57644073,19.2601728 L4.57644073,19.2601728 Z M8.13916369,46.8402206 C6.69596558,44.971737 5.50299732,42.9298139 4.57644073,40.7398272 C3.29322202,37.7069156 2.57467544,34.5047571 2.43499687,31.2043308 L14.4105035,31.2043308 C14.4989886,35.6318934 15.0765327,39.8919742 16.0930455,43.7374331 C13.1454525,44.5267374 10.4532382,45.5708316 8.13916369,46.8402206 L8.13916369,46.8402206 Z M19.2601964,55.4235649 C15.9749917,54.0341363 13.0238682,52.0444362 10.4900151,49.5105862 C10.2311794,49.2516773 9.977419,48.9879139 9.73005774,48.720105 C11.7952999,47.6349679 14.173734,46.7359215 16.7708433,46.0445907 C17.3345592,47.7759703 17.9933802,49.4028301 18.7418631,50.900309 C19.9098231,53.2368146 21.2472509,55.1552411 22.7080284,56.6182234 C21.5374205,56.2992947 20.387334,55.8999719 19.2601964,55.4235649 L19.2601964,55.4235649 Z M28.7957045,57.4721814 C27.5602221,57.2276155 26.3462911,56.6055722 25.1731823,55.6134804 C23.5843478,54.2694344 22.1451215,52.3208509 20.8961789,49.8231893 C20.2266927,48.4845127 19.6334081,47.0321221 19.1216947,45.4872011 C22.1523298,44.8536834 25.4200287,44.4859151 28.7957045,44.41523 L28.7957045,57.4721814 Z M28.7957045,42.0066419 C25.186422,42.0796071 21.6837189,42.4806952 18.4329374,43.1748947 C17.461513,39.5187629 16.9069913,35.4488919 16.8190946,31.2043308 L28.7957045,31.2043308 L28.7957045,42.0066419 Z M28.7957045,28.7957427 L16.8190946,28.7957427 C16.9069913,24.5500048 17.4621014,20.4795453 18.4335258,16.8234136 C21.6874701,17.5193048 25.1912765,17.9209813 28.7957045,17.994535 L28.7957045,28.7957427 Z M28.7957045,15.5853584 C25.4242948,15.5143791 22.1551984,15.1463166 19.1222831,14.5116221 C19.6342908,12.9672895 20.2272811,11.5154873 20.8961789,10.1768843 C22.1451215,7.67922268 23.5843478,5.73115402 25.1731823,4.38651958 C26.3462911,3.39501625 27.5602221,2.77238452 28.7957045,2.52789216 L28.7957045,15.5853584 Z M40.7398772,4.57643512 C44.0250818,5.96623152 46.9761318,7.95563734 49.5099849,10.4900758 C49.7683057,10.7483227 50.0214041,11.0114977 50.268839,11.2787181 C48.2288257,12.3452462 45.8297231,13.2569438 43.2260674,13.9516581 C42.663749,12.2217496 42.0049281,10.5960666 41.2570336,9.09969095 C40.0882645,6.76267054 38.7510573,4.844244 37.2902799,3.38118816 C38.4614027,3.70070526 39.6121511,4.0995132 40.7398772,4.57643512 L40.7398772,4.57643512 Z M31.2042955,2.52789216 C32.4391894,2.77297295 33.6525321,3.39501625 34.825126,4.38651958 C36.4145489,5.73115402 37.8537751,7.67922268 39.1027178,10.1768843 C39.7710272,11.5143105 40.3640911,12.9653035 40.8760252,14.5087535 C37.8224412,15.1474935 34.5334853,15.5134965 31.2042955,15.58477 L31.2042955,2.52789216 Z M31.2042955,17.994535 C34.808135,17.9235557 38.2806811,17.531956 41.5664742,16.8268706 C42.5378986,20.4824139 43.0930087,24.552285 43.1809054,28.7957427 L31.2042955,28.7957427 L31.2042955,17.994535 Z M31.2042955,31.2043308 L43.1809054,31.2043308 C43.0924203,35.4494803 42.5378986,39.5204547 41.5653709,43.1771748 C38.312015,42.4812837 34.808135,42.0796071 31.2042955,42.0060535 L31.2042955,31.2043308 Z M34.825126,55.6134804 C33.6525321,56.6050573 32.4391894,57.2276155 31.2042955,57.4721814 L31.2042955,44.41523 C34.5751168,44.4865035 37.8442867,44.8542718 40.8766136,45.4889663 C40.3646059,47.0327105 39.7716156,48.4845127 39.1027178,49.8231893 C37.8537751,52.3208509 36.4145489,54.2694344 34.825126,55.6134804 L34.825126,55.6134804 Z M49.5099849,49.5105862 C46.9761318,52.0444362 44.0250818,54.0341363 40.7398772,55.4235649 C39.6121511,55.9005604 38.4614027,56.2992947 37.2902799,56.6188118 C38.7510573,55.1558296 40.0882645,53.2373295 41.2570336,50.900309 C42.0055165,49.4039334 42.663749,47.7771471 43.2271708,46.0466502 C45.8248685,46.7379075 48.2052885,47.6366596 50.2699423,48.720105 C50.022581,48.9879139 49.7688941,49.2516773 49.5099849,49.5105862 L49.5099849,49.5105862 Z M55.4236328,40.7398272 C54.4970027,42.9304023 53.3040344,44.971737 51.8602479,46.840809 C49.5473502,45.5720084 46.854621,44.5284291 43.9058512,43.7391983 C44.9229524,39.8931511 45.5010114,35.6324818 45.5894965,31.2043308 L57.5650031,31.2043308 C57.4253981,34.5047571 56.706778,37.7069156 55.4236328,40.7398272 L55.4236328,40.7398272 Z M45.5894965,28.7957427 C45.5010114,24.3686951 44.9229524,20.1086142 43.9064396,16.2634496 C46.8985326,15.4612734 49.5660329,14.4202684 51.8602479,13.1597794 C53.3040344,15.028263 54.4970027,17.0696713 55.4236328,19.2601728 C56.706778,22.2930844 57.4253981,25.4953165 57.5650031,28.7957427 L45.5894965,28.7957427 Z" id="Fill-1" stroke="#4A4A4A" fill="#4A4A4A"></path>
            </g>
        </g>
    </g>
</svg>