<svg width="64" height="64" viewBox="0 0 64 64" xmlns="http://www.w3.org/2000/svg"><title>Share Icons Copy 6</title><path d="M59.642 20.322a29.892 29.892 0 0 0-6.429-9.536 29.911 29.911 0 0 0-21.082-8.785L32 2h-.132a29.911 29.911 0 0 0-21.083 8.786 29.893 29.893 0 0 0-6.428 9.536A29.82 29.82 0 0 0 2 32c0 4.05.794 7.979 2.358 11.678a29.892 29.892 0 0 0 6.429 9.536 29.892 29.892 0 0 0 9.535 6.428 29.805 29.805 0 0 0 11.547 2.357L32 62h.13a29.805 29.805 0 0 0 11.548-2.358 29.892 29.892 0 0 0 9.535-6.428 29.89 29.89 0 0 0 6.429-9.536A29.816 29.816 0 0 0 62 32c0-4.05-.794-7.978-2.358-11.678zM12.49 12.49a27.498 27.498 0 0 1 12.218-7.108c-1.46 1.463-2.798 3.381-3.966 5.718a35.245 35.245 0 0 0-1.97 4.855c-2.597-.693-4.977-1.591-7.042-2.675.247-.267.501-.531.76-.79zm-5.914 8.77a27.432 27.432 0 0 1 3.564-6.1c2.312 1.269 5.005 2.312 7.953 3.101-1.016 3.846-1.594 8.107-1.682 12.535H4.435c.14-3.3.858-6.503 2.141-9.536zm3.563 27.58a27.464 27.464 0 0 1-3.563-6.1 27.33 27.33 0 0 1-2.141-9.536h11.976c.088 4.428.666 8.688 1.682 12.533-2.948.79-5.64 1.834-7.954 3.103zm11.121 8.584a27.5 27.5 0 0 1-9.53-6.704c2.065-1.085 4.444-1.984 7.04-2.675a35.354 35.354 0 0 0 1.972 4.855c1.168 2.337 2.505 4.255 3.966 5.718a27.254 27.254 0 0 1-3.448-1.194zm9.536 2.048c-1.236-.244-2.45-.866-3.623-1.859-1.589-1.344-3.028-3.292-4.277-5.79a32.671 32.671 0 0 1-1.774-4.336c3.03-.633 6.298-1.001 9.674-1.072v13.057zm0-15.465c-3.61.073-7.112.474-10.363 1.168-.971-3.656-1.526-7.726-1.614-11.97h11.977v10.802zm0-13.211H18.819c.088-4.246.643-8.316 1.615-11.973 3.253.696 6.757 1.098 10.362 1.172v10.8zm0-13.21c-3.372-.072-6.64-.44-9.674-1.074a32.8 32.8 0 0 1 1.774-4.335c1.25-2.498 2.688-4.446 4.277-5.79 1.173-.992 2.387-1.615 3.623-1.86v13.058zM42.74 6.575a27.497 27.497 0 0 1 9.529 6.703c-2.04 1.066-4.44 1.978-7.043 2.673a35.216 35.216 0 0 0-1.969-4.852c-1.169-2.337-2.506-4.256-3.967-5.719 1.171.32 2.322.719 3.45 1.195zm-9.536-2.048c1.235.245 2.449.867 3.621 1.859 1.59 1.344 3.029 3.292 4.278 5.79a32.81 32.81 0 0 1 1.773 4.332c-3.054.638-6.343 1.004-9.672 1.076V4.528zm0 15.467c3.604-.071 7.077-.463 10.362-1.168.972 3.655 1.527 7.725 1.615 11.969H33.204V19.995zm0 13.21h11.977c-.089 4.244-.643 8.315-1.616 11.972-3.253-.696-6.757-1.097-10.36-1.17V33.203zm3.621 24.408c-1.172.992-2.386 1.615-3.62 1.86V46.414c3.37.072 6.64.44 9.672 1.074a32.83 32.83 0 0 1-1.774 4.334c-1.25 2.498-2.688 4.446-4.278 5.79zm14.685-6.102a27.499 27.499 0 0 1-12.22 7.108c1.461-1.463 2.798-3.382 3.967-5.719a35.276 35.276 0 0 0 1.97-4.853c2.598.69 4.978 1.59 7.043 2.673-.247.268-.501.532-.76.79zm5.914-8.771a27.45 27.45 0 0 1-3.564 6.1c-2.313-1.268-5.005-2.312-7.954-3.1 1.017-3.847 1.595-8.108 1.683-12.536h11.976a27.33 27.33 0 0 1-2.141 9.536zm-9.835-11.944c-.088-4.427-.666-8.687-1.683-12.533 2.993-.802 5.66-1.843 7.954-3.103a27.435 27.435 0 0 1 3.564 6.1 27.33 27.33 0 0 1 2.141 9.536H47.589z" fill-rule="evenodd"/></svg>