<svg width="64" height="64" viewBox="0 0 64 64" xmlns="http://www.w3.org/2000/svg"><title>Share Icons Copy 3</title><path d="M59.58 40.889L41.193 9.11C39.135 5.382 35.723 3 31.387 3c-3.11 0-6.521 2.382-8.58 6.111L4.42 40.89C1.632 45.525 1.294 49.7 3.195 53.11 5.015 56.208 7.572 58 13 58h36.773c5.428 0 9.21-1.792 11.031-4.889 1.9-3.41 1.564-7.584-1.225-12.222zm-2.452 11c-.635 1.695-3.802 2.444-7.354 2.444H13c-3.591 0-5.493-.75-6.129-2.444-1.712-2.41-1.375-5.262 0-8.556l18.386-31.777c2.116-3.168 4.394-4.89 6.13-4.89 2.96 0 5.238 1.722 7.354 4.89l18.386 31.777c1.374 3.294 1.713 6.146 0 8.556zm-25.74-33c-.405 0-1.227.836-1.227 2.444v15.89c0 1.608.822 2.444 1.226 2.444 1.628 0 2.452-.836 2.452-2.445V21.333c0-1.608-.824-2.444-2.452-2.444zm0 23.222c-.405 0-1.227.788-1.227 1.222v2.445c0 .434.822 1.222 1.226 1.222 1.628 0 2.452-.788 2.452-1.222v-2.445c0-.434-.824-1.222-2.452-1.222z" fill-rule="evenodd"/></svg>