<svg width="64" height="64" viewBox="0 0 64 64" xmlns="http://www.w3.org/2000/svg"><title>Share Icons Copy 2</title><path d="M57.789 6.423l-.879-.878c-6.06-6.06-15.884-6.06-21.943 0l-8.778 8.777c-.421.42-.805.863-1.167 1.317l6.076-.796 6.584-6.583c4.12-4.12 12.392-4.12 16.513 0l.878.879c4.12 4.119 4.12 12.393 0 16.512l-8.778 8.779c-4.12 4.12-12.631 4.2-16.752.08l-.878-.878a10.574 10.574 0 0 1-1.56-2.009l-4.106-.018a15.448 15.448 0 0 0 3.19 4.662l.877.877c6.06 6.06 15.885 6.06 21.944 0l8.779-8.777c6.06-6.06 6.06-15.884 0-21.944zM26.985 53.741c-4.12 4.12-12.393 4.12-16.514 0l-.878-.879c-4.12-4.12-4.12-12.393 0-16.513l8.777-8.778c4.12-4.12 12.393-4.12 16.514 0l.878.877a10.605 10.605 0 0 1 1.56 2.008l4.345-.06a15.451 15.451 0 0 0-3.19-4.662l-.878-.878c-6.06-6.06-15.884-6.06-21.943 0l-8.779 8.778C.82 39.693.82 49.518 6.877 55.578l.879.878c6.06 6.059 15.884 6.059 21.944 0l9.017-9.415-5.15.116-6.582 6.584z" fill-rule="evenodd"/></svg>