<?xml version="1.0" encoding="UTF-8"?>
<svg width="36px" height="36px" viewBox="0 0 36 36" version="1.1" xmlns="http://www.w3.org/2000/svg" xmlns:xlink="http://www.w3.org/1999/xlink">
    <!-- Generator: Sketch 41.2 (35397) - http://www.bohemiancoding.com/sketch -->
    <title>QRcode</title>
    <desc>Created with Sketch.</desc>
    <defs></defs>
    <g id="Page-1" stroke="none" stroke-width="1" fill="none" fill-rule="evenodd">
        <g id="QRcode" fill="#4A4A4A">
            <path d="M0,0 L17,0 L17,17 L0,17 L0,0 Z M3,3 L14,3 L14,14 L3,14 L3,3 Z" id="Combined-Shape"></path>
            <polygon id="Fill-1" points="6 11 11 11 11 6 6 6"></polygon>
            <polygon id="Fill-4" points="32 23 36 23 36 19 32 19"></polygon>
            <polygon id="Fill-5" points="28 27 32 27 32 23 28 23"></polygon>
            <polygon id="Fill-6" points="32 32 36 32 36 28 32 28"></polygon>
            <polygon id="Fill-7" points="28 36 36 36 36 33 28 33"></polygon>
            <polygon id="Fill-8" points="19 28 25 28 25 30.6400622 21.964361 30.6400622 21.964361 36 19 36"></polygon>
            <polygon id="Fill-9" points="19 19 19 26 21.6383386 26 21.6383386 21.7318342 27 21.7318342 27 19"></polygon>
            <path d="M19,0 L36,0 L36,17 L19,17 L19,0 Z M22,3 L33,3 L33,14 L22,14 L22,3 Z" id="Combined-Shape"></path>
            <polygon id="Fill-1" points="25 11 30 11 30 6 25 6"></polygon>
            <path d="M0,19 L17,19 L17,36 L0,36 L0,19 Z M3,22 L14,22 L14,33 L3,33 L3,22 Z" id="Combined-Shape"></path>
            <polygon id="Fill-1" points="6 30 11 30 11 25 6 25"></polygon>
        </g>
    </g>
</svg>
