<?xml version="1.0" encoding="UTF-8"?>
<svg width="36px" height="36px" viewBox="0 0 36 36" version="1.1" xmlns="http://www.w3.org/2000/svg" xmlns:xlink="http://www.w3.org/1999/xlink">
    <!-- Generator: Sketch 41.2 (35397) - http://www.bohemiancoding.com/sketch -->
    <title>Scan</title>
    <desc>Created with Sketch.</desc>
    <defs></defs>
    <g id="Page-1" stroke="none" stroke-width="1" fill="none" fill-rule="evenodd">
        <g id="Scan" fill="#4A4A4A">
            <rect id="Rectangle-378" x="0" y="16" width="36" height="3" rx="0.947368421"></rect>
            <path d="M2.85882429e-15,12 L2.0467168e-15,2.99715203 C1.89740112e-15,1.34187067 1.34226429,0 2.99878564,0 L13,0 L13,3 L4.99961498,3 C3.89525812,3 3,3.89585781 3,4.9973917 L3,12 L2.85882429e-15,12 Z" id="Path-2"></path>
            <path d="M23,12 L23,2.99715203 C23,1.34187067 24.3422643,0 25.9987856,0 L36,0 L36,3 L27.999615,3 C26.8952581,3 26,3.89585781 26,4.9973917 L26,12 L23,12 Z" id="Path-2" transform="translate(29.500000, 6.000000) scale(-1, 1) translate(-29.500000, -6.000000) "></path>
            <path d="M2.62660786e-15,36 L1.77635684e-15,25.0033512 C1.64810725e-15,23.3446462 1.34226429,22 2.99878564,22 L13,22 L13,25 L4.99961498,25 C3.89525812,25 3,25.9001762 3,26.992017 L3,36 L2.62660786e-15,36 Z" id="Path-2" transform="translate(6.500000, 29.000000) scale(1, -1) translate(-6.500000, -29.000000) "></path>
            <path d="M23,36 L23,25.0033512 C23,23.3446462 24.3422643,22 25.9987856,22 L36,22 L36,25 L27.999615,25 C26.8952581,25 26,25.9001762 26,26.992017 L26,36 L23,36 Z" id="Path-2" transform="translate(29.500000, 29.000000) scale(-1, -1) translate(-29.500000, -29.000000) "></path>
        </g>
    </g>
</svg>
