<?xml version="1.0" encoding="UTF-8"?>
<svg width="36px" height="36px" viewBox="0 0 36 36" version="1.1" xmlns="http://www.w3.org/2000/svg" xmlns:xlink="http://www.w3.org/1999/xlink">
    <defs></defs>
    <g id="Page-1" stroke="none" stroke-width="1" fill="none" fill-rule="evenodd">
        <g id="Scan" transform="translate(-4.000000, -4.000000)" fill="#4A4A4A">
            <g id="扫一扫" transform="translate(4.000000, 4.000000)">
                <rect id="Rectangle-378" x="0" y="16" width="36" height="3" rx="0.947368421"></rect>
                <path d="M0,2.67643992 C0,1.19828297 1.19778442,0 2.67643992,0 L33.3235601,0 C34.801717,0 36,1.19778442 36,2.67643992 L36,33.3235601 C36,34.801717 34.8022156,36 33.3235601,36 L2.67643992,36 C1.19828297,36 0,34.8022156 0,33.3235601 L0,2.67643992 Z M3,4.99161703 C3,3.89167732 3.89784041,3 4.99161703,3 L31.008383,3 C32.1083227,3 33,3.89784041 33,4.99161703 L33,31.008383 C33,32.1083227 32.1021596,33 31.008383,33 L4.99161703,33 C3.89167732,33 3,32.1021596 3,31.008383 L3,4.99161703 Z M0,12 L3,12 L3,22 L0,22 L0,12 Z M33,12 L36,12 L36,22 L33,22 L33,12 Z M13,0 L23,0 L23,3 L13,3 L13,0 Z M13,33 L23,33 L23,36 L13,36 L13,33 Z" id="Rectangle-226"></path>
            </g>
        </g>
    </g>
</svg>
