<?xml version="1.0" encoding="UTF-8"?>
<svg width="52px" height="38px" viewBox="0 0 52 38" version="1.1" xmlns="http://www.w3.org/2000/svg" xmlns:xlink="http://www.w3.org/1999/xlink">
    <g stroke="none" stroke-width="1" fill="none" fill-rule="evenodd">
        <g transform="translate(-600.000000, -464.000000)" fill="#333333" fill-rule="nonzero">
            <g transform="translate(600.000000, 464.000000)">
                <path d="M45,0 C48.8659932,0 52,3.13400675 52,7 L52,7 L52,31 C52,34.8659932 48.8659932,38 45,38 L45,38 L16.3742656,38 C14.2113201,38 12.1698534,37.0001043 10.8438874,35.2912605 L10.8438874,35.2912605 L1.5325666,23.2912605 C-0.426929077,20.765953 -0.426929077,17.234047 1.5325666,14.7087395 L1.5325666,14.7087395 L10.8438874,2.70873952 C12.1698534,0.99989572 14.2113201,0 16.3742656,0 L16.3742656,0 Z M45,3 L16.3742656,3 L16.1434178,3.00665514 C14.9940748,3.0730036 13.9243884,3.63239912 13.2140495,4.54785116 L13.2140495,4.54785116 L3.9027287,16.5478512 L3.7737379,16.7237024 C2.78480843,18.1514223 2.82780536,20.0668373 3.9027287,21.4521488 L3.9027287,21.4521488 L13.2140495,33.4521488 L13.3608257,33.6304512 C14.1178346,34.4978202 15.2155448,35 16.3742656,35 L16.3742656,35 L45,35 L45.1996403,34.9951047 C47.3160315,34.8910789 49,33.1421954 49,31 L49,31 L49,7 L48.9951047,6.80035966 C48.8910789,4.68396847 47.1421954,3 45,3 L45,3 Z M25.502,13.001 L29.7565729,17.208 L34.01,13.001 L38.232,13.001 L38.2422424,13.0113777 L31.8775729,19.306 L38.524,25.881 L34.282,25.881 L29.7565729,21.404 L25.23,25.881 L20.99,25.881 L27.6355729,19.306 L21.2716797,13.0113777 L21.281,13.001 L25.502,13.001 Z"></path>
            </g>
        </g>
    </g>
</svg>