<?xml version="1.0" encoding="UTF-8"?>
<svg width="400px" height="400px" viewBox="0 0 400 400" version="1.1" xmlns="http://www.w3.org/2000/svg" xmlns:xlink="http://www.w3.org/1999/xlink">
    <title>@反馈/异常/服务&amp;系统繁忙</title>
    <defs>
        <linearGradient x1="50%" y1="-116.862036%" x2="50%" y2="90.7636478%" id="linearGradient-1">
            <stop stop-color="#72A7FD" stop-opacity="0.206670161" offset="0%"></stop>
            <stop stop-color="#72A7FD" stop-opacity="0.114736704" offset="80.0721014%"></stop>
            <stop stop-color="#72A7FD" stop-opacity="0" offset="100%"></stop>
        </linearGradient>
        <circle id="path-2" cx="34.8571429" cy="34.8571429" r="34.8571429"></circle>
    </defs>
    <g id="页面-1" stroke="none" stroke-width="1" fill="none" fill-rule="evenodd">
        <g id="服务-系统繁忙" transform="translate(-175.000000, -320.000000)">
            <g id="服务/系统繁忙" transform="translate(175.000000, 320.000000)">
                <rect id="矩形" fill="#FFFFFF" opacity="0" x="0" y="0" width="400" height="400"></rect>
                <g id="背景" transform="translate(18.285714, 51.285714)" fill="url(#linearGradient-1)">
                    <path d="M157.964124,243.667186 L0,243.667186 L3.8063928,99.1342148 C3.86970779,96.7300742 5.78086045,94.7996945 8.15881195,94.6882224 L8.37623688,94.6831368 L53.964,94.6827899 L53.9641237,67.2052185 C53.9641237,64.7526233 55.8955385,62.7511343 58.320354,62.6387656 L58.5355522,62.6337899 L124.034,62.633 L126.587999,3.9451783 C126.591305,3.86919248 126.596506,3.793301 126.603599,3.71757472 C126.832301,1.275666 128.941937,-0.5369995 131.366666,-0.422766762 L131.58139,-0.407653786 L219.371279,7.81449774 C221.571189,8.02053513 223.297916,9.7669192 223.497278,11.9473536 L223.511767,12.1596813 L226.658388,81.812 L301.633552,63.9056195 C301.981426,63.8225347 302.337848,63.7805617 302.695506,63.7805617 C305.148101,63.7805617 307.14959,65.7119765 307.261959,68.1367921 L307.266935,68.3519902 L307.266388,112.307 L363.428571,112.307872 L363.428571,242.571575 L307.266388,242.571 L307.266935,242.572811 L224.88336,242.572811 L224.882388,242.569 L157.964,242.569 L157.964124,243.667186 Z M89.5029468,159.035518 L79.5353988,159.035518 L79.5353988,167.471251 L89.5029468,167.471251 L89.5029468,159.035518 Z M89.5029468,144.528364 L79.5353988,144.528364 L79.5353988,152.964097 L89.5029468,152.964097 L89.5029468,144.528364 Z M287.488314,139.379444 L277.520766,139.379444 L277.520766,147.811058 L287.488314,147.811058 L287.488314,139.379444 Z M89.5029468,130.573156 L79.5353988,130.573156 L79.5353988,139.00889 L89.5029468,139.00889 L89.5029468,130.573156 Z M287.488314,125.420118 L277.520766,125.420118 L277.520766,133.851732 L287.488314,133.851732 L287.488314,125.420118 Z M287.488314,110.917082 L277.520766,110.917082 L277.520766,119.348696 L287.488314,119.348696 L287.488314,110.917082 Z M202.8449,110.139799 L172.044724,110.139799 L172.044724,118.575532 L202.8449,118.575532 L202.8449,110.139799 Z M287.488314,96.9536369 L277.520766,96.9536369 L277.520766,105.38937 L287.488314,105.38937 L287.488314,96.9536369 Z M202.8449,93.6637572 L172.044724,93.6637572 L172.044724,102.09949 L202.8449,102.09949 L202.8449,93.6637572 Z M202.8449,77.75202 L172.044724,77.75202 L172.044724,86.1877533 L202.8449,86.1877533 L202.8449,77.75202 Z" id="background"></path>
                </g>
                <g id="沙漏" transform="translate(201.202390, 264.404180) rotate(-343.000000) translate(-201.202390, -264.404180) translate(119.202390, 165.404180)">
                    <path d="M103.87359,0.449061398 L6.66929486,31.2529819 C1.63987804,32.8471396 -1.14509636,38.2158752 0.449061398,43.245292 C2.04321916,48.2737942 7.4119547,51.0587686 12.4404569,49.4655254 L13.354148,49.17651 C15.1467752,56.3268975 34.39376,105.412041 65.04309,98.8944767 C69.1697298,98.0169488 72.264586,97.095276 73.5386318,101.116797 C74.8126775,105.138319 71.7612583,106.164116 67.883394,107.82343 C35.8941098,121.51144 51.6116437,171.361089 54.2658295,178.238924 L53.3521384,178.527939 C48.3227216,180.122097 45.5377472,185.490832 47.1319049,190.520249 C48.7251481,195.549666 54.0947982,198.333726 59.1233004,196.740483 L156.327596,165.935648 C161.356098,164.34149 164.141072,158.972754 162.547829,153.944252 C160.953671,148.914835 155.584936,146.129861 150.556434,147.724019 L149.642743,148.013034 C147.850115,140.862647 131.499375,91.1624878 97.9538006,98.2941528 C93.8271299,99.1714677 90.7323046,100.093353 89.4582588,96.0718322 C88.1842131,92.0503108 91.2353222,91.024367 95.1134966,89.3651997 C124.035436,76.9917661 111.384332,25.8284554 108.731061,18.9506204 L109.644752,18.6606904 C114.674169,17.0674472 117.458229,11.6987117 115.864986,6.66929486 C114.270828,1.63987804 108.902092,-1.14509636 103.87359,0.449061398 Z" id="Fill-41" fill="#377EFF"></path>
                    <path d="M112.021904,162.205153 C112.714666,162.205153 113.27626,162.788641 113.27626,163.508411 C113.27626,164.228181 112.714666,164.811669 112.021904,164.811669 C111.329143,164.811669 110.767549,164.228181 110.767549,163.508411 C110.767549,162.788641 111.329143,162.205153 112.021904,162.205153 Z M106.307619,162.205153 C107.00038,162.205153 107.561974,162.788641 107.561974,163.508411 C107.561974,164.228181 107.00038,164.811669 106.307619,164.811669 C105.614857,164.811669 105.053263,164.228181 105.053263,163.508411 C105.053263,162.788641 105.614857,162.205153 106.307619,162.205153 Z M123.928898,159.263726 C124.62166,159.263726 125.183254,159.847214 125.183254,160.566984 C125.183254,161.286754 124.62166,161.870242 123.928898,161.870242 C123.236137,161.870242 122.674543,161.286754 122.674543,160.566984 C122.674543,159.847214 123.236137,159.263726 123.928898,159.263726 Z M115.512474,158.426144 C116.205235,158.426144 116.766829,159.009632 116.766829,159.729402 C116.766829,160.449171 116.205235,161.03266 115.512474,161.03266 C114.819712,161.03266 114.258118,160.449171 114.258118,159.729402 C114.258118,159.009632 114.819712,158.426144 115.512474,158.426144 Z M110.628176,157.593624 C111.320937,157.593624 111.882532,158.177113 111.882532,158.896882 C111.882532,159.616652 111.320937,160.20014 110.628176,160.20014 C109.935415,160.20014 109.373821,159.616652 109.373821,158.896882 C109.373821,158.177113 109.935415,157.593624 110.628176,157.593624 Z M104.663019,157.513424 C105.355781,157.513424 105.917375,158.096912 105.917375,158.816682 C105.917375,159.536451 105.355781,160.11994 104.663019,160.11994 C103.970258,160.11994 103.408664,159.536451 103.408664,158.816682 C103.408664,158.096912 103.970258,157.513424 104.663019,157.513424 Z M120.082637,155.309175 C120.775398,155.309175 121.336992,155.892664 121.336992,156.612434 C121.336992,157.332203 120.775398,157.915692 120.082637,157.915692 C119.389875,157.915692 118.828281,157.332203 118.828281,156.612434 C118.828281,155.892664 119.389875,155.309175 120.082637,155.309175 Z M124.458167,154.211199 C125.150928,154.211199 125.712522,154.794687 125.712522,155.514457 C125.712522,156.234227 125.150928,156.817715 124.458167,156.817715 C123.765405,156.817715 123.203811,156.234227 123.203811,155.514457 C123.203811,154.794687 123.765405,154.211199 124.458167,154.211199 Z M115.356039,151.72417 C116.048801,151.72417 116.610395,152.307658 116.610395,153.027428 C116.610395,153.747197 116.048801,154.330686 115.356039,154.330686 C114.663278,154.330686 114.101684,153.747197 114.101684,153.027428 C114.101684,152.307658 114.663278,151.72417 115.356039,151.72417 Z M108.176708,152.331218 C108.592364,152.331218 108.929321,152.681311 108.929321,153.113172 C108.929321,153.545034 108.592364,153.895127 108.176708,153.895127 C107.761051,153.895127 107.424094,153.545034 107.424094,153.113172 C107.424094,152.681311 107.761051,152.331218 108.176708,152.331218 Z M103.771033,150.736481 C104.463795,150.736481 105.025389,151.31997 105.025389,152.039739 C105.025389,152.759509 104.463795,153.342997 103.771033,153.342997 C103.078272,153.342997 102.516678,152.759509 102.516678,152.039739 C102.516678,151.31997 103.078272,150.736481 103.771033,150.736481 Z M97.2483852,151.217684 C97.664042,151.217684 98.0009984,151.567777 98.0009984,151.999639 C98.0009984,152.431501 97.664042,152.781594 97.2483852,152.781594 C96.8327284,152.781594 96.4957719,152.431501 96.4957719,151.999639 C96.4957719,151.567777 96.8327284,151.217684 97.2483852,151.217684 Z M120.91389,149.593624 C121.606652,149.593624 122.168246,150.177113 122.168246,150.896882 C122.168246,151.616652 121.606652,152.20014 120.91389,152.20014 C120.221129,152.20014 119.659535,151.616652 119.659535,150.896882 C119.659535,150.177113 120.221129,149.593624 120.91389,149.593624 Z M111.265125,150.355786 C111.54223,150.355786 111.766868,150.589182 111.766868,150.87709 C111.766868,151.164997 111.54223,151.398393 111.265125,151.398393 C110.988021,151.398393 110.763383,151.164997 110.763383,150.87709 C110.763383,150.589182 110.988021,150.355786 111.265125,150.355786 Z M131.839748,146.279643 C132.532509,146.279643 133.094104,146.863132 133.094104,147.582901 C133.094104,148.302671 132.532509,148.886159 131.839748,148.886159 C131.146987,148.886159 130.585393,148.302671 130.585393,147.582901 C130.585393,146.863132 131.146987,146.279643 131.839748,146.279643 Z M99.5340995,146.646256 C99.9497563,146.646256 100.286713,146.996349 100.286713,147.428211 C100.286713,147.860072 99.9497563,148.210165 99.5340995,148.210165 C99.1184427,148.210165 98.7814862,147.860072 98.7814862,147.428211 C98.7814862,146.996349 99.1184427,146.646256 99.5340995,146.646256 Z M123.199605,145.022195 C123.892366,145.022195 124.45396,145.605684 124.45396,146.325454 C124.45396,147.045223 123.892366,147.628712 123.199605,147.628712 C122.506843,147.628712 121.945249,147.045223 121.945249,146.325454 C121.945249,145.605684 122.506843,145.022195 123.199605,145.022195 Z M110.628176,145.022195 C111.320937,145.022195 111.882532,145.605684 111.882532,146.325454 C111.882532,147.045223 111.320937,147.628712 110.628176,147.628712 C109.935415,147.628712 109.373821,147.045223 109.373821,146.325454 C109.373821,145.605684 109.935415,145.022195 110.628176,145.022195 Z M117.485319,145.022195 C118.17808,145.022195 118.739674,145.605684 118.739674,146.325454 C118.739674,147.045223 118.17808,147.628712 117.485319,147.628712 C116.792558,147.628712 116.230964,147.045223 116.230964,146.325454 C116.230964,145.605684 116.792558,145.022195 117.485319,145.022195 Z M114.391242,145.503398 C114.806899,145.503398 115.143856,145.853492 115.143856,146.285353 C115.143856,146.717215 114.806899,147.067308 114.391242,147.067308 C113.975586,147.067308 113.638629,146.717215 113.638629,146.285353 C113.638629,145.853492 113.975586,145.503398 114.391242,145.503398 Z M105.248385,145.503398 C105.664042,145.503398 106.000998,145.853492 106.000998,146.285353 C106.000998,146.717215 105.664042,147.067308 105.248385,147.067308 C104.832728,147.067308 104.495772,146.717215 104.495772,146.285353 C104.495772,145.853492 104.832728,145.503398 105.248385,145.503398 Z M127.771033,140.450767 C128.463795,140.450767 129.025389,141.034255 129.025389,141.754025 C129.025389,142.473795 128.463795,143.057283 127.771033,143.057283 C127.078272,143.057283 126.516678,142.473795 126.516678,141.754025 C126.516678,141.034255 127.078272,140.450767 127.771033,140.450767 Z M120.656928,141.419828 C121.072584,141.419828 121.409541,141.769921 121.409541,142.201783 C121.409541,142.633644 121.072584,142.983737 120.656928,142.983737 C120.241271,142.983737 119.904314,142.633644 119.904314,142.201783 C119.904314,141.769921 120.241271,141.419828 120.656928,141.419828 Z M115.701347,140.310416 C116.394108,140.310416 116.955702,140.893905 116.955702,141.613674 C116.955702,142.333444 116.394108,142.916932 115.701347,142.916932 C115.008585,142.916932 114.446991,142.333444 114.446991,141.613674 C114.446991,140.893905 115.008585,140.310416 115.701347,140.310416 Z M108.676957,139.789113 C109.092613,139.789113 109.42957,140.139206 109.42957,140.571068 C109.42957,141.002929 109.092613,141.353023 108.676957,141.353023 C108.2613,141.353023 107.924343,141.002929 107.924343,140.571068 C107.924343,140.139206 108.2613,139.789113 108.676957,139.789113 Z M102.962671,139.789113 C103.378328,139.789113 103.715284,140.139206 103.715284,140.571068 C103.715284,141.002929 103.378328,141.353023 102.962671,141.353023 C102.547014,141.353023 102.210058,141.002929 102.210058,140.571068 C102.210058,140.139206 102.547014,139.789113 102.962671,139.789113 Z M93.8198138,139.789113 C94.2354706,139.789113 94.572427,140.139206 94.572427,140.571068 C94.572427,141.002929 94.2354706,141.353023 93.8198138,141.353023 C93.4041569,141.353023 93.0672005,141.002929 93.0672005,140.571068 C93.0672005,140.139206 93.4041569,139.789113 93.8198138,139.789113 Z M107.563467,135.629463 C107.979124,135.629463 108.31608,135.979556 108.31608,136.411418 C108.31608,136.84328 107.979124,137.193373 107.563467,137.193373 C107.14781,137.193373 106.810854,136.84328 106.810854,136.411418 C106.810854,135.979556 107.14781,135.629463 107.563467,135.629463 Z M120.105528,132.93197 C120.521185,132.93197 120.858141,133.282063 120.858141,133.713925 C120.858141,134.145787 120.521185,134.49588 120.105528,134.49588 C119.689871,134.49588 119.352915,134.145787 119.352915,133.713925 C119.352915,133.282063 119.689871,132.93197 120.105528,132.93197 Z M97.1368869,131.969564 C97.5525437,131.969564 97.8895002,132.319657 97.8895002,132.751519 C97.8895002,133.183381 97.5525437,133.533474 97.1368869,133.533474 C96.7212301,133.533474 96.3842737,133.183381 96.3842737,132.751519 C96.3842737,132.319657 96.7212301,131.969564 97.1368869,131.969564 Z M127.342848,130.026375 C127.758505,130.026375 128.095461,130.376468 128.095461,130.80833 C128.095461,131.240192 127.758505,131.590285 127.342848,131.590285 C126.927191,131.590285 126.590235,131.240192 126.590235,130.80833 C126.590235,130.376468 126.927191,130.026375 127.342848,130.026375 Z M108.676957,127.217684 C109.092613,127.217684 109.42957,127.567777 109.42957,127.999639 C109.42957,128.431501 109.092613,128.781594 108.676957,128.781594 C108.2613,128.781594 107.924343,128.431501 107.924343,127.999639 C107.924343,127.567777 108.2613,127.217684 108.676957,127.217684 Z M95.0393505,126.406963 C95.4550073,126.406963 95.7919638,126.757056 95.7919638,127.188918 C95.7919638,127.62078 95.4550073,127.970873 95.0393505,127.970873 C94.6236937,127.970873 94.2867373,127.62078 94.2867373,127.188918 C94.2867373,126.757056 94.6236937,126.406963 95.0393505,126.406963 Z" id="Combined-Shape" fill="#003CFF" fill-rule="nonzero" transform="translate(113.080652, 145.609316) scale(-1, 1) rotate(116.000000) translate(-113.080652, -145.609316) "></path>
                    <path d="M103.87359,0.449061398 L6.66929486,31.2529819 C1.63987804,32.8471396 -1.14509636,38.2158752 0.449061398,43.245292 C2.04321916,48.2737942 7.4119547,51.0587686 12.4404569,49.4655254 L109.644752,18.6606904 C114.674169,17.0674472 117.458229,11.6987117 115.864986,6.66929486 C114.270828,1.63987804 108.902092,-1.14509636 103.87359,0.449061398 Z" id="Fill-41" fill="#7EACFF"></path>
                    <path d="M150.730733,147.877633 L53.5264377,178.681553 C48.4970209,180.275711 45.7120465,185.644447 47.3062043,190.673863 C48.900362,195.702366 54.2690976,198.48734 59.2975998,196.894097 L156.501895,166.089262 C161.531312,164.496019 164.315372,159.127283 162.722129,154.097866 C161.127971,149.068449 155.759235,146.283475 150.730733,147.877633 Z" id="Fill-41" fill="#7EACFF"></path>
                    <line x1="58.1932098" y1="36.1058193" x2="107.979804" y2="20.3556304" id="Path" stroke="#003CFF" stroke-width="0.75" stroke-linecap="round" stroke-linejoin="round"></line>
                    <line x1="93.7949726" y1="164.509769" x2="143.729445" y2="149.243269" id="Path" stroke="#003CFF" stroke-width="0.75" stroke-linecap="round" stroke-linejoin="round"></line>
                    <path d="M18.4221111,68.4558988 C27.1595396,60.9212998 36.0117203,55.576305 44.9786534,52.4209145" id="Path" stroke="#FFFFFF" stroke-width="0.75" stroke-linecap="round" stroke-linejoin="round" transform="translate(31.700382, 60.438407) rotate(-87.000000) translate(-31.700382, -60.438407) "></path>
                </g>
                <g id="圆形" transform="translate(106.857143, 248.571429)" fill="#FFCD6B" fill-rule="nonzero">
                    <circle id="椭圆形" cx="14.8571429" cy="14.8571429" r="14.8571429"></circle>
                </g>
                <g id="圆形" transform="translate(236.571429, 284.571429)">
                    <mask id="mask-3" fill="white">
                        <use xlink:href="#path-2"></use>
                    </mask>
                    <use id="椭圆形" fill="#FBBE47" fill-rule="nonzero" xlink:href="#path-2"></use>
                    <circle id="椭圆形" fill="#FFCD6B" fill-rule="nonzero" mask="url(#mask-3)" cx="25.7142857" cy="28" r="34.8571429"></circle>
                    <circle id="椭圆形" fill="#FFFFFF" fill-rule="nonzero" mask="url(#mask-3)" cx="22.2857143" cy="18.8571429" r="3.42857143"></circle>
                </g>
            </g>
        </g>
    </g>
</svg>