<?xml version="1.0" encoding="UTF-8"?>
<svg width="392px" height="280px" viewBox="0 0 392 280" version="1.1" xmlns="http://www.w3.org/2000/svg" xmlns:xlink="http://www.w3.org/1999/xlink">
    <defs>
        <linearGradient x1="50%" y1="-116.862036%" x2="50%" y2="90.7636478%" id="linearGradient-1">
            <stop stop-color="#72A7FD" stop-opacity="0.206670161" offset="0%"/>
            <stop stop-color="#72A7FD" stop-opacity="0.114736704" offset="80.0721014%"/>
            <stop stop-color="#72A7FD" stop-opacity="0" offset="100%"/>
        </linearGradient>
        <rect id="path-2" x="7" y="18" width="102.857143" height="176" rx="9.14285714"/>
        <circle id="path-4" cx="37.6457143" cy="37.6457143" r="37.6457143"/>
    </defs>
    <g stroke="none" stroke-width="1" fill="none" fill-rule="evenodd">
        <g transform="translate(-179.000000, -364.000000)">
            <g transform="translate(175.000000, 320.000000)">
                <g>
                    <rect fill="#FFFFFF" opacity="0" x="0" y="0" width="400" height="400"></rect>
                    <g transform="translate(4.571429, 44.571429)" fill="url(#linearGradient-1)">
                        <path d="M147.114205,0.0082602398 C185.983178,-0.614181444 224.505961,34.0394879 250.16058,70.5811495 C267.576287,48.9374043 284.413175,38.1167605 300.670023,38.1167605 C327.336621,38.1167605 357.371644,66.6644095 390.775092,123.759708 C394.314077,129.808765 383.611974,138.62951 358.668783,150.221942 L358.668783,150.221942 L276.0257,152.962641 C261.339826,164.707169 213.575995,154.214411 137.720976,155.429141 C82.1409131,156.319192 46.2022425,152.961354 29.9049638,145.355627 C6.39928794,142.28619 -3.24957136,137.372605 0.958385971,130.614873 C54.7411753,44.242873 103.459782,0.707335362 147.114205,0.0082602398 Z M333.309905,99.0679324 L333.18296,99.0715847 L333.056847,99.0824249 C332.964106,99.0930308 332.871743,99.1093972 332.779976,99.1313803 C332.749504,99.1386545 332.719076,99.1465401 332.688579,99.154922 C332.656183,99.1639618 332.623837,99.1736875 332.591477,99.1842956 L332.591477,99.1842956 L332.559961,99.1946578 L332.528399,99.2053148 C332.492653,99.2178298 332.456971,99.2311709 332.421858,99.2454001 C332.397117,99.2552419 332.372408,99.2654769 332.3472,99.2760117 C332.308503,99.2926577 332.269885,99.3102597 332.231576,99.329084 L332.231576,99.329084 L332.098131,99.3968011 L332.098131,99.3968011 L332.05634,99.42025 C332.044311,99.4269708 332.032291,99.4337822 332.020981,99.439742 C331.976464,99.4652728 331.932062,99.4920399 331.887284,99.5209698 L331.887284,99.5209698 L331.839482,99.551042 C331.797264,99.5786064 331.755156,99.6072683 331.713471,99.6375622 C331.697813,99.6486598 331.682171,99.6599071 331.666207,99.6707323 C331.623515,99.7018365 331.58094,99.7340487 331.538941,99.7679088 C331.528614,99.7760143 331.518295,99.7841841 331.507553,99.7918127 C331.403447,99.8748636 331.300062,99.9644252 331.197949,100.060894 L331.197949,100.060894 L331.161433,100.094032 C331.006164,100.241318 330.852651,100.402698 330.701723,100.577811 C330.686977,100.59477 330.67225,100.611851 330.656762,100.628332 C327.312816,104.537595 324.901164,114.710776 324.901164,118.535316 C324.901164,123.082546 328.310344,126.81041 332.642273,127.160524 C332.677919,127.163405 332.713628,127.166058 332.749401,127.168461 L332.749401,127.168461 L332.749323,134.7766 C332.749567,135.555091 333.251581,136.185933 333.871043,136.185626 C334.48994,136.185626 334.991654,135.554658 334.991654,134.77632 L334.991654,134.77632 L334.991628,127.014332 C338.829815,126.212701 341.718648,122.721161 341.718648,118.535316 C341.718648,113.756872 337.953957,99.0679325 333.309905,99.0679324 L333.309905,99.0679324 Z M133.309905,89.0679324 L133.18296,89.0715847 L133.056847,89.0824249 C132.964106,89.0930308 132.871743,89.1093972 132.779976,89.1313803 C132.749504,89.1386545 132.719076,89.1465401 132.688579,89.154922 L132.640015,89.1690207 L132.640015,89.1690207 L132.591477,89.1842956 L132.559961,89.1946578 L132.528399,89.2053148 C132.492653,89.2178298 132.456971,89.2311709 132.421858,89.2454001 C132.397117,89.2552419 132.372408,89.2654769 132.3472,89.2760117 L132.289243,89.301731 L132.289243,89.301731 L132.231576,89.329084 L132.098131,89.3968011 L132.05634,89.42025 C132.044311,89.4269708 132.032291,89.4337822 132.020981,89.439742 L131.95423,89.4790812 L131.95423,89.4790812 L131.887284,89.5209698 L131.839482,89.551042 C131.797264,89.5786064 131.755156,89.6072683 131.713471,89.6375622 C131.697813,89.6486598 131.682171,89.6599071 131.666207,89.6707323 C131.623515,89.7018365 131.58094,89.7340487 131.538941,89.7679088 C131.528614,89.7760143 131.518295,89.7841841 131.507553,89.7918127 L131.352003,89.9213216 L131.352003,89.9213216 L131.197949,90.0608938 L131.161433,90.0940322 C131.006164,90.2413175 130.852651,90.4026983 130.701723,90.5778115 C130.686977,90.59477 130.67225,90.6118506 130.656762,90.6283325 C127.312816,94.5375945 124.901164,104.710776 124.901164,108.535316 C124.901164,113.082546 128.310344,116.81041 132.642273,117.160524 L132.695789,117.164672 L132.695789,117.164672 L132.749401,117.168461 L132.749323,124.7766 C132.749567,125.555091 133.251581,126.185933 133.871043,126.185626 C134.451259,126.185626 134.928482,125.631064 134.985869,124.920414 L134.991654,124.77632 L134.991628,117.014332 C138.829815,116.212701 141.718648,112.721161 141.718648,108.535316 C141.718648,103.756872 137.953957,89.0679325 133.309905,89.0679324 Z M105.280766,76.6953681 L105.173972,76.6973928 L105.067234,76.7034423 C104.882328,76.7174108 104.698577,76.7493797 104.516072,76.7985493 C104.4084,76.8275055 104.301171,76.8623981 104.193997,76.9028599 C103.990854,76.9800808 103.789398,77.0780422 103.583143,77.2000067 C103.507882,77.2444718 103.432884,77.2916907 103.357645,77.341036 C98.393152,80.6530376 94.6296936,95.7859475 94.6296936,101.109758 C94.6296936,106.544148 98.5511158,111.045397 103.668944,111.836648 L103.949268,111.876111 L103.949382,121.11217 C103.949656,121.998786 104.481415,122.726586 105.159749,122.804404 L105.280898,122.81129 L105.402548,122.804345 C106.040831,122.730797 106.549122,122.081663 106.606712,121.266519 L106.612151,121.111834 L106.612525,111.876489 C111.866431,111.208875 115.93184,106.643018 115.93184,101.109758 C115.93184,95.1170264 111.163232,76.6953683 105.280766,76.6953681 Z" id="background"></path>
                    </g>
                    <g transform="translate(209.642857, 244.071429) rotate(-90.000000) translate(-209.642857, -244.071429) translate(138.142857, 128.571429)">
                        <path d="M13.7142857,0 L104,0 C111.574191,-6.34223231e-15 117.714286,6.14009486 117.714286,13.7142857 L117.714286,197.714286 C117.714286,205.288477 111.574191,211.428571 104,211.428571 L13.7142857,211.428571 C6.14009486,211.428571 8.03299822e-15,205.288477 0,197.714286 L0,13.7142857 C8.48785981e-16,6.14009486 6.14009486,1.39135629e-15 13.7142857,0 Z" fill="#7EACFF"></path>
                        <mask id="mask-3" fill="white">
                            <use xlink:href="#path-2"></use>
                        </mask>
                        <use fill="#377EFF" xlink:href="#path-2"></use>
                        <path d="M23.6750966,183.601405 C24.3678579,183.601405 24.929452,184.184894 24.929452,184.904663 C24.929452,185.624433 24.3678579,186.207921 23.6750966,186.207921 C22.9823352,186.207921 22.4207412,185.624433 22.4207412,184.904663 C22.4207412,184.184894 22.9823352,183.601405 23.6750966,183.601405 Z M17.9608109,183.601405 C18.6535722,183.601405 19.2151663,184.184894 19.2151663,184.904663 C19.2151663,185.624433 18.6535722,186.207921 17.9608109,186.207921 C17.2680495,186.207921 16.7064555,185.624433 16.7064555,184.904663 C16.7064555,184.184894 17.2680495,183.601405 17.9608109,183.601405 Z M22.2813684,178.989876 C22.9741297,178.989876 23.5357238,179.573365 23.5357238,180.293134 C23.5357238,181.012904 22.9741297,181.596392 22.2813684,181.596392 C21.588607,181.596392 21.0270129,181.012904 21.0270129,180.293134 C21.0270129,179.573365 21.588607,178.989876 22.2813684,178.989876 Z M16.3162116,178.909676 C17.0089729,178.909676 17.570567,179.493164 17.570567,180.212934 C17.570567,180.932703 17.0089729,181.516192 16.3162116,181.516192 C15.6234502,181.516192 15.0618562,180.932703 15.0618562,180.212934 C15.0618562,179.493164 15.6234502,178.909676 16.3162116,178.909676 Z M26.8527969,177.847019 C27.5455583,177.847019 28.1071523,178.430508 28.1071523,179.150277 C28.1071523,179.870047 27.5455583,180.453535 26.8527969,180.453535 C26.1600356,180.453535 25.5984415,179.870047 25.5984415,179.150277 C25.5984415,178.430508 26.1600356,177.847019 26.8527969,177.847019 Z M32.5670826,175.561305 C33.259844,175.561305 33.821438,176.144793 33.821438,176.864563 C33.821438,177.584332 33.259844,178.167821 32.5670826,178.167821 C31.8743213,178.167821 31.3127272,177.584332 31.3127272,176.864563 C31.3127272,176.144793 31.8743213,175.561305 32.5670826,175.561305 Z M19.8298998,173.72747 C20.2455566,173.72747 20.582513,174.077563 20.582513,174.509425 C20.582513,174.941286 20.2455566,175.291379 19.8298998,175.291379 C19.414243,175.291379 19.0772866,174.941286 19.0772866,174.509425 C19.0772866,174.077563 19.414243,173.72747 19.8298998,173.72747 Z M26.8527969,172.132733 L26.9810475,172.139462 C27.6135638,172.206202 28.1071523,172.761207 28.1071523,173.435991 C28.1071523,174.155761 27.5455583,174.73925 26.8527969,174.73925 C26.1600356,174.73925 25.5984415,174.155761 25.5984415,173.435991 C25.5984415,172.716222 26.1600356,172.132733 26.8527969,172.132733 L26.8527969,172.132733 Z M38.2813684,172.132733 C38.9741297,172.132733 39.5357238,172.716222 39.5357238,173.435991 C39.5357238,174.155761 38.9741297,174.73925 38.2813684,174.73925 C37.588607,174.73925 37.0270129,174.155761 37.0270129,173.435991 C37.0270129,172.716222 37.588607,172.132733 38.2813684,172.132733 Z M15.4242255,172.132733 C16.1169869,172.132733 16.6785809,172.716222 16.6785809,173.435991 C16.6785809,174.155761 16.1169869,174.73925 15.4242255,174.73925 C14.7314641,174.73925 14.1698701,174.155761 14.1698701,173.435991 C14.1698701,172.716222 14.7314641,172.132733 15.4242255,172.132733 Z M8.90157741,172.613936 C9.31723423,172.613936 9.65419065,172.964029 9.65419065,173.395891 C9.65419065,173.827753 9.31723423,174.177846 8.90157741,174.177846 C8.48592059,174.177846 8.14896417,173.827753 8.14896417,173.395891 C8.14896417,172.964029 8.48592059,172.613936 8.90157741,172.613936 Z M32.5670826,170.989876 C33.259844,170.989876 33.821438,171.573365 33.821438,172.293134 C33.821438,173.012904 33.259844,173.596392 32.5670826,173.596392 C31.8743213,173.596392 31.3127272,173.012904 31.3127272,172.293134 C31.3127272,171.573365 31.8743213,170.989876 32.5670826,170.989876 Z M22.8655778,171.787888 C23.2812346,171.787888 23.618191,172.137982 23.618191,172.569843 C23.618191,173.001705 23.2812346,173.351798 22.8655778,173.351798 C22.4499209,173.351798 22.1129645,173.001705 22.1129645,172.569843 C22.1129645,172.137982 22.4499209,171.787888 22.8655778,171.787888 Z M43.4929403,167.675895 C44.1857017,167.675895 44.7472957,168.259384 44.7472957,168.979153 C44.7472957,169.698923 44.1857017,170.282411 43.4929403,170.282411 C42.800179,170.282411 42.2385849,169.698923 42.2385849,168.979153 C42.2385849,168.259384 42.800179,167.675895 43.4929403,167.675895 Z M38.7831105,167.420954 C39.4758719,167.420954 40.0374659,168.004442 40.0374659,168.724212 C40.0374659,169.443982 39.4758719,170.02747 38.7831105,170.02747 C38.0903492,170.02747 37.5287551,169.443982 37.5287551,168.724212 C37.5287551,168.004442 38.0903492,167.420954 38.7831105,167.420954 Z M11.1872917,168.042508 C11.6029485,168.042508 11.9399049,168.392601 11.9399049,168.824463 C11.9399049,169.256324 11.6029485,169.606417 11.1872917,169.606417 C10.7716349,169.606417 10.4346785,169.256324 10.4346785,168.824463 C10.4346785,168.392601 10.7716349,168.042508 11.1872917,168.042508 Z M34.8527969,166.418448 C35.5455583,166.418448 36.1071523,167.001936 36.1071523,167.721706 C36.1071523,168.441475 35.5455583,169.024964 34.8527969,169.024964 C34.1600356,169.024964 33.5984415,168.441475 33.5984415,167.721706 C33.5984415,167.001936 34.1600356,166.418448 34.8527969,166.418448 Z M22.2813684,166.418448 C22.9741297,166.418448 23.5357238,167.001936 23.5357238,167.721706 C23.5357238,168.441475 22.9741297,169.024964 22.2813684,169.024964 C21.588607,169.024964 21.0270129,168.441475 21.0270129,167.721706 C21.0270129,167.001936 21.588607,166.418448 22.2813684,166.418448 Z M29.1385112,166.418448 C29.8312726,166.418448 30.3928666,167.001936 30.3928666,167.721706 C30.3928666,168.441475 29.8312726,169.024964 29.1385112,169.024964 C28.4457498,169.024964 27.8841558,168.441475 27.8841558,167.721706 C27.8841558,167.001936 28.4457498,166.418448 29.1385112,166.418448 Z M16.9015774,166.899651 C17.3172342,166.899651 17.6541907,167.249744 17.6541907,167.681605 C17.6541907,168.113467 17.3172342,168.46356 16.9015774,168.46356 C16.4859206,168.46356 16.1489642,168.113467 16.1489642,167.681605 C16.1489642,167.249744 16.4859206,166.899651 16.9015774,166.899651 Z M39.4242255,161.847019 C40.1169869,161.847019 40.6785809,162.430508 40.6785809,163.150277 C40.6785809,163.870047 40.1169869,164.453535 39.4242255,164.453535 C38.7314641,164.453535 38.1698701,163.870047 38.1698701,163.150277 C38.1698701,162.430508 38.7314641,161.847019 39.4242255,161.847019 Z M32.3101199,162.81608 C32.7257767,162.81608 33.0627331,163.166173 33.0627331,163.598035 C33.0627331,164.029896 32.7257767,164.37999 32.3101199,164.37999 C31.8944631,164.37999 31.5575066,164.029896 31.5575066,163.598035 C31.5575066,163.166173 31.8944631,162.81608 32.3101199,162.81608 Z M27.3545391,161.706668 C28.0473004,161.706668 28.6088945,162.290157 28.6088945,163.009926 C28.6088945,163.729696 28.0473004,164.313184 27.3545391,164.313184 C26.6617777,164.313184 26.1001837,163.729696 26.1001837,163.009926 C26.1001837,162.290157 26.6617777,161.706668 27.3545391,161.706668 Z M20.3301488,161.185365 C20.7458057,161.185365 21.0827621,161.535458 21.0827621,161.96732 C21.0827621,162.399182 20.7458057,162.749275 20.3301488,162.749275 C19.914492,162.749275 19.5775356,162.399182 19.5775356,161.96732 C19.5775356,161.535458 19.914492,161.185365 20.3301488,161.185365 Z M14.6158631,161.185365 C15.0315199,161.185365 15.3684764,161.535458 15.3684764,161.96732 C15.3684764,162.399182 15.0315199,162.749275 14.6158631,162.749275 C14.2002063,162.749275 13.8632499,162.399182 13.8632499,161.96732 C13.8632499,161.535458 14.2002063,161.185365 14.6158631,161.185365 Z M5.47300598,161.185365 C5.8886628,161.185365 6.22561922,161.535458 6.22561922,161.96732 C6.22561922,162.399182 5.8886628,162.749275 5.47300598,162.749275 C5.05734917,162.749275 4.72039274,162.399182 4.72039274,161.96732 C4.72039274,161.535458 5.05734917,161.185365 5.47300598,161.185365 Z M35.2709154,157.516192 C35.9636767,157.516192 36.5252708,158.09968 36.5252708,158.81945 C36.5252708,159.53922 35.9636767,160.122708 35.2709154,160.122708 C34.578154,160.122708 34.01656,159.53922 34.01656,158.81945 C34.01656,158.09968 34.578154,157.516192 35.2709154,157.516192 Z M19.2166594,157.025715 C19.6323162,157.025715 19.9692726,157.375808 19.9692726,157.80767 C19.9692726,158.239532 19.6323162,158.589625 19.2166594,158.589625 C18.8010026,158.589625 18.4640461,158.239532 18.4640461,157.80767 C18.4640461,157.375808 18.8010026,157.025715 19.2166594,157.025715 Z M31.7587203,154.328222 C32.1743771,154.328222 32.5113335,154.678315 32.5113335,155.110177 C32.5113335,155.542039 32.1743771,155.892132 31.7587203,155.892132 C31.3430635,155.892132 31.006107,155.542039 31.006107,155.110177 C31.006107,154.678315 31.3430635,154.328222 31.7587203,154.328222 Z M8.79007915,153.365816 C9.20573597,153.365816 9.54269239,153.715909 9.54269239,154.147771 C9.54269239,154.579633 9.20573597,154.929726 8.79007915,154.929726 C8.37442234,154.929726 8.03746591,154.579633 8.03746591,154.147771 C8.03746591,153.715909 8.37442234,153.365816 8.79007915,153.365816 Z M38.9960404,151.422627 C39.4116972,151.422627 39.7486536,151.77272 39.7486536,152.204582 C39.7486536,152.636444 39.4116972,152.986537 38.9960404,152.986537 C38.5803836,152.986537 38.2434271,152.636444 38.2434271,152.204582 C38.2434271,151.77272 38.5803836,151.422627 38.9960404,151.422627 Z M20.3301488,148.613936 C20.7458057,148.613936 21.0827621,148.964029 21.0827621,149.395891 C21.0827621,149.827753 20.7458057,150.177846 20.3301488,150.177846 C19.914492,150.177846 19.5775356,149.827753 19.5775356,149.395891 C19.5775356,148.964029 19.914492,148.613936 20.3301488,148.613936 Z M6.69254274,147.803215 C7.10819956,147.803215 7.44515598,148.153308 7.44515598,148.58517 C7.44515598,149.017032 7.10819956,149.367125 6.69254274,149.367125 C6.27688592,149.367125 5.9399295,149.017032 5.9399295,148.58517 C5.9399295,148.153308 6.27688592,147.803215 6.69254274,147.803215 Z" fill="#003CFF"
                              mask="url(#mask-3)" transform="translate(24.733844, 167.005568) rotate(116.000000) translate(-24.733844, -167.005568) "></path>
                        <line x1="73.5481523" y1="10.9489371" x2="43.0458971" y2="10.9489371" stroke="#FFFFFF" stroke-width="1.5" stroke-linecap="round" stroke-linejoin="round"></line>
                        <path d="M110.669124,205.016837 L118.494503,215.007664 M142.316703,205.016837 L134.491324,215.007664 M152.780217,217.293379 L140.20561,219.579093 M126.669124,198.159694 L126.669124,212.681945" stroke="#4486FE" stroke-width="1.5" stroke-linecap="round" stroke-linejoin="round" transform="translate(131.635770, 209.016837) rotate(-270.000000) translate(-131.635770, -209.016837) "></path>
                    </g>
                    <g transform="translate(45.714286, 284.000000)" fill="#FFCD6B">
                        <circle cx="17.1428571" cy="17.1428571" r="17.1428571"></circle>
                    </g>
                    <g transform="translate(265.714286, 248.000000)">
                        <mask id="mask-5" fill="white">
                            <use xlink:href="#path-4"></use>
                        </mask>
                        <use fill="#FBBE47" xlink:href="#path-4"></use>
                        <circle fill="#FFCD6B" mask="url(#mask-5)" cx="27.7714286" cy="30.24" r="37.6457143"></circle>
                        <circle fill="#FFB400" mask="url(#mask-5)" cx="46.8" cy="58.1142857" r="1.54285714"></circle>
                        <circle fill="#FFB400" mask="url(#mask-5)" cx="60.6857143" cy="59.6571429" r="1.02857143"></circle>
                        <circle fill="#FFB400" mask="url(#mask-5)" cx="37.5428571" cy="65.3142857" r="2.57142857"></circle>
                        <circle fill="#FFB400" mask="url(#mask-5)" cx="59.1428571" cy="51.9428571" r="2.57142857"></circle>
                        <circle fill="#FFB400" mask="url(#mask-5)" cx="38.5714286" cy="15.9428571" r="2.57142857"></circle>
                        <circle fill="#FFB400" mask="url(#mask-5)" cx="52.9714286" cy="11.8285714" r="2.57142857"></circle>
                        <circle fill="#FFB400" mask="url(#mask-5)" cx="22.1142857" cy="13.8857143" r="1.54285714"></circle>
                        <circle fill="#FFB400" mask="url(#mask-5)" cx="60.1714286" cy="31.3714286" r="2.57142857"></circle>
                        <circle fill="#FFB400" mask="url(#mask-5)" cx="45.7714286" cy="29.3142857" r="1.54285714"></circle>
                    </g>
                    <path d="M174.857143,270.245311 L188.040416,251.489445 L188.040416,251.331557 L176.060886,251.331557 L176.060886,246.212812 L196.13521,246.212812 L196.13521,249.786914 L183.254296,268.294796 L183.254296,268.458211 L196.374663,268.458211 L196.374663,273.571429 L174.857143,273.571429 L174.857143,270.245311 Z M199.2271,258.468609 L209.124564,244.374796 L209.124564,244.262102 L200.128386,244.262102 L200.128386,240.428571 L215.199904,240.428571 L215.199904,243.10636 L205.50205,256.991563 L205.50205,257.109881 L215.348189,257.109881 L215.348189,260.949037 L199.2271,260.949037 L199.2271,258.468609 Z M219.917623,259.872336 L227.333509,249.324501 L227.333509,249.234307 L220.59084,249.234307 L220.59084,246.359256 L231.885867,246.359256 L231.885867,248.366215 L224.62965,258.778662 L224.62965,258.868856 L232,258.868856 L232,261.744004 L219.917623,261.744004 L219.917623,259.872336 Z" fill="#FFFFFF"></path>
                </g>
            </g>
        </g>
    </g>
</svg>
