<?xml version="1.0" encoding="UTF-8"?>
<svg width="200px" height="200px" viewBox="0 0 200 200" version="1.1" xmlns="http://www.w3.org/2000/svg" xmlns:xlink="http://www.w3.org/1999/xlink">
    <title>@反馈/异常/服务或系统异常</title>
    <defs>
        <linearGradient x1="50%" y1="-116.862036%" x2="50%" y2="90.7636478%" id="linearGradient-1">
            <stop stop-color="#72A7FD" stop-opacity="0.206670161" offset="0%"></stop>
            <stop stop-color="#72A7FD" stop-opacity="0.114736704" offset="80.0721014%"></stop>
            <stop stop-color="#72A7FD" stop-opacity="0" offset="100%"></stop>
        </linearGradient>
        <rect id="path-2" x="3.5" y="9" width="51.4285714" height="88" rx="4.57142857"></rect>
        <circle id="path-4" cx="18.8228571" cy="18.8228571" r="18.8228571"></circle>
    </defs>
    <g id="页面-1" stroke="none" stroke-width="1" fill="none" fill-rule="evenodd">
        <g id="服务或系统异常" transform="translate(-251.000000, -40.000000)">
            <g id="服务或系统异常/错误" transform="translate(251.000000, 40.000000)">
                <rect id="矩形" fill="#FFFFFF" opacity="0" x="0" y="0" width="200" height="200"></rect>
                <g id="背景" transform="translate(2.285714, 22.285714)" fill="url(#linearGradient-1)">
                    <path d="M73.5571023,0.0041301199 C92.9915673,-0.30709037 112.252937,17.0197048 125.080246,35.2905128 C133.788247,24.4686359 142.206637,19.0583802 150.335011,19.0583802 C163.66831,19.0583802 178.685822,33.3322048 195.387546,61.8798538 C197.157038,64.9043825 191.805987,69.3147549 179.334392,75.1109712 L179.334392,75.1109712 L138.012362,76.4817106 C130.668855,82.3533522 106.787157,77.107219 68.8604878,77.7145707 C41.0704566,78.1595959 23.1011213,76.4806768 14.9524819,72.6778133 C3.19964397,71.143095 -1.62478568,68.6863027 0.479192986,65.3074366 C27.3705877,22.1214365 51.7298908,0.353667681 73.5571023,0.0041301199 Z M166.654953,49.5339662 C166.583791,49.5339662 166.513043,49.5408642 166.442847,49.5543205 C166.423862,49.5579552 166.404909,49.5620678 166.385881,49.5666252 C166.36515,49.5716422 166.34446,49.577224 166.323929,49.5834053 C166.300615,49.5903435 166.277353,49.597991 166.25402,49.6062672 L166.25402,49.6062672 L166.196039,49.6285756 L166.125476,49.6599162 L166.097769,49.6731851 L166.097769,49.6731851 L166.078169,49.6832865 C166.04868,49.698468 166.019289,49.7147459 165.990033,49.7317865 C165.795792,49.8466651 165.605982,50.0084829 165.422127,50.2091678 C165.399972,50.2332664 165.377895,50.2579236 165.355174,50.2831585 C163.669305,52.2144466 162.450582,57.3451886 162.450582,59.2676581 C162.450582,61.550949 164.169712,63.4210629 166.348968,63.58207 L166.348968,63.58207 L166.374582,63.5829662 L166.374662,67.3882998 C166.374784,67.7775457 166.625791,68.0929663 166.935522,68.0928128 C167.24497,68.0928128 167.495827,67.7773288 167.495827,67.3881602 L167.495827,67.3881602 L167.496246,63.5070757 C169.415124,63.1060887 170.859324,61.3604235 170.859324,59.2676581 C170.859324,56.878436 168.976979,49.5339662 166.654953,49.5339662 Z M66.654953,44.5339662 C66.5837914,44.5339662 66.5130428,44.5408642 66.4428472,44.5543205 C66.4238616,44.5579552 66.4049092,44.5620678 66.3858807,44.5666252 C66.3651499,44.5716422 66.34446,44.577224 66.3239294,44.5834053 L66.2889817,44.5943345 L66.2889817,44.5943345 L66.2540198,44.6062672 L66.1960391,44.6285756 L66.1254762,44.6599162 L66.0977689,44.6731851 L66.0781691,44.6832865 C66.0486801,44.698468 66.0192886,44.7147459 65.9900334,44.7317865 C65.7957917,44.8466651 65.6059816,45.0084829 65.4221266,45.2091678 C65.3999719,45.2332664 65.3778951,45.2579236 65.355174,45.2831585 C63.6693054,47.2144466 62.4505821,52.3451886 62.4505821,54.2676581 C62.4505821,56.4795962 64.0639452,58.3037772 66.1460489,58.562008 L66.3489677,58.58207 L66.3745821,58.5829662 L66.3746616,62.3882998 C66.3747836,62.7775457 66.6257907,63.0929663 66.9355217,63.0928128 C67.2168382,63.0928128 67.4497325,62.8320822 67.489752,62.4922885 L67.4958272,62.3881602 L67.4962459,58.5070757 C69.4151241,58.1060887 70.8593239,56.3604235 70.8593239,54.2676581 C70.8593239,51.878436 68.9769787,44.5339662 66.654953,44.5339662 Z M52.6403829,38.3476841 L52.4901938,38.3556704 L52.3411803,38.3792733 L52.3091374,38.3863897 L52.3091374,38.3863897 L52.2768079,38.3943491 L52.1986372,38.4163671 L52.1539557,38.4309198 L52.1539557,38.4309198 L52.1093362,38.4469469 L52.0493831,38.4703128 L52.0112517,38.486562 L52.0112517,38.486562 L51.9732024,38.5037744 L51.914882,38.532363 L51.8933071,38.5431562 C51.8231266,38.5796746 51.753385,38.6210342 51.6843333,38.6672955 C51.6603539,38.6832217 51.6364304,38.6997001 51.6119937,38.7166262 C51.5979276,38.7266518 51.5838814,38.7368657 51.5704249,38.7473788 L51.5202645,38.7853766 L51.5202645,38.7853766 L51.4698642,38.8248151 L51.4449036,38.8453174 L51.4203963,38.866359 C51.393694,38.8889001 51.367069,38.9121044 51.3400966,38.9356141 C51.2628775,39.0049585 51.1863276,39.0797947 51.1104963,39.1606765 C51.0981335,39.1737234 51.0857896,39.1869069 51.0735143,39.1992315 C51.0385385,39.2369996 51.0037161,39.2758559 50.9693008,39.316494 C50.958916,39.3284556 50.9485452,39.3405116 50.9378851,39.3519809 C50.9106211,39.3839527 50.883456,39.4165734 50.856768,39.4504515 C50.8358174,39.4761995 50.814927,39.5023258 50.7936183,39.528309 C48.7626644,42.1114502 47.3148468,48.2199646 47.3148468,50.5548789 C47.3148468,53.1906937 49.1598699,55.3874675 51.6060087,55.8779759 L51.8300063,55.9178318 L51.7658468,55.9056841 L51.8709391,55.9240321 L51.9741933,55.9381235 L51.9746912,60.5560852 C51.9748362,61.02547 52.2729071,61.4058302 52.6407126,61.4056449 C52.9775598,61.4056449 53.2559433,61.0859725 53.3000014,60.6712198 L53.3060753,60.5559168 L53.3069405,55.9381369 C53.4851507,55.9154622 53.6606251,55.8838173 53.8329146,55.8436596 L54.088904,55.7770958 L54.2848941,55.716637 C56.4212993,55.0107393 57.9659198,52.9665878 57.9659198,50.5548789 C57.9659198,47.5585132 55.5816159,38.3476841 52.6403829,38.3476841 Z" id="background"></path>
                </g>
                <g id="手机" transform="translate(105.071429, 121.785714) rotate(-90.000000) translate(-105.071429, -121.785714) translate(69.071429, 63.785714)">
                    <path d="M6.85714286,0 L52,0 C55.7870954,1.92500276e-16 58.8571429,3.07004743 58.8571429,6.85714286 L58.8571429,98.8571429 C58.8571429,102.644238 55.7870954,105.714286 52,105.714286 L6.85714286,105.714286 C3.07004743,105.714286 2.24014227e-15,102.644238 0,98.8571429 L0,6.85714286 C4.2439299e-16,3.07004743 3.07004743,2.47203498e-15 6.85714286,0 Z" id="Rectangle" fill="#7EACFF"></path>
                    <mask id="mask-3" fill="white">
                        <use xlink:href="#path-2"></use>
                    </mask>
                    <use id="Rectangle" fill="#377EFF" xlink:href="#path-2"></use>
                    <path d="M11.8375483,91.8007025 C12.183929,91.8007025 12.464726,92.0924468 12.464726,92.4523316 C12.464726,92.8122164 12.183929,93.1039606 11.8375483,93.1039606 C11.4911676,93.1039606 11.2103706,92.8122164 11.2103706,92.4523316 C11.2103706,92.0924468 11.4911676,91.8007025 11.8375483,91.8007025 Z M8.98040543,91.8007025 C9.32678611,91.8007025 9.60758313,92.0924468 9.60758313,92.4523316 C9.60758313,92.8122164 9.32678611,93.1039606 8.98040543,93.1039606 C8.63402475,93.1039606 8.35322773,92.8122164 8.35322773,92.4523316 C8.35322773,92.0924468 8.63402475,91.8007025 8.98040543,91.8007025 Z M11.1406842,89.4949381 C11.4870649,89.4949381 11.7678619,89.7866823 11.7678619,90.1465671 C11.7678619,90.5064519 11.4870649,90.7981962 11.1406842,90.7981962 C10.7943035,90.7981962 10.5135065,90.5064519 10.5135065,90.1465671 C10.5135065,89.7866823 10.7943035,89.4949381 11.1406842,89.4949381 Z M8.15810578,89.4548378 C8.50448646,89.4548378 8.78528348,89.7465821 8.78528348,90.1064669 C8.78528348,90.4663517 8.50448646,90.758096 8.15810578,90.758096 C7.8117251,90.758096 7.53092808,90.4663517 7.53092808,90.1064669 C7.53092808,89.7465821 7.8117251,89.4548378 8.15810578,89.4548378 Z M13.4263985,88.9235095 C13.7727791,88.9235095 14.0535762,89.2152538 14.0535762,89.5751386 C14.0535762,89.9350234 13.7727791,90.2267676 13.4263985,90.2267676 C13.0800178,90.2267676 12.7992208,89.9350234 12.7992208,89.5751386 C12.7992208,89.2152538 13.0800178,88.9235095 13.4263985,88.9235095 Z M16.2835413,87.7806524 C16.629922,87.7806524 16.910719,88.0723966 16.910719,88.4322814 C16.910719,88.7921662 16.629922,89.0839105 16.2835413,89.0839105 C15.9371606,89.0839105 15.6563636,88.7921662 15.6563636,88.4322814 C15.6563636,88.0723966 15.9371606,87.7806524 16.2835413,87.7806524 Z M9.9149499,86.8637348 C10.1227783,86.8637348 10.2912565,87.0387814 10.2912565,87.2547123 C10.2912565,87.4706432 10.1227783,87.6456897 9.9149499,87.6456897 C9.7071215,87.6456897 9.53864328,87.4706432 9.53864328,87.2547123 C9.53864328,87.0387814 9.7071215,86.8637348 9.9149499,86.8637348 Z M13.4263985,86.0663666 L13.5190782,86.073432 C13.8215125,86.1199742 14.0535762,86.3908277 14.0535762,86.7179957 C14.0535762,87.0778805 13.7727791,87.3696248 13.4263985,87.3696248 C13.0800178,87.3696248 12.7992208,87.0778805 12.7992208,86.7179957 C12.7992208,86.3581109 13.0800178,86.0663666 13.4263985,86.0663666 L13.4263985,86.0663666 Z M19.1406842,86.0663666 C19.4870649,86.0663666 19.7678619,86.3581109 19.7678619,86.7179957 C19.7678619,87.0778805 19.4870649,87.3696248 19.1406842,87.3696248 C18.7943035,87.3696248 18.5135065,87.0778805 18.5135065,86.7179957 C18.5135065,86.3581109 18.7943035,86.0663666 19.1406842,86.0663666 Z M7.71211275,86.0663666 C8.05849343,86.0663666 8.33929045,86.3581109 8.33929045,86.7179957 C8.33929045,87.0778805 8.05849343,87.3696248 7.71211275,87.3696248 C7.36573207,87.3696248 7.08493505,87.0778805 7.08493505,86.7179957 C7.08493505,86.3581109 7.36573207,86.0663666 7.71211275,86.0663666 Z M4.4507887,86.3069681 C4.65861711,86.3069681 4.82709533,86.4820147 4.82709533,86.6979456 C4.82709533,86.9138765 4.65861711,87.088923 4.4507887,87.088923 C4.2429603,87.088923 4.07448208,86.9138765 4.07448208,86.6979456 C4.07448208,86.4820147 4.2429603,86.3069681 4.4507887,86.3069681 Z M16.2835413,85.4949381 C16.629922,85.4949381 16.910719,85.7866823 16.910719,86.1465671 C16.910719,86.5064519 16.629922,86.7981962 16.2835413,86.7981962 C15.9371606,86.7981962 15.6563636,86.5064519 15.6563636,86.1465671 C15.6563636,85.7866823 15.9371606,85.4949381 16.2835413,85.4949381 Z M11.4327889,85.8939442 C11.6406173,85.8939442 11.8090955,86.0689908 11.8090955,86.2849217 C11.8090955,86.5008525 11.6406173,86.6758991 11.4327889,86.6758991 C11.2249605,86.6758991 11.0564823,86.5008525 11.0564823,86.2849217 C11.0564823,86.0689908 11.2249605,85.8939442 11.4327889,85.8939442 Z M21.7464702,83.8379475 C22.0928508,83.8379475 22.3736479,84.1296918 22.3736479,84.4895766 C22.3736479,84.8494614 22.0928508,85.1412057 21.7464702,85.1412057 C21.4000895,85.1412057 21.1192925,84.8494614 21.1192925,84.4895766 C21.1192925,84.1296918 21.4000895,83.8379475 21.7464702,83.8379475 Z M19.3915553,83.7104769 C19.7379359,83.7104769 20.018733,84.0022212 20.018733,84.362106 C20.018733,84.7219908 19.7379359,85.0137351 19.3915553,85.0137351 C19.0451746,85.0137351 18.7643776,84.7219908 18.7643776,84.362106 C18.7643776,84.0022212 19.0451746,83.7104769 19.3915553,83.7104769 Z M5.59364585,84.0212539 C5.80147426,84.0212539 5.96995247,84.1963004 5.96995247,84.4122313 C5.96995247,84.6281622 5.80147426,84.8032087 5.59364585,84.8032087 C5.38581744,84.8032087 5.21733923,84.6281622 5.21733923,84.4122313 C5.21733923,84.1963004 5.38581744,84.0212539 5.59364585,84.0212539 Z M17.4263985,83.2092238 C17.7727791,83.2092238 18.0535762,83.5009681 18.0535762,83.8608529 C18.0535762,84.2207377 17.7727791,84.5124819 17.4263985,84.5124819 C17.0800178,84.5124819 16.7992208,84.2207377 16.7992208,83.8608529 C16.7992208,83.5009681 17.0800178,83.2092238 17.4263985,83.2092238 Z M11.1406842,83.2092238 C11.4870649,83.2092238 11.7678619,83.5009681 11.7678619,83.8608529 C11.7678619,84.2207377 11.4870649,84.5124819 11.1406842,84.5124819 C10.7943035,84.5124819 10.5135065,84.2207377 10.5135065,83.8608529 C10.5135065,83.5009681 10.7943035,83.2092238 11.1406842,83.2092238 Z M14.5692556,83.2092238 C14.9156363,83.2092238 15.1964333,83.5009681 15.1964333,83.8608529 C15.1964333,84.2207377 14.9156363,84.5124819 14.5692556,84.5124819 C14.2228749,84.5124819 13.9420779,84.2207377 13.9420779,83.8608529 C13.9420779,83.5009681 14.2228749,83.2092238 14.5692556,83.2092238 Z M8.4507887,83.4498253 C8.65861711,83.4498253 8.82709533,83.6248719 8.82709533,83.8408027 C8.82709533,84.0567336 8.65861711,84.2317802 8.4507887,84.2317802 C8.2429603,84.2317802 8.07448208,84.0567336 8.07448208,83.8408027 C8.07448208,83.6248719 8.2429603,83.4498253 8.4507887,83.4498253 Z M19.7121127,80.9235095 C20.0584934,80.9235095 20.3392904,81.2152538 20.3392904,81.5751386 C20.3392904,81.9350234 20.0584934,82.2267676 19.7121127,82.2267676 C19.3657321,82.2267676 19.084935,81.9350234 19.084935,81.5751386 C19.084935,81.2152538 19.3657321,80.9235095 19.7121127,80.9235095 Z M16.1550599,81.4080399 C16.3628883,81.4080399 16.5313666,81.5830865 16.5313666,81.7990173 C16.5313666,82.0149482 16.3628883,82.1899948 16.1550599,82.1899948 C15.9472315,82.1899948 15.7787533,82.0149482 15.7787533,81.7990173 C15.7787533,81.5830865 15.9472315,81.4080399 16.1550599,81.4080399 Z M13.6772695,80.8533341 C14.0236502,80.8533341 14.3044472,81.1450783 14.3044472,81.5049631 C14.3044472,81.8648479 14.0236502,82.1565922 13.6772695,82.1565922 C13.3308889,82.1565922 13.0500918,81.8648479 13.0500918,81.5049631 C13.0500918,81.1450783 13.3308889,80.8533341 13.6772695,80.8533341 Z M10.1650744,80.5926824 C10.3729028,80.5926824 10.541381,80.767729 10.541381,80.9836599 C10.541381,81.1995908 10.3729028,81.3746373 10.1650744,81.3746373 C9.95724601,81.3746373 9.7887678,81.1995908 9.7887678,80.9836599 C9.7887678,80.767729 9.95724601,80.5926824 10.1650744,80.5926824 Z M7.30793156,80.5926824 C7.51575997,80.5926824 7.68423818,80.767729 7.68423818,80.9836599 C7.68423818,81.1995908 7.51575997,81.3746373 7.30793156,81.3746373 C7.10010315,81.3746373 6.93162494,81.1995908 6.93162494,80.9836599 C6.93162494,80.767729 7.10010315,80.5926824 7.30793156,80.5926824 Z M2.73650299,80.5926824 C2.9443314,80.5926824 3.11280961,80.767729 3.11280961,80.9836599 C3.11280961,81.1995908 2.9443314,81.3746373 2.73650299,81.3746373 C2.52867458,81.3746373 2.36019637,81.1995908 2.36019637,80.9836599 C2.36019637,80.767729 2.52867458,80.5926824 2.73650299,80.5926824 Z M17.6354577,78.758096 C17.9818384,78.758096 18.2626354,79.0498402 18.2626354,79.409725 C18.2626354,79.7696098 17.9818384,80.0613541 17.6354577,80.0613541 C17.289077,80.0613541 17.00828,79.7696098 17.00828,79.409725 C17.00828,79.0498402 17.289077,78.758096 17.6354577,78.758096 Z M9.60832969,78.5128577 C9.8161581,78.5128577 9.98463631,78.6879042 9.98463631,78.9038351 C9.98463631,79.119766 9.8161581,79.2948125 9.60832969,79.2948125 C9.40050129,79.2948125 9.23202307,79.119766 9.23202307,78.9038351 C9.23202307,78.6879042 9.40050129,78.5128577 9.60832969,78.5128577 Z M15.8793601,77.164111 C16.0871885,77.164111 16.2556668,77.3391576 16.2556668,77.5550884 C16.2556668,77.7710193 16.0871885,77.9460659 15.8793601,77.9460659 C15.6715317,77.9460659 15.5030535,77.7710193 15.5030535,77.5550884 C15.5030535,77.3391576 15.6715317,77.164111 15.8793601,77.164111 Z M4.39503958,76.682908 C4.60286798,76.682908 4.7713462,76.8579546 4.7713462,77.0738854 C4.7713462,77.2898163 4.60286798,77.4648629 4.39503958,77.4648629 C4.18721117,77.4648629 4.01873296,77.2898163 4.01873296,77.0738854 C4.01873296,76.8579546 4.18721117,76.682908 4.39503958,76.682908 Z M19.4980202,75.7113137 C19.7058486,75.7113137 19.8743268,75.8863602 19.8743268,76.1022911 C19.8743268,76.318222 19.7058486,76.4932686 19.4980202,76.4932686 C19.2901918,76.4932686 19.1217136,76.318222 19.1217136,76.1022911 C19.1217136,75.8863602 19.2901918,75.7113137 19.4980202,75.7113137 Z M10.1650744,74.3069681 C10.3729028,74.3069681 10.541381,74.4820147 10.541381,74.6979456 C10.541381,74.9138765 10.3729028,75.088923 10.1650744,75.088923 C9.95724601,75.088923 9.7887678,74.9138765 9.7887678,74.6979456 C9.7887678,74.4820147 9.95724601,74.3069681 10.1650744,74.3069681 Z M3.34627137,73.9016075 C3.55409978,73.9016075 3.72257799,74.0766541 3.72257799,74.292585 C3.72257799,74.5085159 3.55409978,74.6835624 3.34627137,74.6835624 C3.13844296,74.6835624 2.96996475,74.5085159 2.96996475,74.292585 C2.96996475,74.0766541 3.13844296,73.9016075 3.34627137,73.9016075 Z" id="Combined-Shape" fill="#003CFF" fill-rule="nonzero" mask="url(#mask-3)" transform="translate(12.366922, 83.502784) rotate(116.000000) translate(-12.366922, -83.502784) "></path>
                    <line x1="36.7740762" y1="5.47446857" x2="21.5229486" y2="5.47446857" id="Path-2" stroke="#FFFFFF" stroke-width="0.75" stroke-linecap="round" stroke-linejoin="round"></line>
                    <path d="M55.3345619,102.508419 L59.2472513,107.503832 M71.1583514,102.508419 L67.245662,107.503832 M76.3901084,108.646689 L70.1028049,109.789546 M63.3345619,99.0798472 L63.3345619,106.340972" id="Combined-Shape" stroke="#4486FE" stroke-width="0.75" stroke-linecap="round" stroke-linejoin="round" transform="translate(65.817885, 104.508419) rotate(-270.000000) translate(-65.817885, -104.508419) "></path>
                </g>
                <g id="球" transform="translate(22.857143, 142.000000)" fill="#FFCD6B" fill-rule="nonzero">
                    <circle id="椭圆形" cx="8.57142857" cy="8.57142857" r="8.57142857"></circle>
                </g>
                <g id="球" transform="translate(132.857143, 124.000000)">
                    <mask id="mask-5" fill="white">
                        <use xlink:href="#path-4"></use>
                    </mask>
                    <use id="椭圆形" fill="#FBBE47" fill-rule="nonzero" xlink:href="#path-4"></use>
                    <circle id="椭圆形" fill="#FFCD6B" fill-rule="nonzero" mask="url(#mask-5)" cx="13.8857143" cy="15.12" r="18.8228571"></circle>
                    <circle id="椭圆形" fill="#FFB400" fill-rule="nonzero" mask="url(#mask-5)" cx="23.4" cy="29.0571429" r="1"></circle>
                    <circle id="椭圆形" fill="#FFB400" fill-rule="nonzero" mask="url(#mask-5)" cx="30.3428571" cy="29.8285714" r="1"></circle>
                    <circle id="椭圆形" fill="#FFB400" fill-rule="nonzero" mask="url(#mask-5)" cx="18.7714286" cy="32.6571429" r="1.28571429"></circle>
                    <circle id="椭圆形" fill="#FFB400" fill-rule="nonzero" mask="url(#mask-5)" cx="29.5714286" cy="25.9714286" r="1.28571429"></circle>
                    <circle id="椭圆形" fill="#FFB400" fill-rule="nonzero" mask="url(#mask-5)" cx="19.2857143" cy="7.97142857" r="1.28571429"></circle>
                    <circle id="椭圆形" fill="#FFB400" fill-rule="nonzero" mask="url(#mask-5)" cx="26.4857143" cy="5.91428571" r="1.28571429"></circle>
                    <circle id="椭圆形" fill="#FFB400" fill-rule="nonzero" mask="url(#mask-5)" cx="11.0571429" cy="6.94285714" r="1"></circle>
                    <circle id="椭圆形" fill="#FFB400" fill-rule="nonzero" mask="url(#mask-5)" cx="30.0857143" cy="15.6857143" r="1.28571429"></circle>
                    <circle id="椭圆形" fill="#FFB400" fill-rule="nonzero" mask="url(#mask-5)" cx="22.8857143" cy="14.6571429" r="1"></circle>
                </g>
                <path d="M87.4285714,135.122655 L94.0202078,125.744722 L94.0202078,125.665778 L88.0304429,125.665778 L88.0304429,123.106406 L98.0676048,123.106406 L98.0676048,124.893457 L91.6271478,134.147398 L91.6271478,134.229106 L98.1873314,134.229106 L98.1873314,136.785714 L87.4285714,136.785714 L87.4285714,135.122655 Z M99.61355,129.234304 L104.562282,122.187398 L104.562282,122.131051 L100.064193,122.131051 L100.064193,120.214286 L107.599952,120.214286 L107.599952,121.55318 L102.751025,128.495781 L102.751025,128.554941 L107.674094,128.554941 L107.674094,130.474519 L99.61355,130.474519 L99.61355,129.234304 Z M109.958812,129.936168 L113.666754,124.66225 L113.666754,124.617153 L110.29542,124.617153 L110.29542,123.179628 L115.942934,123.179628 L115.942934,124.183107 L112.314825,129.389331 L112.314825,129.434428 L116,129.434428 L116,130.872002 L109.958812,130.872002 L109.958812,129.936168 Z" id="Shape" fill="#FFFFFF" fill-rule="nonzero"></path>
            </g>
        </g>
    </g>
</svg>