<?xml version="1.0" encoding="UTF-8"?>
<svg width="400px" height="400px" viewBox="0 0 400 400" version="1.1" xmlns="http://www.w3.org/2000/svg" xmlns:xlink="http://www.w3.org/1999/xlink">
    <title>@反馈/异常/网络服务异常</title>
    <defs>
        <rect id="path-1" x="0" y="0" width="400" height="400"></rect>
        <linearGradient x1="50%" y1="-116.862036%" x2="50%" y2="90.7636478%" id="linearGradient-3">
            <stop stop-color="#72A7FD" stop-opacity="0.206670161" offset="0%"></stop>
            <stop stop-color="#72A7FD" stop-opacity="0.114736704" offset="80.0721014%"></stop>
            <stop stop-color="#72A7FD" stop-opacity="0" offset="100%"></stop>
        </linearGradient>
        <circle id="path-4" cx="22.3085714" cy="22.3085714" r="22.3085714"></circle>
    </defs>
    <g id="页面-1" stroke="none" stroke-width="1" fill="none" fill-rule="evenodd">
        <g id="网络服务异常" transform="translate(-175.000000, -320.000000)">
            <g id="网络服务异常" transform="translate(175.000000, 320.000000)">
                <mask id="mask-2" fill="white">
                    <use xlink:href="#path-1"></use>
                </mask>
                <use id="矩形" fill="#FFFFFF" opacity="0" xlink:href="#path-1"></use>
                <g id="背景" mask="url(#mask-2)" fill="url(#linearGradient-3)">
                    <g transform="translate(4.571429, 45.571429)" id="background">
                        <path d="M147.114205,0.00826023979 C185.983178,-0.614181444 224.505961,34.0394879 250.16058,70.5811495 C267.576287,48.9374043 284.413175,38.1167605 300.670023,38.1167605 C327.336621,38.1167605 357.371644,66.6644095 390.775092,123.759708 C394.314077,129.808765 383.611974,138.62951 358.668783,150.221942 L358.668783,150.221942 L276.0257,152.962641 C261.339826,164.707169 213.575995,154.214411 137.720976,155.429141 C82.1409131,156.319192 46.2022425,152.961354 29.9049638,145.355627 C6.39928794,142.28619 -3.24957136,137.372605 0.958385971,130.614873 C54.7411753,44.242873 103.459782,0.707335362 147.114205,0.00826023979 Z M333.309905,99.0679324 L333.18296,99.0715847 L333.056847,99.0824249 C332.964106,99.0930308 332.871743,99.1093972 332.779976,99.1313803 C332.749504,99.1386545 332.719076,99.1465401 332.688579,99.154922 C332.656183,99.1639618 332.623837,99.1736875 332.591477,99.1842956 L332.591477,99.1842956 L332.559961,99.1946578 L332.528399,99.2053148 C332.492653,99.2178298 332.456971,99.2311709 332.421858,99.2454001 C332.397117,99.2552419 332.372408,99.2654769 332.3472,99.2760117 C332.308503,99.2926577 332.269885,99.3102597 332.231576,99.329084 L332.231576,99.329084 L332.098131,99.3968011 L332.098131,99.3968011 L332.05634,99.42025 C332.044311,99.4269708 332.032291,99.4337822 332.020981,99.439742 C331.976464,99.4652728 331.932062,99.4920399 331.887284,99.5209698 L331.887284,99.5209698 L331.839482,99.551042 C331.797264,99.5786064 331.755156,99.6072683 331.713471,99.6375622 C331.697813,99.6486598 331.682171,99.6599071 331.666207,99.6707323 C331.623515,99.7018365 331.58094,99.7340487 331.538941,99.7679088 C331.528614,99.7760143 331.518295,99.7841841 331.507553,99.7918127 C331.403447,99.8748636 331.300062,99.9644252 331.197949,100.060894 L331.197949,100.060894 L331.161433,100.094032 C331.006164,100.241318 330.852651,100.402698 330.701723,100.577811 C330.686977,100.59477 330.67225,100.611851 330.656762,100.628332 C327.312816,104.537595 324.901164,114.710776 324.901164,118.535316 C324.901164,123.082546 328.310344,126.81041 332.642273,127.160524 C332.677919,127.163405 332.713628,127.166058 332.749401,127.168461 L332.749401,127.168461 L332.749323,134.7766 C332.749567,135.555091 333.251581,136.185933 333.871043,136.185626 C334.48994,136.185626 334.991654,135.554658 334.991654,134.77632 L334.991654,134.77632 L334.991628,127.014332 C338.829815,126.212701 341.718648,122.721161 341.718648,118.535316 C341.718648,113.756872 337.953957,99.0679325 333.309905,99.0679324 L333.309905,99.0679324 Z M133.309905,89.0679324 L133.18296,89.0715847 L133.056847,89.0824249 C132.964106,89.0930308 132.871743,89.1093972 132.779976,89.1313803 C132.749504,89.1386545 132.719076,89.1465401 132.688579,89.154922 L132.640015,89.1690207 L132.640015,89.1690207 L132.591477,89.1842956 L132.559961,89.1946578 L132.528399,89.2053148 C132.492653,89.2178298 132.456971,89.2311709 132.421858,89.2454001 C132.397117,89.2552419 132.372408,89.2654769 132.3472,89.2760117 L132.289243,89.301731 L132.289243,89.301731 L132.231576,89.329084 L132.098131,89.3968011 L132.05634,89.42025 C132.044311,89.4269708 132.032291,89.4337822 132.020981,89.439742 L131.95423,89.4790812 L131.95423,89.4790812 L131.887284,89.5209698 L131.839482,89.551042 C131.797264,89.5786064 131.755156,89.6072683 131.713471,89.6375622 C131.697813,89.6486598 131.682171,89.6599071 131.666207,89.6707323 C131.623515,89.7018365 131.58094,89.7340487 131.538941,89.7679088 C131.528614,89.7760143 131.518295,89.7841841 131.507553,89.7918127 L131.352003,89.9213216 L131.352003,89.9213216 L131.197949,90.0608938 L131.161433,90.0940322 C131.006164,90.2413175 130.852651,90.4026983 130.701723,90.5778115 C130.686977,90.59477 130.67225,90.6118506 130.656762,90.6283325 C127.312816,94.5375945 124.901164,104.710776 124.901164,108.535316 C124.901164,113.082546 128.310344,116.81041 132.642273,117.160524 L132.695789,117.164672 L132.695789,117.164672 L132.749401,117.168461 L132.749323,124.7766 C132.749567,125.555091 133.251581,126.185933 133.871043,126.185626 C134.451259,126.185626 134.928482,125.631064 134.985869,124.920414 L134.991654,124.77632 L134.991628,117.014332 C138.829815,116.212701 141.718648,112.721161 141.718648,108.535316 C141.718648,103.756872 137.953957,89.0679325 133.309905,89.0679324 Z M105.280766,76.6953681 L105.173972,76.6973928 L105.067234,76.7034423 C104.882328,76.7174108 104.698577,76.7493797 104.516072,76.7985493 C104.4084,76.8275055 104.301171,76.8623981 104.193997,76.9028599 C103.990854,76.9800808 103.789398,77.0780422 103.583143,77.2000067 C103.507882,77.2444718 103.432884,77.2916907 103.357645,77.341036 C98.393152,80.6530376 94.6296936,95.7859475 94.6296936,101.109758 C94.6296936,106.544148 98.5511158,111.045397 103.668944,111.836648 L103.949268,111.876111 L103.949382,121.11217 C103.949656,121.998786 104.481415,122.726586 105.159749,122.804404 L105.280898,122.81129 L105.402548,122.804345 C106.040831,122.730797 106.549122,122.081663 106.606712,121.266519 L106.612151,121.111834 L106.612525,111.876489 C111.866431,111.208875 115.93184,106.643018 115.93184,101.109758 C115.93184,95.1170264 111.163232,76.6953683 105.280766,76.6953681 Z"></path>
                    </g>
                </g>
                <g id="网络" mask="url(#mask-2)">
                    <g transform="translate(85.857624, 150.643913)">
                        <path d="M116.25977,28.467422 C117.611548,28.467422 118.963035,28.4851648 120.314222,28.5206365 C124.237043,28.9056453 130.502249,32.7686762 129.581295,39.5824023 C128.703361,46.0778505 123.744974,48.670739 120.619314,49.1110367 C119.165857,49.0625546 117.712594,49.0388505 116.25977,49.0388505 C87.6919668,49.0388505 55.6045281,59.1876633 20.0396022,79.7153561 L17.8122668,81.0118531 C17.0683126,81.4485249 16.3228494,81.8897035 15.5758777,82.335391 C10.6975908,85.2460652 4.38339037,83.651 1.47271618,78.7727132 C-1.437958,73.8944264 0.157107201,67.5802259 5.03539402,64.6695517 C45.3399387,40.6214787 82.3988509,28.467422 116.25977,28.467422 Z M138.260455,40.0961446 C139.290354,34.1548352 144.636116,31.4789322 149.343617,32.016301 C172.139531,36.9111264 194.830195,46.8599211 217.369724,61.7948311 C222.105153,64.9325722 223.400335,71.3150375 220.262594,76.0504665 C217.124853,80.7858955 210.742388,82.0810774 206.006959,78.9433364 C185.895874,65.6175369 165.93216,56.77783 146.071807,52.3591844 C145.978926,52.3321315 145.870481,52.3026982 145.746852,52.2712283 C141.759819,51.2563215 137.144726,46.5325982 138.260455,40.0961446 Z" id="Combined-Shape" stroke="none" fill="#377EFF" fill-rule="nonzero"></path>
                        <path d="M116.25977,77.4182528 C139.036558,77.4182528 161.659321,84.4748946 183.989704,98.4057754 C188.809362,101.412535 190.279007,107.7571 187.272248,112.576758 C184.265488,117.396416 177.920923,118.866061 173.101265,115.859302 C153.907838,103.885421 135.006792,97.9896814 116.25977,97.9896814 C97.5127483,97.9896814 78.6117022,103.885421 59.418275,115.859302 C54.5986168,118.866061 48.2540519,117.396416 45.2472926,112.576758 C42.2405334,107.7571 43.7101784,101.412535 48.5298366,98.4057754 C70.860219,84.4748946 93.4829823,77.4182528 116.25977,77.4182528 Z" id="Path-9" stroke="none" fill="#377EFF" fill-rule="nonzero"></path>
                        <path d="M117.974056,124.670373 C127.824896,124.670373 135.277275,126.360127 143.660993,129.751942 L144.480683,130.088938 L147.380149,131.320045 L150.389315,132.571587 L151.158385,132.877096 L151.265645,132.917521 C156.591652,134.893211 159.307621,140.812406 157.331931,146.138414 C155.356241,151.464421 149.437045,154.18039 144.111038,152.204699 L143.398414,151.935185 L142.67186,151.650064 L141.908668,151.340753 L140.645513,150.81265 L137.702331,149.552929 L136.577262,149.080355 C130.184226,146.432198 125.144475,145.241801 117.974056,145.241801 C109.751071,145.241801 101.441808,147.36846 92.9464683,151.717025 C87.8897961,154.305417 81.6922471,152.30448 79.1038552,147.247808 C76.5154632,142.191136 78.5163997,135.993587 83.5730719,133.405195 C94.8872557,127.61373 106.387517,124.670373 117.974056,124.670373 Z" id="Path-9" stroke="none" fill="#377EFF" fill-rule="nonzero"></path>
                        <path d="M118.235467,171.901456 C125.384244,171.901456 132.004124,172.797774 138.076469,174.622151 C143.516879,176.256669 146.602164,181.992031 144.967646,187.432441 C143.333128,192.87285 137.597766,195.958135 132.157356,194.323617 C128.085857,193.100375 123.451439,192.472884 118.235467,192.472884 C113.875307,192.472884 109.444537,193.518239 104.862006,195.682247 L104.236167,195.98428 C99.1409638,198.495975 92.9743546,196.401627 90.4626599,191.306424 C87.9509652,186.211221 90.0453127,180.044611 95.140516,177.532917 C102.699839,173.806527 110.429065,171.901456 118.235467,171.901456 Z" id="Path-9" stroke="none" fill="#377EFF" fill-rule="nonzero" transform="translate(117.402833, 184.474033) scale(1, -1) translate(-117.402833, -184.474033) "></path>
                        <path d="M198.349621,62.4134185 C201.105413,57.445993 207.366318,55.6531099 212.333744,58.408902 C225.401819,65.6587133 231.458481,76.9442453 229.948648,89.3614181 C228.791753,98.875966 223.118263,108.118206 215.853379,113.712597 C202.489432,124.00363 180.938327,123.114318 166.490464,111.802794 C162.017605,108.300903 161.23048,101.836091 164.732372,97.363232 C168.16819,92.974767 174.456175,92.1342639 178.916659,95.4114966 L179.171934,95.6051402 C186.454779,101.307027 197.646679,101.768863 203.302275,97.4137184 C206.374218,95.0481399 209.067775,90.6602756 209.527625,86.8783792 C209.995094,83.0338174 208.318729,79.8076909 202.732373,76.6106411 L202.354138,76.3975411 C197.386712,73.641749 195.593829,67.3808441 198.349621,62.4134185 Z" id="Path-14" stroke="none" fill="#377EFF" fill-rule="nonzero"></path>
                        <path d="M65.2774881,103.092345 C68.1165281,98.1720244 74.406733,96.4848129 79.327054,99.323853 C99.9888293,111.24576 101.098962,135.075114 85.3451686,151.01448 C71.5935124,164.928124 52.1536023,164.461168 34.8376716,152.172082 C30.2051121,148.884363 29.1149038,142.463708 32.4026231,137.831149 C35.6903425,133.198589 42.1109972,132.108381 46.7435567,135.3961 C56.5059396,142.324446 64.8132697,142.523993 70.7140504,136.553703 C77.4745739,129.713544 77.2108277,122.052709 69.3639031,117.329273 L69.0459804,117.141911 C64.1256595,114.302871 62.438448,108.012666 65.2774881,103.092345 Z" id="Path-14" stroke="none" fill="#377EFF" fill-rule="nonzero" transform="translate(63.313577, 129.683230) scale(-1, 1) translate(-63.313577, -129.683230) "></path>
                        <path d="M129.10313,135.701823 C130.79134,130.277835 136.556916,127.249388 141.980905,128.937598 C156.757134,133.536683 165.417976,142.664548 167.239877,154.517121 C168.555985,163.079199 166.011953,172.051043 161.659113,178.56974 C158.528388,183.258229 154.271817,186.857256 149.156369,189.682351 C146.126828,191.355468 143.405571,192.493309 139.786828,193.748152 L138.385375,194.225477 C132.999166,196.030599 127.169441,193.127554 125.36432,187.741346 C123.559198,182.355137 126.462243,176.525412 131.848451,174.720291 L132.938551,174.347026 C138.969964,172.235022 142.540082,170.157745 144.551185,167.145972 C146.243987,164.610876 147.368693,160.64446 146.907254,157.642521 C146.342773,153.970229 143.474534,150.947324 135.867355,148.579599 C130.443366,146.891388 127.414919,141.125812 129.10313,135.701823 Z" id="Path-14" stroke="none" fill="#377EFF" fill-rule="nonzero"></path>
                        <path d="M149.378335,181.226936 C152.386995,172.953262 152.235685,166.02006 148.924406,160.42733 C145.613127,154.8346 141.919135,151.909885 137.842431,151.653185" id="路径" stroke="#FFFFFF" stroke-width="0.571428571" fill="none" stroke-linecap="round" transform="translate(144.684606, 166.440061) rotate(5.000000) translate(-144.684606, -166.440061) "></path>
                        <ellipse id="Oval" stroke="none" fill="#7EACFF" fill-rule="evenodd" transform="translate(146.999518, 41.932968) rotate(10.000000) translate(-146.999518, -41.932968) " cx="146.999518" cy="41.9329683" rx="9.14285714" ry="10.2857143"></ellipse>
                        <path d="M211.829102,107.057644 C214.837761,98.7839693 214.686452,91.8507673 211.375172,86.2580374 C208.063893,80.6653076 203.870383,76.9947756 198.794643,75.2464416" id="路径" stroke="#003CFF" stroke-width="0.75" fill="none" stroke-linecap="round" stroke-linejoin="round" transform="translate(206.386095, 91.152043) rotate(5.000000) translate(-206.386095, -91.152043) "></path>
                        <path d="M59.3773546,131.42931 C61.9231432,124.381366 61.7951118,118.475305 58.9932602,113.711127 C56.1914087,108.94695 52.7349359,106.091106 48.6238419,105.143596" id="路径" stroke="#003CFF" stroke-width="0.75" fill="none" stroke-linecap="round" stroke-linejoin="round" transform="translate(54.909556, 118.286453) scale(-1, 1) rotate(5.000000) translate(-54.909556, -118.286453) "></path>
                        <path d="M21.5297661,64.4081523 C26.4764067,61.0192946 31.3472765,58.3819272 36.1423756,56.4960502" id="Path-13" stroke="#FFFFFF" stroke-width="0.75" fill="none" stroke-linecap="round" stroke-linejoin="round"></path>
                        <path d="M113.621138,11.3694959 L121.446516,21.360323 M145.268717,11.3694959 L137.443338,21.360323 M155.732231,23.6460373 L143.157624,25.9317515 M129.621138,4.51235304 L129.621138,19.0346034" id="Combined-Shape" stroke="#4486FE" stroke-width="0.75" fill="none" stroke-linecap="round" stroke-linejoin="round" transform="translate(134.587784, 15.369496) rotate(-11.000000) translate(-134.587784, -15.369496) "></path>
                    </g>
                </g>
                <g id="球" mask="url(#mask-2)">
                    <g transform="translate(275.142857, 302.571429)">
                        <mask id="mask-5" fill="white">
                            <use xlink:href="#path-4"></use>
                        </mask>
                        <use id="椭圆形" stroke="none" fill="#FBBE47" fill-rule="nonzero" xlink:href="#path-4"></use>
                        <circle id="椭圆形" stroke="none" fill="#FFCD6B" fill-rule="nonzero" mask="url(#mask-5)" cx="16.4571429" cy="17.92" r="22.3085714"></circle>
                        <circle id="椭圆形" stroke="none" fill="#FFFFFF" fill-rule="nonzero" mask="url(#mask-5)" cx="14.2628571" cy="12.0685714" r="2.19428571"></circle>
                    </g>
                </g>
                <g id="球" mask="url(#mask-2)" fill="#FBBE47" fill-rule="nonzero">
                    <g transform="translate(84.000000, 297.714286)" id="椭圆形">
                        <circle cx="12" cy="12" r="12"></circle>
                    </g>
                </g>
            </g>
        </g>
    </g>
</svg>