<?xml version="1.0" encoding="UTF-8"?>
<svg width="400px" height="400px" viewBox="0 0 400 400" version="1.1" xmlns="http://www.w3.org/2000/svg" xmlns:xlink="http://www.w3.org/1999/xlink">
    <title>@反馈/异常/通用空页面</title>
    <defs>
        <linearGradient x1="50%" y1="-116.862036%" x2="50%" y2="90.7636478%" id="linearGradient-1">
            <stop stop-color="#72A7FD" stop-opacity="0.206670161" offset="0%"></stop>
            <stop stop-color="#72A7FD" stop-opacity="0.114736704" offset="80.0721014%"></stop>
            <stop stop-color="#72A7FD" stop-opacity="0" offset="100%"></stop>
        </linearGradient>
        <path d="M146.182956,18.4614416 C177.888227,41.7972853 179.531682,90.3101927 151.113534,115.074867 C150.860801,115.295109 157.285376,120.677122 164.68972,126.488845 L165.375815,127.026394 C165.60533,127.205892 165.835607,127.38566 166.066479,127.565558 L166.760718,128.105508 C166.876667,128.195519 166.992723,128.285529 167.108866,128.375519 L167.806598,128.915099 C170.833171,131.251098 173.890285,133.551018 176.613298,135.512006 C177.726863,136.313945 181.255764,134.659088 187.2,130.547436 L186.668166,142.765491 C186.652494,143.125529 186.475843,143.459461 186.18703,143.675006 C182.564203,146.378766 178.941377,149.082527 175.318551,151.786287 C173.914466,152.834174 171.998773,152.971429 170.464906,151.857658 C146.746479,134.635252 134.887265,126.02405 134.887265,126.02405 C101.472731,143.356518 54.9736343,141.023864 25.0825328,119.023292 C-8.36084427,94.4080367 -8.36084427,43.0732504 25.0825328,18.4614416 C58.5259099,-6.15381388 112.739579,-6.15381388 146.182956,18.4614416 Z M85.7142857,26.1142857 C51.6304269,26.1142857 24,44.5345703 24,67.2571429 C24,89.9797154 51.6304269,108.4 85.7142857,108.4 C119.798145,108.4 147.428571,89.9797154 147.428571,67.2571429 C147.428571,44.5345703 119.798145,26.1142857 85.7142857,26.1142857 Z" id="path-2"></path>
    </defs>
    <g id="页面-1" stroke="none" stroke-width="1" fill="none" fill-rule="evenodd">
        <g id="通用空页面" transform="translate(-175.000000, -320.000000)">
            <g id="通用空页面" transform="translate(175.000000, 320.000000)">
                <rect id="矩形" fill="#FFFFFF" opacity="0" x="0" y="0" width="400" height="400"></rect>
                <g id="背景" transform="translate(18.285714, 50.285714)" fill="url(#linearGradient-1)">
                    <path d="M157.964124,244.661472 L0,244.661472 L3.8063928,100.128501 C3.86970779,97.72436 5.78086045,95.7939802 8.15881195,95.6825082 L8.37623688,95.6774225 L53.964,95.6770756 L53.9641237,68.1995042 C53.9641237,65.7469091 55.8955385,63.74542 58.320354,63.6330514 L58.5355522,63.6280756 L124.034,63.6272857 L126.587999,4.93946401 C126.591305,4.8634782 126.596506,4.78758671 126.603599,4.71186043 C126.832301,2.26995172 128.941937,0.457286214 131.366666,0.571518951 L131.58139,0.586631928 L219.371279,8.80878345 C221.571189,9.01482084 223.297916,10.7612049 223.497278,12.9416393 L223.511767,13.153967 L226.658388,82.8062857 L301.633552,64.8999052 C301.981426,64.8168204 302.337848,64.7748474 302.695506,64.7748474 C305.148101,64.7748474 307.14959,66.7062622 307.261959,69.1310778 L307.266935,69.3462759 L307.266388,113.301286 L363.428571,113.302157 L363.428571,243.565861 L307.266388,243.565286 L307.266935,243.567097 L224.88336,243.567097 L224.882388,243.563286 L157.964,243.563286 L157.964124,244.661472 Z M89.5029468,160.029804 L79.5353988,160.029804 L79.5353988,168.465537 L89.5029468,168.465537 L89.5029468,160.029804 Z M89.5029468,145.522649 L79.5353988,145.522649 L79.5353988,153.958383 L89.5029468,153.958383 L89.5029468,145.522649 Z M287.488314,140.37373 L277.520766,140.37373 L277.520766,148.805344 L287.488314,148.805344 L287.488314,140.37373 Z M89.5029468,131.567442 L79.5353988,131.567442 L79.5353988,140.003175 L89.5029468,140.003175 L89.5029468,131.567442 Z M287.488314,126.414403 L277.520766,126.414403 L277.520766,134.846018 L287.488314,134.846018 L287.488314,126.414403 Z M287.488314,111.911368 L277.520766,111.911368 L277.520766,120.342982 L287.488314,120.342982 L287.488314,111.911368 Z M202.8449,111.134084 L172.044724,111.134084 L172.044724,119.569818 L202.8449,119.569818 L202.8449,111.134084 Z M287.488314,97.9479226 L277.520766,97.9479226 L277.520766,106.383656 L287.488314,106.383656 L287.488314,97.9479226 Z M202.8449,94.6580429 L172.044724,94.6580429 L172.044724,103.093776 L202.8449,103.093776 L202.8449,94.6580429 Z M202.8449,78.7463057 L172.044724,78.7463057 L172.044724,87.182039 L202.8449,87.182039 L202.8449,78.7463057 Z" id="background"></path>
                </g>
                <g id="搜索" transform="translate(108.571429, 188.571429)">
                    <g id="Group-4" transform="translate(0.000000, 1.314286)">
                        <mask id="mask-3" fill="white">
                            <use xlink:href="#path-2"></use>
                        </mask>
                        <use id="形状" fill="#377EFF" xlink:href="#path-2"></use>
                        <path d="M131.428571,134.685714 C132.059754,134.685714 132.571429,135.197389 132.571429,135.828571 C132.571429,136.459754 132.059754,136.971429 131.428571,136.971429 C130.797389,136.971429 130.285714,136.459754 130.285714,135.828571 C130.285714,135.197389 130.797389,134.685714 131.428571,134.685714 Z M137.142857,134.685714 C137.77404,134.685714 138.285714,135.197389 138.285714,135.828571 C138.285714,136.459754 137.77404,136.971429 137.142857,136.971429 C136.511675,136.971429 136,136.459754 136,135.828571 C136,135.197389 136.511675,134.685714 137.142857,134.685714 Z M128,133.542857 C128.631183,133.542857 129.142857,134.054532 129.142857,134.685714 C129.142857,135.316897 128.631183,135.828571 128,135.828571 C127.368817,135.828571 126.857143,135.316897 126.857143,134.685714 C126.857143,134.054532 127.368817,133.542857 128,133.542857 Z M122.285714,133.542857 C122.916897,133.542857 123.428571,134.054532 123.428571,134.685714 C123.428571,135.316897 122.916897,135.828571 122.285714,135.828571 C121.654532,135.828571 121.142857,135.316897 121.142857,134.685714 C121.142857,134.054532 121.654532,133.542857 122.285714,133.542857 Z M143.428571,132.4 C143.744163,132.4 144,132.655837 144,132.971429 C144,133.28702 143.744163,133.542857 143.428571,133.542857 C143.11298,133.542857 142.857143,133.28702 142.857143,132.971429 C142.857143,132.655837 143.11298,132.4 143.428571,132.4 Z M134.285714,131.257143 C134.601306,131.257143 134.857143,131.51298 134.857143,131.828571 C134.857143,132.144163 134.601306,132.4 134.285714,132.4 C133.970123,132.4 133.714286,132.144163 133.714286,131.828571 C133.714286,131.51298 133.970123,131.257143 134.285714,131.257143 Z M146.285714,130.114286 C146.916897,130.114286 147.428571,130.62596 147.428571,131.257143 C147.428571,131.888325 146.916897,132.4 146.285714,132.4 C145.654532,132.4 145.142857,131.888325 145.142857,131.257143 C145.142857,130.62596 145.654532,130.114286 146.285714,130.114286 Z M139.428571,130.114286 C140.059754,130.114286 140.571429,130.62596 140.571429,131.257143 C140.571429,131.888325 140.059754,132.4 139.428571,132.4 C138.797389,132.4 138.285714,131.888325 138.285714,131.257143 C138.285714,130.62596 138.797389,130.114286 139.428571,130.114286 Z M120,128.971429 C120.631183,128.971429 121.142857,129.483103 121.142857,130.114286 C121.142857,130.745468 120.631183,131.257143 120,131.257143 C119.368817,131.257143 118.857143,130.745468 118.857143,130.114286 C118.857143,129.483103 119.368817,128.971429 120,128.971429 Z M125.714286,128.971429 C126.345468,128.971429 126.857143,129.483103 126.857143,130.114286 C126.857143,130.745468 126.345468,131.257143 125.714286,131.257143 C125.083103,131.257143 124.571429,130.745468 124.571429,130.114286 C124.571429,129.483103 125.083103,128.971429 125.714286,128.971429 Z M141.714286,127.828571 L141.838813,127.835278 C142.411417,127.897326 142.857143,128.382325 142.857143,128.971429 C142.857143,129.602611 142.345468,130.114286 141.714286,130.114286 C141.083103,130.114286 140.571429,129.602611 140.571429,128.971429 C140.571429,128.340246 141.083103,127.828571 141.714286,127.828571 L141.714286,127.828571 Z M153.142857,127.828571 C153.77404,127.828571 154.285714,128.340246 154.285714,128.971429 C154.285714,129.602611 153.77404,130.114286 153.142857,130.114286 C152.511675,130.114286 152,129.602611 152,128.971429 C152,128.340246 152.511675,127.828571 153.142857,127.828571 Z M130.285714,127.828571 C130.916897,127.828571 131.428571,128.340246 131.428571,128.971429 C131.428571,129.602611 130.916897,130.114286 130.285714,130.114286 C129.654532,130.114286 129.142857,129.602611 129.142857,128.971429 C129.142857,128.340246 129.654532,127.828571 130.285714,127.828571 Z M147.428571,126.685714 C148.059754,126.685714 148.571429,127.197389 148.571429,127.828571 C148.571429,128.459754 148.059754,128.971429 147.428571,128.971429 C146.797389,128.971429 146.285714,128.459754 146.285714,127.828571 C146.285714,127.197389 146.797389,126.685714 147.428571,126.685714 Z M136,125.542857 C136.631183,125.542857 137.142857,126.054532 137.142857,126.685714 C137.142857,127.316897 136.631183,127.828571 136,127.828571 C135.368817,127.828571 134.857143,127.316897 134.857143,126.685714 C134.857143,126.054532 135.368817,125.542857 136,125.542857 Z M122.857143,126.685714 C123.172734,126.685714 123.428571,126.941552 123.428571,127.257143 C123.428571,127.572734 123.172734,127.828571 122.857143,127.828571 C122.541552,127.828571 122.285714,127.572734 122.285714,127.257143 C122.285714,126.941552 122.541552,126.685714 122.857143,126.685714 Z M127.428571,125.542857 C127.744163,125.542857 128,125.798694 128,126.114286 C128,126.429877 127.744163,126.685714 127.428571,126.685714 C127.11298,126.685714 126.857143,126.429877 126.857143,126.114286 C126.857143,125.798694 127.11298,125.542857 127.428571,125.542857 Z M146.285714,123.257143 C146.916897,123.257143 147.428571,123.768817 147.428571,124.4 C147.428571,125.031183 146.916897,125.542857 146.285714,125.542857 C145.654532,125.542857 145.142857,125.031183 145.142857,124.4 C145.142857,123.768817 145.654532,123.257143 146.285714,123.257143 Z M130.285714,122.114286 L130.410241,122.120992 C130.982846,122.18304 131.428571,122.668039 131.428571,123.257143 C131.428571,123.888325 130.916897,124.4 130.285714,124.4 C129.654532,124.4 129.142857,123.888325 129.142857,123.257143 C129.142857,122.62596 129.654532,122.114286 130.285714,122.114286 L130.285714,122.114286 Z M141.714286,122.114286 C142.345468,122.114286 142.857143,122.62596 142.857143,123.257143 C142.857143,123.888325 142.345468,124.4 141.714286,124.4 C141.083103,124.4 140.571429,123.888325 140.571429,123.257143 C140.571429,122.62596 141.083103,122.114286 141.714286,122.114286 Z M118.857143,122.114286 C119.488325,122.114286 120,122.62596 120,123.257143 C120,123.888325 119.488325,124.4 118.857143,124.4 C118.22596,124.4 117.714286,123.888325 117.714286,123.257143 C117.714286,122.62596 118.22596,122.114286 118.857143,122.114286 Z M155.428571,122.114286 C156.059754,122.114286 156.571429,122.62596 156.571429,123.257143 C156.571429,123.888325 156.059754,124.4 155.428571,124.4 C154.797389,124.4 154.285714,123.888325 154.285714,123.257143 C154.285714,122.62596 154.797389,122.114286 155.428571,122.114286 Z M149.714286,122.114286 C150.345468,122.114286 150.857143,122.62596 150.857143,123.257143 C150.857143,123.888325 150.345468,124.4 149.714286,124.4 C149.083103,124.4 148.571429,123.888325 148.571429,123.257143 C148.571429,122.62596 149.083103,122.114286 149.714286,122.114286 Z M112.571429,123.257143 C112.88702,123.257143 113.142857,123.51298 113.142857,123.828571 C113.142857,124.144163 112.88702,124.4 112.571429,124.4 C112.255837,124.4 112,124.144163 112,123.828571 C112,123.51298 112.255837,123.257143 112.571429,123.257143 Z M126.285714,122.114286 C126.601306,122.114286 126.857143,122.370123 126.857143,122.685714 C126.857143,123.001306 126.601306,123.257143 126.285714,123.257143 C125.970123,123.257143 125.714286,123.001306 125.714286,122.685714 C125.714286,122.370123 125.970123,122.114286 126.285714,122.114286 Z M136,120.971429 C136.631183,120.971429 137.142857,121.483103 137.142857,122.114286 C137.142857,122.745468 136.631183,123.257143 136,123.257143 C135.368817,123.257143 134.857143,122.745468 134.857143,122.114286 C134.857143,121.483103 135.368817,120.971429 136,120.971429 Z M154.285714,117.542857 C154.916897,117.542857 155.428571,118.054532 155.428571,118.685714 C155.428571,119.316897 154.916897,119.828571 154.285714,119.828571 C153.654532,119.828571 153.142857,119.316897 153.142857,118.685714 C153.142857,118.054532 153.654532,117.542857 154.285714,117.542857 Z M142.857143,117.542857 C143.488325,117.542857 144,118.054532 144,118.685714 C144,119.316897 143.488325,119.828571 142.857143,119.828571 C142.22596,119.828571 141.714286,119.316897 141.714286,118.685714 C141.714286,118.054532 142.22596,117.542857 142.857143,117.542857 Z M114.857143,118.685714 C115.172734,118.685714 115.428571,118.941552 115.428571,119.257143 C115.428571,119.572734 115.172734,119.828571 114.857143,119.828571 C114.541552,119.828571 114.285714,119.572734 114.285714,119.257143 C114.285714,118.941552 114.541552,118.685714 114.857143,118.685714 Z M120.571429,117.542857 C120.88702,117.542857 121.142857,117.798694 121.142857,118.114286 C121.142857,118.429877 120.88702,118.685714 120.571429,118.685714 C120.255837,118.685714 120,118.429877 120,118.114286 C120,117.798694 120.255837,117.542857 120.571429,117.542857 Z M138.285714,116.4 C138.916897,116.4 139.428571,116.911675 139.428571,117.542857 C139.428571,118.17404 138.916897,118.685714 138.285714,118.685714 C137.654532,118.685714 137.142857,118.17404 137.142857,117.542857 C137.142857,116.911675 137.654532,116.4 138.285714,116.4 Z M132.571429,116.4 C133.202611,116.4 133.714286,116.911675 133.714286,117.542857 C133.714286,118.17404 133.202611,118.685714 132.571429,118.685714 C131.940246,118.685714 131.428571,118.17404 131.428571,117.542857 C131.428571,116.911675 131.940246,116.4 132.571429,116.4 Z M125.714286,116.4 C126.345468,116.4 126.857143,116.911675 126.857143,117.542857 C126.857143,118.17404 126.345468,118.685714 125.714286,118.685714 C125.083103,118.685714 124.571429,118.17404 124.571429,117.542857 C124.571429,116.911675 125.083103,116.4 125.714286,116.4 Z M142.857143,111.828571 C143.488325,111.828571 144,112.340246 144,112.971429 C144,113.602611 143.488325,114.114286 142.857143,114.114286 C142.22596,114.114286 141.714286,113.602611 141.714286,112.971429 C141.714286,112.340246 142.22596,111.828571 142.857143,111.828571 Z M131.428571,111.828571 C132.059754,111.828571 132.571429,112.340246 132.571429,112.971429 C132.571429,113.602611 132.059754,114.114286 131.428571,114.114286 C130.797389,114.114286 130.285714,113.602611 130.285714,112.971429 C130.285714,112.340246 130.797389,111.828571 131.428571,111.828571 Z M126.285714,112.971429 C126.601306,112.971429 126.857143,113.227266 126.857143,113.542857 C126.857143,113.858448 126.601306,114.114286 126.285714,114.114286 C125.970123,114.114286 125.714286,113.858448 125.714286,113.542857 C125.714286,113.227266 125.970123,112.971429 126.285714,112.971429 Z M118.285714,111.828571 C118.601306,111.828571 118.857143,112.084409 118.857143,112.4 C118.857143,112.715591 118.601306,112.971429 118.285714,112.971429 C117.970123,112.971429 117.714286,112.715591 117.714286,112.4 C117.714286,112.084409 117.970123,111.828571 118.285714,111.828571 Z M109.142857,111.828571 C109.458448,111.828571 109.714286,112.084409 109.714286,112.4 C109.714286,112.715591 109.458448,112.971429 109.142857,112.971429 C108.827266,112.971429 108.571429,112.715591 108.571429,112.4 C108.571429,112.084409 108.827266,111.828571 109.142857,111.828571 Z M139.428571,108.4 C140.059754,108.4 140.571429,108.911675 140.571429,109.542857 C140.571429,110.17404 140.059754,110.685714 139.428571,110.685714 C138.797389,110.685714 138.285714,110.17404 138.285714,109.542857 C138.285714,108.911675 138.797389,108.4 139.428571,108.4 Z M124,109.542857 C124.315591,109.542857 124.571429,109.798694 124.571429,110.114286 C124.571429,110.429877 124.315591,110.685714 124,110.685714 C123.684409,110.685714 123.428571,110.429877 123.428571,110.114286 C123.428571,109.798694 123.684409,109.542857 124,109.542857 Z M129.714286,109.542857 C130.029877,109.542857 130.285714,109.798694 130.285714,110.114286 C130.285714,110.429877 130.029877,110.685714 129.714286,110.685714 C129.398694,110.685714 129.142857,110.429877 129.142857,110.114286 C129.142857,109.798694 129.398694,109.542857 129.714286,109.542857 Z M135.428571,104.971429 C135.744163,104.971429 136,105.227266 136,105.542857 C136,105.858448 135.744163,106.114286 135.428571,106.114286 C135.11298,106.114286 134.857143,105.858448 134.857143,105.542857 C134.857143,105.227266 135.11298,104.971429 135.428571,104.971429 Z M112.571429,103.828571 C112.88702,103.828571 113.142857,104.084409 113.142857,104.4 C113.142857,104.715591 112.88702,104.971429 112.571429,104.971429 C112.255837,104.971429 112,104.715591 112,104.4 C112,104.084409 112.255837,103.828571 112.571429,103.828571 Z M101.142857,100.4 C101.458448,100.4 101.714286,100.655837 101.714286,100.971429 C101.714286,101.28702 101.458448,101.542857 101.142857,101.542857 C100.827266,101.542857 100.571429,101.28702 100.571429,100.971429 C100.571429,100.655837 100.827266,100.4 101.142857,100.4 Z M124,99.2571429 C124.315591,99.2571429 124.571429,99.5129801 124.571429,99.8285714 C124.571429,100.144163 124.315591,100.4 124,100.4 C123.684409,100.4 123.428571,100.144163 123.428571,99.8285714 C123.428571,99.5129801 123.684409,99.2571429 124,99.2571429 Z" id="Combined-Shape" fill="#003CFF" fill-rule="nonzero" mask="url(#mask-3)"></path>
                        <path d="M49.1428571,55.8285714 C49.7740397,55.8285714 50.2857143,56.340246 50.2857143,56.9714286 C50.2857143,57.6026111 49.7740397,58.1142857 49.1428571,58.1142857 C48.5116746,58.1142857 48,57.6026111 48,56.9714286 C48,56.340246 48.5116746,55.8285714 49.1428571,55.8285714 Z M54.8571429,55.8285714 C55.4883254,55.8285714 56,56.340246 56,56.9714286 C56,57.6026111 55.4883254,58.1142857 54.8571429,58.1142857 C54.2259603,58.1142857 53.7142857,57.6026111 53.7142857,56.9714286 C53.7142857,56.340246 54.2259603,55.8285714 54.8571429,55.8285714 Z M45.7142857,54.6857143 C46.3454683,54.6857143 46.8571429,55.1973889 46.8571429,55.8285714 C46.8571429,56.459754 46.3454683,56.9714286 45.7142857,56.9714286 C45.0831031,56.9714286 44.5714286,56.459754 44.5714286,55.8285714 C44.5714286,55.1973889 45.0831031,54.6857143 45.7142857,54.6857143 Z M40,54.6857143 C40.6311826,54.6857143 41.1428571,55.1973889 41.1428571,55.8285714 C41.1428571,56.459754 40.6311826,56.9714286 40,56.9714286 C39.3688174,56.9714286 38.8571429,56.459754 38.8571429,55.8285714 C38.8571429,55.1973889 39.3688174,54.6857143 40,54.6857143 Z M61.1428571,53.5428571 C61.4584484,53.5428571 61.7142857,53.7986944 61.7142857,54.1142857 C61.7142857,54.429877 61.4584484,54.6857143 61.1428571,54.6857143 C60.8272659,54.6857143 60.5714286,54.429877 60.5714286,54.1142857 C60.5714286,53.7986944 60.8272659,53.5428571 61.1428571,53.5428571 Z M52,52.4 C52.3155913,52.4 52.5714286,52.6558373 52.5714286,52.9714286 C52.5714286,53.2870199 52.3155913,53.5428571 52,53.5428571 C51.6844087,53.5428571 51.4285714,53.2870199 51.4285714,52.9714286 C51.4285714,52.6558373 51.6844087,52.4 52,52.4 Z M64,51.2571429 C64.6311826,51.2571429 65.1428571,51.7688174 65.1428571,52.4 C65.1428571,53.0311826 64.6311826,53.5428571 64,53.5428571 C63.3688174,53.5428571 62.8571429,53.0311826 62.8571429,52.4 C62.8571429,51.7688174 63.3688174,51.2571429 64,51.2571429 Z M57.1428571,51.2571429 C57.7740397,51.2571429 58.2857143,51.7688174 58.2857143,52.4 C58.2857143,53.0311826 57.7740397,53.5428571 57.1428571,53.5428571 C56.5116746,53.5428571 56,53.0311826 56,52.4 C56,51.7688174 56.5116746,51.2571429 57.1428571,51.2571429 Z M37.7142857,50.1142857 C38.3454683,50.1142857 38.8571429,50.6259603 38.8571429,51.2571429 C38.8571429,51.8883254 38.3454683,52.4 37.7142857,52.4 C37.0831031,52.4 36.5714286,51.8883254 36.5714286,51.2571429 C36.5714286,50.6259603 37.0831031,50.1142857 37.7142857,50.1142857 Z M43.4285714,50.1142857 C44.059754,50.1142857 44.5714286,50.6259603 44.5714286,51.2571429 C44.5714286,51.8883254 44.059754,52.4 43.4285714,52.4 C42.7973889,52.4 42.2857143,51.8883254 42.2857143,51.2571429 C42.2857143,50.6259603 42.7973889,50.1142857 43.4285714,50.1142857 Z M59.4285714,48.9714286 L59.5530983,48.9781347 C60.1257032,49.040183 60.5714286,49.525182 60.5714286,50.1142857 C60.5714286,50.7454683 60.059754,51.2571429 59.4285714,51.2571429 C58.7973889,51.2571429 58.2857143,50.7454683 58.2857143,50.1142857 C58.2857143,49.4831031 58.7973889,48.9714286 59.4285714,48.9714286 L59.4285714,48.9714286 Z M70.8571429,48.9714286 C71.4883254,48.9714286 72,49.4831031 72,50.1142857 C72,50.7454683 71.4883254,51.2571429 70.8571429,51.2571429 C70.2259603,51.2571429 69.7142857,50.7454683 69.7142857,50.1142857 C69.7142857,49.4831031 70.2259603,48.9714286 70.8571429,48.9714286 Z M48,48.9714286 C48.6311826,48.9714286 49.1428571,49.4831031 49.1428571,50.1142857 C49.1428571,50.7454683 48.6311826,51.2571429 48,51.2571429 C47.3688174,51.2571429 46.8571429,50.7454683 46.8571429,50.1142857 C46.8571429,49.4831031 47.3688174,48.9714286 48,48.9714286 Z M65.1428571,47.8285714 C65.7740397,47.8285714 66.2857143,48.340246 66.2857143,48.9714286 C66.2857143,49.6026111 65.7740397,50.1142857 65.1428571,50.1142857 C64.5116746,50.1142857 64,49.6026111 64,48.9714286 C64,48.340246 64.5116746,47.8285714 65.1428571,47.8285714 Z M53.7142857,46.6857143 C54.3454683,46.6857143 54.8571429,47.1973889 54.8571429,47.8285714 C54.8571429,48.459754 54.3454683,48.9714286 53.7142857,48.9714286 C53.0831031,48.9714286 52.5714286,48.459754 52.5714286,47.8285714 C52.5714286,47.1973889 53.0831031,46.6857143 53.7142857,46.6857143 Z M40.5714286,47.8285714 C40.8870199,47.8285714 41.1428571,48.0844087 41.1428571,48.4 C41.1428571,48.7155913 40.8870199,48.9714286 40.5714286,48.9714286 C40.2558373,48.9714286 40,48.7155913 40,48.4 C40,48.0844087 40.2558373,47.8285714 40.5714286,47.8285714 Z M45.1428571,46.6857143 C45.4584484,46.6857143 45.7142857,46.9415516 45.7142857,47.2571429 C45.7142857,47.5727341 45.4584484,47.8285714 45.1428571,47.8285714 C44.8272659,47.8285714 44.5714286,47.5727341 44.5714286,47.2571429 C44.5714286,46.9415516 44.8272659,46.6857143 45.1428571,46.6857143 Z M64,44.4 C64.6311826,44.4 65.1428571,44.9116746 65.1428571,45.5428571 C65.1428571,46.1740397 64.6311826,46.6857143 64,46.6857143 C63.3688174,46.6857143 62.8571429,46.1740397 62.8571429,45.5428571 C62.8571429,44.9116746 63.3688174,44.4 64,44.4 Z M48,43.2571429 L48.1245269,43.263849 C48.6971317,43.3258973 49.1428571,43.8108963 49.1428571,44.4 C49.1428571,45.0311826 48.6311826,45.5428571 48,45.5428571 C47.3688174,45.5428571 46.8571429,45.0311826 46.8571429,44.4 C46.8571429,43.7688174 47.3688174,43.2571429 48,43.2571429 L48,43.2571429 Z M59.4285714,43.2571429 C60.059754,43.2571429 60.5714286,43.7688174 60.5714286,44.4 C60.5714286,45.0311826 60.059754,45.5428571 59.4285714,45.5428571 C58.7973889,45.5428571 58.2857143,45.0311826 58.2857143,44.4 C58.2857143,43.7688174 58.7973889,43.2571429 59.4285714,43.2571429 Z M36.5714286,43.2571429 C37.2026111,43.2571429 37.7142857,43.7688174 37.7142857,44.4 C37.7142857,45.0311826 37.2026111,45.5428571 36.5714286,45.5428571 C35.940246,45.5428571 35.4285714,45.0311826 35.4285714,44.4 C35.4285714,43.7688174 35.940246,43.2571429 36.5714286,43.2571429 Z M73.1428571,43.2571429 C73.7740397,43.2571429 74.2857143,43.7688174 74.2857143,44.4 C74.2857143,45.0311826 73.7740397,45.5428571 73.1428571,45.5428571 C72.5116746,45.5428571 72,45.0311826 72,44.4 C72,43.7688174 72.5116746,43.2571429 73.1428571,43.2571429 Z M67.4285714,43.2571429 C68.059754,43.2571429 68.5714286,43.7688174 68.5714286,44.4 C68.5714286,45.0311826 68.059754,45.5428571 67.4285714,45.5428571 C66.7973889,45.5428571 66.2857143,45.0311826 66.2857143,44.4 C66.2857143,43.7688174 66.7973889,43.2571429 67.4285714,43.2571429 Z M30.2857143,44.4 C30.6013056,44.4 30.8571429,44.6558373 30.8571429,44.9714286 C30.8571429,45.2870199 30.6013056,45.5428571 30.2857143,45.5428571 C29.970123,45.5428571 29.7142857,45.2870199 29.7142857,44.9714286 C29.7142857,44.6558373 29.970123,44.4 30.2857143,44.4 Z M44,43.2571429 C44.3155913,43.2571429 44.5714286,43.5129801 44.5714286,43.8285714 C44.5714286,44.1441627 44.3155913,44.4 44,44.4 C43.6844087,44.4 43.4285714,44.1441627 43.4285714,43.8285714 C43.4285714,43.5129801 43.6844087,43.2571429 44,43.2571429 Z M53.7142857,42.1142857 C54.3454683,42.1142857 54.8571429,42.6259603 54.8571429,43.2571429 C54.8571429,43.8883254 54.3454683,44.4 53.7142857,44.4 C53.0831031,44.4 52.5714286,43.8883254 52.5714286,43.2571429 C52.5714286,42.6259603 53.0831031,42.1142857 53.7142857,42.1142857 Z M72,38.6857143 C72.6311826,38.6857143 73.1428571,39.1973889 73.1428571,39.8285714 C73.1428571,40.459754 72.6311826,40.9714286 72,40.9714286 C71.3688174,40.9714286 70.8571429,40.459754 70.8571429,39.8285714 C70.8571429,39.1973889 71.3688174,38.6857143 72,38.6857143 Z M60.5714286,38.6857143 C61.2026111,38.6857143 61.7142857,39.1973889 61.7142857,39.8285714 C61.7142857,40.459754 61.2026111,40.9714286 60.5714286,40.9714286 C59.940246,40.9714286 59.4285714,40.459754 59.4285714,39.8285714 C59.4285714,39.1973889 59.940246,38.6857143 60.5714286,38.6857143 Z M32.5714286,39.8285714 C32.8870199,39.8285714 33.1428571,40.0844087 33.1428571,40.4 C33.1428571,40.7155913 32.8870199,40.9714286 32.5714286,40.9714286 C32.2558373,40.9714286 32,40.7155913 32,40.4 C32,40.0844087 32.2558373,39.8285714 32.5714286,39.8285714 Z M38.2857143,38.6857143 C38.6013056,38.6857143 38.8571429,38.9415516 38.8571429,39.2571429 C38.8571429,39.5727341 38.6013056,39.8285714 38.2857143,39.8285714 C37.970123,39.8285714 37.7142857,39.5727341 37.7142857,39.2571429 C37.7142857,38.9415516 37.970123,38.6857143 38.2857143,38.6857143 Z M56,37.5428571 C56.6311826,37.5428571 57.1428571,38.0545317 57.1428571,38.6857143 C57.1428571,39.3168969 56.6311826,39.8285714 56,39.8285714 C55.3688174,39.8285714 54.8571429,39.3168969 54.8571429,38.6857143 C54.8571429,38.0545317 55.3688174,37.5428571 56,37.5428571 Z M50.2857143,37.5428571 C50.9168969,37.5428571 51.4285714,38.0545317 51.4285714,38.6857143 C51.4285714,39.3168969 50.9168969,39.8285714 50.2857143,39.8285714 C49.6545317,39.8285714 49.1428571,39.3168969 49.1428571,38.6857143 C49.1428571,38.0545317 49.6545317,37.5428571 50.2857143,37.5428571 Z M43.4285714,37.5428571 C44.059754,37.5428571 44.5714286,38.0545317 44.5714286,38.6857143 C44.5714286,39.3168969 44.059754,39.8285714 43.4285714,39.8285714 C42.7973889,39.8285714 42.2857143,39.3168969 42.2857143,38.6857143 C42.2857143,38.0545317 42.7973889,37.5428571 43.4285714,37.5428571 Z M60.5714286,32.9714286 C61.2026111,32.9714286 61.7142857,33.4831031 61.7142857,34.1142857 C61.7142857,34.7454683 61.2026111,35.2571429 60.5714286,35.2571429 C59.940246,35.2571429 59.4285714,34.7454683 59.4285714,34.1142857 C59.4285714,33.4831031 59.940246,32.9714286 60.5714286,32.9714286 Z M49.1428571,32.9714286 C49.7740397,32.9714286 50.2857143,33.4831031 50.2857143,34.1142857 C50.2857143,34.7454683 49.7740397,35.2571429 49.1428571,35.2571429 C48.5116746,35.2571429 48,34.7454683 48,34.1142857 C48,33.4831031 48.5116746,32.9714286 49.1428571,32.9714286 Z M44,34.1142857 C44.3155913,34.1142857 44.5714286,34.370123 44.5714286,34.6857143 C44.5714286,35.0013056 44.3155913,35.2571429 44,35.2571429 C43.6844087,35.2571429 43.4285714,35.0013056 43.4285714,34.6857143 C43.4285714,34.370123 43.6844087,34.1142857 44,34.1142857 Z M36,32.9714286 C36.3155913,32.9714286 36.5714286,33.2272659 36.5714286,33.5428571 C36.5714286,33.8584484 36.3155913,34.1142857 36,34.1142857 C35.6844087,34.1142857 35.4285714,33.8584484 35.4285714,33.5428571 C35.4285714,33.2272659 35.6844087,32.9714286 36,32.9714286 Z M26.8571429,32.9714286 C27.1727341,32.9714286 27.4285714,33.2272659 27.4285714,33.5428571 C27.4285714,33.8584484 27.1727341,34.1142857 26.8571429,34.1142857 C26.5415516,34.1142857 26.2857143,33.8584484 26.2857143,33.5428571 C26.2857143,33.2272659 26.5415516,32.9714286 26.8571429,32.9714286 Z M57.1428571,29.5428571 C57.7740397,29.5428571 58.2857143,30.0545317 58.2857143,30.6857143 C58.2857143,31.3168969 57.7740397,31.8285714 57.1428571,31.8285714 C56.5116746,31.8285714 56,31.3168969 56,30.6857143 C56,30.0545317 56.5116746,29.5428571 57.1428571,29.5428571 Z M41.7142857,30.6857143 C42.029877,30.6857143 42.2857143,30.9415516 42.2857143,31.2571429 C42.2857143,31.5727341 42.029877,31.8285714 41.7142857,31.8285714 C41.3986944,31.8285714 41.1428571,31.5727341 41.1428571,31.2571429 C41.1428571,30.9415516 41.3986944,30.6857143 41.7142857,30.6857143 Z M47.4285714,30.6857143 C47.7441627,30.6857143 48,30.9415516 48,31.2571429 C48,31.5727341 47.7441627,31.8285714 47.4285714,31.8285714 C47.1129801,31.8285714 46.8571429,31.5727341 46.8571429,31.2571429 C46.8571429,30.9415516 47.1129801,30.6857143 47.4285714,30.6857143 Z M53.1428571,26.1142857 C53.4584484,26.1142857 53.7142857,26.370123 53.7142857,26.6857143 C53.7142857,27.0013056 53.4584484,27.2571429 53.1428571,27.2571429 C52.8272659,27.2571429 52.5714286,27.0013056 52.5714286,26.6857143 C52.5714286,26.370123 52.8272659,26.1142857 53.1428571,26.1142857 Z M30.2857143,24.9714286 C30.6013056,24.9714286 30.8571429,25.2272659 30.8571429,25.5428571 C30.8571429,25.8584484 30.6013056,26.1142857 30.2857143,26.1142857 C29.970123,26.1142857 29.7142857,25.8584484 29.7142857,25.5428571 C29.7142857,25.2272659 29.970123,24.9714286 30.2857143,24.9714286 Z M18.8571429,21.5428571 C19.1727341,21.5428571 19.4285714,21.7986944 19.4285714,22.1142857 C19.4285714,22.429877 19.1727341,22.6857143 18.8571429,22.6857143 C18.5415516,22.6857143 18.2857143,22.429877 18.2857143,22.1142857 C18.2857143,21.7986944 18.5415516,21.5428571 18.8571429,21.5428571 Z M41.7142857,20.4 C42.029877,20.4 42.2857143,20.6558373 42.2857143,20.9714286 C42.2857143,21.2870199 42.029877,21.5428571 41.7142857,21.5428571 C41.3986944,21.5428571 41.1428571,21.2870199 41.1428571,20.9714286 C41.1428571,20.6558373 41.3986944,20.4 41.7142857,20.4 Z" id="Combined-Shape" fill="#003CFF" fill-rule="nonzero" mask="url(#mask-3)"></path>
                    </g>
                    <path d="M186.641905,130.667959 C187.385447,131.214618 187.386116,132.101421 186.643402,132.648695 C181.396111,136.564814 177.460843,139.501753 174.837598,141.459514 C173.768735,142.25722 171.511721,141.932084 169.984258,140.84974 C146.23591,124.021936 134.362334,115.608458 134.362334,115.608458 C100.987185,132.645886 54.8174262,130.223177 25.0825328,108.337578 C-8.36084427,83.7223224 -8.36084427,43.8161075 25.0825328,19.2042988 C58.5259099,-5.41095674 112.739579,-5.41095674 146.182956,19.2042988 C177.888227,42.5401425 179.531682,79.6244784 151.113534,104.389153 C150.5704,104.862461 186.641905,130.667959 186.641905,130.667959 Z M39.4890223,31.4448268 C14.048696,49.2976873 14.048696,78.2437469 39.4890223,96.0964645 C64.9293485,113.946182 106.177483,113.946182 131.617606,96.0964645 C157.053454,78.243604 157.053454,49.2975444 131.617606,31.4448268 C106.17728,13.5919662 64.929145,13.5919662 39.4890223,31.4448268 Z" id="形状" fill="#5D96FE"></path>
                    <path d="M12.7241235,41.8714867 C16.7830908,37.9007054 21.746376,35.1254452 27.6139792,33.545706" id="Path-13" stroke="#FFFFFF" stroke-width="0.75" stroke-linecap="round" stroke-linejoin="round" transform="translate(20.169051, 37.708596) rotate(-23.000000) translate(-20.169051, -37.708596) "></path>
                    <path d="M143.724124,93.8714867 C147.783091,89.9007054 152.746376,87.1254452 158.613979,85.545706" id="Path-13" stroke="#FFFFFF" stroke-width="0.75" stroke-linecap="round" stroke-linejoin="round" transform="translate(151.169051, 89.708596) scale(-1, -1) rotate(-23.000000) translate(-151.169051, -89.708596) "></path>
                </g>
                <g id="树" transform="translate(67.428571, 252.571428)" fill="#FFCD6B" fill-rule="nonzero">
                    <path d="M13.7142848,2.27373675e-13 C21.2885281,1.97344466e-07 27.4285714,23.8800563 27.4285714,31.6484537 C27.4285714,38.6181906 22.4861322,44.4038733 15.9997939,45.519845 L16,57.1911407 C16,58.4268394 15.2328678,59.4285716 14.2865625,59.4285716 L14.2858839,59.4285716 C13.3824144,59.4290385 12.6419524,58.5165064 12.5761797,57.3585966 L12.5714286,57.1911405 L12.5714286,57.1911405 L12.5714813,45.6657035 C5.53179129,45.0703763 1.13686838e-13,39.0220372 1.13686838e-13,31.6484537 C1.13686838e-13,24.624112 5.02018627,4.42665028 11.581513,0.622071645 L11.6777863,0.568315977 L11.6777863,0.568315977 C11.7047631,0.552539464 11.7320667,0.537708329 11.7593963,0.523163816 L11.8261437,0.488866733 L11.8261437,0.488866733 L11.8926904,0.455287268 C11.925965,0.438088449 11.9596101,0.421838428 11.9932931,0.406028199 C12.0241309,0.3921445 12.0550581,0.377992707 12.0860169,0.364214288 C12.125577,0.346082734 12.1649134,0.329226448 12.2042999,0.312976934 C12.2393001,0.298994711 12.2746284,0.28490014 12.3099964,0.271297579 C12.3472861,0.256559622 12.3842968,0.242902764 12.4213503,0.229787861 L12.5171637,0.197429123 C12.5556729,0.184488308 12.5940293,0.172505702 12.6324301,0.161110337 L12.6855796,0.14592378 L12.6855796,0.14592378 L12.738628,0.131339164 C12.7740852,0.12162723 12.8097778,0.11258201 12.8455076,0.104049687 C12.8866753,0.0943723081 12.9279012,0.085205884 12.9691756,0.0767283728 L13.0535696,0.0602693274 L13.0535696,0.0602693274 C13.1059711,0.0508085045 13.1589963,0.0422863917 13.2120985,0.0349161326 C13.2328519,0.0319845861 13.2532013,0.0293374308 13.2735619,0.0268597785 C13.3271881,0.0203636765 13.3812048,0.0149759557 13.4352984,0.0107945203 C13.4551051,0.0092486364 13.4747844,0.00789074134 13.4944739,0.006692788 L13.6042478,0.00167978378 L13.6042478,0.00167978378 L13.7142848,2.27373675e-13 Z"></path>
                </g>
                <g id="树" transform="translate(283.428571, 177.142857)" fill-rule="nonzero">
                    <path d="M22.4748143,0.846507961 C34.8157814,0.846508275 44.8199587,38.7823654 44.8199587,51.1232415 C44.8199587,62.5180983 36.2907814,71.9207136 25.2682448,73.2953131 L25.2679587,92.3136654 C25.2679587,94.2464959 24.0180446,95.8133654 22.4761978,95.8133654 L22.4750922,95.8133654 C20.986119,95.814104 19.7688802,94.3537482 19.6861557,92.512989 L19.681673,92.3136652 L19.681673,92.3136652 L19.6809853,73.2947833 C8.65869982,71.9205477 0.129672953,62.5179978 0.129672953,51.1232415 C0.129672953,40.0709906 8.15367197,8.48990493 18.6940784,2.01506444 C18.7122191,2.00555987 18.7298971,1.99476348 18.7475821,1.98403791 C18.8186415,1.93937858 18.8902865,1.89720339 18.9620451,1.85620032 L19.0499555,1.80797697 L19.0499555,1.80797697 C19.2629162,1.68790041 19.4768476,1.57957118 19.6917255,1.4819582 C19.7369203,1.46235935 19.7818643,1.44240368 19.8268493,1.42291982 C19.8868966,1.39607439 19.9469483,1.37097123 20.0070718,1.34671398 C20.0519818,1.32933675 20.0969973,1.31163863 20.1420526,1.29441774 C20.212014,1.26702395 20.2820436,1.24148151 20.3521674,1.21710012 C20.4367689,1.1882227 20.5214609,1.1604711 20.6062875,1.13443172 C20.6464082,1.1216767 20.6867473,1.1097066 20.7271165,1.098125 C20.7964265,1.07861317 20.8657427,1.0598669 20.935146,1.04227657 L21.059514,1.01174836 L21.059514,1.01174836 C21.1402218,0.993193491 21.2214689,0.975856319 21.3028313,0.960122803 C21.3258874,0.955487528 21.348262,0.951292941 21.3706453,0.947219756 L21.387827,0.944278346 C21.494749,0.925091061 21.6018681,0.908679256 21.7091792,0.895086058 C21.733842,0.891886139 21.7584918,0.888918609 21.7831516,0.886099967 C21.8720762,0.875982604 21.9613186,0.867724733 22.0506896,0.861438733 C22.0821726,0.859205569 22.1131674,0.857269401 22.1441775,0.855570804 L22.3092029,0.848784084 L22.3092029,0.848784084 L22.4748143,0.846507961 Z" id="形状结合" fill="#FFCD6B"></path>
                    <path d="M22.4748158,0.846508275 C34.8157814,0.846508275 44.8199587,38.7823654 44.8199587,51.1232415 C44.8199587,62.5180983 36.2907814,71.9207136 25.2682448,73.2953131 L25.2679587,92.3136648 C25.2679587,94.2464959 24.0180446,95.8133635 22.4761978,95.8133635 C20.9329414,95.8141304 19.6822812,94.2475735 19.681673,92.3143584 L19.6817212,73.2953548 C8.65902276,71.9209038 0.129672953,62.5182135 0.129672953,51.1232415 C0.129672953,38.7823654 10.1338503,0.846508275 22.4748158,0.846508275 Z" id="形状结合" fill="#FFCD6B"></path>
                    <circle id="椭圆形" fill="#FFB400" cx="26.4001188" cy="56.8690073" r="1.45028571"></circle>
                    <circle id="椭圆形" fill="#FFB400" cx="39.4526902" cy="58.3192931" r="1"></circle>
                    <circle id="椭圆形" fill="#FFB400" cx="17.6984045" cy="63.6370073" r="2.41714286"></circle>
                    <circle id="椭圆形" fill="#FFB400" cx="38.0024045" cy="51.0678645" r="2.41714286"></circle>
                    <circle id="椭圆形" fill="#FFB400" cx="18.6652616" cy="17.2278645" r="2.41714286"></circle>
                    <circle id="椭圆形" fill="#FFB400" cx="32.2012616" cy="13.3604359" r="2.41714286"></circle>
                    <circle id="椭圆形" fill="#FFB400" cx="26.8298331" cy="20.6655788" r="1.45028571"></circle>
                    <circle id="椭圆形" fill="#FFB400" cx="38.9692616" cy="31.7307216" r="2.41714286"></circle>
                    <circle id="椭圆形" fill="#FFB400" cx="25.4332616" cy="29.7970073" r="1.45028571"></circle>
                    <path d="M34.1966623,53.0332309 C34.1966623,62.8583399 27.26281,71.0500254 18.025161,73.0196801 C19.4895094,73.3169471 20.979891,73.4672076 22.4741123,73.4682222 C34.8150779,73.4682222 44.8192552,63.4641172 44.8192552,51.1232412 C44.8199571,38.7823651 34.8150779,0.846507961 22.4748143,0.846507961 C31.4222081,14.8774301 34.1966623,41.7382513 34.1966623,53.0332309 Z" id="路径" fill="#FBBE47"></path>
                </g>
            </g>
        </g>
    </g>
</svg>