<?xml version="1.0" encoding="UTF-8"?>
<svg width="31px" height="15px" viewBox="0 0 31 15" version="1.1" xmlns="http://www.w3.org/2000/svg" xmlns:xlink="http://www.w3.org/1999/xlink">
    <title>eye 2</title>
    <g id="页面-1" stroke="none" stroke-width="1" fill="none" fill-rule="evenodd">
        <g id="文本加密" transform="translate(-204.000000, -590.000000)" fill="#999999" fill-rule="nonzero">
            <g id="编组" transform="translate(70.000000, 552.000000)">
                <g id="eye-copy备份-3" transform="translate(131.000000, 26.000000)">
                    <g id="eye-2" transform="translate(3.600000, 12.600000)">
                        <path d="M0.00644622219,0 L0.00644622247,0 C0.00841866335,0 0.0102828875,0.000848040165 0.0115057877,0.0023030893 C0.338508386,0.391290631 0.589166336,0.679743769 0.76344741,0.867632206 C4.20211483,4.57449744 9.30447685,6.92293624 15,6.92293624 C20.7067065,6.92293624 25.8179631,4.56525603 29.2568239,0.845725523 C29.426142,0.66259414 29.6698391,0.381685626 29.9879471,0.00299998239 L29.9879471,0.00299998221 C29.9901523,0.000372734665 29.9942052,0 29.9969995,0.00199703489 C29.9985492,0.00314688122 29.999453,0.00490104596 29.999452,0.00675714798 L30,3.17453013 L30,3.17452999 C28.9129927,4.20013845 27.7094768,5.11040505 26.4110925,5.88895886 L29.5024224,9.29582677 L27.7788831,10.6332555 L24.4284842,6.94087352 L24.4284862,6.94087256 C22.8069987,7.69549264 21.0889476,8.25072251 19.3166496,8.59287278 L20.9680014,12.7883813 L18.8537477,13.5 L17.0480953,8.91238311 L17.0480968,8.91238297 C16.3673178,8.97323931 15.6838511,9.00367445 15,9.00358507 C14.1356886,9.00358507 13.2835869,8.95528735 12.4466317,8.86147948 L10.6209665,13.5 L8.50671283,12.7883811 L10.1972199,8.49333813 L10.1972181,8.49333775 C8.59623637,8.1471152 7.04379741,7.62609066 5.57151873,6.94087205 L2.22111978,10.6331934 L0.497580503,9.29582529 L3.58891038,5.88898768 L3.5889075,5.88898595 C2.29052317,5.11042306 1.0870073,4.20014737 0,3.17452981 L0,0.00605993989 C0,0.00272697295 0.00290038769,0 0.00644530598,0 L0.00644622219,0 Z" id="Path"></path>
                    </g>
                </g>
            </g>
        </g>
    </g>
</svg>