<?xml version="1.0" encoding="UTF-8"?>
<svg width="30px" height="20px" viewBox="0 0 30 20" version="1.1" xmlns="http://www.w3.org/2000/svg" xmlns:xlink="http://www.w3.org/1999/xlink">
    <title>眼睛 (1)</title>
    <defs>
        <filter id="filter-1">
            <feColorMatrix in="SourceGraphic" type="matrix" values="0 0 0 0 0.600000 0 0 0 0 0.600000 0 0 0 0 0.600000 0 0 0 1.000000 0"></feColorMatrix>
        </filter>
    </defs>
    <g id="页面-1" stroke="none" stroke-width="1" fill="none" fill-rule="evenodd">
        <g id="文本加密" transform="translate(-992.000000, -587.000000)">
            <g id="眼睛-(1)" transform="translate(857.000000, 552.000000)" filter="url(#filter-1)">
                <g transform="translate(135.000000, 35.000000)">
                    <path d="M15.0000716,15.3535426 C12.0647353,15.3535426 9.6766611,12.9519185 9.6766611,9.99996043 C9.6766611,7.04796905 12.0647353,4.64634496 15.0000716,4.64634496 C17.9353748,4.64634496 20.323449,7.04796905 20.323449,9.99996043 C20.323449,12.9519518 17.9353748,15.3535426 15.0000716,15.3535426 L15.0000716,15.3535426 Z M15.0000716,6.64622622 C13.1612482,6.64622622 11.6652591,8.15070356 11.6652591,9.99996043 C11.6652591,11.849184 13.1612482,13.3536613 15.0000716,13.3536613 C16.8388619,13.3536613 18.334851,11.849184 18.334851,9.99996043 C18.334851,8.15070356 16.8388619,6.64622622 15.0000716,6.64622622 L15.0000716,6.64622622 Z" id="形状" fill="#000000" fill-rule="nonzero"></path>
                    <path d="M15.0000695,20 C14.9928133,20 14.985588,20 14.9783628,19.9997667 C12.9753806,19.9557693 10.9425695,19.422401 8.93647179,18.4145275 C7.35911585,17.6220745 5.79458639,16.535439 4.28640055,15.1848526 C1.73648762,12.9015215 0.231384089,10.6611878 0.168577544,10.5669267 C0.0567147078,10.3996769 -0.00202031522,10.2022131 6.95029234e-05,10.0006604 C-0.00230957603,9.79863094 0.0564383231,9.60063557 0.168577544,9.4329941 C0.231417255,9.33873303 1.73652078,7.09839938 4.28640055,4.81503496 C5.79458642,3.46444848 7.35908272,2.37784634 8.93647179,1.58539338 C10.9426026,0.577519887 12.9753806,0.0441849021 14.9783628,0.000187487732 C14.9928796,-6.24959108e-05 15.0072969,-6.24959108e-05 15.0218136,0.000187487732 C17.024829,0.0441848695 19.057607,0.577519887 21.0637378,1.58539338 C22.6411268,2.37784634 24.2056232,3.46444848 25.713809,4.81503496 C28.2636888,7.09839938 29.7687923,9.33876635 29.8315989,9.4329941 C29.9413941,9.59768099 30,9.79148358 30,9.98976102 L30,10.0101265 C30,10.2084015 29.9413795,10.4021996 29.8315989,10.5668934 C29.7687592,10.6611545 28.2636888,12.9014882 25.7138422,15.1848526 C24.2056232,16.535439 22.6411268,17.6220412 21.0637378,18.4145275 C19.0576401,19.4223676 17.024829,19.9557359 15.0218136,19.9997667 C15.0145221,20 15.00733,20 15.0000695,20 L15.0000695,20 Z M2.21564031,10.0001604 C2.79717267,10.7723812 3.99497152,12.2519934 5.64477867,13.7234727 C7.77552827,15.6238932 11.1269125,17.906391 15.0000716,17.9998521 C21.3783671,17.8462279 26.3806522,11.8615832 27.784503,9.99972711 C27.2031695,9.22780628 26.0053044,7.7480608 24.3553315,6.27644818 C22.2245819,4.37602769 18.8732308,2.09349653 15.0000385,2.00006875 C8.62177617,2.15372631 3.61952421,8.1383043 2.21564031,10.0001604 Z" id="形状" fill="#000000" fill-rule="nonzero"></path>
                </g>
            </g>
        </g>
    </g>
</svg>