<?xml version="1.0" standalone="no"?><!DOCTYPE svg PUBLIC "-//W3C//DTD SVG 1.1//EN" "http://www.w3.org/Graphics/SVG/1.1/DTD/svg11.dtd"><svg class="icon" width="200px" height="200.00px" viewBox="0 0 1024 1024" version="1.1" xmlns="http://www.w3.org/2000/svg"><path fill="#333333" d="M215.39 68.432h591.829c79.938 0 145.07 63.394 147.864 142.65l0.093 5.307v523.542c0 18.857-15.287 34.144-34.144 34.144-17.748 0-32.333-13.542-33.988-30.856l-0.156-3.288V216.389c0-42.533-33.33-77.282-75.298-79.551l-4.371-0.118h-591.83c-42.533 0-77.282 33.33-79.551 75.298l-0.118 4.371v591.83c0 42.533 33.33 77.282 75.298 79.551l4.371 0.118h614.592c18.858 0 34.144 15.287 34.144 34.144 0 17.748-13.54 32.333-30.855 33.988l-3.289 0.156H215.39c-79.938 0-145.07-63.394-147.864-142.65l-0.093-5.307v-591.83c0-79.938 63.394-145.07 142.65-147.864l5.307-0.093z m296.646 159.495l3.288-0.156c17.748 0 32.333 13.54 33.988 30.855l0.156 3.289-0.014 210.987 212.24 0.004c18.857 0 34.143 15.286 34.143 34.144 0 17.747-13.54 32.333-30.855 33.987l-3.289 0.157-212.239-0.004 0.014 221.503c0 17.748-13.541 32.334-30.856 33.988l-3.288 0.156c-17.748 0-32.333-13.54-33.988-30.855l-0.156-3.289-0.014-221.503-220.251 0.004c-18.858 0-34.144-15.287-34.144-34.144 0-17.748 13.54-32.334 30.855-33.988l3.289-0.156 220.251-0.004 0.014-210.987c0-17.748 13.541-32.334 30.856-33.988l3.288-0.156-3.288 0.156z"  /></svg>