<?xml version="1.0" standalone="no"?><!DOCTYPE svg PUBLIC "-//W3C//DTD SVG 1.1//EN" "http://www.w3.org/Graphics/SVG/1.1/DTD/svg11.dtd"><svg class="icon" width="200px" height="200.00px" viewBox="0 0 1024 1024" version="1.1" xmlns="http://www.w3.org/2000/svg"><path fill="#333333" d="M524.554 119.195c-245.297 0-445.968 171.571-445.968 386.109 0 99.7 43.747 192.956 119.914 263.557l-25.682 41.99c-5.664 9.179-8.593 19.823-8.593 30.662 0.098 32.224 26.17 58.297 58.297 58.2l79.292-0.294 71.187-0.586c96.771-1.074 149.697-3.32 172.645-7.812 75.874-3.027 148.428-22.557 212.096-56.344a481.876 481.876 0 0 0 38.279-22.752 425.722 425.722 0 0 0 30.174-21.971c14.452-11.523 16.893-32.518 5.37-46.97-11.522-14.452-32.517-7.803-46.97 3.72-8.202 6.542-16.795 12.694-25.584 18.65a388.084 388.084 0 0 1-32.615 19.433c-37.107 19.53-102.825 36.521-197.253 50.876l-0.781 0.097c-2.05 0.293-4.785 0.586-8.007 0.781l-7.226 0.586c-12.597 0.88-30.174 1.563-52.634 2.246l-37.107 0.88-35.837 0.585c-25.726 0.363-74.824 0.632-147.294 0.806a9.09 9.09 0 0 1-7.64-14.05l34.317-52.708c9.01-13.838 6.048-32.254-6.846-42.57C185.483 672.261 142.81 589.552 142.81 501.57c0-175.086 174.726-323.482 385.161-323.482 210.436 0 384.67 152.814 384.67 327.803 0 21.385-2.538 42.477-7.42 63.081-4.297 17.968-2.273 35.447 15.694 39.744 17.968 4.297 36.033-6.835 40.33-24.803a336.717 336.717 0 0 0 9.283-78.608c0.091-214.538-200.677-386.109-445.974-386.109z"  /><path fill="#333333" d="M680.598 481.14H545.007V342.13c0-18.455-10.395-28.948-28.949-28.948-18.456 0-28.949 10.395-28.949 28.948v139.01H345.952c-18.456 0-28.95 10.395-28.95 28.948 0 18.456 10.396 28.95 28.95 28.95h141.157v137.74c0 18.455 10.396 28.948 28.95 28.948 18.455 0 28.948-10.395 28.948-28.949v-137.74h135.591c18.554-0.097 28.95-10.493 28.95-28.949 0-18.455-10.396-28.948-28.95-28.948z"  /></svg>