<?xml version="1.0" standalone="no"?><!DOCTYPE svg PUBLIC "-//W3C//DTD SVG 1.1//EN" "http://www.w3.org/Graphics/SVG/1.1/DTD/svg11.dtd"><svg class="icon" width="200px" height="200.00px" viewBox="0 0 1024 1024" version="1.1" xmlns="http://www.w3.org/2000/svg"><path fill="#333333" d="M507.46 63c17.932 0 34.667 13.68 36.339 31.174l0.158 3.322V925.4c0 19.052-19.445 34.496-38.496 34.496-17.931 0-34.667-13.68-36.338-31.174l-0.158-3.322-0.003-380.297-370.466 0.003c-17.93 0-32.667-18.68-34.338-36.173L64 505.61c0-17.93 13.68-33.666 31.174-35.338l3.322-0.158 370.466-0.003 0.003-372.615C468.965 78.444 488.409 63 507.46 63z m149.871 408.114H926.4c19.052 0 34.496 16.566 34.496 37 0 19.233-13.68 35.038-31.174 36.831l-3.322 0.17H657.332c-19.052 0-34.497-16.566-34.497-37 0-19.233 13.681-35.038 31.174-36.831l3.322-0.17z"  /></svg>