<?xml version="1.0" standalone="no"?><!DOCTYPE svg PUBLIC "-//W3C//DTD SVG 1.1//EN" "http://www.w3.org/Graphics/SVG/1.1/DTD/svg11.dtd"><svg class="icon" width="200px" height="200.00px" viewBox="0 0 1024 1024" version="1.1" xmlns="http://www.w3.org/2000/svg"><path fill="#333333" d="M876.706 214.506C878.242 134.34 841.416 108 768.546 108h-477.51c-80.907 0-107.21 26.34-106.36 108.308v36.561H168.59c-11.96 0-21.59 9.75-21.59 21.62v65.069c0 11.975 9.736 21.619 21.59 21.619h16.086v86.688H168.59c-11.96 0-21.59 9.75-21.59 21.62v65.069c0 11.975 9.736 21.619 21.59 21.619h16.086v86.689H168.59c-11.96 0-21.59 9.75-21.59 21.619v65.069c0 11.975 9.736 21.62 21.59 21.62h16.086v57.438c-0.85 73.78 20.192 105.387 108.16 106.506h456.132c97.71-1.12 129.274-37.995 127.632-129.927v-568.88l0.106-1.801zM742.724 678.787c0 10.704-8.679 19.394-19.368 19.394H332.522c-10.689 0-19.367-8.69-19.367-19.394v-29.673c0-35.184 61.488-69.838 106.466-91.351 44.872-21.62 62.335-19.182 62.335-36.88 0-17.804-17.886-29.991-31.115-49.173-23.706-34.548-24.976-74.501-24.976-91.881 0-98.558 79.48-110.427 96.73-110.427h10.689c17.25 0 96.73 11.869 96.73 110.427 0 17.486-1.165 57.333-24.977 91.881-13.229 19.182-31.114 31.369-31.114 49.173 0 17.592 17.462 15.155 62.334 36.88 45.084 21.513 106.467 56.167 106.467 91.351v29.673z"  /></svg>