<?xml version="1.0" encoding="UTF-8"?>
<svg width="49px" height="48px" viewBox="0 0 49 48" version="1.1" xmlns="http://www.w3.org/2000/svg" xmlns:xlink="http://www.w3.org/1999/xlink">
    <title>AddSquareOutline</title>
    <g id="AddSquareOutline" stroke="none" stroke-width="1" fill="none" fill-rule="evenodd" transform="translate(1.000000, 0.000000)">
        <g id="编组">
            <rect id="矩形" fill="#FFFFFF" opacity="0" x="0" y="0" width="48" height="48"></rect>
            <path d="M38,4 C41.3137085,4 44,6.6862915 44,10 L44,38 C44,41.3137085 41.3137085,44 38,44 L10,44 C6.6862915,44 4,41.3137085 4,38 L4,10 C4,6.6862915 6.6862915,4 10,4 L38,4 Z M38,7 L10,7 C8.40231912,7 7.09633912,8.24891996 7.00509269,9.82372721 L7,10 L7,38 C7,39.5976809 8.24891996,40.9036609 9.82372721,40.9949073 L10,41 L38,41 C39.5976809,41 40.9036609,39.75108 40.9949073,38.1762728 L41,38 L41,10 C41,8.40231912 39.75108,7.09633912 38.1762728,7.00509269 L38,7 Z M25.09995,14.4 L25.099,22 L25.099,22 L32.7,22 C32.9209139,22 33.1,22.1790861 33.1,22.4 L33.1,24.6 C33.1,24.8209139 32.9209139,25 32.7,25 L25.099,25 L25.099,25 L25.09995,32.6 C25.1000276,32.8209139 24.9209639,33.0000224 24.70005,33.00005 C24.7000333,33.00005 24.7000167,33.00005 24.7,33 L22.5,33 C22.2791056,32.99995 22.1000276,32.8208944 22.09995,32.6 L22.099,25 L22.099,25 L14.5,25 C14.2790861,25 14.1,24.8209139 14.1,24.6 L14.1,22.4 C14.1,22.1790861 14.2790861,22 14.5,22 L22.099,22 L22.099,22 L22.09995,14.4 C22.1000276,14.1791056 22.2791056,14.00005 22.5,14 L24.7,14 C24.9209139,13.99995 25.1,14.1790361 25.1,14.39995 C25.1,14.3999667 25.1,14.3999833 25.09995,14.4 Z" id="形状" fill="#333333" fill-rule="nonzero"></path>
        </g>
    </g>
</svg>