<?xml version="1.0" standalone="no"?><!DOCTYPE svg PUBLIC "-//W3C//DTD SVG 1.1//EN" "http://www.w3.org/Graphics/SVG/1.1/DTD/svg11.dtd"><svg class="icon" width="200px" height="200.00px" viewBox="0 0 1024 1024" version="1.1" xmlns="http://www.w3.org/2000/svg"><path fill="#333333" d="M883.154 825.07L672.387 693.33l0.368-0.368c-157.5-107.178-271.302-162.008-341.496-164.492C211.938 528.47 125 619.27 125 728.105c0 108.833 90.618 198.255 200.003 198.255 73.046 1.564 128.89-37.26 210.86-102.854 10.395-8.28 31.094-24.839 59.522-52.162 7.451-7.176 18.123-17.756 31.923-31.923l221.807 139.928 0.092 0.092c14.995 9.384 34.775 4.784 44.158-10.212 9.384-14.903 4.876-34.775-10.211-44.159zM483.33 780.912c-51.978 36.155-101.29 73.598-158.42 73.598-68.17 0-135.789-56.487-135.789-125.21 0-68.722 62.099-132.568 134.41-132.568 39.098 0.368 90.433 20.791 142.964 47.287 16.1 8.096 39.19 20.7 69.458 37.719 0.644 0.552 1.38 1.012 2.116 1.472l30.635 19.32c-35.787 37.626-64.306 63.754-85.374 78.382zM221.414 367.749c-17.756 0-32.2 14.444-32.2 32.2 0 17.755 14.444 32.199 32.2 32.199h262.745c2.686 0.367 5.41 0.367 8.096 0h217.207c-12.42 27.14-21.804 46.643-28.151 58.419-8.74 16.375-23.92 41.49-45.723 75.254-0.46 0.644-0.828 1.38-1.196 2.024-7.452 13.983-2.116 31.37 11.867 38.823 15.64 8.28 35.052 3.128 44.527-11.776 23.828-37.72 39.927-64.49 48.483-80.498 8.74-16.376 23.552-48.115 44.62-95.218a34.121 34.121 0 0 0 2.943-15.18c0.184-1.38 0.276-2.76 0.276-4.14 0-17.755-14.444-32.199-32.2-32.199h-234.41V263.7h234.963c17.755 0 32.199-14.444 32.199-32.2 0-17.755-14.444-32.198-32.2-32.198H520.407v-70.103c0-17.755-14.443-32.199-32.199-32.199-17.755 0-32.199 14.444-32.199 32.2v70.102H221.966c-17.756 0-32.2 14.443-32.2 32.199 0 17.755 14.444 32.199 32.2 32.199h234.042v103.957l-234.594 0.092z"  /></svg>