<?xml version="1.0" standalone="no"?><!DOCTYPE svg PUBLIC "-//W3C//DTD SVG 1.1//EN" "http://www.w3.org/Graphics/SVG/1.1/DTD/svg11.dtd"><svg class="icon" width="200px" height="200.00px" viewBox="0 0 1024 1024" version="1.1" xmlns="http://www.w3.org/2000/svg"><path fill="#333333" d="M665.9 242.7c7.1-26 16.3-53.1 25.9-64 15.8-18.2 49.8-25.5 69.6-36.9C818.8 110.1 797 43 746.2 56c-40.1 9.9-74.7 65-88.9 114.5-5.6 19.2-10.7 40.1-15.2 58.8-14.7-7.8-29.5-15.6-44.7-22.9-43.2-20.8-88.9-59.3-88.9-59.3-8.6-8.3-22.9-8.3-31 0.5 0 0-48.8 44.2-86.4 62.9-16.8 8.3-32.5 16.6-47.8 25.5-7.1-32.8-13.7-73.4-9.1-90 6.1-22.9 33.5-45.8 46.7-65 37.6-55.1-13.2-102-53.9-66.6-32 27.6-38.1 91.6-28.5 141 6.1 30.7 14.7 67.6 20.8 94.2C167 341 77.6 458.6 82.2 634.9c5.6 230.5 191 385.5 416.6 387.1C732 1023.5 922 861.8 922 624c0-176.9-108.7-295-256.1-381.3zM502.8 781.1c-94 0-170.2-78-170.2-174.3 0-96.2 76.2-174.3 170.2-174.3S673 510.6 673 606.8c0 96.3-76.2 174.3-170.2 174.3z"  /></svg>