<?xml version="1.0" standalone="no"?><!DOCTYPE svg PUBLIC "-//W3C//DTD SVG 1.1//EN" "http://www.w3.org/Graphics/SVG/1.1/DTD/svg11.dtd"><svg class="icon" width="200px" height="200.00px" viewBox="0 0 1024 1024" version="1.1" xmlns="http://www.w3.org/2000/svg"><path fill="#333333" d="M730.2 243.4c-5.9-12.5-7.2-27.1-3.9-43.7-1-4 30 0 62-40 5.9-7.4 21.2-27.4 19-49-1.2-12.3-5.6-28.5-27-35-26.1-8-56.4 14.8-74 35-22.2 25.5-28.8 52.4-31 68-1.3 9.2-2.5 18.3-3 27.9-51.2-31.8-114.8-70.6-115.4-71.4l-1.1-9c-0.9-3.3-2.3-6-4.2-8.4-2.9-3.5-4.8-6.9-11.3-10.2-6.5-3.3-8.6-3.8-17.2-4.2-5.7-0.3-12.1 2-19.1 6.6l-3.4 3-2.7 3c-4.4 7.5-5.5 9.4-5.7 10.2l-0.1 0.7-1.8 4.9c-1.8 4.2-3.9 7.9-3.4 7.5-11.1 10.8-105 64.1-151.1 92.5l-11.6 7.3-0.2 0.1c-4.2-11.4-4.9-24.5-2-39.2-1-4 30 0 62-40 5.9-7.4 21.2-27.4 19-49-1.2-12.3-5.6-28.5-27-35-26.1-8-56.4 14.8-74 35-22.2 25.5-28.8 52.4-31 68-3.9 27.3-6.8 54.7 6.1 94.1-85.5 67.9-139.2 148-155.5 252.8-1 6.4-1.8 12.9-2.5 19.5-1.9 18.4 11.4 34.8 29.8 36.8 18.4 1.9 34.8-11.4 36.8-29.8 0.6-5.5 1.3-10.9 2.1-16.3 15.5-99.6 72.5-173 167.9-237.8l2.5-1.7c25.6-16.7 116.5-68.3 157.6-96.1l8-5.6c28.6 20.6 112.4 68.5 152 92.7l9.3 5.8 6.4 4.2c112.1 76.2 172 165 172 292.6 0 185.7-150.1 330.8-339.9 330.8-84.3 0-163.3-29-224.6-80.8l-3.6-3.1c-13.9-12.1-35.1-10.7-47.2 3.2-12.1 13.9-10.7 35.1 3.2 47.2l4.3 3.7c73.3 62.1 167.6 96.7 267.8 96.7 226.2 0 406.8-174.6 406.8-397.7-0.1-152.1-72.1-259.4-200.1-346.8z"  /><path fill="#333333" d="M712.7 582.8c0-104.4-84.6-189-189.1-189-104.4 0-189.1 84.6-189.1 189s84.6 189 189.1 189c104.5 0.1 189.1-84.6 189.1-189z m-311.2 0c0-67.5 54.7-122.2 122.2-122.2s122.2 54.7 122.2 122.2S591.2 705 523.7 705s-122.2-54.7-122.2-122.2zM289.9 713c0-61.7-50-111.7-111.7-111.7S66.5 651.3 66.5 713s50 111.7 111.7 111.7 111.7-50 111.7-111.7z m-111.7 58.1c-32.1 0-58.2-26-58.2-58.2s26-58.2 58.2-58.2 58.2 26 58.2 58.2-26.1 58.2-58.2 58.2z"  /></svg>