<?xml version="1.0" encoding="UTF-8"?>
<svg width="48px" height="48px" viewBox="0 0 48 48" version="1.1" xmlns="http://www.w3.org/2000/svg" xmlns:xlink="http://www.w3.org/1999/xlink">
    <title>AppstoreOutline</title>
    <g id="AppstoreOutline" stroke="none" stroke-width="1" fill="none" fill-rule="evenodd">
        <g id="编组">
            <rect id="矩形" fill="#FFFFFF" opacity="0" x="0" y="0" width="48" height="48"></rect>
            <path d="M17,25 C20.3137085,25 23,27.6862915 23,31 L23,38 C23,41.3137085 20.3137085,44 17,44 L10,44 C6.6862915,44 4,41.3137085 4,38 L4,31 C4,27.6862915 6.6862915,25 10,25 L17,25 Z M38,25 C41.3137085,25 44,27.6862915 44,31 L44,38 C44,41.3137085 41.3137085,44 38,44 L31,44 C27.6862915,44 25,41.3137085 25,38 L25,31 C25,27.6862915 27.6862915,25 31,25 L38,25 Z M17,28 L10,28 C8.40231912,28 7.09633912,29.24892 7.00509269,30.8237272 L7,31 L7,38 C7,39.5976809 8.24891996,40.9036609 9.82372721,40.9949073 L10,41 L17,41 C18.5976809,41 19.9036609,39.75108 19.9949073,38.1762728 L20,38 L20,31 C20,29.4023191 18.75108,28.0963391 17.1762728,28.0050927 L17,28 Z M38,28 L31,28 C29.4023191,28 28.0963391,29.24892 28.0050927,30.8237272 L28,31 L28,38 C28,39.5976809 29.24892,40.9036609 30.8237272,40.9949073 L31,41 L38,41 C39.5976809,41 40.9036609,39.75108 40.9949073,38.1762728 L41,38 L41,31 C41,29.4023191 39.75108,28.0963391 38.1762728,28.0050927 L38,28 Z M17,4 C20.3137085,4 23,6.6862915 23,10 L23,17 C23,20.3137085 20.3137085,23 17,23 L10,23 C6.6862915,23 4,20.3137085 4,17 L4,10 C4,6.6862915 6.6862915,4 10,4 L17,4 Z M38,4 C41.3137085,4 44,6.6862915 44,10 L44,17 C44,20.3137085 41.3137085,23 38,23 L31,23 C27.6862915,23 25,20.3137085 25,17 L25,10 C25,6.6862915 27.6862915,4 31,4 L38,4 Z M17,7 L10,7 C8.40231912,7 7.09633912,8.24891996 7.00509269,9.82372721 L7,10 L7,17 C7,18.5976809 8.24891996,19.9036609 9.82372721,19.9949073 L10,20 L17,20 C18.5976809,20 19.9036609,18.75108 19.9949073,17.1762728 L20,17 L20,10 C20,8.40231912 18.75108,7.09633912 17.1762728,7.00509269 L17,7 Z M38,7 L31,7 C29.4023191,7 28.0963391,8.24891996 28.0050927,9.82372721 L28,10 L28,17 C28,18.5976809 29.24892,19.9036609 30.8237272,19.9949073 L31,20 L38,20 C39.5976809,20 40.9036609,18.75108 40.9949073,17.1762728 L41,17 L41,10 C41,8.40231912 39.75108,7.09633912 38.1762728,7.00509269 L38,7 Z" id="形状结合" fill="#333333" fill-rule="nonzero"></path>
        </g>
    </g>
</svg>