<?xml version="1.0" standalone="no"?><!DOCTYPE svg PUBLIC "-//W3C//DTD SVG 1.1//EN" "http://www.w3.org/Graphics/SVG/1.1/DTD/svg11.dtd"><svg class="icon" width="200px" height="200.00px" viewBox="0 0 1024 1024" version="1.1" xmlns="http://www.w3.org/2000/svg"><path fill="#333333" d="M789.12 259.306L547.006 120.958a75.588 75.588 0 0 0-75.003 0L229.945 259.269c-17.398 9.941-23.443 32.104-13.502 49.503a36.282 36.282 0 0 0 13.561 13.535l261.618 148.838a36.282 36.282 0 0 0 35.883 0L789.06 322.344c17.417-9.909 23.503-32.06 13.595-49.477a36.282 36.282 0 0 0-13.535-13.561z m34.656 113.168L558.548 523.365a36.282 36.282 0 0 0-18.342 31.536V861.72c0 20.038 16.245 36.282 36.283 36.282a36.282 36.282 0 0 0 18-4.78l265.23-151.555A36.282 36.282 0 0 0 878 710.163V404.01c0-20.039-16.244-36.283-36.282-36.283a36.282 36.282 0 0 0-17.942 4.747zM141 403.937v306.225a36.282 36.282 0 0 0 18.282 31.503l265.225 151.55c17.398 9.941 39.561 3.897 49.503-13.502a36.282 36.282 0 0 0 4.78-18V554.825a36.282 36.282 0 0 0-18.341-31.536L195.223 372.401c-17.416-9.91-39.568-3.822-49.477 13.594A36.282 36.282 0 0 0 141 403.937z"  /></svg>