<?xml version="1.0" standalone="no"?><!DOCTYPE svg PUBLIC "-//W3C//DTD SVG 1.1//EN" "http://www.w3.org/Graphics/SVG/1.1/DTD/svg11.dtd"><svg class="icon" width="200px" height="200.00px" viewBox="0 0 1024 1024" version="1.1" xmlns="http://www.w3.org/2000/svg"><path fill="#333333" d="M838.4 248L586.1 100.4c-46.1-27-103-27-149.2 0L184.5 248c-46.1 27-74.4 76.7-74.4 130.5v295.2c0 53.8 28.4 103.6 74.4 130.5l252.3 147.6c46.2 27 103 27 149.2 0l252.3-147.6c46.1-26.9 74.4-76.7 74.4-130.5V378.6c0.1-53.9-28.2-103.6-74.3-130.6zM168.6 378.5c0-33.2 17.4-63.8 45.7-80.4l251.6-147.3c28.2-16.5 62.9-16.5 91.1 0L700.7 235 265 489.9l-96.4-56.4v-55z m337 37.5l194.7 113.9-183.4 107.3-194.7-113.9L505.6 416zM214.3 753.5c-28.3-16.5-45.7-47.2-45.7-80.4V500.4l291.1 170.3-193.5 113.2-51.9-30.4z m640-80.4c0 33.2-17.4 63.8-45.7 80.4L557 900.8c-28.2 16.5-62.9 16.5-91.1 0l-142.6-83.5 434.2-254 96.8 56.6v53.2z m0-120l-83.2-48.7-208.3-121.8 195.1-114.1 50.7 29.7c28.3 16.5 45.7 47.2 45.7 80.4v174.5z"  /></svg>