<?xml version="1.0" encoding="UTF-8"?>
<svg width="48px" height="48px" viewBox="0 0 48 48" version="1.1" xmlns="http://www.w3.org/2000/svg" xmlns:xlink="http://www.w3.org/1999/xlink">
    <title>AudioMutedOutline</title>
    <g id="AudioMutedOutline" stroke="none" stroke-width="1" fill="none" fill-rule="evenodd">
        <g id="编组">
            <rect id="矩形" fill="#FFFFFF" opacity="0" x="0" y="0" width="48" height="48"></rect>
            <path d="M5.97683336,8 L9.06182828,8 C9.16806659,8 9.26994083,8.04226303 9.3449804,8.11746704 L31.2462039,30.0666863 L31.2462039,30.0666863 L33.7149574,32.543514 L35.8344657,34.6626474 L35.8315781,34.6656175 L41.4655309,40.3176097 C41.6214907,40.4740689 41.6210859,40.7273346 41.4646267,40.8832944 C41.3896493,40.9580326 41.2881015,41 41.1822365,41 L38.0796588,41 C37.9733596,41 37.8714321,40.9576886 37.7963826,40.8824085 C36.6475633,39.7300595 35.4987439,38.5777104 34.3499246,37.4253614 C34.1705552,37.2454408 33.901501,36.97556 33.542762,36.6157188 C33.1825137,36.86035 32.9094464,37.0397132 32.72356,37.1538085 C30.7000583,38.3958144 28.3791464,39.1988149 25.8928037,39.4305578 L25.8922673,43.6 C25.8921874,43.8208938 25.7131096,43.9999485 25.4922158,44 L23.2984012,44 C23.0774873,44.0000106 22.8984012,43.8209245 22.8984012,43.6000106 C22.8984012,43.6000071 22.8984012,43.6000035 22.8984119,43.6 L22.8985229,39.430624 L22.8985229,39.430624 C15.2471445,38.7178102 9.16226478,32.5951144 8.49002403,24.9166231 C8.47907938,24.7916108 8.46800557,24.6270088 8.45680258,24.4228173 C8.44458624,24.2021801 8.61363944,24.0134998 8.83428274,24.0013942 C8.84158106,24.0009938 8.84888898,24.0007934 8.85619828,24.0007934 C9.0611782,24.0007915 9.22691587,24.00079 9.35341129,24.0007889 C9.59156844,24.0007867 9.89113475,24.000784 10.2521102,24.0007808 C10.4236909,24.0007792 10.6916229,24.0007768 11.0559063,24.0007735 C11.2662506,24.000844 11.4406456,24.1637814 11.4549161,24.373641 C11.4744362,24.6607009 11.4939907,24.8867448 11.5135798,25.0517725 C12.2789866,31.4999409 17.7544383,36.5 24.3953085,36.5 C26.6485015,36.5 28.7675328,35.9243985 30.6139531,34.9119307 C30.7892925,34.8157849 31.0466371,34.6628359 31.3859867,34.4530836 C31.0950052,34.1611123 30.876769,33.9421338 30.7312783,33.7961481 C30.4134218,33.4772103 29.9755782,33.0378773 29.4177474,32.4781489 C29.3303334,32.3904376 29.2046347,32.2643113 29.0406513,32.0997701 C28.919608,31.9781472 28.7344699,31.9473725 28.580537,32.0231899 C28.3938483,32.1151407 28.2441636,32.1853491 28.1314829,32.2338149 C26.9850205,32.726928 25.7219884,33 24.3953085,33 C19.1594211,33 14.9148957,28.7467051 14.9148957,23.5 C14.9145754,21.6337201 14.9143352,20.2340101 14.9141751,19.3008702 C14.9141062,18.8993426 14.9140373,18.497815 14.9139684,18.0962875 C14.9139502,17.9904363 14.8719764,17.888908 14.7972428,17.8139457 L14.21483,17.2297511 L14.21483,17.2297511 L5.69355898,8.68241038 C5.53758803,8.52596226 5.53797486,8.27269657 5.69442298,8.11672562 C5.7694021,8.04197518 5.87095845,8 5.97683336,8 Z M40.3301475,24.4256541 C40.3024773,24.869714 40.2735915,25.2151025 40.24349,25.4618197 C39.9865609,27.5676594 39.3213489,29.5470807 38.3295985,31.3181799 C38.2481691,31.4635991 38.1357087,31.6524911 37.9922175,31.884856 C37.8761809,32.0728824 37.6296724,32.1311709 37.4416793,32.0150804 C37.4151714,31.9987111 37.3906663,31.9793014 37.3686622,31.9572458 C37.2358157,31.8240887 37.1310776,31.7191058 37.054448,31.642297 C36.6416104,31.2284943 36.3116088,30.8977211 36.064443,30.6499775 C35.9897835,30.5751435 35.8906168,30.4757449 35.7669427,30.3517816 C35.6406676,30.2252983 35.613674,30.0303916 35.7007673,29.8743205 C35.8410122,29.6230019 35.9476914,29.4236031 36.0208048,29.2761242 C36.6696767,27.9672699 37.1049051,26.5332819 37.2807724,25.0199725 C37.2991179,24.8621121 37.3174951,24.6467663 37.3359039,24.3739353 C37.3499825,24.1638957 37.5244856,24.0007701 37.7349965,24.0007701 C37.9432975,24.0007701 38.1106512,24.0007701 38.2370576,24.0007701 C38.4931157,24.0007701 38.8188393,24.0007701 39.214229,24.0007701 C39.3718861,24.0007701 39.6107435,24.0007701 39.9308011,24.0007701 C40.1517818,24.0006491 40.3309221,24.1797894 40.3309221,24.4007701 C40.3309221,24.4090708 40.3306638,24.4173695 40.3301475,24.4256541 Z M17.9079932,20.934 C17.9081409,21.4625912 17.9082517,21.8590345 17.9083256,22.1233301 C17.9084111,22.4292568 17.9085393,22.8881467 17.9087103,23.5 C17.9087103,27.0898509 20.8128592,30 24.3953085,30 C24.8723536,30 25.337371,29.9483971 25.785105,29.850458 C25.9643911,29.8112402 26.2267051,29.736077 26.5720472,29.6249685 C26.2311566,29.2830189 25.9754887,29.0265568 25.8050434,28.855582 C24.1984728,27.2440207 21.856513,24.8947856 18.7791639,21.807877 C18.5897495,21.6178742 18.2993593,21.3265818 17.9079932,20.934 Z M24.3953085,4 C29.6311959,4 33.8757213,8.25329488 33.8757213,13.5 L33.8757213,23.5 C33.8757213,24.5920568 33.6918363,25.6410763 33.353401,26.6176631 C33.3173617,26.7216578 33.2686637,26.8491074 33.2073071,27.0000121 C33.1241533,27.2047228 32.8907599,27.3031859 32.6860771,27.2199634 C32.6364478,27.1997845 32.591377,27.1698433 32.5535384,27.1319159 C32.4393826,27.0174925 32.3472281,26.9251218 32.2770747,26.8548039 C31.78887,26.3654541 31.4008762,25.9765504 31.1130934,25.6880927 C31.0385245,25.6133489 30.936879,25.511465 30.8081569,25.382441 C30.7110871,25.2850701 30.670784,25.1446802 30.7014729,25.0106584 C30.7569957,24.7681845 30.7948377,24.5769865 30.814999,24.4370646 C30.8482749,24.2061258 30.8694349,23.9712597 30.8778122,23.7331341 L30.8819067,23.5 L30.8819067,13.5 C30.8819067,9.91014913 27.9777578,7 24.3953085,7 C21.4517592,7 18.9661457,8.96470688 18.1731905,11.656847 C18.1591165,11.7046294 18.1444919,11.7589432 18.1293169,11.8197882 C18.0758565,12.0341353 17.8587563,12.1645608 17.644409,12.1111015 C17.5738508,12.093504 17.5094248,12.0570046 17.4580597,12.0055289 C17.4307077,11.978118 17.4058475,11.9532043 17.3834791,11.9307877 C16.8680399,11.4142388 16.4618574,11.0071818 16.1649316,10.7096168 C16.060881,10.6053422 15.9175552,10.4617078 15.7349541,10.2787136 C15.6194686,10.1629129 15.5860709,9.98847761 15.6506573,9.83822685 C15.7954163,9.50146626 15.9147675,9.24405933 16.0087107,9.06600607 C17.5983648,6.05309109 20.7575685,4 24.3953085,4 Z" id="形状" fill="#333333" fill-rule="nonzero"></path>
        </g>
    </g>
</svg>