<?xml version="1.0" encoding="UTF-8"?>
<svg width="48px" height="48px" viewBox="0 0 48 48" version="1.1" xmlns="http://www.w3.org/2000/svg" xmlns:xlink="http://www.w3.org/1999/xlink">
    <title>BellOutline</title>
    <g id="BellOutline" stroke="none" stroke-width="1" fill="none" fill-rule="evenodd">
        <g id="编组">
            <rect id="矩形" fill="#FFFFFF" opacity="0" x="0" y="0" width="48" height="48"></rect>
            <path d="M7,38 L7.00004975,37.9645627 C5.30387842,37.7219693 4,36.2632532 4,34.5 L4,32.6568542 C4,31.5959883 4.42142736,30.5785726 5.17157288,29.8284271 L7,28 L7,21 C7,11.6111593 14.6111593,4 24,4 C33.3888407,4 41,11.6111593 41,21 L41,28 L42.8284271,29.8284271 C43.5785726,30.5785726 44,31.5959883 44,32.6568542 L44,34.5 C44,36.2629068 42.6966339,37.7213961 41.0009499,37.9644196 L41,38 L30.9290789,38.0002251 C30.4437524,41.3924095 27.5263939,44 24,44 C20.4736061,44 17.5562476,41.3924095 17.0709211,38.0002251 L7,38 Z M27.8737446,38.0009238 L20.125,38 L20.1799062,38.189716 C20.6864262,39.8178673 22.2051622,41 24,41 C25.794488,41 27.3129817,39.8183281 27.8197974,38.1906681 L27.8737446,38.0009238 Z M24,7 C16.3724998,7 10.1696731,13.0997524 10.003422,20.687355 L10,21 L10,29.0769553 C10,29.1830419 9.95785726,29.2847834 9.88284271,29.359798 L7.29289322,31.9497475 L7.29289322,31.9497475 C7.1366129,32.1060278 7.03740171,32.3087092 7.00867243,32.5254103 L7,32.6568542 L7,34.5 C7,34.7178229 7.14158244,34.9070074 7.33767609,34.9738837 L7.4247998,34.9947837 L7.466,35 L40.533,35 L40.5753422,34.9947633 C40.7851759,34.9646902 40.9529292,34.7989963 40.9915889,34.5913076 L41,34.5 L41,32.6568542 C41,32.4358405 40.9268355,32.2223702 40.7939194,32.0488247 L40.7071068,31.9497475 L38.1171573,29.359798 C38.0421427,29.2847834 38,29.1830419 38,29.0769553 L38,21 C38,13.2680135 31.7319865,7 24,7 Z" id="形状" fill="#333333" fill-rule="nonzero"></path>
        </g>
    </g>
</svg>