<?xml version="1.0" standalone="no"?><!DOCTYPE svg PUBLIC "-//W3C//DTD SVG 1.1//EN" "http://www.w3.org/Graphics/SVG/1.1/DTD/svg11.dtd"><svg class="icon" width="200px" height="200.00px" viewBox="0 0 1024 1024" version="1.1" xmlns="http://www.w3.org/2000/svg"><path fill="#333333" d="M648.1 477.9l3.3-0.2c17.3-1.7 30.9-16.2 30.9-34 0-18.9-15.3-34.1-34.1-34.1h-100c1.5-1.7 3-3.5 4.4-5.4l66-88 1.8-2.7c9.1-14.8 5.5-34.4-8.7-45.1-15.1-11.3-36.5-8.3-47.8 6.8l-66 88-1.1 1.2-1.2 1.1c-5 3.8-12.2 2.8-15.9-2.3l-66-88-2.1-2.5c-11.7-12.9-31.5-14.9-45.7-4.3-15.1 11.3-18.1 32.7-6.8 47.8l66 88 2.1 2.7 2.2 2.6h-100l-3.3 0.2c-17.3 1.7-30.9 16.2-30.9 34 0 18.9 15.3 34.1 34.1 34.1h125.2v79.7H329.4l-3.3 0.2c-17.3 1.7-30.9 16.2-30.9 34 0 18.9 15.3 34.1 34.1 34.1h125.2v113.8l0.2 3.3c1.7 17.3 16.2 30.9 34 30.9l3.3-0.2c17.3-1.7 30.9-16.2 30.9-34V625.8h125.2l3.3-0.2c17.3-1.7 30.9-16.2 30.9-34 0-18.9-15.3-34.1-34.1-34.1H522.9v-79.7h125.2z"  /><path fill="#333333" d="M898.5 341.3h-11.4V204.7c0-81.7-66.2-148-148-148H238.4c-81.7 0-148 66.2-148 148v614.6c0 81.7 66.2 148 148 148H772c18.9 0 34.1-15.3 34.1-34.1 0-18.9-15.3-34.1-34.1-34.1H238.4c-44 0-79.7-35.7-79.7-79.7V204.7c0-44 35.7-79.7 79.7-79.7h500.8c44 0 79.7 35.7 79.7 79.7v541.2c0 18.9 15.3 34.1 34.1 34.1 18.9 0 34.1-15.3 34.1-34.1V614.4h11.4c25.1 0 45.5-20.4 45.5-45.5V386.8c0-25.1-20.4-45.5-45.5-45.5z"  /></svg>