<?xml version="1.0" standalone="no"?><!DOCTYPE svg PUBLIC "-//W3C//DTD SVG 1.1//EN" "http://www.w3.org/Graphics/SVG/1.1/DTD/svg11.dtd"><svg class="icon" width="200px" height="200.00px" viewBox="0 0 1024 1024" version="1.1" xmlns="http://www.w3.org/2000/svg"><path fill="#333333" d="M869.4 63.7H155.6c-67.8 0-122.7 54.9-122.7 122.7v157.1c0.5 30.4 25.3 54.8 55.8 54.8h55.8v446.1c0 79.6 192.2 133.8 368.1 133.8 100.5 0 193.6-15.5 279.1-46.6 17.4-6.3 26.3-25.5 20-42.9s-25.5-26.3-42.9-20c-78 28.4-163.4 42.6-256.3 42.6-68.3 0-148.9-11.2-212.6-29.1-31.1-8.8-56.4-18.7-73.1-28.6-7.3-4.3-12.4-8.4-15.2-11.5l-0.3-0.3v-555h602.3v418.6c0 18.5 15 33.5 33.5 33.5s33.5-15 33.5-33.5V398.3h55.8c30.8 0 55.8-25 55.8-55.8V186.4c-0.1-67.7-55-122.7-122.8-122.7z m55.8 267.7h-44.6V219.9H144.4v111.5H99.8v-145c0-30.8 25-55.8 55.8-55.8h713.8c30.8 0 55.8 25 55.8 55.8v145z"  /><path fill="#333333" d="M646.3 587.4l3.2-0.2c17-1.6 30.2-15.9 30.2-33.3 0-18.5-15-33.5-33.5-33.5h-73.4c0.6-0.7 1.1-1.4 1.7-2.1l50.6-66.3 1.8-2.7c9-14.5 5.7-33.7-8.1-44.2-14.7-11.2-35.7-8.4-46.9 6.3l-50.6 66.3-1 1.1-1.1 1c-4.9 3.7-11.9 2.8-15.6-2.1L453 411.4l-2-2.4c-11.6-12.5-31-14.4-44.8-3.8-14.7 11.2-17.5 32.2-6.3 46.9l50.6 66.3 1.7 2.1h-73.4l-3.2 0.2c-17 1.6-30.2 15.9-30.2 33.3 0 18.5 15 33.5 33.5 33.5h100.4v55.2H378.9l-3.2 0.2c-17 1.6-30.2 15.9-30.2 33.3 0 18.5 15 33.5 33.5 33.5h100.4V789l0.2 3.2c1.6 17 15.9 30.2 33.3 30.2l3.2-0.2c17-1.6 30.2-15.9 30.2-33.3v-79.3h100.4l3.2-0.2c17-1.6 30.2-15.9 30.2-33.3 0-18.5-15-33.5-33.5-33.5H546.2v-55.2h100.1z"  /></svg>