<?xml version="1.0" encoding="UTF-8"?>
<svg width="48px" height="48px" viewBox="0 0 48 48" version="1.1" xmlns="http://www.w3.org/2000/svg" xmlns:xlink="http://www.w3.org/1999/xlink">
    <title>CalendarOutline</title>
    <g id="CalendarOutline" stroke="none" stroke-width="1" fill="none" fill-rule="evenodd">
        <g id="编组">
            <rect id="矩形" fill="#FFFFFF" opacity="0" x="0" y="0" width="48" height="48"></rect>
            <path d="M18,4.4 L18,7 L18,7 L30,7 L30,4.4 C30,4.1790861 30.1790861,4 30.4,4 L32.6,4 C32.8209139,4 33,4.1790861 33,4.4 L33,7 L33,7 L37,7 C40.3137085,7 43,9.6862915 43,13 L43,38 C43,41.3137085 40.3137085,44 37,44 L11,44 C7.6862915,44 5,41.3137085 5,38 L5,13 C5,9.6862915 7.6862915,7 11,7 L15,7 L15,4.4 C15,4.1790861 15.1790861,4 15.4,4 L17.6,4 C17.8209139,4 18,4.1790861 18,4.4 Z M40,20 L8,20 L8,38 C8,39.5976809 9.24891996,40.9036609 10.8237272,40.9949073 L11,41 L37,41 C38.5976809,41 39.9036609,39.75108 39.9949073,38.1762728 L40,38 L40,20 Z M15,10 L11,10 C9.40231912,10 8.09633912,11.24892 8.00509269,12.8237272 L8,13 L8,17 L40,17 L40,13 C40,11.4023191 38.75108,10.0963391 37.1762728,10.0050927 L37,10 L33,10 L33,12.6 C33,12.8209139 32.8209139,13 32.6,13 L30.4,13 C30.1790861,13 30,12.8209139 30,12.6 L30,10 L30,10 L18,10 L18,12.6 C18,12.8209139 17.8209139,13 17.6,13 L15.4,13 C15.1790861,13 15,12.8209139 15,12.6 L15,10 L15,10 Z" id="形状" fill="#333333" fill-rule="nonzero"></path>
        </g>
    </g>
</svg>