<?xml version="1.0" encoding="UTF-8"?>
<svg width="48px" height="48px" viewBox="0 0 48 48" version="1.1" xmlns="http://www.w3.org/2000/svg" xmlns:xlink="http://www.w3.org/1999/xlink">
    <title>CameraOutline</title>
    <g id="CameraOutline" stroke="none" stroke-width="1" fill="none" fill-rule="evenodd">
        <g id="编组">
            <rect id="矩形" fill="#FFFFFF" opacity="0" x="0" y="0" width="48" height="48"></rect>
            <path d="M29.7352369,5 L29.7352369,5 C30.8779691,5 31.9107146,5.6794308 32.3609512,6.72709926 L33.6600003,9.74999944 L38.2857146,9.74999944 L38.2857143,9.74999944 C41.441625,9.74999931 44,12.301973 44,15.449997 L44,37.3000024 L44,37.3000024 C44,40.448022 41.441625,43 38.2857143,43 L9.71428593,43 L9.71428568,43 C6.55837498,43 4,40.448022 4,37.3000024 C4,37.3000024 4,37.3000024 4,37.3000024 L4,15.449997 L4,15.4499979 C4,12.3019783 6.55837052,9.7500003 9.71428568,9.7500003 L14.3399999,9.7500003 L15.639049,6.72710012 L15.6390488,6.72710065 C16.0892854,5.67942774 17.1220309,5 18.2647631,5 L29.7352541,5 L29.7352369,5 Z M29.6874418,8 L18.3125379,8 L16.2885949,12.7058932 L9.8333318,12.7058932 L9.83333193,12.7058932 C8.33302878,12.7058098 7.09273709,13.8712377 7.00472224,15.3637716 L7,15.5294187 L7,37.1764725 L7,37.1766294 C7,38.6717398 8.16954247,39.9076725 9.66726906,39.9953033 L9.83333427,40 L38.1666681,40 L38.1666681,40 C39.6669712,40 40.9072629,38.8346555 40.9952778,37.3421215 L41,37.1764745 L41,15.5294206 L41,15.5292634 C41,14.034153 39.8304575,12.7982203 38.3327309,12.7105895 L38.1666662,12.7058928 L31.711403,12.7058928 L29.68746,8 L29.6874418,8 Z M24.5,16 C29.7468582,16 34,20.2531552 34,25.5 C34,30.7468582 29.7468448,35 24.5,35 C19.2531418,35 15,30.7468448 15,25.5 C15,20.2531418 19.2531552,16 24.5,16 Z M24.5,19 L24.5,19 C20.9101422,19 18,21.9101552 18,25.5 C18,29.0898579 20.9101552,32 24.5,32 L24.5,32 C28.0898578,32 31,29.0898448 31,25.5 C31,21.9101421 28.0898448,19 24.5,19 L24.5,19 Z M36.5,15 L36.5,15 C37.3284266,15 38,15.6715734 38,16.5 C38,17.3284266 37.3284266,18 36.5,18 L36.5,18 C35.6715734,18 35,17.3284266 35,16.5 C35,15.6715734 35.6715734,15 36.5,15 L36.5,15 Z" id="形状" fill="#333333" fill-rule="nonzero"></path>
        </g>
    </g>
</svg>