<?xml version="1.0" standalone="no"?><!DOCTYPE svg PUBLIC "-//W3C//DTD SVG 1.1//EN" "http://www.w3.org/Graphics/SVG/1.1/DTD/svg11.dtd"><svg class="icon" width="200px" height="200.00px" viewBox="0 0 1024 1024" version="1.1" xmlns="http://www.w3.org/2000/svg"><path fill="#333333" d="M662 839.1L377.1 150.3l-0.2-0.5c-6.7-15.5-23-24-39.1-21.3h-0.1c-14.6-0.5-28.6 8-34.5 22.2l-284.5 688c-0.1 0.2-0.1 0.4-0.2 0.5-7.3 18.5 1.8 39.4 20.3 46.7l3.5 1.4c18.3 7.2 39-1.6 46.5-19.7l54.6-132.1h393.8L592 868l0.2 0.5c7.7 17.8 28.2 26.3 46.3 19.2l3.5-1.4 0.6-0.2c18.1-7.5 26.9-28.2 19.7-46.5-0.1-0.1-0.2-0.3-0.3-0.5zM171.5 667.5l168.8-408.1 168.8 408.1H171.5zM1004 850.2c-0.1-0.2-0.1-0.3-0.2-0.5L818.4 404.3l-0.2-0.4c-6.4-14.7-21.8-22.9-37.1-20.5h-0.2c-14.6-1.2-28.8 7.1-34.7 21.2L636 669.4l46.6 111.2h218.6l39.3 94.3 0.2 0.5c7.4 17.1 27.2 25.3 44.6 18.4 17.2-6.8 25.6-26.3 18.7-43.6zM690.7 715.5l91.7-220.3 91.7 220.3H690.7z"  /></svg>