<?xml version="1.0" standalone="no"?><!DOCTYPE svg PUBLIC "-//W3C//DTD SVG 1.1//EN" "http://www.w3.org/Graphics/SVG/1.1/DTD/svg11.dtd"><svg class="icon" width="200px" height="200.00px" viewBox="0 0 1024 1024" version="1.1" xmlns="http://www.w3.org/2000/svg"><path fill="#333333" d="M873.2 209.4L536.7 95.1c-16-5.4-33.3-5.4-49.3 0L150.8 209.4c-17.2 5.8-27.9 23-25.5 40.9l59.2 440.1c11 77.3 104.1 153.5 279.3 228.8l18.7 7.9c18.8 7.8 40 7.8 58.9 0l18.7-7.9c175.1-75.3 268.2-151.6 279.3-228.8l59.2-440.1c2.5-17.9-8.2-35.1-25.4-40.9zM724.6 436.7L493.4 663.2 471 685.1c-12.4 12.2-32.3 12.2-44.8 0L314.4 575.5l-0.5-0.5c-11.8-12.1-11.6-31.5 0.5-43.4 12.4-12.2 32.3-12.2 44.8 0l81.5 79.8c4.4 4.3 11.5 4.3 16 0L680 392.8c12.4-12.2 32.3-12.2 44.8 0 0.2 0.1 0.3 0.3 0.5 0.5 11.6 12.2 11.4 31.6-0.7 43.4z"  /></svg>