<?xml version="1.0" standalone="no"?><!DOCTYPE svg PUBLIC "-//W3C//DTD SVG 1.1//EN" "http://www.w3.org/Graphics/SVG/1.1/DTD/svg11.dtd"><svg class="icon" width="200px" height="200.00px" viewBox="0 0 1024 1024" version="1.1" xmlns="http://www.w3.org/2000/svg"><path fill="#333333" d="M873.2 209.4L536.7 95.1c-16-5.4-33.3-5.4-49.3 0L150.8 209.4c-17.2 5.8-27.9 23-25.5 40.9l59.2 440.1c11 77.3 104.1 153.5 279.3 228.8l18.7 7.9c18.8 7.8 40 7.8 58.9 0l18.7-7.9c175.1-75.3 268.2-151.6 279.3-228.8l59.2-440.1c2.5-17.9-8.2-35.1-25.4-40.9zM512.3 752h-0.6c-17.3 0-31.4-14-31.4-31.2s14.1-31.2 31.4-31.2l3.3 0.1c16.1 1.4 28.7 14.8 28.7 31.1 0 17.2-14.1 31.2-31.4 31.2z m31.4-156.3c0 17.4-14.2 31.5-31.7 31.5s-31.7-14.1-31.7-31.5V305.3c0-17.4 14.2-31.5 31.7-31.5s31.7 14.1 31.7 31.5v290.4z"  /></svg>