<?xml version="1.0" standalone="no"?><!DOCTYPE svg PUBLIC "-//W3C//DTD SVG 1.1//EN" "http://www.w3.org/Graphics/SVG/1.1/DTD/svg11.dtd"><svg class="icon" width="200px" height="200.00px" viewBox="0 0 1024 1024" version="1.1" xmlns="http://www.w3.org/2000/svg"><path fill="#333333" d="M512 122.3c-251.2 0-456.7 171.6-456.7 386 0 99.6 44.8 192.9 122.8 263.4l-26.3 42c-5.8 9.2-8.8 19.8-8.8 30.6 0.1 32.2 26.8 58.3 59.7 58.2l81.2-0.3 72.9-0.6c99.1-1.1 153.3-3.3 176.8-7.8 77.7-3 152-22.5 217.2-56.3 13.5-7 26.6-14.6 39.2-22.8 10.7-6.9 21-14.3 30.9-22 14.8-11.5 17.3-32.5 5.5-47s-33.3-16.9-48.1-5.4c-8.4 6.5-17.2 12.7-26.2 18.6-10.7 6.9-21.9 13.4-33.4 19.4-56.8 29.4-121.9 46.4-190.2 48.7l-7.6 0.3-4 2-0.8 0.1c-2.1 0.3-4.9 0.6-8.2 0.8l-7.4 0.5c-12.9 0.9-30.9 1.6-53.9 2.2l-38 0.9-36.7 0.6c-42.5 0.6-93.6 0.9-153.4 1.1l49-78.3-23.6-18.2c-76.4-60.1-120.1-142.7-120.1-230.7 0-175 172.7-319.1 388.2-319.1s388.2 144.1 388.2 319.1c0 21.4-2.6 42.5-7.6 63.1-4.4 18 7 36 25.4 40.3 18.4 4.3 36.9-6.8 41.3-24.8 6.3-25.7 9.5-52 9.5-78.6 0-214.4-205.6-386-456.8-386z"  /><path fill="#333333" d="M686.5 463c-19 0-34.4 15.4-34.4 34.4s15.4 34.4 34.4 34.4h25.2c19 0 34.4-15.4 34.4-34.4S730.7 463 711.7 463h-25.2zM499.4 463c-19 0-34.4 15.4-34.4 34.4s15.4 34.4 34.4 34.4h25.2c19 0 34.4-15.4 34.4-34.4S543.7 463 524.6 463h-25.2zM318.8 463c-19 0-34.4 15.4-34.4 34.4s15.4 34.4 34.4 34.4H344c19 0 34.4-15.4 34.4-34.4S363 463 344 463h-25.2z"  /></svg>