<?xml version="1.0" standalone="no"?><!DOCTYPE svg PUBLIC "-//W3C//DTD SVG 1.1//EN" "http://www.w3.org/Graphics/SVG/1.1/DTD/svg11.dtd"><svg class="icon" width="200px" height="200.00px" viewBox="0 0 1024 1024" version="1.1" xmlns="http://www.w3.org/2000/svg"><path fill="#333333" d="M525.8 103C278.5 103 78 274.3 78 485.7c0 109.8 54.1 208.8 140.9 278.6l-44 71.8c-2.6 4.3-4 9.2-4 14.2 0 14.9 12.1 27 26.9 27 219.6-0.4 243.3 0 345.9-9 0.2 0 147-15.4 227.3-50.3 80.2-42 105.8-61.7 154.2-134.3 47.4-71.1 48.4-167.8 48.4-196.4v-1.7c0-211.3-200.5-382.6-447.8-382.6zM384.2 479.1c0 17.7-14.4 32.1-32.1 32.1h-35.6c-17.7 0-32.1-14.4-32.1-32.1v-10.6c0-17.7 14.4-32.1 32.1-32.1h35.6c17.7 0 32.1 14.4 32.1 32.1v10.6z m191.5-0.2v0.5c-0.3 17.6-14.7 31.8-32.3 31.8h-35.6c-17.6-0.3-31.8-14.7-31.8-32.3v-10.6c0.3-17.6 14.7-31.8 32.3-31.8h35.1c17.9 0 32.3 14.5 32.3 32.3v10.1z m198.3 0v0.5c-0.3 17.6-14.7 31.8-32.3 31.8h-35.6c-17.6-0.3-31.8-14.7-31.8-32.3v-10.6c0.3-17.6 14.7-31.8 32.3-31.8h35.1c17.9 0 32.3 14.5 32.3 32.3v10.1z"  /></svg>