<?xml version="1.0" standalone="no"?><!DOCTYPE svg PUBLIC "-//W3C//DTD SVG 1.1//EN" "http://www.w3.org/Graphics/SVG/1.1/DTD/svg11.dtd"><svg class="icon" width="200px" height="200.00px" viewBox="0 0 1024 1024" version="1.1" xmlns="http://www.w3.org/2000/svg"><path fill="#333333" d="M512 82C274.5 82 82 274.6 82 512s192.6 430 430 430 430-192.5 430-430S749.5 82 512 82z m206.5 325.9L494 632.4l-7.2 7.2c-20 20-52.4 20-72.4 0l-94.1-94.1c-12-12-12-31.4 0-43.4s31.4-12 43.4 0l68.8 68.8c10 10 26.2 10 36.2 0L675 364.5c12-12 31.4-12 43.4 0s12 31.4 0.1 43.4z"  /></svg>