<?xml version="1.0" encoding="UTF-8"?>
<svg width="48px" height="48px" viewBox="0 0 48 48" version="1.1" xmlns="http://www.w3.org/2000/svg" xmlns:xlink="http://www.w3.org/1999/xlink">
    <title>CheckShieldOutline</title>
    <g id="CheckShieldOutline" stroke="none" stroke-width="1" fill="none" fill-rule="evenodd">
        <g id="编组">
            <rect id="矩形" fill="#FFFFFF" opacity="0" x="0" y="0" width="48" height="48"></rect>
            <path d="M23.5828113,4.01694873 L39.8608414,7.3485224 C41.6942831,7.74819585 43,9.35541667 43,11.212546 L43,29.7608837 C43,32.637301 41.4221454,35.2872082 38.8789667,36.681899 L25.4394833,43.5037686 C24.2329985,44.1654105 22.7670015,44.1654105 21.5605167,43.5037686 L9.12103331,36.681899 C6.57785456,35.2872082 5,32.637301 5,29.7608837 L5,11.212546 C5,9.35541667 6.30571695,7.74819585 8.1391586,7.3485224 L23.4174116,4.01800352 C23.4718692,4.00613226 23.5282067,4.00577298 23.5828113,4.01694873 Z M23.417495,7.05577718 L8.78478965,10.2465401 C8.36462594,10.3381319 8.05532106,10.6833926 8.00668805,11.0979156 L8,11.212546 L8,29.7608837 C8,31.3482043 9.62086939,32.8251594 11.0260387,33.7491918 L11.3717744,33.9684245 L11.5756458,34.0865183 L23.0151292,40.9083879 C23.2790477,41.053122 23.5926385,41.0712138 23.8689752,40.9626632 L23.9848708,40.9083879 L37.4243542,34.0865183 C38.9447328,33.2527357 39.9131065,31.7011782 39.9944389,29.9945186 L40,29.7608837 L40,11.212546 C40,10.7869539 39.7257088,10.4138599 39.3269393,10.2776704 L39.2152103,10.2465401 L23.5827367,7.05467968 C23.5281801,7.04354024 23.4718988,7.04391405 23.417495,7.05577718 Z M32.7058154,19 C32.9267293,19 33.1058154,19.1790861 33.1058154,19.4 C33.1058154,19.5068429 33.0630714,19.6092453 32.9871111,19.6843814 L24.2457367,28.3309047 C23.9176305,28.6554624 23.5052693,28.8433642 23.0796048,28.8946101 L22.9194955,28.9074216 L22.7589706,28.9074216 C22.2776035,28.8882044 21.8018489,28.6960321 21.4327294,28.3309047 L15.6927625,22.6523601 C15.5357148,22.4969929 15.5343524,22.2437305 15.6897196,22.0866828 C15.7648541,22.0107357 15.8672473,21.968 15.9740797,21.968 L19.0785907,21.968 C19.1839217,21.968 19.2850018,22.0095463 19.3598871,22.0836194 L22.839,25.525 L29.3191147,19.1156096 C29.3939991,19.0415425 29.4950749,19 29.6004012,19 L32.7058154,19 Z" id="形状结合" fill="#333333" fill-rule="nonzero"></path>
        </g>
    </g>
</svg>