<?xml version="1.0" encoding="UTF-8"?>
<svg width="48px" height="48px" viewBox="0 0 48 48" version="1.1" xmlns="http://www.w3.org/2000/svg" xmlns:xlink="http://www.w3.org/1999/xlink">
    <title>CheckCircleFill</title>
    <g id="CheckCircleFill" stroke="none" stroke-width="1" fill="none" fill-rule="evenodd">
        <g id="编组">
            <rect id="矩形" fill="#FFFFFF" opacity="0" x="0" y="0" width="48" height="48"></rect>
            <path d="M24,2 C36.1502645,2 46,11.8497355 46,24 C46,36.1502645 36.1502645,46 24,46 C11.8497355,46 2,36.1502645 2,24 C2,11.8497355 11.8497355,2 24,2 Z M35.8202936,17 L32.7086692,17 C32.6025922,17 32.500859,17.0421352 32.4258461,17.1171378 L32.4258461,17.1171378 L21.3922352,28.1492247 L16.3591562,23.1163755 C16.2841422,23.0413649 16.1824034,22.9992247 16.0763199,22.9992247 L16.0763199,22.9992247 L12.9653996,22.9992247 C12.859342,22.9992247 12.7576259,23.0413445 12.6826161,23.1163228 C12.5263737,23.2724998 12.5263207,23.5257658 12.6824977,23.6820082 C12.8583452,23.8579294 13.0341927,24.0338505 13.2100402,24.2097716 C13.2577488,24.2575002 13.3065097,24.3063074 13.3562592,24.3561283 L13.6661084,24.6666997 C14.3074913,25.3100963 15.0728595,26.0807873 15.8520136,26.8666654 L16.4372421,27.4571699 C18.2552812,29.2922548 19.9983838,31.0574343 20.2666114,31.3285298 L20.301004,31.3632341 C20.8867904,31.9490205 21.8365379,31.9490205 22.4223243,31.3632341 L22.4223243,31.3632341 L36.1031319,17.6828471 C36.1781492,17.6078322 36.2202936,17.5060887 36.2202936,17.4 C36.2202936,17.1790861 36.0412075,17 35.8202936,17 L35.8202936,17 Z" id="形状结合" fill="#333333" fill-rule="nonzero"></path>
        </g>
    </g>
</svg>