<?xml version="1.0" encoding="UTF-8"?>
<svg width="48px" height="48px" viewBox="0 0 48 48" version="1.1" xmlns="http://www.w3.org/2000/svg" xmlns:xlink="http://www.w3.org/1999/xlink">
    <title>CheckOutline</title>
    <g id="CheckOutline" stroke="none" stroke-width="1" fill="none" fill-rule="evenodd">
        <g id="编组">
            <rect id="矩形" fill="#FFFFFF" opacity="0" x="0" y="0" width="48" height="48"></rect>
            <path d="M44.309608,12.6841286 L21.2180499,35.5661955 L21.2180499,35.5661955 C20.6343343,36.1446015 19.6879443,36.1446015 19.1042286,35.5661955 C19.0538201,35.5162456 19.0077648,35.4636155 18.9660627,35.4087682 C18.9113105,35.368106 18.8584669,35.3226694 18.808302,35.2729607 L3.6903839,20.2920499 C3.53346476,20.1365529 3.53231192,19.8832895 3.68780898,19.7263704 C3.7629255,19.6505669 3.86521855,19.6079227 3.97193622,19.6079227 L7.06238923,19.6079227 C7.16784214,19.6079227 7.26902895,19.6495648 7.34393561,19.7237896 L20.160443,32.4236157 L20.160443,32.4236157 L40.656066,12.115858 C40.7309719,12.0416387 40.8321549,12 40.9376034,12 L44.0280571,12 C44.248971,12 44.4280571,12.1790861 44.4280571,12.4 C44.4280571,12.5067183 44.3854124,12.609012 44.309608,12.6841286 Z" id="路径" fill="#333333" fill-rule="nonzero"></path>
        </g>
    </g>
</svg>