<?xml version="1.0" standalone="no"?><!DOCTYPE svg PUBLIC "-//W3C//DTD SVG 1.1//EN" "http://www.w3.org/Graphics/SVG/1.1/DTD/svg11.dtd"><svg class="icon" width="200px" height="200.00px" viewBox="0 0 1024 1024" version="1.1" xmlns="http://www.w3.org/2000/svg"><path fill="#333333" d="M512.4 64C264.8 64 64 264.8 64 512.4s200.8 448.4 448.4 448.4c68.7 0 135.2-15.5 195.7-44.9 10.6-5.2 21-10.7 31.2-16.7 16.4-9.7 21.9-30.8 12.3-47.2-9.7-16.4-30.8-21.9-47.2-12.3-8.6 5.1-17.4 9.8-26.4 14.1-51.1 24.8-107.4 37.9-165.6 37.9C302.9 891.9 133 722 133 512.4S302.9 133 512.4 133s379.5 169.9 379.5 379.5c0 54.2-11.4 106.8-33.1 155.2-3.7 8.2-7.6 16.2-11.8 24-9 16.8-2.7 37.7 14.1 46.7s37.7 2.7 46.7-14.1c5-9.3 9.7-18.8 14-28.4 25.7-57.2 39.1-119.4 39.1-183.4C960.9 264.8 760.1 64 512.4 64z"  /></svg>