<?xml version="1.0" standalone="no"?><!DOCTYPE svg PUBLIC "-//W3C//DTD SVG 1.1//EN" "http://www.w3.org/Graphics/SVG/1.1/DTD/svg11.dtd"><svg class="icon" width="200px" height="200.00px" viewBox="0 0 1024 1024" version="1.1" xmlns="http://www.w3.org/2000/svg"><path fill="#333333" d="M799.261 140.245c23.331-23.331 61.158-23.331 84.49 0 23.33 23.33 23.33 61.158 0 84.489L596.485 511.997 883.75 799.261c23.332 23.331 23.332 61.158 0 84.49-23.33 23.33-61.158 23.33-84.489 0L511.997 596.485 224.734 883.75c-23.098 23.098-60.403 23.33-83.785 0.693l-0.704-0.693c-23.331-23.33-23.331-61.158 0-84.489l287.262-287.264-287.262-287.263c-23.331-23.331-23.331-61.158 0-84.49 23.33-23.33 61.158-23.33 84.489 0l287.263 287.263z"  /></svg>