<?xml version="1.0" standalone="no"?><!DOCTYPE svg PUBLIC "-//W3C//DTD SVG 1.1//EN" "http://www.w3.org/Graphics/SVG/1.1/DTD/svg11.dtd"><svg class="icon" width="200px" height="200.00px" viewBox="0 0 1024 1024" version="1.1" xmlns="http://www.w3.org/2000/svg"><path fill="#333333" d="M512 82C274.8 82 82 274.8 82 512s192.8 430 430 430 430-192.8 430-430S749.2 82 512 82z m152 538.3c12 12 12 31.5 0 43.5s-31.4 12-43.4 0L512 555.1 403.3 663.7c-12 12-31.4 12-43.4 0s-12-31.4 0-43.4l108.7-108.7L360 403.1c-12-12-12-31.5 0-43.5s31.5-12 43.5 0L512 468.2l108.6-108.6c12-12 31.5-12 43.5 0s12 31.5 0 43.5L555.5 511.7 664 620.3z"  /></svg>