<?xml version="1.0" encoding="UTF-8"?>
<svg width="48px" height="48px" viewBox="0 0 48 48" version="1.1" xmlns="http://www.w3.org/2000/svg" xmlns:xlink="http://www.w3.org/1999/xlink">
    <title>ClockCircleFill</title>
    <g id="ClockCircleFill" stroke="none" stroke-width="1" fill="none" fill-rule="evenodd">
        <g id="编组">
            <rect id="矩形" fill="#FFFFFF" opacity="0" x="0" y="0" width="48" height="48"></rect>
            <path d="M24,2 C36.1502645,2 46,11.8497355 46,24 C46,36.1502645 36.1502645,46 24,46 C11.8497355,46 2,36.1502645 2,24 C2,11.8497355 11.8497355,2 24,2 Z M24.6,14 L22.4,14 C22.1790861,14 22,14.1790861 22,14.4 L22,14.4 L22,23.1715729 L22.0065089,23.3850222 C22.0584325,24.2354066 22.4192395,25.0405598 23.0251263,25.6464466 L23.0251263,25.6464466 L31.1564971,33.7778175 C31.3127068,33.9340272 31.5659728,33.9340272 31.7221825,33.7778175 L31.7221825,33.7778175 L33.2778175,32.2221825 C33.4340272,32.0659728 33.4340272,31.8127068 33.2778175,31.6564971 L33.2778175,31.6564971 L25.1464466,23.5251263 L25.0952092,23.4650801 C25.0337142,23.38027 25,23.2776595 25,23.1715729 L25,23.1715729 L25,14.4 C25,14.1790861 24.8209139,14 24.6,14 L24.6,14 Z" id="形状结合" fill="#333333" fill-rule="nonzero"></path>
        </g>
    </g>
</svg>