<?xml version="1.0" encoding="UTF-8"?>
<svg width="48px" height="48px" viewBox="0 0 48 48" version="1.1" xmlns="http://www.w3.org/2000/svg" xmlns:xlink="http://www.w3.org/1999/xlink">
    <title>ClockCircleOutline</title>
    <g id="ClockCircleOutline" stroke="none" stroke-width="1" fill="none" fill-rule="evenodd">
        <g id="编组">
            <rect id="矩形" fill="#FFFFFF" opacity="0" x="0" y="0" width="48" height="48"></rect>
            <path d="M24,2 C36.1502645,2 46,11.8497355 46,24 C46,36.1502645 36.1502645,46 24,46 C11.8497355,46 2,36.1502645 2,24 C2,11.8497355 11.8497355,2 24,2 Z M24,5 C13.5065898,5 5,13.5065898 5,24 C5,34.4934102 13.5065898,43 24,43 C34.4934102,43 43,34.4934102 43,24 C43,13.5065898 34.4934102,5 24,5 Z M24.6,14 C24.8209139,14 25,14.1790861 25,14.4 L25,23.1715729 C25,23.2776595 25.0337142,23.38027 25.0952092,23.4650801 L25.1464466,23.5251263 L33.2778175,31.6564971 C33.4340272,31.8127068 33.4340272,32.0659728 33.2778175,32.2221825 L31.7221825,33.7778175 C31.5659728,33.9340272 31.3127068,33.9340272 31.1564971,33.7778175 L23.0251263,25.6464466 C22.4192395,25.0405598 22.0584325,24.2354066 22.0065089,23.3850222 L22,23.1715729 L22,14.4 C22,14.1790861 22.1790861,14 22.4,14 L24.6,14 Z" id="形状结合" fill="#333333" fill-rule="nonzero"></path>
        </g>
    </g>
</svg>