<?xml version="1.0" encoding="UTF-8"?>
<svg width="48px" height="48px" viewBox="0 0 48 48" version="1.1" xmlns="http://www.w3.org/2000/svg" xmlns:xlink="http://www.w3.org/1999/xlink">
    <title>CloseOutline</title>
    <g id="CloseOutline" stroke="none" stroke-width="1" fill="none" fill-rule="evenodd">
        <g id="编组">
            <rect id="矩形" fill="#FFFFFF" opacity="0" x="0" y="0" width="48" height="48"></rect>
            <path d="M10.6085104,8.11754663 L24.1768397,21.8195031 L24.1768397,21.8195031 L37.7443031,8.1175556 C37.8194278,8.04168616 37.9217669,7.999 38.0285372,7.999 L41.1040268,7.999 C41.3249407,7.999 41.5040268,8.1780861 41.5040268,8.399 C41.5040268,8.50440471 41.4624226,8.60554929 41.3882578,8.68044752 L26.2773302,23.9408235 L26.2773302,23.9408235 L41.5021975,39.3175645 C41.65763,39.4745475 41.6563731,39.7278104 41.4993901,39.8832429 C41.4244929,39.9574004 41.3233534,39.999 41.2179546,39.999 L38.1434012,39.999 C38.0366291,39.999 37.9342885,39.9563124 37.8591634,39.8804408 L24.1768397,26.0621438 L24.1768397,26.0621438 L10.4936501,39.8804497 C10.4185257,39.9563159 10.3161889,39.999 10.2094212,39.999 L7.13584526,39.999 C6.91493136,39.999 6.73584526,39.8199139 6.73584526,39.599 C6.73584526,39.4936017 6.77744443,39.3924627 6.85160121,39.3175656 L22.0763492,23.9408235 L22.0763492,23.9408235 L6.96554081,8.68044639 C6.81010226,8.52346929 6.81134951,8.27020637 6.9683266,8.11476782 C7.04322474,8.04060377 7.14436883,7.999 7.24977299,7.999 L10.3242852,7.999 C10.4310511,7.999 10.5333863,8.04168267 10.6085104,8.11754663 Z" id="路径" fill="#333333" fill-rule="nonzero"></path>
        </g>
    </g>
</svg>