<?xml version="1.0" standalone="no"?><!DOCTYPE svg PUBLIC "-//W3C//DTD SVG 1.1//EN" "http://www.w3.org/Graphics/SVG/1.1/DTD/svg11.dtd"><svg class="icon" width="200px" height="200.00px" viewBox="0 0 1024 1024" version="1.1" xmlns="http://www.w3.org/2000/svg"><path fill="#333333" d="M512 82c237.2 0 430 192.8 430 430S749.2 942 512 942 82 749.2 82 512 274.8 82 512 82z m89.862 478.1c-12.068-12.003-31.565-12.003-43.634 0l-0.119 0.118c-11.917 11.984-11.864 31.359 0.12 43.276l94.56 94.042c12.068 12.002 31.564 12.003 43.633 0l0.12-0.119c11.916-11.983 11.863-31.358-0.12-43.275z m95.627-228.518c-12.065-11.999-31.556-11.998-43.621 0L513.625 471.055 376.927 334.356C364 321.43 343.752 320.72 331.7 332.77c-12.05 12.051-11.34 32.3 1.587 45.226l136.58 136.58L333.815 649.88l-0.119 0.12c-11.914 11.979-11.86 31.348 0.12 43.262 12.065 12 31.556 12 43.621 0L697.49 374.965l0.12-0.12c11.913-11.98 11.86-31.349-0.12-43.263z"  /></svg>