<?xml version="1.0" standalone="no"?><!DOCTYPE svg PUBLIC "-//W3C//DTD SVG 1.1//EN" "http://www.w3.org/Graphics/SVG/1.1/DTD/svg11.dtd"><svg class="icon" width="200px" height="200.00px" viewBox="0 0 1024 1024" version="1.1" xmlns="http://www.w3.org/2000/svg"><path fill="#333333" d="M512 55.6C259.9 55.6 55.6 259.9 55.6 512S259.9 968.5 512 968.5c69.9 0 137.6-15.8 199.2-45.7 10.8-5.3 21.4-10.9 31.8-17 16.7-9.8 22.3-31.3 12.5-48.1-9.8-16.7-31.3-22.3-48.1-12.5-8.8 5.2-17.7 10-26.9 14.4-52 25.4-109.2 38.7-168.5 38.7-213.3 0-386.2-172.9-386.2-386.2S298.7 125.8 512 125.8 898.3 298.7 898.3 512c0 55.2-11.6 108.7-33.6 157.9-3.7 8.3-7.7 16.5-12 24.5-9.2 17.1-2.8 38.4 14.3 47.5 17.1 9.2 38.4 2.8 47.5-14.3 5.1-9.5 9.8-19.1 14.2-28.9 26.1-58.2 39.8-121.5 39.8-186.7 0-252.1-204.4-456.4-456.5-456.4z"  /><path fill="#333333" d="M670.6 712.8l2.5 2.3c13.8 11.4 34.2 10.6 47.2-2.3 13.7-13.7 13.7-35.9 0-49.7l-113-113-2.5-2.3c-13.8-11.4-34.2-10.6-47.2 2.3-13.7 13.7-13.7 35.9 0 49.7l113 113zM329 653.1c-11.4 13.8-10.6 34.2 2.3 47.2 13.7 13.7 35.9 13.7 49.7 0l331-331 2.3-2.5c11.4-13.8 10.6-34.2-2.3-47.2-13.7-13.7-35.9-13.7-49.7 0L519.5 462.4 372.6 315.6l-2.5-2.3c-13.8-11.4-34.2-10.6-47.2 2.3l-2.3 2.5c-11.4 13.8-10.6 34.2 2.3 47.2l146.9 146.9-138.5 138.4-2.3 2.5z"  /></svg>