<?xml version="1.0" encoding="UTF-8"?>
<svg width="48px" height="48px" viewBox="0 0 48 48" version="1.1" xmlns="http://www.w3.org/2000/svg" xmlns:xlink="http://www.w3.org/1999/xlink">
    <title>CloseCircleFill</title>
    <g id="CloseCircleFill" stroke="none" stroke-width="1" fill="none" fill-rule="evenodd">
        <g id="编组">
            <rect id="矩形" fill="#FFFFFF" opacity="0" x="0" y="0" width="48" height="48"></rect>
            <path d="M24,2 C36.1502645,2 46,11.8497355 46,24 C46,36.1502645 36.1502645,46 24,46 C11.8497355,46 2,36.1502645 2,24 C2,11.8497355 11.8497355,2 24,2 Z M18.6753876,16 L15.5637812,16 C15.4576916,16 15.3559474,16.0421451 15.2809323,16.1171635 C15.124726,16.2733766 15.1247316,16.5266426 15.2809447,16.6828489 L15.2809447,16.6828489 L22.299066,23.7006641 L14.6828159,31.3171619 C14.6078042,31.3921761 14.5656632,31.4939157 14.5656632,31.6 C14.5656632,31.8209139 14.7447493,32 14.9656632,32 L14.9656632,32 L18.0753284,32 C18.1814068,32 18.2831412,31.9578638 18.3581544,31.8828594 L18.3581544,31.8828594 L24.420066,25.8216641 L30.4818451,31.8828564 C30.5568585,31.9578626 30.6585942,32 30.7646741,32 L30.7646741,32 L33.8763476,32 C33.9824309,32 34.0841695,31.9578599 34.1591835,31.8828496 C34.315397,31.7266436 34.3154031,31.4733776 34.1591972,31.3171641 L34.1591972,31.3171641 L26.542066,23.6996641 L33.5591874,16.6828489 C33.6342057,16.6078338 33.6763508,16.5060896 33.6763508,16.4 C33.6763508,16.1790861 33.4972647,16 33.2763508,16 L33.2763508,16 L30.1637654,16 C30.0576705,16 29.9559218,16.0421493 29.8809058,16.1171741 L29.8809058,16.1171741 L24.420066,21.5786641 L18.9582218,16.1171488 C18.883208,16.0421394 18.7814701,16 18.6753876,16 L18.6753876,16 Z" id="形状结合" fill="#333333" fill-rule="nonzero"></path>
        </g>
    </g>
</svg>