<?xml version="1.0" standalone="no"?><!DOCTYPE svg PUBLIC "-//W3C//DTD SVG 1.1//EN" "http://www.w3.org/Graphics/SVG/1.1/DTD/svg11.dtd"><svg class="icon" width="200px" height="200.00px" viewBox="0 0 1024 1024" version="1.1" xmlns="http://www.w3.org/2000/svg"><path fill="#333333" d="M852.314 223.864l-8.187 5.512L225.11 848.394c-14.245 14.244-40.331 11.254-54.575-2.991-13.408-13.407-15.692-36.15-3.862-50.478l2.365-2.601 290.163-287.258-276.996-276.993c-13.408-13.407-16.277-35.482-4.447-49.812l2.365-2.6c13.408-13.409 35.402-14.944 49.73-3.115l2.602 2.367 276.998 276.991 278.603-278.599c14.245-14.245 40.33-11.254 54.576 2.99 13.408 13.408 21.512 33.24 9.682 47.569z m-1.589 570.813c14.246 14.246 19.228 38.179 3.949 53.458-14.38 14.38-36.427 15.968-50.847 4.23l-2.61-2.358-90.387-90.387-110.794-110.794c-14.244-14.244-19.227-38.178-3.949-53.456 14.38-14.381 36.428-15.97 50.847-4.23l2.611 2.358 201.18 201.18z"  /></svg>