<?xml version="1.0" standalone="no"?><!DOCTYPE svg PUBLIC "-//W3C//DTD SVG 1.1//EN" "http://www.w3.org/Graphics/SVG/1.1/DTD/svg11.dtd"><svg class="icon" width="200px" height="200.00px" viewBox="0 0 1024 1024" version="1.1" xmlns="http://www.w3.org/2000/svg"><path fill="#333333" d="M771.59 633.752l179.464-170.816c21.973-20.915 22.401-55.596 0.937-77.034-8.39-8.38-19.3-13.795-31.052-15.46L672.275 335.19 561.293 115.576c-13.43-26.576-45.889-37.331-72.701-24.45-10.8 5.188-19.602 13.769-25 24.45L352.611 335.19l-248.664 35.251c-29.779 4.222-50.737 31.609-46.291 61.418 1.77 11.871 7.474 22.794 16.175 31.077l179.465 170.816-42.34 240.9c-5.22 29.699 15.04 57.622 44.721 62.581a55.12 55.12 0 0 0 34.236-5.313l222.53-114.202 222.53 114.202c15.94 8.18 35.493 1.89 43.673-14.05 8.18-15.94 1.89-35.493-14.05-43.673l-227.01-116.502a55.126 55.126 0 0 0-50.286 0L278.56 864.82l39.68-225.768c3.119-17.746-2.896-35.814-15.953-48.242L134.985 431.57l231.948-32.88c17.671-2.506 33.064-13.418 41.106-29.332L512.443 162.76l104.404 206.6c8.042 15.913 23.434 26.825 41.106 29.33L889.9 431.571 722.599 590.81c-13.057 12.427-19.072 30.495-15.953 48.241l19.106 108.705c3.1 17.646 19.92 29.436 37.566 26.335 17.645-3.101 29.436-19.92 26.335-37.566L771.59 633.752z"  /></svg>