<?xml version="1.0" encoding="UTF-8"?>
<svg width="48px" height="48px" viewBox="0 0 48 48" version="1.1" xmlns="http://www.w3.org/2000/svg" xmlns:xlink="http://www.w3.org/1999/xlink">
    <title>CompassOutline</title>
    <g id="CompassOutline" stroke="none" stroke-width="1" fill="none" fill-rule="evenodd">
        <g id="编组">
            <rect id="矩形" fill="#FFFFFF" opacity="0" x="0" y="0" width="48" height="48"></rect>
            <path d="M24,2 C36.1502645,2 46,11.8497355 46,24 C46,36.1502645 36.1502645,46 24,46 C11.8497355,46 2,36.1502645 2,24 C2,11.8497355 11.8497355,2 24,2 Z M24,5 C13.5065898,5 5,13.5065898 5,24 C5,34.4934102 13.5065898,43 24,43 C34.4934102,43 43,34.4934102 43,24 C43,13.5065898 34.4934102,5 24,5 Z M33.3801878,15.7161996 C33.5273657,16.1209296 33.5273657,16.5645541 33.3801877,16.9692858 L29.1223491,26.9287962 C28.751718,27.948527 27.9484932,28.7517514 26.928762,29.1223831 L16.9692515,33.3802217 C16.0176687,33.7261863 14.9657967,33.2352351 14.6198335,32.2836493 C14.4727126,31.8789902 14.4727126,31.4354581 14.6198336,31.0307994 L18.8776722,21.071289 C19.2483033,20.0515582 20.0515281,19.2483338 21.0712593,18.8777021 L31.0307697,14.6198636 C31.9822881,14.2738758 33.03413,14.7647079 33.3801878,15.7161996 Z M30.1241839,17.8758673 L22.010828,21.4627051 C21.7937007,21.5414402 21.6142978,21.6992367 21.5084927,21.9045403 L21.4626591,22.0108739 L17.8758214,30.1242299 L25.9891773,26.5373921 C26.2063046,26.4586569 26.3857075,26.3008605 26.4915126,26.0955568 L26.5373462,25.9892232 L30.1241839,17.8758673 Z" id="形状结合" fill="#333333" fill-rule="nonzero"></path>
        </g>
    </g>
</svg>