<?xml version="1.0" standalone="no"?><!DOCTYPE svg PUBLIC "-//W3C//DTD SVG 1.1//EN" "http://www.w3.org/Graphics/SVG/1.1/DTD/svg11.dtd"><svg class="icon" width="200px" height="200.00px" viewBox="0 0 1024 1024" version="1.1" xmlns="http://www.w3.org/2000/svg"><path fill="#333333" d="M993.7 276.5H721.5c-16.2 0-29.3 13.1-29.3 29.3v15.4c0 16.2 13.1 29.3 29.3 29.3h272.2c16.2 0 29.3-13.1 29.3-29.3v-15.4c0-16.1-13.1-29.3-29.3-29.3zM993.2 531.8c16.2 0 29.3-13.1 29.3-29.3v-15.4c0-16.2-13.1-29.3-29.3-29.3H767c-16.2 0-29.3 13.1-29.3 29.3v15.4c0 16.2 13.1 29.3 29.3 29.3h226.2zM993.6 639.2H896c-16.2 0-29.3 13.1-29.3 29.3v15.4c0 16.2 13.1 29.3 29.3 29.3h97.6c16.2 0 29.3-13.1 29.3-29.3v-15.4c0.1-16.2-13.1-29.3-29.3-29.3z"  /><path fill="#333333" d="M811.1 704.6c-13.1-17.4-30.8-34.1-52.8-50.8-33.7-25.5-75.9-49.6-125.7-73.7l-3.4-1.6c-18.8-9.1-35.4-16.3-54.7-23.8l-21.5-8.3-2.2-0.9-2.1-0.8c-3.2-1.3-5.6-2.3-7.6-3.3 1-3 3.2-6.8 7-11.9l0.4-0.5c2.4-3.2 5.3-6.7 9.4-11.6l2.5-2.9 4.1-4.7c2.7-3.1 4.7-5.5 6.7-7.8 6.8-8.2 12.4-15.3 17.5-22.9 21.7-31.9 35.6-67.7 43.1-106 5.3-26.7 7-50.5 7-76.9 0-89.1-32.8-153.3-88.8-192.5-21.1-14.7-44.3-25.1-68.1-31.5-17.9-4.9-35.5-7.3-48.7-7.3h-18.9c-13.2 0-30.7 2.4-48.7 7.3-23.9 6.5-47.1 16.8-68.1 31.5-56 39.2-88.8 103.4-88.8 192.5 0 26.4 1.7 50.2 7 76.9 7.6 38.3 21.4 74 43.1 106 4.7 6.9 9.8 13.5 15.8 20.8l1.7 2 1.4 1.7c1 1.1 2 2.3 3.1 3.6l8.3 9.7 1.7 2 1.3 1.5c2.8 3.4 5 6.1 6.9 8.6 4 5.4 6.3 9.3 7.3 12.4l-0.9 0.4-1.1 0.5c-2.3 1-5.2 2.2-8.8 3.6l-3 1.2-17.6 6.8-3.9 1.5c-17.9 7-33.5 13.7-50.9 22.1l-1.9 0.9-3.4 1.6-3.4 1.6C163 605.3 122 628.9 89 653.8c-22 16.6-39.7 33.4-52.8 50.8-16 21.3-25.1 43.6-25.3 67v68.3c0 26.6 16.5 50.5 41.4 59.8 103.7 38.5 231.8 57.7 384.2 58.1h4.6c64.1 1.6 122.3-0.8 174.7-7.4 19.7-2.5 33.7-20.5 31.3-40.2S626.7 876.5 607 879c-48.2 6-102.2 8.3-162.1 6.9l-2.8-0.1h-0.5c-142.5 0-261.2-17-355.9-50.6l-2.9-1v-61.9c0-14.2 16.5-36.1 49.5-61.1 29.3-22.2 67.9-44.2 113.9-66.4l3.2-1.5c16.9-8.2 31.9-14.6 49.6-21.5l21-8.1 1.9-0.7 2.2-0.9c5.5-2.2 9.8-4 13.8-6 12.2-5.8 21.3-12.2 28.5-21.6 8.6-11.1 12.5-24.1 12.5-38.7 0-21.6-7.7-39.8-21.9-59l-0.5-0.7c-3.5-4.7-7.2-9.3-12.3-15.2l-11-12.9-1.9-2.2-1.2-1.5-1.2-1.5c-4.2-5.2-7.7-9.7-10.7-14.2-15.8-23.3-26.2-50.1-32-79.4-4.2-21.4-5.6-40.8-5.6-62.9 0-35.6 6.5-64.5 18.3-87.6 9.8-19.2 23.3-34.3 39.8-45.9 13.8-9.7 29.4-16.6 45.7-21 11.6-3.2 22.7-4.7 29.4-4.8h19.3c6.7 0 18 1.5 29.8 4.8 16.2 4.4 31.8 11.3 45.7 21 16.5 11.6 30 26.6 39.8 45.9 11.8 23.1 18.3 52 18.3 87.6 0 22.1-1.4 41.5-5.6 62.9-5.8 29.3-16.1 56.1-32 79.4-3.3 4.9-7.1 9.9-12 15.7l-1.7 2-9.7 11.4c-1.5 1.8-2.5 2.9-2.2 2.5l-1.7 2-1.2 1.4c-4 4.7-7.1 8.6-10 12.6-14.5 19.5-22.4 37.9-22.4 59.7 0 14.6 3.9 27.6 12.5 38.7 7.1 9.2 16 15.5 27.8 21.2l0.7 0.4c4.7 2.3 9.8 4.4 16.8 7.1l20.4 7.9c17.9 6.9 32.8 13.3 49.6 21.4l1.8 0.9 3 1.5 3 1.5c44.7 21.7 82.2 43.3 110.9 65 33 24.9 49.5 46.9 49.5 61.1v70.9c0 19.9 16.1 36 36 36s36-16.1 36-36v-70.8c0.2-24-8.9-46.6-25.1-68.1z"  /></svg>