<?xml version="1.0" encoding="UTF-8"?>
<svg width="48px" height="48px" viewBox="0 0 48 48" version="1.1" xmlns="http://www.w3.org/2000/svg" xmlns:xlink="http://www.w3.org/1999/xlink">
    <title>ContentOutline</title>
    <g id="ContentOutline" stroke="none" stroke-width="1" fill="none" fill-rule="evenodd">
        <g id="编组">
            <rect id="矩形" fill="#FFFFFF" opacity="0" x="0" y="0" width="48" height="48"></rect>
            <path d="M18.627907,6 L18.8394678,6.00378739 C20.724163,6.07094117 22.7022235,7.02609453 24.0009305,8.46795145 C25.2977765,7.02609453 27.275837,6.07094117 29.1605322,6.00378739 L29.372093,6 L39.1395349,6 C42.3026203,6 44.8804189,8.56557489 44.9959578,11.7750617 L45,12 L45,34 C45,37.2383969 42.4940896,39.8775718 39.359242,39.9958615 L39.1395349,40 L28.1436109,40.0006895 C27.1582748,41.2217963 25.6679035,42 24,42 C22.3320965,42 20.8417252,41.2217963 19.8563891,40.0006895 L8.86046512,40 L8.64075798,39.9958615 C5.57881379,39.8803227 3.11689412,37.3597859 3.00404223,34.2249383 L3,34 L3,12 L3.00404223,11.7750617 C3.11689412,8.64021412 5.57881379,6.11967731 8.64075798,6.00413847 L8.86046512,6 L18.627907,6 Z M21.6070926,37.0005393 C21.8335444,38.1413907 22.8188346,39 24,39 C25.1811654,39 26.1664556,38.1413907 26.3929074,37.0005393 L39.1395349,37 L39.3117083,36.9949073 C40.7929224,36.9070404 41.9789697,35.6927538 42.0647932,34.1762728 L42.0697674,34 L42.0697674,12 L42.0647932,11.8237272 C41.9789697,10.3072462 40.7929224,9.09295962 39.3117083,9.00509269 L39.1395349,9 L29.372093,9 L29.1999196,9.00509269 C27.7147766,9.09319269 25.6158244,10.3136959 25.472835,11.8358011 L25.4651163,12 L25.4651163,31.6 C25.4651163,31.8209139 25.2860302,32 25.0651163,32 L22.9348837,32 C22.7139698,32 22.5348837,31.8209139 22.5348837,31.6 L22.5348837,12 L22.5348837,12 L22.527165,11.8358011 C22.3892824,10.3680568 20.4326537,9.18075619 18.9614346,9.01882731 L18.8000804,9.00509269 L18.627907,9 L8.86046512,9 L8.6882917,9.00509269 C7.26632621,9.08944495 6.11638638,10.2119055 5.95073519,11.6432528 L5.93520682,11.8237272 L5.93023256,12 L5.93023256,34 L5.93520682,34.1762728 C6.01759739,35.6320946 7.11395422,36.8094139 8.51201433,36.9790092 L8.6882917,36.9949073 L8.86046512,37 L21.6070926,37.0005393 Z M18.627907,24.4 L18.627907,26.6 C18.627907,26.8209139 18.4488209,27 18.227907,27 L9.26046512,27 C9.03955122,27 8.86046512,26.8209139 8.86046512,26.6 L8.86046512,24.4 C8.86046512,24.1790861 9.03955122,24 9.26046512,24 L18.227907,24 C18.4488209,24 18.627907,24.1790861 18.627907,24.4 Z M39.1395349,24.4 L39.1395349,26.6 C39.1395349,26.8209139 38.9604488,27 38.7395349,27 L28.7953488,27 C28.5744349,27 28.3953488,26.8209139 28.3953488,26.6 L28.3953488,24.4 C28.3953488,24.1790861 28.5744349,24 28.7953488,24 L38.7395349,24 C38.9604488,24 39.1395349,24.1790861 39.1395349,24.4 Z M18.627907,18.4 L18.627907,20.6 C18.627907,20.8209139 18.4488209,21 18.227907,21 L9.26046512,21 C9.03955122,21 8.86046512,20.8209139 8.86046512,20.6 L8.86046512,18.4 C8.86046512,18.1790861 9.03955122,18 9.26046512,18 L18.227907,18 C18.4488209,18 18.627907,18.1790861 18.627907,18.4 Z M39.1395349,18.4 L39.1395349,20.6 C39.1395349,20.8209139 38.9604488,21 38.7395349,21 L28.7953488,21 C28.5744349,21 28.3953488,20.8209139 28.3953488,20.6 L28.3953488,18.4 C28.3953488,18.1790861 28.5744349,18 28.7953488,18 L38.7395349,18 C38.9604488,18 39.1395349,18.1790861 39.1395349,18.4 Z" id="形状" fill="#333333" fill-rule="nonzero"></path>
        </g>
    </g>
</svg>