<?xml version="1.0" standalone="no"?><!DOCTYPE svg PUBLIC "-//W3C//DTD SVG 1.1//EN" "http://www.w3.org/Graphics/SVG/1.1/DTD/svg11.dtd"><svg class="icon" width="200px" height="200.00px" viewBox="0 0 1024 1024" version="1.1" xmlns="http://www.w3.org/2000/svg"><path fill="#333333" d="M601.87 583.745c-48.329-15.376-72.492-31.895-72.492-49.56 0-33.255 33.458-55.998 58.015-91.828 44.289-64.686 46.648-139.35 46.648-171.853C634.041 86.205 485.84 64 453.668 64H433.72c-32.171 0-180.266 22.205-180.266 206.396 0 32.612 2.36 107.168 46.648 171.855 24.559 35.829 58.017 58.571 58.017 91.826 0 32.934-32.387 28.428-116.138 68.87-84.074 40.121-156.906 104.916-156.906 170.675 0 15.73-0.025 39.892-0.076 72.484-0.017 10.833 8.268 19.87 19.061 20.796 82.489 7.064 145.633 10.597 189.435 10.597h201.13c11.508 0 20.839-9.33 20.839-20.839 0-1.903-0.261-3.797-0.775-5.629-8.467-30.178-12.7-56.12-12.7-77.827 0.663-85.112 33.957-148.265 99.88-189.459z m150.31 1.728c-103.637 0-187.643 84.067-187.643 187.78 0 103.714 84.006 187.682 187.645 187.682 103.638 0 187.644-84.065 187.644-187.78 0-103.713-84.006-187.682-187.644-187.682h-0.001z m93.81 229.45H658.373c-17.28 0-31.288-14.009-31.288-31.288 0-17.281 14.008-31.29 31.287-31.29H845.99c17.28 0 31.288 14.009 31.288 31.289s-14.008 31.288-31.288 31.288z"  /></svg>