<?xml version="1.0" standalone="no"?><!DOCTYPE svg PUBLIC "-//W3C//DTD SVG 1.1//EN" "http://www.w3.org/Graphics/SVG/1.1/DTD/svg11.dtd"><svg class="icon" width="200px" height="200.00px" viewBox="0 0 1024 1024" version="1.1" xmlns="http://www.w3.org/2000/svg"><path fill="#333333" d="M907.257 718.472a447.436 447.436 0 0 0 14.013-28.482c25.697-57.276 39.159-119.553 39.159-183.66 0-248.032-201.069-449.1-449.1-449.1-248.03 0-449.1 201.068-449.1 449.1 0 248.03 201.07 449.099 449.1 449.099 68.784 0 135.432-15.5 196.004-44.924a448.058 448.058 0 0 0 31.258-16.745c16.448-9.668 21.945-30.84 12.277-47.288-9.667-16.448-30.839-21.945-47.287-12.278a378.966 378.966 0 0 1-26.438 14.164c-51.214 24.878-107.546 37.979-165.814 37.979-209.872 0-380.007-170.135-380.007-380.008 0-209.872 170.135-380.007 380.007-380.007 209.873 0 380.008 170.135 380.008 380.007 0 54.311-11.38 106.955-33.105 155.379a378.346 378.346 0 0 1-11.85 24.083c-9.024 16.81-2.712 37.753 14.098 46.778 16.81 9.024 37.753 2.713 46.777-14.097z"  /><path fill="#333333" d="M505.956 722.194h-1.227a36.138 36.138 0 0 1-21.04-7.923l-2.971-2.665-120.852-120.851c-14.166-14.166-14.166-37.133 0-51.299 13.333-13.332 34.461-14.116 48.71-2.353l2.589 2.353 63.845 63.856 0.046-315.082c0-20.034 16.24-36.274 36.273-36.274 18.92 0 34.458 14.486 36.126 32.972l0.148 3.302-0.023 306.422 55.216-55.196c13.333-13.332 34.461-14.116 48.71-2.353l2.589 2.353c13.332 13.333 14.116 34.461 2.352 48.71l-2.352 2.589-120.852 120.851a36.142 36.142 0 0 1-24.011 10.588h-4.503 1.227z"  /></svg>