<?xml version="1.0" encoding="UTF-8"?>
<svg width="48px" height="48px" viewBox="0 0 48 48" version="1.1" xmlns="http://www.w3.org/2000/svg" xmlns:xlink="http://www.w3.org/1999/xlink">
    <title>DownOutline</title>
    <g id="DownOutline" stroke="none" stroke-width="1" fill="none" fill-rule="evenodd">
        <rect id="矩形" fill="#FFFFFF" opacity="0" x="0" y="0" width="48" height="48"></rect>
        <path d="M5.11219264,16.3947957 L22.6612572,34.5767382 L22.6612572,34.5767382 C23.2125856,35.1304785 24.0863155,35.1630514 24.6755735,34.6744571 L24.7825775,34.5767382 L42.8834676,16.3956061 C42.9580998,16.320643 43,16.2191697 43,16.1133896 L43,12.9866673 C43,12.7657534 42.8209139,12.5866673 42.6,12.5866673 C42.4936115,12.5866673 42.391606,12.6290496 42.316542,12.7044413 L23.7816937,31.3201933 L23.7816937,31.3201933 L5.6866816,12.7237117 C5.53262122,12.5653818 5.27937888,12.5619207 5.121049,12.7159811 C5.04365775,12.7912854 5,12.8946805 5,13.0026627 L5,16.1170064 C5,16.2206403 5.04022164,16.3202292 5.11219264,16.3947957 Z" id="down" fill="#333333" fill-rule="nonzero"></path>
    </g>
</svg>