<?xml version="1.0" encoding="UTF-8"?>
<svg width="48px" height="48px" viewBox="0 0 48 48" version="1.1" xmlns="http://www.w3.org/2000/svg" xmlns:xlink="http://www.w3.org/1999/xlink">
    <title>DownCircleOutline</title>
    <g id="DownCircleOutline" stroke="none" stroke-width="1" fill="none" fill-rule="evenodd">
        <g id="编组">
            <rect id="矩形" fill="#FFFFFF" opacity="0" x="0" y="0" width="48" height="48"></rect>
            <path d="M24,2 C36.1502645,2 46,11.8497355 46,24 C46,36.1502645 36.1502645,46 24,46 C11.8497355,46 2,36.1502645 2,24 C2,11.8497355 11.8497355,2 24,2 Z M24,5 C13.5065898,5 5,13.5065898 5,24 C5,34.4934102 13.5065898,43 24,43 C34.4934102,43 43,34.4934102 43,24 C43,13.5065898 34.4934102,5 24,5 Z M16.6698394,18.5368172 L24.614,25.796677 L24.614,25.796677 L32.3301537,18.7448523 C32.4932255,18.5958203 32.7462356,18.6072018 32.8952676,18.7702736 C32.962641,18.8439939 33,18.9402507 33,19.0401199 L33,22.0163466 C33,22.1286847 32.952761,22.235845 32.8698331,22.3116263 L25.6798814,28.8819626 L25.6798814,28.8819626 L25.5483174,28.9893321 C25.3216663,29.1539705 25.0601519,29.2471006 24.7941521,29.2694058 L24.6342571,29.2742954 L24.6146542,29.273677 C24.2821026,29.2857923 23.9458323,29.187844 23.6648866,28.9785037 L23.5480406,28.8819626 L16.1301729,22.103627 C16.0472414,22.0278454 16,21.9206827 16,21.8083418 L16,18.8320911 C16,18.6111772 16.1790861,18.4320911 16.4,18.4320911 C16.499866,18.4320911 16.5961198,18.4694477 16.6698394,18.5368172 Z" id="形状" fill="#333333" fill-rule="nonzero"></path>
        </g>
    </g>
</svg>