<?xml version="1.0" encoding="UTF-8"?>
<svg width="48px" height="48px" viewBox="0 0 48 48" version="1.1" xmlns="http://www.w3.org/2000/svg" xmlns:xlink="http://www.w3.org/1999/xlink">
    <title>EditFill</title>
    <g id="EditFill" stroke="none" stroke-width="1" fill="none" fill-rule="evenodd">
        <g id="编组">
            <rect id="矩形" fill="#FFFFFF" opacity="0" x="0" y="0" width="48" height="48"></rect>
            <path d="M27.5325468,13.8464269 L34.9564908,21.0652619 L34.9564907,21.0652619 C35.3664155,21.4639258 35.3664155,22.110162 34.9564908,22.5088231 L15.217454,41.701895 L15.217454,41.7018949 C15.0204038,41.8929911 14.7533811,42 14.4750596,42 L8.10012604,42 L8.10012595,42 C6.9402636,42 6.00000168,41.085849 6.00000168,39.9581836 L6.00000168,33.7612927 L6.00000168,33.7613009 C5.99950341,33.4903544 6.1098059,33.2303255 6.30661496,33.0384938 L26.0477683,13.8464748 L26.0477683,13.8464748 C26.4578166,13.447931 27.1225068,13.447931 27.5325522,13.8464747 L27.5325468,13.8464269 Z M40.1542901,8.79293609 L40.15429,8.79293597 C42.614941,11.184869 42.6152806,15.0632844 40.1550449,17.455605 C40.1547933,17.4558496 40.1545418,17.4560941 40.1542903,17.4563386 L38.6695064,18.8998999 L38.6695064,18.8998998 C38.2596604,19.2988107 37.5947974,19.2991701 37.1844961,18.900703 C37.1842206,18.9004355 37.1839453,18.9001678 37.1836701,18.8998999 L29.7597261,11.6800599 L29.7597261,11.68006 C29.3498014,11.281396 29.3498014,10.6351598 29.759726,10.2364988 L31.2445099,8.79395684 L31.2445098,8.79395696 C33.7049196,6.40201439 37.6938664,6.40201439 40.1542565,8.79395672 L40.1542901,8.79293609 Z" id="形状" fill="#333333" fill-rule="nonzero"></path>
        </g>
    </g>
</svg>