<?xml version="1.0" encoding="UTF-8"?>
<svg width="48px" height="48px" viewBox="0 0 48 48" version="1.1" xmlns="http://www.w3.org/2000/svg" xmlns:xlink="http://www.w3.org/1999/xlink">
    <title>EditSOutline</title>
    <g id="EditSOutline" stroke="none" stroke-width="1" fill="none" fill-rule="evenodd">
        <g id="编组">
            <rect id="矩形" fill="#FFFFFF" opacity="0" x="0" y="0" width="48" height="48"></rect>
            <path d="M39.1558113,6.84476948 L39.1547876,6.84478452 C41.6150708,9.30533949 41.6150708,13.2945216 39.1547875,15.7550568 L14.2175882,40.6933641 C14.0205351,40.8899288 13.7535085,41 13.475183,41 L7.10015653,41 C5.94027729,41 5.00000168,40.0596889 5.00000168,38.8997532 L5.00000168,32.525535 C4.9995034,32.2468348 5.1098075,31.9793647 5.30661943,31.7820434 L30.2469685,6.84477025 C32.707296,4.38507671 36.6954838,4.38507671 39.1558113,6.84476948 Z M41.5764707,38 C41.8588237,38 42,38.1333332 42,38.4000001 L42,40.5999999 C42,40.8666668 41.8588237,41 41.5764707,41 L24.4235293,41 C24.1411763,41 24,40.8666668 24,40.5999999 L24,38.4000001 C24,38.1333332 24.1411763,38 24.4235293,38 L41.5764707,38 Z M28.172,13.371 L8.2730898,33.272167 C8.19433904,33.3510089 8.15023081,33.4579141 8.15023081,33.5693515 L8.15023081,37.4317018 C8.15023081,37.663779 8.33819467,37.8517506 8.57026108,37.8517506 L12.4303379,37.8517506 C12.5419214,37.8517506 12.6488431,37.8069757 12.7275092,37.7278363 L32.628,17.827 L28.172,13.371 Z M41.5555549,31 C41.8518518,31 42,31.1333332 42,31.4000001 L42,33.5999999 C42,33.8666668 41.8518518,34 41.5555549,34 L32.4444451,34 C32.1481482,34 32,33.8666668 32,33.5999999 L32,31.4000001 C32,31.1333332 32.1481482,31 32.4444451,31 L41.5555549,31 Z M32.607562,8.94503104 L32.4721022,9.07104573 L30.371,11.172 L34.827,15.628 L36.9275554,13.5288315 C38.1074041,12.3492947 38.1631188,10.4544078 37.0546144,9.20757614 L36.9286053,9.07316031 L36.9286254,9.07104573 C35.7488554,7.89144977 33.8540626,7.83619529 32.607562,8.94503104 Z" id="形状结合" fill="#333333" fill-rule="nonzero"></path>
        </g>
    </g>
</svg>