<?xml version="1.0" standalone="no"?><!DOCTYPE svg PUBLIC "-//W3C//DTD SVG 1.1//EN" "http://www.w3.org/Graphics/SVG/1.1/DTD/svg11.dtd"><svg class="icon" width="200px" height="200.00px" viewBox="0 0 1024 1024" version="1.1" xmlns="http://www.w3.org/2000/svg"><path fill="#333333" d="M699.062 475.559L548.482 324.96c-20.156-20.16-52.83-20.16-72.988 0L167.157 633.337C154.271 646.224 147 663.714 147 681.94v143.51C147 853.987 170.102 877 198.543 877h143.4c18.224 0 35.712-7.272 48.597-20.16l308.338-308.376c20.34-20.16 20.34-52.746 0.184-72.905z m113.67 325.314H565.51c-20.985 0-38.013 17.03-38.013 38.017 0 20.988 17.028 38.018 38.013 38.018h247.222c20.986 0 38.013-17.03 38.013-38.018s-17.027-38.017-38.013-38.017z m0-133.109h-114.13c-20.986 0-38.013 17.03-38.013 38.018s17.027 38.018 38.013 38.018H812.64c20.986 0 38.013-17.03 38.013-38.018s-16.935-38.018-37.92-38.018z m49.15-355.138L711.395 162.12c-20.157-20.16-52.831-20.16-72.988 0l-49.518 49.524c-20.157 20.16-20.157 52.838 0 72.998l150.487 150.506c20.157 20.16 52.831 20.16 72.988 0l49.518-49.525c20.157-20.16 20.157-52.838 0-72.997z"  /></svg>