<?xml version="1.0" encoding="UTF-8"?>
<svg width="48px" height="48px" viewBox="0 0 48 48" version="1.1" xmlns="http://www.w3.org/2000/svg" xmlns:xlink="http://www.w3.org/1999/xlink">
    <title>EnvironmentOutline</title>
    <g id="EnvironmentOutline" stroke="none" stroke-width="1" fill="none" fill-rule="evenodd">
        <g id="编组">
            <rect id="矩形" fill="#FFFFFF" opacity="0" x="0" y="0" width="48" height="48"></rect>
            <path d="M24,3.5 C33.9411255,3.5 42,11.5788332 42,21.5445791 C42,25.9993411 40.3897111,30.0770685 37.7208235,33.2247049 L37.2250176,33.7978077 C35.2208664,36.0735085 31.7308408,39.6031944 26.7549407,44.3868657 C25.2643222,45.8198986 22.9549789,45.8692779 21.4079378,44.5350287 L21.2451724,44.3867789 L19.1467394,42.3579922 C14.8756818,38.2034745 11.9204384,35.1597658 10.2810094,33.2268662 C7.61102615,30.0789353 6,26.0003608 6,21.5445791 C6,11.5788332 14.0588745,3.5 24,3.5 Z M24,6.5 C15.7093624,6.5 9,13.2395436 9,21.5386187 C9,25.1530011 10.2723798,28.5634094 12.5573493,31.2628393 L12.8664218,31.6228801 C13.9827463,32.9066746 15.6545139,34.6660948 17.8732465,36.8907091 L18.5552667,37.5720388 C19.7192871,38.7308133 21.0198367,40.0056254 22.4558558,41.3951714 L23.3113705,42.2211339 C23.6973221,42.592947 24.3028472,42.5929565 24.6888103,42.2211556 L26.3185495,40.6444516 C30.771579,36.3165234 33.8245067,33.1750973 35.4441776,31.2610351 C37.7282017,28.561867 39,25.1521808 39,21.5386187 C39,13.2395436 32.2906376,6.5 24,6.5 Z M24,14 C28.418278,14 32,17.581722 32,22 C32,26.418278 28.418278,30 24,30 C19.581722,30 16,26.418278 16,22 C16,17.581722 19.581722,14 24,14 Z M24,17 C21.2385763,17 19,19.2385763 19,22 C19,24.7614237 21.2385763,27 24,27 C26.7614237,27 29,24.7614237 29,22 C29,19.2385763 26.7614237,17 24,17 Z" id="形状结合" fill="#333333" fill-rule="nonzero"></path>
        </g>
    </g>
</svg>