<?xml version="1.0" encoding="UTF-8"?>
<svg width="48px" height="48px" viewBox="0 0 48 48" version="1.1" xmlns="http://www.w3.org/2000/svg" xmlns:xlink="http://www.w3.org/1999/xlink">
    <title>ExclamationCircleFill</title>
    <g id="ExclamationCircleFill" stroke="none" stroke-width="1" fill="none" fill-rule="evenodd">
        <rect id="矩形" fill="#FFFFFF" opacity="0" x="0" y="0" width="48" height="48"></rect>
        <path d="M24,2 C36.1502645,2 46,11.8497355 46,24 C46,36.1502645 36.1502645,46 24,46 C11.8497355,46 2,36.1502645 2,24 C2,11.8497355 11.8497355,2 24,2 Z M25.1,31 L22.9,31 C22.6790861,31 22.5,31.1790861 22.5,31.4 L22.5,31.4 L22.5,33.6 C22.5,33.8209139 22.6790861,34 22.9,34 L22.9,34 L25.1,34 C25.3209139,34 25.5,33.8209139 25.5,33.6 L25.5,33.6 L25.5,31.4 C25.5,31.1790861 25.3209139,31 25.1,31 L25.1,31 Z M25.1,14 L22.9,14 C22.6790861,14 22.5,14.1790861 22.5,14.4 L22.5,14.4 L22.5,27.6 C22.5,27.8209139 22.6790861,28 22.9,28 L22.9,28 L25.1,28 C25.3209139,28 25.5,27.8209139 25.5,27.6 L25.5,27.6 L25.5,14.4 C25.5,14.1790861 25.3209139,14 25.1,14 L25.1,14 Z" id="形状结合" fill="#333333" fill-rule="nonzero"></path>
    </g>
</svg>