<?xml version="1.0" standalone="no"?><!DOCTYPE svg PUBLIC "-//W3C//DTD SVG 1.1//EN" "http://www.w3.org/Graphics/SVG/1.1/DTD/svg11.dtd"><svg class="icon" width="200px" height="200.00px" viewBox="0 0 1024 1024" version="1.1" xmlns="http://www.w3.org/2000/svg"><path fill="#333333" d="M984.969 337.377c-15.66-12.268-36.541-8.762-48.722 7.01-1.741 1.751-194.888 231.32-424.58 231.32-222.729 0-424.579-231.32-426.318-233.073-12.182-14.02-34.802-15.771-48.723-3.505-13.92 12.267-15.66 35.048-3.481 49.069 3.48 5.256 45.242 52.572 111.364 105.145l-88.745 92.88c-13.92 14.019-12.18 36.8 1.741 49.067 3.481 7.01 12.181 10.515 20.882 10.515 8.7 0 17.4-3.505 24.36-10.515l95.705-99.888c45.242 31.544 99.184 61.336 158.347 82.364L320.257 742.19c-5.22 19.276 5.221 38.552 24.361 43.81h10.44c15.66 0 29.582-10.515 33.062-26.287l36.54-124.423c27.842 5.258 57.424 8.763 87.005 8.763 29.58 0 59.163-3.505 87.005-8.763l36.54 122.671c3.482 15.772 19.142 26.286 33.063 26.286 3.48 0 6.96 0 8.7-1.752 19.14-5.26 29.582-24.534 24.362-43.81l-36.542-122.672c59.164-21.03 113.105-50.821 158.347-82.364l93.965 98.136c6.96 7.01 15.66 10.515 24.36 10.515s17.401-3.506 24.36-10.514c13.921-14.02 13.921-35.049 1.741-49.07l-88.745-92.877c71.345-52.575 113.11-103.395 113.11-103.395 10.439-15.771 6.958-36.8-6.962-49.067z"  /></svg>