<?xml version="1.0" standalone="no"?><!DOCTYPE svg PUBLIC "-//W3C//DTD SVG 1.1//EN" "http://www.w3.org/Graphics/SVG/1.1/DTD/svg11.dtd"><svg class="icon" width="200px" height="200.00px" viewBox="0 0 1024 1024" version="1.1" xmlns="http://www.w3.org/2000/svg"><path fill="#333333" d="M807.08 749.242c74.375-57.517 132.3-136.284 165.401-227.515-69.675-191.86-249.48-328.553-460.24-328.553-75.805 0-147.625 17.674-211.885 49.344L190.634 132.796c-17.061-17.061-44.85-17.061-61.91 0-17.061 17.06-17.061 44.849 0 61.91l95.01 95.01C146.297 347.644 86.02 428.045 52 521.83c69.675 191.86 249.48 328.554 460.24 328.554 78.665 0 153.142-19.104 219.138-52.92l94.296 94.296c17.061 17.06 44.85 17.06 61.91 0 17.061-17.062 17.061-44.85 0-61.91l-80.503-80.607z m-294.84-19.308c-114.932 0-208.206-93.172-208.206-208.003 0-43.01 13.077-83.057 35.45-116.158l114.422 114.422c-31.16-7.765-62.217-16.96-62.217 1.736 0 66.61 53.942 120.552 120.552 120.552 18.695 0 36.37-4.189 52.102-11.851l63.954 64.056c-32.999 22.169-73.046 35.246-116.056 35.246z m177.048-98.485l-65.078-65.077c5.415-13.792 8.48-28.912 8.48-44.543 0-57.517-38.924-120.551-120.552-120.551-15.733 0-11.748 22.067-5.414 47.608L402.723 344.884c31.874-19.717 69.368-31.159 109.518-31.159 114.932 0 208.206 93.172 208.206 208.002 0 40.354-11.34 77.848-31.16 109.722z"  /></svg>