<?xml version="1.0" standalone="no"?><!DOCTYPE svg PUBLIC "-//W3C//DTD SVG 1.1//EN" "http://www.w3.org/Graphics/SVG/1.1/DTD/svg11.dtd"><svg class="icon" width="200px" height="200.00px" viewBox="0 0 1024 1024" version="1.1" xmlns="http://www.w3.org/2000/svg"><path fill="#333333" d="M512.3 383.48c-35.386 0 23.154 105.476 0 128.745-23.154 23.269-128.114-35.561-128.114 0 0 71.123 57.34 128.746 128.114 128.746s128.114-57.623 128.114-128.746c0-61.465-41.394-128.746-128.114-128.746z m0-222.48C288.183 161 97.05 307.088 23 512.225 97.05 717.362 288.183 863.45 512.3 863.45c224.117 0 415.25-146.088 489.3-351.225C927.55 307.088 736.417 161 512.3 161z m0 573.704c-122.215 0-221.386-99.55-221.386-222.479 0-122.929 99.17-222.48 221.386-222.48 122.215 0 221.386 99.66 221.386 222.48s-99.17 222.48-221.386 222.48z"  /></svg>