<?xml version="1.0" standalone="no"?><!DOCTYPE svg PUBLIC "-//W3C//DTD SVG 1.1//EN" "http://www.w3.org/Graphics/SVG/1.1/DTD/svg11.dtd"><svg class="icon" width="200px" height="200.00px" viewBox="0 0 1024 1024" version="1.1" xmlns="http://www.w3.org/2000/svg"><path fill="#333333" d="M864.2 301.8C760.7 216.5 637.8 164 513 164s-247.7 52.5-351.2 137.8C75.5 373 13 460.1 13 512s62.5 139 148.8 210.2C265.3 807.5 388.2 860 513 860c91.3 0 181.6-28 265.6-77.6 11.1-6.6 22-13.5 32.8-20.7 14.9-10.1 18.9-30.3 8.8-45.3s-30.3-18.9-45.3-8.8c-9.7 6.5-19.5 12.7-29.5 18.7-74.5 44-153.7 68.6-232.4 68.6-108.2 0-217.1-46.5-309.8-122.9-72.5-59.8-125-133-125-159.8s52.5-100 125-159.8C295.9 276 404.8 229.5 513 229.5S730.1 276 822.8 352.4c72.5 59.8 125 133 125 159.8 0 5.4-4.1 17.3-12.4 32.4-9.8 17.8-24.4 38.3-42.6 59.3-11.8 13.6-10.3 34.2 3.4 46s34.2 10.3 46-3.4c43.9-50.8 70.8-99.7 70.8-134.4 0-52-62.5-139.1-148.8-210.3z"  /><path fill="#333333" d="M324.6 512c0 105 84.3 190.3 188.4 190.3S701.4 617 701.4 512 617.1 321.7 513 321.7 324.6 407 324.6 512z m311.6 0c0 69.2-55.2 125.1-123.2 125.1S389.8 581.2 389.8 512 445 386.9 513 386.9 636.2 442.8 636.2 512z"  /></svg>