<?xml version="1.0" encoding="UTF-8"?>
<svg width="48px" height="48px" viewBox="0 0 48 48" version="1.1" xmlns="http://www.w3.org/2000/svg" xmlns:xlink="http://www.w3.org/1999/xlink">
    <title>EyeOutline</title>
    <g id="EyeOutline" stroke="none" stroke-width="1" fill="none" fill-rule="evenodd">
        <g id="编组">
            <rect id="矩形" fill="#FFFFFF" opacity="0" x="0" y="0" width="48" height="48"></rect>
            <path d="M23.9986223,7.45929361 C28.0170746,7.45929361 31.6957209,8.93641589 34.5365549,11.3850414 L34.8936772,11.6973364 L35.2891034,12.0521655 L35.2891034,12.0521655 L35.7120909,12.4402738 L35.7120909,12.4402738 L36.3982496,13.0848346 L36.3982496,13.0848346 L37.1464212,13.8042736 L37.1464212,13.8042736 L37.9566058,14.5985906 L37.9566058,14.5985906 L38.5311805,15.1697342 L38.5311805,15.1697342 L39.7630139,16.4118589 L39.7630139,16.4118589 L40.7592373,17.4308103 L40.7592373,17.4308103 L42.1839999,18.905889 L42.1839999,18.905889 L43.7190076,20.5140844 L43.7190076,20.5140844 L44.5278535,21.3681009 L44.5278535,21.3681009 C45.8839485,22.8033722 45.9331138,24.982381 44.6748554,26.471599 L44.5296686,26.6341562 L42.9470349,28.3029862 L41.8231699,29.4764736 L41.8231699,29.4764736 L40.4209525,30.9240847 L40.4209525,30.9240847 L39.4414913,31.9220141 L39.4414913,31.9220141 L38.2318122,33.1355479 L38.2318122,33.1355479 L37.6682309,33.6921554 L37.6682309,33.6921554 L36.8744317,34.4643673 L36.8744317,34.4643673 L36.1425198,35.16134 L36.1425198,35.16134 L35.4724952,35.7830737 L35.4724952,35.7830737 L35.0601941,36.1557632 L35.0601941,36.1557632 L34.6753984,36.4950132 C34.6135579,36.5487682 34.5528634,36.6011299 34.4933151,36.6520983 C31.6584398,39.0785125 27.9967169,40.5407064 23.9986223,40.5407064 C19.9766111,40.5407064 16.2950081,39.0609666 13.453144,36.6084507 L13.0965516,36.2962698 L12.7016818,35.9416095 L12.7016818,35.9416095 L12.0577186,35.347318 L12.0577186,35.347318 L11.3517651,34.6782653 L11.3517651,34.6782653 L10.5838213,33.9344514 L10.5838213,33.9344514 L9.75388717,33.1158763 L9.75388717,33.1158763 L8.55087893,31.9081476 L8.55087893,31.9081476 L7.23766569,30.5675101 L7.23766569,30.5675101 L5.81424743,29.0939637 L5.81424743,29.0939637 L3.87999882,27.0651277 C3.74530907,26.9229496 3.60947135,26.7793871 3.47248566,26.6344401 C2.11525167,25.1983266 2.06681251,23.0174889 3.32714559,21.5282184 L3.47256849,21.3656628 L5.42816596,19.3090719 L6.32758421,18.3728004 L6.32758421,18.3728004 L7.59968357,17.0612612 L7.59968357,17.0612612 L8.39639781,16.2488138 L8.39639781,16.2488138 L9.15203045,15.4858961 L9.15203045,15.4858961 L10.0631933,14.5777802 L10.0631933,14.5777802 L10.9797376,13.680487 L10.9797376,13.680487 L11.5458677,13.1364242 L11.5458677,13.1364242 L12.3277137,12.4015288 L12.3277137,12.4015288 L12.804045,11.9657311 L12.804045,11.9657311 L13.2444566,11.5732396 C13.3148653,11.5114331 13.3837773,11.4514311 13.4511926,11.3932336 C16.2933227,8.93971086 19.9756905,7.45929361 23.9986223,7.45929361 Z M23.9986223,10.3782418 C20.8245364,10.3782418 17.8252855,11.5194398 15.442216,13.5766697 L14.9159932,14.040979 L14.9159932,14.040979 L14.5219747,14.3994794 L14.5219747,14.3994794 L13.8775673,15.0008193 L13.8775673,15.0008193 L12.9190964,15.9209903 L12.9190964,15.9209903 L12.126115,16.6996435 L12.126115,16.6996435 L11.2698674,17.5539498 L11.2698674,17.5539498 L10.3505984,18.483706 L10.3505984,18.483706 L9.36855295,19.4887091 L9.36855295,19.4887091 L8.32397609,20.568756 L8.32397609,20.568756 L6.83435917,22.1252025 L6.83435917,22.1252025 L5.68080439,23.3414873 C5.32891726,23.7138024 5.32890826,24.2863557 5.68078368,24.6586814 L7.20087265,26.2595952 L9.0114733,28.1435828 L9.0114733,28.1435828 L10.0147238,29.1741551 L10.0147238,29.1741551 L11.2549516,30.431399 L11.2549516,30.431399 L12.1117438,31.2864452 L12.1117438,31.2864452 L12.6478684,31.8145192 L12.6478684,31.8145192 L13.3992793,32.5435538 L13.3992793,32.5435538 L13.8649361,32.9874434 L13.8649361,32.9874434 L14.5103252,33.5899364 L14.5103252,33.5899364 L15.0917938,34.1162501 L15.0917938,34.1162501 L15.4438143,34.4247099 L15.4438143,34.4247099 C17.8266466,36.4810834 20.8252584,37.6217582 23.9986223,37.6217582 C27.1532312,37.6217582 30.1352336,36.4946294 32.5118347,34.4604592 L32.8541249,34.1629079 L33.2363845,33.821348 L33.2363845,33.821348 L33.6472121,33.4455298 L33.6472121,33.4455298 L34.0865314,33.0355159 L34.0865314,33.0355159 L34.5542661,32.591369 L34.5542661,32.591369 L35.0503396,32.1131516 L35.0503396,32.1131516 L35.8474182,31.3320805 L35.8474182,31.3320805 L37.0086629,30.1719904 L37.0086629,30.1719904 L37.9531172,29.2132004 L37.9531172,29.2132004 L38.9603027,28.1785974 L38.9603027,28.1785974 L40.4003531,26.6815608 L40.4003531,26.6815608 L41.1618363,25.882798 L41.1618363,25.882798 L42.3197533,24.6601101 C42.6710789,24.2877712 42.6708817,23.7156983 42.3192996,23.3435888 L40.4337965,21.3598375 L38.6532801,19.5123637 L38.6532801,19.5123637 L37.3540609,18.184846 L37.3540609,18.184846 L36.4530391,17.2772765 L36.4530391,17.2772765 L35.6151841,16.4454085 L35.6151841,16.4454085 L34.840729,15.6894347 L34.840729,15.6894347 L34.359763,15.2277106 L34.359763,15.2277106 L33.9071474,14.79986 L33.9071474,14.79986 L33.2815321,14.2217214 L33.2815321,14.2217214 L32.9000948,13.8788039 L32.9000948,13.8788039 L32.5472496,13.5699595 L32.5472496,13.5699595 C30.1653362,11.5168956 27.1691951,10.3782418 23.9986223,10.3782418 Z M24,15.0013777 C28.8362717,15.0013777 32.7568446,19.030815 32.7568446,24.0013777 C32.7568446,28.9719405 28.8362717,33.0013777 24,33.0013777 C19.1637283,33.0013777 15.2431554,28.9719405 15.2431554,24.0013777 C15.2431554,19.030815 19.1637283,15.0013777 24,15.0013777 Z M24.0966115,18.0000181 L24.0966116,21.6000614 L24.0906117,21.7800609 C24.0005137,22.9780163 23.0415676,23.915743 21.8592341,23.9946721 L21.6966828,24.0000558 L18.0967896,24.0000558 L18.1027895,24.2604548 C18.2421728,27.4699685 20.884815,30.0002036 24.0972865,30.0000181 C27.4109262,29.9997931 30.096981,27.3133803 30.0967896,23.9996806 C30.0965646,20.6859529 27.4102231,17.9998268 24.0966115,18.0000181 Z" id="形状" fill="#333333" fill-rule="nonzero"></path>
        </g>
    </g>
</svg>