<?xml version="1.0" standalone="no"?><!DOCTYPE svg PUBLIC "-//W3C//DTD SVG 1.1//EN" "http://www.w3.org/Graphics/SVG/1.1/DTD/svg11.dtd"><svg class="icon" width="200px" height="200.00px" viewBox="0 0 1024 1024" version="1.1" xmlns="http://www.w3.org/2000/svg"><path fill="#333333" d="M910.65 745.635V204.389c0-81.714-66.242-147.957-147.957-147.957H261.915c-81.715 0-147.958 66.243-147.958 147.957v614.592c0 81.715 66.243 147.958 147.958 147.958h533.658c18.857 0 34.144-15.287 34.144-34.144 0-18.858-15.287-34.144-34.144-34.144H261.915c-44 0-79.67-35.67-79.67-79.67V204.39c0-44 35.67-79.669 79.67-79.669h500.778c44 0 79.67 35.67 79.67 79.67v541.245c0 18.857 15.286 34.144 34.144 34.144 18.857 0 34.144-15.287 34.144-34.144z"  /><path fill="#333333" d="M273.44 388.49h409.728c18.857 0 34.144-15.286 34.144-34.143 0-18.858-15.287-34.144-34.144-34.144H273.44c-18.857 0-34.144 15.286-34.144 34.144 0 18.857 15.287 34.144 34.144 34.144zM273.44 570.592h318.677c18.858 0 34.144-15.287 34.144-34.144s-15.286-34.144-34.144-34.144H273.44c-18.857 0-34.144 15.287-34.144 34.144s15.287 34.144 34.144 34.144zM273.44 729.93h227.627c18.857 0 34.144-15.286 34.144-34.143 0-18.858-15.287-34.144-34.144-34.144H273.44c-18.857 0-34.144 15.286-34.144 34.144 0 18.857 15.287 34.144 34.144 34.144z"  /></svg>