<?xml version="1.0" encoding="UTF-8"?>
<svg width="48px" height="48px" viewBox="0 0 48 48" version="1.1" xmlns="http://www.w3.org/2000/svg" xmlns:xlink="http://www.w3.org/1999/xlink">
    <title>FileOutline</title>
    <g id="FileOutline" stroke="none" stroke-width="1" fill="none" fill-rule="evenodd">
        <g id="编组">
            <rect id="矩形" fill="#FFFFFF" opacity="0" x="0" y="0" width="48" height="48"></rect>
            <path d="M38,4 C41.3137085,4 44,6.6862915 44,10 L44,38 C44,41.3137085 41.3137085,44 38,44 L10,44 C6.6862915,44 4,41.3137085 4,38 L4,10 C4,6.6862915 6.6862915,4 10,4 L38,4 Z M38,7 L10,7 C8.40231912,7 7.09633912,8.24891996 7.00509269,9.82372721 L7,10 L7,38 C7,39.5976809 8.24891996,40.9036609 9.82372721,40.9949073 L10,41 L38,41 C39.5976809,41 40.9036609,39.75108 40.9949073,38.1762728 L41,38 L41,10 C41,8.40231912 39.75108,7.09633912 38.1762728,7.00509269 L38,7 Z M23.6,29 C23.8209139,29 24,29.1790861 24,29.4 L24,31.6 C24,31.8209139 23.8209139,32 23.6,32 L14.4,32 C14.1790861,32 14,31.8209139 14,31.6 L14,29.4 C14,29.1790861 14.1790861,29 14.4,29 L23.6,29 Z M33.6,23 C33.8209139,23 34,23.1790861 34,23.4 L34,25.6 C34,25.8209139 33.8209139,26 33.6,26 L14.4,26 C14.1790861,26 14,25.8209139 14,25.6 L14,23.4 C14,23.1790861 14.1790861,23 14.4,23 L33.6,23 Z M33.6,17 C33.8209139,17 34,17.1790861 34,17.4 L34,19.6 C34,19.8209139 33.8209139,20 33.6,20 L14.4,20 C14.1790861,20 14,19.8209139 14,19.6 L14,17.4 C14,17.1790861 14.1790861,17 14.4,17 L33.6,17 Z" id="形状结合" fill="#333333" fill-rule="nonzero"></path>
        </g>
    </g>
</svg>