<?xml version="1.0" encoding="UTF-8"?>
<svg width="48px" height="48px" viewBox="0 0 48 48" version="1.1" xmlns="http://www.w3.org/2000/svg" xmlns:xlink="http://www.w3.org/1999/xlink">
    <title>FilterOutline</title>
    <g id="FilterOutline" stroke="none" stroke-width="1" fill="none" fill-rule="evenodd">
        <g id="编组">
            <rect id="矩形" fill="#FFFFFF" opacity="0" x="0" y="0" width="48" height="48"></rect>
            <path d="M38,4 C40.209139,4 42,5.76907707 42,7.95134424 L42,10.9773332 C42,11.5050389 41.7864467,12.0082085 41.4113229,12.3772068 L30,22.7810491 L30,37.3492129 C30,38.7371734 29.2628047,40.0233629 28.057983,40.7374627 L21.0289915,43.7181542 C20.081831,44.2795378 18.8533105,43.9761435 18.2850141,43.0405042 C18.0985157,42.7334543 18,42.3821079 18,42.0240293 L18,22.7810491 L6.7196312,12.4950865 C6.26364602,12.119721 6,11.5636728 6,10.9773332 L6,7.95134424 C6,5.76907707 7.790861,4 10,4 L38,4 Z M38,6.96350818 L10,6.96350818 C9.48716416,6.96350818 9.06449284,7.3448526 9.00672773,7.83614169 L9,7.95134424 L9,10.3374937 C9,10.450388 9.04770634,10.5580256 9.13134834,10.6338487 L20.8686517,21.2739462 C20.9522937,21.3497694 21,21.4574069 21,21.5703012 L21,39.7002583 C21,39.9211722 21.1790861,40.1002583 21.4,40.1002583 C21.4482784,40.1002583 21.496158,40.0915183 21.5413228,40.0744612 L26.5144958,38.1962754 L26.5144958,38.1962754 C26.7780505,38.0400661 26.9520986,37.7743552 26.9914926,37.477912 L27,37.3492129 L27,21.5702904 C27,21.4574024 27.047701,21.3497702 27.1313349,21.2739476 L38.8686651,10.6328595 C38.952299,10.5570368 39,10.4494047 39,10.3365167 L39,7.95134424 L39,7.95134424 C39,7.4447465 38.6139598,7.02721653 38.1166211,6.97015407 L38,6.96350818 Z M42,36.0229179 L42,38.186426 C42,38.4073399 41.8209139,38.586426 41.6,38.586426 L34.4,38.586426 C34.1790861,38.586426 34,38.4073399 34,38.186426 L34,36.0229179 C34,35.802004 34.1790861,35.6229179 34.4,35.6229179 L41.6,35.6229179 C41.8209139,35.6229179 42,35.802004 42,36.0229179 Z M42,30.0959015 L42,32.2594097 C42,32.4803236 41.8209139,32.6594097 41.6,32.6594097 L34.4,32.6594097 C34.1790861,32.6594097 34,32.4803236 34,32.2594097 L34,30.0959015 C34,29.8749876 34.1790861,29.6959015 34.4,29.6959015 L41.6,29.6959015 C41.8209139,29.6959015 42,29.8749876 42,30.0959015 Z M42,24.1688851 L42,26.3323933 C42,26.5533072 41.8209139,26.7323933 41.6,26.7323933 L34.4,26.7323933 C34.1790861,26.7323933 34,26.5533072 34,26.3323933 L34,24.1688851 C34,23.9479712 34.1790861,23.7688851 34.4,23.7688851 L41.6,23.7688851 C41.8209139,23.7688851 42,23.9479712 42,24.1688851 Z" id="形状" fill="#333333" fill-rule="nonzero"></path>
        </g>
    </g>
</svg>