<?xml version="1.0" encoding="UTF-8"?>
<svg width="48px" height="48px" viewBox="0 0 48 48" version="1.1" xmlns="http://www.w3.org/2000/svg" xmlns:xlink="http://www.w3.org/1999/xlink">
    <title>FireFill</title>
    <g id="FireFill" stroke="none" stroke-width="1" fill="none" fill-rule="evenodd">
        <g id="编组">
            <rect id="矩形" fill="#FFFFFF" opacity="0" x="0" y="0" width="48" height="48"></rect>
            <path d="M28.8108503,7.56598922 C30.6177257,11.2247948 29.7435561,14.4566853 29.3686834,16.547422 C28.9938108,18.6381586 27.8320537,21.667736 26.811586,22.9814259 C25.4534588,24.7297988 25.096928,26.8463629 27.1867256,27.9151175 C30.7994494,29.0194852 35.136931,20.7401744 32.9972358,12.4787872 L32.9972358,12.375382 C38.2946065,17.7800278 40.9640387,23.7306532 41,30.2286368 C41,30.53058 40.9308437,30.8256296 40.9059475,31.1289515 C40.0608578,41.5122137 31.1757433,46 24.9695754,46 C18.7634076,46 5.11895825,43.6837232 7.21715963,26.29786 C8.10965742,20.0019947 13.6519693,16.3384878 16.5060011,13.0395238 C18.1058217,11.1902976 20.2628465,8.94509773 23.0862649,2 C26.0599847,3.53866958 27.8638693,5.6256273 28.8108503,7.56598922 Z" id="蒙版备份-2" fill="#333333" fill-rule="nonzero"></path>
        </g>
    </g>
</svg>