<?xml version="1.0" standalone="no"?><!DOCTYPE svg PUBLIC "-//W3C//DTD SVG 1.1//EN" "http://www.w3.org/Graphics/SVG/1.1/DTD/svg11.dtd"><svg class="icon" width="200px" height="200.00px" viewBox="0 0 1024 1024" version="1.1" xmlns="http://www.w3.org/2000/svg"><path fill="#333333" d="M772.493 836.043c-1.2 0.776-2.313 1.724-3.427 2.671l-0.429 0.431c1.714-1.55 2.828-2.499 3.856-3.102z m0.857-0.517l-0.6 0.259-1.028 0.345-0.685 0.258-0.686 0.258c-3.342 1.12-7.884 2.5-13.197 3.964l-1.542 0.43-1.628 0.432c-14.14 3.705-31.964 7.668-51.502 11.287-54.415 9.908-114.572 15.94-173.7 15.94-100.434 0-191.097-19.128-272.335-57.212-10.969-5.17-17.91-16.198-17.91-28.347V530.945c8.827-1.551 18.853-2.327 30.164-2.327H746.7c11.311 0 21.423 0.776 30.164 2.327v164.224c0 16.37 13.197 29.726 29.564 29.726 16.368 0 29.564-13.27 29.564-29.726V520.605c0-48.25-40.276-47.992-89.292-47.992H268.7c-49.016 0-89.292-0.345-89.292 47.992V783.14c0 35.24 20.31 67.292 52.016 82.198 89.292 41.875 188.525 62.812 297.27 62.812 62.9 0 126.484-6.376 184.241-16.887l2.4-0.431 3.599-0.69c20.31-3.877 38.733-8.013 53.644-12.148l1.543-0.431 1.542-0.43c6.17-1.724 11.569-3.447 15.94-4.998 2.827-1.034 5.226-1.982 7.454-3.016 4.028-1.896 7.199-3.705 10.626-6.98 11.826-11.372 12.169-30.156 0.943-42.046-10.112-10.426-25.708-11.977-37.277-4.567z"  /><path fill="#333333" d="M187.121 299.514h265.907c48.931 0 88.607 39.893 88.607 89.091v52.817c0 49.199-39.676 89.092-88.607 89.092H187.121c-48.93 0-88.607-39.893-88.607-89.092v-52.817c-0.086-49.198 39.59-89.09 88.607-89.09z m0 59.366c-16.282 0-29.564 13.268-29.564 29.725v52.817c0 16.371 13.197 29.726 29.564 29.726h265.907c16.282 0 29.564-13.269 29.564-29.726v-52.817c0-16.37-13.196-29.725-29.564-29.725H187.121z"  /><path fill="#333333" d="M571.2 299.514h265.906c49.017 0 88.693 39.893 88.693 89.091v52.817c0 49.199-39.676 89.092-88.607 89.092H571.285c-48.93 0-88.607-39.893-88.607-89.092v-52.817c-0.086-49.198 39.59-89.09 88.521-89.09z m0 59.366c-16.282 0-29.565 13.268-29.565 29.725v52.817c0 16.371 13.197 29.726 29.564 29.726h265.907c16.282 0 29.565-13.269 29.565-29.726v-52.817c0-16.37-13.197-29.725-29.565-29.725H571.2z"  /><path fill="#333333" d="M482.592 227.569c0-72.462 58.529-131.31 130.597-131.31 72.068 0 130.597 58.848 130.597 131.31s-58.529 131.31-130.597 131.31H482.592V227.57z m130.597 71.945c39.42 0 71.554-32.31 71.554-71.945 0-39.634-32.135-71.945-71.554-71.945-39.419 0-71.554 32.31-71.554 71.945v71.945h71.554z"  /><path fill="#333333" d="M541.635 227.569c0-72.462-58.528-131.31-130.597-131.31-72.068 0-130.597 58.848-130.597 131.31s58.53 131.31 130.597 131.31h130.597V227.57z m-130.597 71.945c-39.419 0-71.554-32.31-71.554-71.945 0-39.634 32.135-71.945 71.554-71.945 39.42 0 71.554 32.31 71.554 71.945v71.945h-71.554zM486.963 467.1v414.265h59.9V467.1h-59.9z m24.594 24.728v24.729h10.711v-24.729h-10.711z m10.711 364.809v-24.815h-10.711v24.729h10.711v0.086z"  /></svg>