<?xml version="1.0" encoding="UTF-8"?>
<svg width="48px" height="48px" viewBox="0 0 48 48" version="1.1" xmlns="http://www.w3.org/2000/svg" xmlns:xlink="http://www.w3.org/1999/xlink">
    <title>GlobalOutline</title>
    <g id="GlobalOutline" stroke="none" stroke-width="1" fill="none" fill-rule="evenodd">
        <g id="编组">
            <rect id="矩形" fill="#FFFFFF" opacity="0" x="0" y="0" width="48" height="48"></rect>
            <path d="M24,2 C36.1502645,2 46,11.8497355 46,24 C46,36.1502645 36.1502645,46 24,46 C11.8497355,46 2,36.1502645 2,24 C2,11.8497355 11.8497355,2 24,2 Z M22.5000466,42.4403346 L22.5000466,24 L14.3913043,24 C14.3913043,33.4649419 18.2446927,40.9747273 22.5000466,42.4403346 Z M25.5,24 L25.500952,42.4399905 C29.7559102,40.9735523 33.6086957,33.4642014 33.6086957,24 L25.5,24 Z M5.3,24 C5.3,31.2731078 9.45216137,37.5764263 15.5153578,40.6688293 C12.7504509,36.634678 11,30.6632803 11,24 L5.3,24 Z M37,24 C37,30.6632803 35.2495491,36.634678 32.4843951,40.6690813 C38.5478386,37.5764263 42.7,31.2731078 42.7,24 L37,24 Z M15.5156049,7.33091875 L15.2946208,7.44561447 C10.196287,10.1321925 6.48991277,15.1049882 5.5393343,21.0002511 L11.1198383,21.0002511 C11.5582739,15.5581426 13.1727089,10.749241 15.5156049,7.33091875 Z M14.5224111,21 L22.5000466,21 L22.5000466,5.5596654 C18.7053742,6.8666071 15.2303454,12.9798886 14.5224111,21 Z M25.500952,5.56000947 L25.5,21 L33.4775889,21 C32.7697167,12.9805921 29.2952355,6.86767971 25.500952,5.56000947 Z M32.4846422,7.33117073 L32.5441633,7.4186565 C34.8547353,10.8312895 36.4454642,15.6045426 36.8801617,21.0002511 L42.4606657,21.0002511 C41.4964219,15.0202402 37.6965792,9.98940714 32.4846422,7.33117073 Z" id="形状" fill="#333333" fill-rule="nonzero"></path>
        </g>
    </g>
</svg>