<?xml version="1.0" standalone="no"?><!DOCTYPE svg PUBLIC "-//W3C//DTD SVG 1.1//EN" "http://www.w3.org/Graphics/SVG/1.1/DTD/svg11.dtd"><svg class="icon" width="200px" height="200.00px" viewBox="0 0 1024 1024" version="1.1" xmlns="http://www.w3.org/2000/svg"><path fill="#333333" d="M310.24 619.455c0-78.762 11.514-136.328 37.264-213.58l1.982-5.608 2.503-6.456c16.435-40.859 58.427-119.903 125.16-234.963 1.531-2.882 3.26-3.62 4.877-3.14 25.794 7.643 42.3 32.85 39.013 59.615l-27.83 167.13c-6.467 38.88 19.81 75.644 58.692 82.111a71.369 71.369 0 0 0 17.813 0.706l66.745-5.544 58.521-4.454c55.634-3.984 93.325-5.824 112.047-5.524 10.582 12.105 21.938 47.544 25.026 93.364 4.093 60.737-5.994 127.103-29.233 180.101l-3.445 8.1-2.1 5.407-0.826 2.37c0.374-1.193-0.726 0.629-3.4 4.952-9.428 15.235-4.72 35.228 10.516 44.656 14.34 8.872 32.893 5.223 42.886-7.939l2.54-3.818 4.109-6.657c1.17-1.952 2.081-3.624 2.887-5.407l1.148-2.808c0.183-0.496 0.996-2.873 1.3-3.681l2.765-6.73 1.04-2.39c56.834-129.619 44.02-319.763-27.791-359.757l-5.933-3.303-6.759-0.648c-26.838-2.57-110.66 2.457-257.591 15.067a6.488 6.488 0 0 1-6.955-7.529L585.238 224.6c7.346-59.58-28.58-114.445-84.78-131.1-31.47-9.324-65.126 5.022-80.193 34.18l-16.511 28.596-16.316 28.579c-55.934 98.602-89.69 165.118-101.485 200.503-27.776 83.329-40.593 147.414-40.593 234.097 0 85.62 6.722 149.995 20.033 220.153l0.848 3.437c16.152 52.834 130.237 91.088 245.13 91.088 44.321 0 85.24-2.97 123.127-8.105l14.066-2.026 13.59-2.228c9.408-1.626 19.073-3.44 26.367-4.864l11.895-2.513c17.77-2.284 30.324-18.541 28.04-36.311-2.15-16.725-16.677-28.83-33.194-28.29l-3.118 0.25c0.587-0.075-33.46 6.78-53.364 9.817-38.667 5.899-80.978 9.39-127.41 9.39-84.438 0-170.642-27.669-182.002-43.136l-0.71-1.137c-12.272-65.372-18.417-125.245-18.417-205.525zM148.669 447.647c-13.403 67.017-20.094 137.27-20.094 210.736 0 73.641 6.722 140.866 20.236 201.68 3.887 17.49 21.216 28.517 38.706 24.63 17.49-3.886 28.517-21.215 24.63-38.705-12.438-55.97-18.692-118.508-18.692-187.605 0-69.271 6.286-135.267 18.835-198.011 3.513-17.569-7.88-34.66-25.449-38.173-17.568-3.514-34.658 7.88-38.172 25.448z"  /></svg>