<?xml version="1.0" encoding="UTF-8"?>
<svg width="48px" height="48px" viewBox="0 0 48 48" version="1.1" xmlns="http://www.w3.org/2000/svg" xmlns:xlink="http://www.w3.org/1999/xlink">
    <title>HandPayCircleOutline</title>
    <g id="HandPayCircleOutline" stroke="none" stroke-width="1" fill="none" fill-rule="evenodd">
        <g id="编组">
            <rect id="矩形" fill="#FFFFFF" opacity="0" x="0" y="0" width="48" height="48"></rect>
            <path d="M42.2186164,20.6527432 C42.2186164,24.2548801 41.0067158,27.5732332 38.970122,30.2180318 C41.0559523,30.0642503 42.9931113,31.3094467 43.7272186,33.2758576 C44.5261999,35.4160184 43.5137742,37.80935 41.4251133,38.7179267 L41.2038539,38.8067934 L28.6805461,43.4399861 C27.0149139,44.0559366 25.2056831,44.1665578 23.4779444,43.7580891 L9.02967822,40.3447927 L4.40334316,40.3447927 C4.18116443,40.3447927 4.00105316,40.1639427 4.00105316,39.9408526 L4.00105316,37.719183 C4.00105312,37.4964856 4.18055298,37.3157989 4.40233899,37.3152427 L9.3806795,37.3152427 L24.1688494,40.8093239 C25.2227862,41.0581655 26.3239895,41.017704 27.3569999,40.6921815 L27.6375973,40.5972557 L40.1679295,35.9620417 C40.8166223,35.716648 41.1454945,34.9905639 40.9021074,34.3392103 C40.6146304,33.570277 39.8216896,33.1167673 39.0163724,33.26069 L38.8675252,33.294015 L31.5599247,35.2955404 L22.5063694,35.2955404 C22.2841906,35.2955404 22.1040794,35.1146903 22.1040794,34.8916003 L22.1040794,32.6699307 C22.1040794,32.4477637 22.2851099,32.2659906 22.5063693,32.2659906 L25.6241164,32.2659906 C26.457286,32.2655762 27.1323698,31.5870539 27.1319549,30.7504669 C27.1315702,29.9707834 26.5418141,29.3187481 25.7689409,29.2435111 L25.6241164,29.2364421 L4.40229,29.2364421 C4.18011127,29.2364421 4,29.0555921 4,28.8325021 L4,26.6108325 C4.00100571,26.3886655 4.18103056,26.2068924 4.40329602,26.2068924 L12.0518374,26.2079023 C11.3815294,24.4332292 11.0390139,22.5507321 11.0410835,20.6526991 C11.0410835,12.0083943 18.0208018,5 26.6298422,5 C35.238851,5 42.2186164,12.0083911 42.2186164,20.6527432 Z M14,20.4994964 C14,22.4734142 14.4579998,24.3393364 15.2719991,25.9992516 L25,25.9992516 L25,23.9993334 L21.4000106,23.9993334 C21.1790968,23.9993334 21.000011,23.8202549 21.000011,23.5993502 L21.000011,21.3994434 C21.000011,21.1794527 21.1800109,20.9994602 21.4000106,20.9994602 L24.9990097,20.9994602 L24.9990097,19.9995035 L21.4000106,19.9995035 C21.1790968,19.9995035 21.000011,19.820425 21.000011,19.5995203 L21.000011,17.3996135 C21.000011,17.1796229 21.1800109,16.9996304 21.4000106,16.9996304 L24.46501,16.9996304 L20.8330134,13.36874 C20.6767168,13.2126237 20.6765761,12.9593681 20.8326987,12.8030761 L22.3890139,11.2468247 C22.5451446,11.0910777 22.7978827,11.0910777 22.954012,11.2468247 L26.5000118,14.7927202 L30.0460116,11.2468247 C30.2021423,11.0910778 30.4548804,11.0910778 30.6110097,11.2468247 L32.1670102,12.8027614 C32.3233068,12.9588778 32.3234474,13.2121333 32.1673248,13.3684254 L28.5340104,16.9996304 L31.6000083,16.9996304 C31.820008,16.9996304 32,17.1796229 32,17.3996136 L32,19.5995203 C32,19.820425 31.8209221,19.9995035 31.6000083,19.9995035 L27.9990123,19.9995035 L27.9990123,20.9994603 L31.6000083,20.9994603 C31.820008,20.9994603 32,21.1794528 32,21.3994434 L32,23.5993502 C32,23.820255 31.820922,23.9993334 31.6000083,23.9993334 L27.9990122,23.9993334 L27.9990122,26.7562185 C29.713211,27.8980975 30.4322121,30.0587293 29.7440125,32 L31.0000132,31.999 L32.003011,31.7260114 C36.2867693,29.6257285 39.0013502,25.2702334 39,20.4994947 C39,13.5957981 33.4040103,8 26.4999838,8 C19.5960274,8 14,13.5957529 14,20.4994964 Z" id="形状" fill="#333333" fill-rule="nonzero"></path>
        </g>
    </g>
</svg>