<?xml version="1.0" standalone="no"?><!DOCTYPE svg PUBLIC "-//W3C//DTD SVG 1.1//EN" "http://www.w3.org/Graphics/SVG/1.1/DTD/svg11.dtd"><svg class="icon" width="200px" height="200.00px" viewBox="0 0 1024 1024" version="1.1" xmlns="http://www.w3.org/2000/svg"><path fill="#333333" d="M512 54.7c-252.1 0-456.5 204.4-456.5 456.5S259.9 967.6 512 967.6c69.9 0 137.6-15.8 199.2-45.7 10.8-5.3 21.4-10.9 31.8-17 16.7-9.8 22.3-31.3 12.5-48.1-9.8-16.7-31.3-22.3-48.1-12.5-8.8 5.2-17.7 10-26.9 14.4-52.1 25.3-109.3 38.6-168.5 38.6-213.3 0-386.2-172.9-386.2-386.2S298.7 125 512 125s386.2 172.9 386.2 386.2c0 55.2-11.6 108.7-33.6 157.9-3.7 8.3-7.7 16.5-12 24.5-9.2 17.1-2.8 38.4 14.3 47.5 17.1 9.2 38.4 2.8 47.5-14.3 5.1-9.5 9.8-19.1 14.2-28.9 26.1-58.2 39.8-121.5 39.8-186.7 0.1-252.1-204.3-456.5-456.4-456.5z"  /><path fill="#333333" d="M523.7 745.3c19.4 0 35.1-15.7 35.1-35.1V452.7v-1.8c-0.1-1.2-0.2-2.4-0.4-3.5-0.3-1.7-0.7-3.4-1.2-5.1-1.2-3.8-3-7.4-5.4-10.6-2-2.7-4.4-5.1-7.1-7.1-3.2-2.4-6.7-4.2-10.6-5.4-1.6-0.5-3.4-0.9-5.1-1.2-1.2-0.2-2.3-0.3-3.5-0.4h-72c-19.4 0-35.1 15.7-35.1 35.1 0 19.4 15.7 35.1 35.1 35.1h35.1v222.4c0 19.3 15.8 35.1 35.1 35.1z"  /><path fill="#333333" d="M478.897483 357.029833a46.8 46.8 0 1 0 66.184039-66.18635 46.8 46.8 0 1 0-66.184039 66.18635Z"  /></svg>