<?xml version="1.0" standalone="no"?><!DOCTYPE svg PUBLIC "-//W3C//DTD SVG 1.1//EN" "http://www.w3.org/Graphics/SVG/1.1/DTD/svg11.dtd"><svg class="icon" width="200px" height="200.00px" viewBox="0 0 1024 1024" version="1.1" xmlns="http://www.w3.org/2000/svg"><path fill="#333333" d="M965.095 329.971L543.989 124.396a73.55 73.55 0 0 0-64.29 0L58.593 329.971c-15.55 7.586-21.998 26.36-14.413 42.006 7.586 15.551 26.361 22 42.007 14.413l59.453-29.015v429.07c0 64.86 48.644 118.434 110.563 120.994l4.552 0.095h502.274c17.352 0 31.386-14.034 31.386-31.386 0-16.31-12.422-29.68-28.352-31.292l-3.034-0.19h-94.064V598.793c0-59.548-42.196-107.813-94.159-107.813H449.261c-51.962 0-94.158 48.265-94.158 107.813v245.97H260.66c-27.31 0-50.446-23.706-52.247-54.523l-0.095-3.698V326.747l298.88-145.837a10.447 10.447 0 0 1 9.198 0l298.88 145.837v402.9c0 17.353 14.033 31.386 31.386 31.386 16.31 0 29.68-12.421 31.291-28.351l0.19-3.035V357.375l59.454 29.015c15.55 7.586 34.42 1.138 42.006-14.413 7.49-15.55 1.043-34.42-14.508-42.006z m-547.22 268.821c0-19.817 14.034-35.937 31.386-35.937h125.545c17.353 0 31.386 16.12 31.386 35.937v245.97H417.875v-245.97z"  /></svg>