<?xml version="1.0" encoding="UTF-8"?>
<svg width="49px" height="48px" viewBox="0 0 49 48" version="1.1" xmlns="http://www.w3.org/2000/svg" xmlns:xlink="http://www.w3.org/1999/xlink">
    <title>InformationCircleOutline</title>
    <g id="InformationCircleOutline" stroke="none" stroke-width="1" fill="none" fill-rule="evenodd" transform="translate(1.000000, 0.000000)">
        <g id="编组">
            <rect id="矩形" fill="#FFFFFF" opacity="0" x="0" y="0" width="48" height="48"></rect>
            <path d="M24,2 C36.1502645,2 46,11.8497355 46,24 C46,36.1502645 36.1502645,46 24,46 C11.8497355,46 2,36.1502645 2,24 C2,11.8497355 11.8497355,2 24,2 Z M24,5 C13.5065898,5 5,13.5065898 5,24 C5,34.4934102 13.5065898,43 24,43 C34.4934102,43 43,34.4934102 43,24 C43,13.5065898 34.4934102,5 24,5 Z M25.6,20 C25.8209139,20 26,20.1790861 26,20.4 L26,34.6 C26,34.8209139 25.8209139,35 25.6,35 L23.4,35 C23.1790861,35 23,34.8209139 23,34.6 L23,23 L21.4,23 C21.1790861,23 21,22.8209139 21,22.6 L21,20.4 C21,20.1790861 21.1790861,20 21.4,20 L25.6,20 Z M25.6,14 C25.8209139,14 26,14.1790861 26,14.4 L26,16.6 C26,16.8209139 25.8209139,17 25.6,17 L23.4,17 C23.1790861,17 23,16.8209139 23,16.6 L23,14.4 C23,14.1790861 23.1790861,14 23.4,14 L25.6,14 Z" id="形状结合" fill="#333333" fill-rule="nonzero"></path>
        </g>
    </g>
</svg>