<?xml version="1.0" standalone="no"?><!DOCTYPE svg PUBLIC "-//W3C//DTD SVG 1.1//EN" "http://www.w3.org/Graphics/SVG/1.1/DTD/svg11.dtd"><svg class="icon" width="200px" height="200.00px" viewBox="0 0 1024 1024" version="1.1" xmlns="http://www.w3.org/2000/svg"><path fill="#333333" d="M829.5 304.8l49.1-49.1c31.3-31.3 31.3-82 0-113.3-31.3-31.3-82-31.3-113.3 0L472.9 434.8c-35.6-18.2-75.9-28.5-118.6-28.5C210.5 406.3 94 522.8 94 666.7 94 810.4 210.5 927 354.3 927s260.3-116.6 260.3-260.4c0-42.7-10.3-82.9-28.5-118.5l172.5-172.5 55.7 55.7c19.6 19.5 51.2 19.5 70.8 0 19.6-19.6 19.6-51.2 0-70.8l-55.6-55.7z m-355 361.8c0 66.4-53.8 120.2-120.1 120.2-66.4 0-120.1-53.8-120.1-120.2s53.8-120.2 120.1-120.2c66.3 0.1 120.1 53.9 120.1 120.2z"  /></svg>