<?xml version="1.0" encoding="UTF-8"?>
<svg width="48px" height="48px" viewBox="0 0 48 48" version="1.1" xmlns="http://www.w3.org/2000/svg" xmlns:xlink="http://www.w3.org/1999/xlink">
    <title>KeyOutline</title>
    <g id="KeyOutline" stroke="none" stroke-width="1" fill="none" fill-rule="evenodd">
        <g id="编组">
            <rect id="矩形" fill="#FFFFFF" opacity="0" x="0" y="0" width="48" height="48"></rect>
            <path d="M29.2560785,4 C37.175035,4 43.5946176,10.4195826 43.5946176,18.3385391 C43.5946176,26.2574956 37.175035,32.6770783 29.2560785,32.6770783 C25.8305509,32.6770783 22.6855854,31.4758493 20.2194378,29.471647 L16.0256176,33.6650213 L20.0588981,37.6984676 C20.2151078,37.8546773 20.2151078,38.1079433 20.0588981,38.2641531 L18.5268846,39.7961666 C18.3706749,39.9523763 18.1174089,39.9523763 17.9611992,39.7961666 L13.9276176,35.7630213 L9.8113188,39.8809978 C9.65510908,40.0372075 9.40184309,40.0372075 9.24563337,39.8809978 L7.71361985,38.3489842 C7.55741013,38.1927745 7.55741013,37.9395085 7.71361985,37.7832988 L18.1229706,27.3751798 C16.1187684,24.9090322 14.9175393,21.7640667 14.9175393,18.3385391 C14.9175393,10.4195826 21.337122,4 29.2560785,4 Z M29.2560785,6.9665943 C22.9755268,6.9665943 17.8841337,12.0579874 17.8841337,18.3385391 C17.8841337,24.6190908 22.9755268,29.710484 29.2560785,29.710484 C35.5366302,29.710484 40.6280233,24.6190908 40.6280233,18.3385391 C40.6280233,12.0579874 35.5366302,6.9665943 29.2560785,6.9665943 Z" id="形状结合" fill="#333333"></path>
        </g>
    </g>
</svg>