<?xml version="1.0" standalone="no"?><!DOCTYPE svg PUBLIC "-//W3C//DTD SVG 1.1//EN" "http://www.w3.org/Graphics/SVG/1.1/DTD/svg11.dtd"><svg class="icon" width="200px" height="200.00px" viewBox="0 0 1024 1024" version="1.1" xmlns="http://www.w3.org/2000/svg"><path fill="#333333" d="M828 204H180.4c-35.9 0-64.4 29.5-64.4 65.7v162.6c0 168.7 104.6 320.9 251.7 377.3v62.5c0 12.7 4 16.5 14.8 17.4C630.2 910.1 893 716.8 893 432.6V269.4c-0.3-36.2-29.4-65.4-65-65.4zM726.8 559.1c-39 66.8-99.5 108.5-175.6 120.4-16.5 2.6-31.9 3.5-45.6 3.5-33.6 0-56.7-5.5-58.1-5.8l-1.1-0.3c-107.2-33-158.8-105.3-183.3-160.3-26.2-58.7-27.4-109.4-27.4-112.6h-0.3c0.3-11 8.8-19.7 19.7-19.4 10.5 0 18.8 8.4 19.7 18.8h0.3c0 0.6 1.1 46.3 24.5 98.1 30.8 68 83.5 114 157.6 137.2 4.6 0.9 42.8 9 89.2 1.4 64.1-10.4 113.4-44.6 146.2-101.3l0.3 0.3c5.4-9 17.1-12.2 26.2-6.7 9.4 5.2 12.6 17.1 7.7 26.7z m55.3-143.6c-0.6 15.3-12.8 28.1-28.2 28.6-16.2-0.6-29.1-14.5-28.2-31 0.6-15.6 12.8-28.1 28.2-28.6 16.3 0.6 29.1 14.5 28.2 31z"  /></svg>