<?xml version="1.0" standalone="no"?><!DOCTYPE svg PUBLIC "-//W3C//DTD SVG 1.1//EN" "http://www.w3.org/Graphics/SVG/1.1/DTD/svg11.dtd"><svg class="icon" width="200px" height="200.00px" viewBox="0 0 1024 1024" version="1.1" xmlns="http://www.w3.org/2000/svg"><path fill="#333333" d="M830.8 158H192.4C129.6 158 79 209.6 79 272.6v159.9c0 91 27 179.4 78.1 255.3 12 17.7 24.9 34.2 38.9 49.7 30.5 34 65.5 62.6 104 84.9 5.8 3.4 11.7 6.6 17.7 9.7l9 4.5v37.2c0 39.4 21.9 54.8 60.4 58.2 13.7 1 27 1.5 40.2 1.5 95.7 0 192.4-28.1 276-79.8 27.9-17.3 54.2-37.1 78.3-59.1 13.2-12.1 14.2-32.6 2.1-45.8s-32.6-14.2-45.8-2.1c-21.1 19.3-44.1 36.6-68.7 51.8-73.5 45.4-158.4 70.1-241.8 70.1-7.8 0-15.6-0.2-23.4-0.6l-12.3-0.8v-73.1l-19.8-8.4c-13.4-5.7-26.5-12.2-39.1-19.5-32.5-18.9-62.2-43.2-88.3-72.1-11.9-13.3-23.1-27.6-33.4-42.7-43.8-65-66.9-140.9-66.9-218.9V272.6c0-27.5 21.8-49.7 48.5-49.7h638.4c26.7 0 48.7 22.3 48.5 49v160.2c0 12.1-0.5 24-1.5 36l-2.5 24.6c-0.9 7.6-2 15.6-3.4 24.1-3.9 23.6-9.6 46.9-17.4 68.9-6 16.9 2.9 35.4 19.8 41.4 16.9 6 35.4-2.9 41.4-19.8 9.1-25.8 15.7-52.8 20.2-79.8 1.1-6.4 2-12.6 2.8-18.6l1.7-14.6 0.7-7.1c2.1-18.2 3.1-36.6 3.1-55.1V272.2c0.2-62.5-50.9-114.2-113.7-114.2z"  /><path fill="#333333" d="M677.7 513.3c-15.2-9.1-33.8-5.3-44.6 7.9l-1.9 2.6c-38.4 43.8-72.5 67.7-101.3 72.5-26.5 4.5-58.9 4.1-67.8 2.3-51.9-16.9-89.6-50.8-112-101.8-8.4-19-11.1-29.6-13.5-49.2l-1.2-10.7c-1.1-8.4-2.2-13.7-4.4-19.8-7.7-17.5-18.6-28.1-34.3-28.1-19.3 0-34.4 15.6-35.1 34.8 1 33.4 9 66.7 23.6 101.2 27.5 63.5 76 114.3 150.3 140.5l8.4 2.8c7.7 2.7 30.3 6 52.8 6 13.3 0 26.3-1 39.6-3.3 66.4-10.6 119.7-48.4 154.1-108.8 9.7-17.4 4-38.9-12.7-48.9zM733.5 433.5c0-23.9-18-44.7-41.4-44.7s-41.4 20.7-41.4 44.7c0 23.9 18 44.7 41.4 44.7 23.6 0 41.4-20.6 41.4-44.7z"  /></svg>