<?xml version="1.0" standalone="no"?><!DOCTYPE svg PUBLIC "-//W3C//DTD SVG 1.1//EN" "http://www.w3.org/Graphics/SVG/1.1/DTD/svg11.dtd"><svg class="icon" width="200px" height="200.00px" viewBox="0 0 1024 1024" version="1.1" xmlns="http://www.w3.org/2000/svg"><path fill="#333333" d="M737.66 149.521L358.837 489.938c-12.185 10.95-13.186 29.703-2.237 41.888a29.675 29.675 0 0 0 2.237 2.236L737.66 874.48c15.2 13.658 16.448 37.052 2.79 52.251-13.658 15.2-37.052 16.448-52.252 2.79L309.375 589.104a103.655 103.655 0 0 1-7.817-7.817c-38.266-42.583-34.766-108.124 7.817-146.39L688.198 94.48c15.2-13.659 38.594-12.41 52.252 2.79 13.658 15.199 12.41 38.593-2.79 52.251z"  /></svg>