<?xml version="1.0" encoding="UTF-8"?>
<svg width="48px" height="48px" viewBox="0 0 48 48" version="1.1" xmlns="http://www.w3.org/2000/svg" xmlns:xlink="http://www.w3.org/1999/xlink">
    <title>LeftOutline</title>
    <g id="LeftOutline" stroke="none" stroke-width="1" fill="none" fill-rule="evenodd">
        <g id="编组">
            <rect id="矩形" fill="#FFFFFF" opacity="0" x="0" y="0" width="48" height="48"></rect>
            <path d="M31.7053818,5.11219264 L13.5234393,22.6612572 L13.5234393,22.6612572 C12.969699,23.2125856 12.9371261,24.0863155 13.4257204,24.6755735 L13.5234393,24.7825775 L31.7045714,42.8834676 C31.7795345,42.9580998 31.8810078,43 31.9867879,43 L35.1135102,43 C35.3344241,43 35.5135102,42.8209139 35.5135102,42.6 C35.5135102,42.4936115 35.4711279,42.391606 35.3957362,42.316542 L16.7799842,23.7816937 L16.7799842,23.7816937 L35.3764658,5.6866816 C35.5347957,5.53262122 35.5382568,5.27937888 35.3841964,5.121049 C35.3088921,5.04365775 35.205497,5 35.0975148,5 L31.9831711,5 C31.8795372,5 31.7799483,5.04022164 31.7053818,5.11219264 Z" id="路径" fill="#333333" fill-rule="nonzero"></path>
        </g>
    </g>
</svg>