<?xml version="1.0" standalone="no"?><!DOCTYPE svg PUBLIC "-//W3C//DTD SVG 1.1//EN" "http://www.w3.org/Graphics/SVG/1.1/DTD/svg11.dtd"><svg class="icon" width="200px" height="200.00px" viewBox="0 0 1024 1024" version="1.1" xmlns="http://www.w3.org/2000/svg"><path fill="#333333" d="M849.805 625.045L630.844 826.156c-13.888 12.756-14.806 34.356-2.05 48.244 12.756 13.888 34.355 14.806 48.243 2.05L893.13 678.003c68.706-57.55 108.22-143.72 108.572-236.257 0.104-42.82-7.92-84.066-23.954-122.744-15.523-37.69-37.898-71.24-66.444-99.547-53.933-53.592-124.778-83.26-199.35-83.26-75.199 0-147.769 30.327-198.516 81.574-50.928-51.283-123.846-81.574-199.665-81.574-74.99 0-146.328 29.851-200.52 83.815-28.454 28.328-50.88 61.855-66.396 99.3C30.835 357.845 22.802 399 22.906 441.602c0.466 92.27 40.232 178.39 109.268 236.287l359.743 292.86c14.624 11.905 36.13 9.7 48.035-4.924 11.905-14.624 9.7-36.13-4.923-48.035l-359.36-292.542c-53.147-44.577-84.11-111.633-84.474-183.903-0.083-33.527 6.199-65.71 18.733-95.856 12.087-29.168 29.451-55.13 51.507-77.087 41.477-41.303 95.525-63.92 152.338-63.92 69.182 0 135.054 33.176 171.651 85.898l28.082 40.454 28.037-40.485c36.48-52.676 102.016-85.866 170.41-85.866 56.4 0 109.984 22.44 151.243 63.438 22.069 21.883 39.339 47.78 51.44 77.16 12.578 30.34 18.86 62.635 18.777 96.452-0.262 69.368-28.348 133.669-77.194 178.066l-5.512 4.85-0.902 0.596z"  /></svg>