<?xml version="1.0" standalone="no"?><!DOCTYPE svg PUBLIC "-//W3C//DTD SVG 1.1//EN" "http://www.w3.org/Graphics/SVG/1.1/DTD/svg11.dtd"><svg class="icon" width="200px" height="200.00px" viewBox="0 0 1024 1024" version="1.1" xmlns="http://www.w3.org/2000/svg"><path fill="#333333" d="M953.9 702.4L630.2 109.9l-3.2-5.5c-11.1-18-26.5-33-44.9-43.6-60.5-34.6-137.7-13.6-172.3 46.9l-339 592.5c-11 19.1-16.8 40.7-16.8 62.7 0 69.7 56.5 126.3 126.3 126.3H843c21.2 0 42-5.3 60.5-15.5 61.3-33.4 83.8-110.1 50.4-171.3z m-83.4 110.9c-8.4 4.6-17.9 7-27.5 7H180.3c-31.7 0-57.4-25.7-57.4-57.4 0-10 2.6-19.8 7.6-28.5l339-592.5c15.7-27.5 50.8-37.1 78.3-21.3 9.2 5.3 16.8 13 21.9 22.3l323.7 592.5c15.2 27.8 5 62.7-22.9 77.9z"  /><path fill="#333333" d="M485.658199 691.410805a34.4 34.4 0 1 0 67.912477-11.015235 34.4 34.4 0 1 0-67.912477 11.015235Z"  /><path fill="#333333" d="M519.6 249.6c-19 0-34.4 15.4-34.4 34.4v287c0 19 15.4 34.4 34.4 34.4S554 590 554 571V284c0.1-18.9-15.4-34.4-34.4-34.4z"  /></svg>