<?xml version="1.0" encoding="UTF-8"?>
<svg width="48px" height="48px" viewBox="0 0 48 48" version="1.1" xmlns="http://www.w3.org/2000/svg" xmlns:xlink="http://www.w3.org/1999/xlink">
    <title>LinkOutline</title>
    <g id="LinkOutline" stroke="none" stroke-width="1" fill="none" fill-rule="evenodd">
        <g id="编组">
            <rect id="矩形" fill="#FFFFFF" opacity="0" x="0" y="0" width="48" height="48"></rect>
            <path d="M19.3070709,22.3864956 C19.3154881,22.3915369 19.3242765,22.3968649 19.3334361,22.4024795 C19.4991676,22.5040303 19.5511606,22.720714 19.4495824,22.8864287 L19.4258941,22.9204094 L19.4258941,22.9204094 L19.3983773,22.9513715 L19.3983773,22.9513715 L18.4015059,23.9481693 C18.3449434,24.0047276 18.29036,24.059307 18.2377556,24.1119075 L17.8177527,24.5318794 C17.7888752,24.5607548 17.7536368,24.5959906 17.7120376,24.6375867 C17.5997672,24.7498919 17.4316912,24.7851233 17.2837603,24.7273864 C17.2261203,24.7048898 17.1771782,24.6872777 17.1369338,24.6745502 C16.1573332,24.3647471 15.0499749,24.5704561 14.2400363,25.2916773 L14.1119397,25.41258 L9.87419951,29.6503202 C8.74577344,30.7787463 8.70547251,32.5832466 9.75329672,33.7599637 L9.87419951,33.8880603 L14.1119397,38.1258005 C15.2403657,39.2542266 17.0448661,39.2945275 18.2215832,38.2467033 L18.3496798,38.1258005 L22.58742,33.8880603 C23.076114,33.3993663 23.3607251,32.7838714 23.4412532,32.147482 C23.4528652,32.0557158 23.4593589,31.9284346 23.4607343,31.7656383 C23.4616616,31.6607476 23.5037188,31.5604028 23.5778849,31.4862254 L25.5512509,29.5125596 L25.5512509,29.5125596 C25.6734025,29.3903895 25.8714645,29.3903744 25.9936347,29.512526 C26.0238559,29.5427426 26.047565,29.5788313 26.0633346,29.6185514 C26.0766631,29.6522102 26.0883529,29.6828094 26.098404,29.7103491 C26.8728645,31.832353 26.4088265,34.3043939 24.70629,36.0069304 L20.4685499,40.2446706 C18.1281106,42.5851098 14.3335088,42.5851098 11.9930696,40.2446706 L7.75532944,36.0069304 C5.41489019,33.6664912 5.41489019,29.8718894 7.75532944,27.5314501 L11.9930696,23.29371 C13.9767103,21.3100692 17.0049372,21.0076644 19.3070709,22.3864956 Z M29.5800179,17.5730875 L31.1332025,19.1262721 C31.2894123,19.2824818 31.2894123,19.5357478 31.1332025,19.6919576 L19.6919576,31.1332025 C19.5357478,31.2894123 19.2824818,31.2894123 19.1262721,31.1332025 L17.5730875,29.5800179 C17.4168778,29.4238082 17.4168778,29.1705422 17.5730875,29.0143325 L29.0143325,17.5730875 C29.1705422,17.4168778 29.4238082,17.4168778 29.5800179,17.5730875 Z M36.0069304,7.75532944 L40.2446706,11.9930696 C42.5851098,14.3335088 42.5851098,18.1281106 40.2446706,20.4685499 L36.0069304,24.70629 C34.3139614,26.399259 31.8601123,26.86761 29.7461563,26.111343 C29.6989354,26.0944497 29.6433223,26.0730296 29.579317,26.0470825 C29.4327943,25.9877288 29.3621741,25.8208143 29.4215665,25.6743073 L29.4482548,25.6236952 L29.4482548,25.6236952 L29.4844761,25.5794024 L29.4844761,25.5794024 L30.3244327,24.7397766 C30.4498821,24.6143765 30.5680599,24.4962453 30.678966,24.3853828 L31.1289599,23.9355661 C31.1735055,23.891038 31.2162332,23.8483272 31.2571429,23.8074335 C31.3132938,23.7513048 31.3898882,23.6747405 31.4869263,23.5777407 C31.5610166,23.50364 31.6612358,23.4615962 31.7660182,23.4606282 C31.9325484,23.4590899 32.0626267,23.4522573 32.156253,23.4401303 C32.735117,23.3651525 33.2962797,23.1212167 33.7599637,22.7083227 L33.8880603,22.58742 L38.1258005,18.3496798 C39.2542266,17.2212537 39.2945275,15.4167534 38.2467033,14.2400363 L38.1258005,14.1119397 L33.8880603,9.87419951 C32.7596343,8.74577344 30.9551339,8.70547251 29.7784168,9.75329672 L29.6503202,9.87419951 L25.41258,14.1119397 C24.5919073,14.9326125 24.3467707,16.1108776 24.6771705,17.1451775 C24.6893239,17.1832233 24.7059351,17.2292373 24.727004,17.2832194 C24.7847503,17.4311093 24.7495459,17.5991477 24.6373114,17.7114397 L24.1407187,18.2082868 C24.0635272,18.2855179 23.9798194,18.3692686 23.8895953,18.4595389 L23.4396023,18.9097624 C23.3298294,19.0195915 23.2135403,19.1359402 23.090735,19.2588085 L22.9016397,19.4480006 L22.9016397,19.4480006 C22.7859074,19.5637922 22.5982202,19.5638403 22.4824286,19.448108 C22.4667877,19.4324751 22.4529452,19.415141 22.4411795,19.3964168 C22.4354014,19.3872431 22.4299549,19.378504 22.42484,19.3701996 C21.0022612,17.0605464 21.2918846,13.994895 23.29371,11.9930696 L27.5314501,7.75532944 C29.8718894,5.41489019 33.6664912,5.41489019 36.0069304,7.75532944 Z" id="形状" fill="#333333" fill-rule="nonzero"></path>
        </g>
    </g>
</svg>