<?xml version="1.0" standalone="no"?><!DOCTYPE svg PUBLIC "-//W3C//DTD SVG 1.1//EN" "http://www.w3.org/Graphics/SVG/1.1/DTD/svg11.dtd"><svg class="icon" width="200px" height="200.00px" viewBox="0 0 1024 1024" version="1.1" xmlns="http://www.w3.org/2000/svg"><path fill="#333333" d="M588.8 702.9c-13.9-12.8-35.5-11.9-48.2 1.9l-2.6 2.8-100.7 99.1-4.3 4.1c-61.4 56-157.6 54.7-217.2-3.9-60.7-59.7-60.7-156.4 0.2-216.2l98-96.4 4.3-4.1c61.5-56 157.5-54.7 217.2 3.9 14.5 14.4 25.8 31.1 33.5 49.4 7.3 17.4 27.3 25.5 44.7 18.2s25.6-27.3 18.3-44.6c-11.1-26.5-27.5-50.7-48.5-71.5-87.7-86.2-229.6-86.1-317.4 0.1l-98 96.5-4.8 4.9c-83.2 86.8-81.6 223.7 4.6 308.5 87.6 86.2 229.6 86.1 317.3-0.2l98-96.3 3.8-3.9 3.7-3.9c12.8-14 12-35.6-1.9-48.4z"  /><path fill="#333333" d="M856.1 188.6c-87.6-86.2-229.6-86.1-317.3 0.2l-98 96.4-5.2 5.3-5.1 5.5c-12.5 14.1-11.2 35.6 2.9 48.1s35.7 11.2 48.2-2.9c2.3-2.6 4.7-5.1 7.2-7.5l98-96.4 4.3-4.1c61.4-56 157.5-54.7 217.2 3.9 60.7 59.7 60.7 156.5-0.1 216.3l-98 96.4-4.3 4.1c-61.4 56-157.5 54.7-217.2-3.9-13.4-13.2-35-13-48.3 0.4-13.2 13.4-13.1 35 0.4 48.2 87.6 86.2 229.6 86.1 317.3-0.2l98-96.4 4.8-4.9c83-86.8 81.5-223.7-4.8-308.5z"  /></svg>