<?xml version="1.0" encoding="UTF-8"?>
<svg width="48px" height="48px" viewBox="0 0 48 48" version="1.1" xmlns="http://www.w3.org/2000/svg" xmlns:xlink="http://www.w3.org/1999/xlink">
    <title>LocationOutline</title>
    <g id="LocationOutline" stroke="none" stroke-width="1" fill="none" fill-rule="evenodd">
        <g id="编组">
            <rect id="矩形" fill="#FFFFFF" opacity="0" x="0" y="0" width="48" height="48"></rect>
            <path d="M27.0587149,6.32924614 L41.6238014,38.2117577 C42.5499509,40.2390694 41.7072446,42.6568629 39.7415642,43.6120506 C38.660319,44.1374626 37.4061217,44.1274672 36.3328783,43.5848849 L24.3654078,37.5346835 C23.8192056,37.2585489 23.1798659,37.2585489 22.6336638,37.5346835 L10.6661932,43.5848849 C8.71506002,44.5712879 6.35802583,43.7396271 5.40161002,41.7273186 C4.87552246,40.6204251 4.86583092,39.3269039 5.37527013,38.2117577 L19.9403567,6.32924614 C20.8665061,4.3019344 23.2107974,3.43280614 25.1764777,4.38799383 C26.0035209,4.78988091 26.6690454,5.47627202 27.0587149,6.32924614 Z M24.3893305,7.62638637 C24.2919132,7.41314284 24.1255321,7.24154507 23.9187712,7.1410733 C23.4624526,6.9193333 22.9245201,7.09084508 22.664619,7.5222729 L22.609741,7.62638637 L8.04465446,39.5088979 C7.91729465,39.7876845 7.91971754,40.1110648 8.05123943,40.3877882 C8.27326453,40.8549312 8.79720864,41.0675724 9.26147164,40.8981239 L9.36738523,40.8521797 L21.3348558,34.8019784 C22.6244997,34.1499939 24.1218347,34.1137725 25.4345554,34.6933143 L25.6642158,34.8019784 L37.6316863,40.8521797 C37.8999971,40.9878253 38.2135465,40.9903242 38.4838578,40.8589712 C38.9401764,40.6372312 39.1544254,40.1002101 38.9973225,39.6188293 L38.9544171,39.5088979 L24.3893305,7.62638637 Z" id="形状" fill="#333333" fill-rule="nonzero"></path>
        </g>
    </g>
</svg>