<?xml version="1.0" encoding="UTF-8"?>
<svg width="48px" height="48px" viewBox="0 0 48 48" version="1.1" xmlns="http://www.w3.org/2000/svg" xmlns:xlink="http://www.w3.org/1999/xlink">
    <title>LockOutline</title>
    <g id="LockOutline" stroke="none" stroke-width="1" fill="none" fill-rule="evenodd">
        <g id="编组">
            <rect id="矩形" fill="#FFFFFF" opacity="0" x="0" y="0" width="48" height="48"></rect>
            <path d="M24,4 C30.627417,4 36,9.36227094 36,15.9769674 L36,22.042 L37,22.0422265 C39.209139,22.0422265 41,23.8296501 41,26.0345489 L41,40.0076775 C41,42.2125764 39.209139,44 37,44 L11,44 C8.790861,44 7,42.2125764 7,40.0076775 L7,26.0345489 C7,23.8296501 8.790861,22.0422265 11,22.0422265 L12,22.042 L12,15.9769674 C12,9.36227094 17.372583,4 24,4 Z M37,25.0364683 L11,25.0364683 C10.4871642,25.0364683 10.0644928,25.4217676 10.0067277,25.9181517 L10,26.0345489 L10,40.0076775 C10,40.5195291 10.3860402,40.9413891 10.8833789,40.9990433 L11,41.0057582 L37,41.0057582 C37.5128358,41.0057582 37.9355072,40.6204589 37.9932723,40.1240748 L38,40.0076775 L38,26.0345489 C38,25.5226974 37.6139598,25.1008374 37.1166211,25.0431831 L37,25.0364683 Z M26,30.350096 L26,35.5385797 C26,35.7594936 25.8209139,35.9385797 25.6,35.9385797 L23.4,35.9385797 C23.1790861,35.9385797 23,35.7594936 23,35.5385797 L23,30.350096 C23,30.1291821 23.1790861,29.950096 23.4,29.950096 L25.6,29.950096 C25.8209139,29.950096 26,30.1291821 26,30.350096 Z M24,6.99424184 C19.1181973,6.99424184 15.1442086,10.8735952 15.0038371,15.7121145 L15,15.9769674 L15,21.9654511 L33,21.9654511 L33,15.9769674 C33,11.1045347 29.1131863,7.13817363 24.2653623,6.99807158 L24,6.99424184 Z" id="形状" fill="#333333" fill-rule="nonzero"></path>
        </g>
    </g>
</svg>