<?xml version="1.0" standalone="no"?><!DOCTYPE svg PUBLIC "-//W3C//DTD SVG 1.1//EN" "http://www.w3.org/Graphics/SVG/1.1/DTD/svg11.dtd"><svg class="icon" width="200px" height="200.00px" viewBox="0 0 1024 1024" version="1.1" xmlns="http://www.w3.org/2000/svg"><path fill="#333333" d="M821.9 415.4h-64.7v-98.6C757.1 183.3 647.4 75 512 75S266.9 183.3 266.9 316.8v98.6h-64.7c-44.3 0-80.1 35.9-80.1 80.1v345.3c0 44.3 35.9 80.1 80.1 80.1h619.7c44.3 0 80.1-35.9 80.1-80.1V495.6c0-44.3-35.9-80.2-80.1-80.2z m-276.5 266v52.8c0 18.2-15 32.9-33.4 32.9s-33.4-14.8-33.4-32.9v-52.8c-20-11.4-33.4-32.7-33.4-57.1 0-36.4 29.9-65.9 66.9-65.9s66.9 29.5 66.9 65.9c-0.1 24.4-13.6 45.7-33.6 57.1z m122.6-266H356V336c0-95.6 69.8-173.1 156-173.1S668 240.4 668 336v79.4z"  /></svg>