<?xml version="1.0" standalone="no"?><!DOCTYPE svg PUBLIC "-//W3C//DTD SVG 1.1//EN" "http://www.w3.org/Graphics/SVG/1.1/DTD/svg11.dtd"><svg class="icon" width="200px" height="200.00px" viewBox="0 0 1024 1024" version="1.1" xmlns="http://www.w3.org/2000/svg"><path fill="#333333" d="M909.717 649.981c-25.724-5.76-106.925-28.126-192.445-56.923-26.683-8.928-62.484-22.655-102.413-37.15 23.996-41.853 43.096-89.465 55.67-141.205H539.033v-47.517h161.059v-26.494H539.033v-79.386h-65.747c-11.518 0-11.518 11.423-11.518 11.423v67.867H298.79v26.494h162.882v47.517H327.2v26.59h260.88c-9.599 33.021-22.364 64.027-37.626 92.153-84.656-28.03-174.975-50.78-231.7-36.765-36.282 9.023-59.701 24.958-73.427 41.757-63.06 76.986-17.853 193.905 115.275 193.905 78.705 0 154.53-44.06 213.272-116.631 80.721 38.973 261.743 115.095 289.866 126.902C786.955 859.63 654.5 937 503.904 937 266.54 937.096 74 744.534 74 507.048S266.54 77 504 77s430 192.562 430 430.048c0 50.108-8.542 98.2-24.283 142.933zM343.77 669.065c-100.524 0-130.287-78.478-80.65-121.363 16.61-14.487 46.95-21.586 63.08-23.217 59.718-5.853 115.02 16.693 180.308 48.257-45.797 59.29-104.268 96.323-162.738 96.323z"  /></svg>