<?xml version="1.0" standalone="no"?><!DOCTYPE svg PUBLIC "-//W3C//DTD SVG 1.1//EN" "http://www.w3.org/Graphics/SVG/1.1/DTD/svg11.dtd"><svg class="icon" width="200px" height="200.00px" viewBox="0 0 1024 1024" version="1.1" xmlns="http://www.w3.org/2000/svg"><path fill="#333333" d="M392.236185 848.036336v-17.286298c-32.712188-11.860106-58.602877-24.882967-78.989856-37.440727 29.456472-21.704769 55.347161-51.238759 65.656926-90.617411H310.06813v-24.495382h79.842544v-15.270856H310.06813V631.763815h-35.580318c-3.875852 0-7.05405 3.255715-7.05405 7.286601v23.797729H188.211355v15.270856H267.433762v24.495382h-66.897199v15.270855h133.251779s-7.364118 28.681302-43.952157 59.455564c-32.712188-24.650416-43.719606-44.262226-43.719607-44.262225h-35.735352c14.418168 24.882967 35.037699 44.882362 57.130053 60.695836-20.231945 13.177896-46.587737 25.813172-80.695231 35.967903v18.29402s52.556548-9.844663 103.407722-39.611204C341.15246 837.959122 392.236185 848.036336 392.236185 848.036336zM278.053596 887.570023L247.279334 970.513248h15.65844l5.813778-16.743679h30.851779l5.581226 16.743679H320.920515l-30.851779-82.943225h-12.01514z m-5.193641 55.812263l11.860106-34.882665 11.395003 34.882665h-23.255109zM334.873581 567.424678h351.927327c45.812566 0 82.943225-36.82059 82.943225-82.168054v-3.333233c-0.077517 0-134.724603-55.657229-202.70704-88.059349-45.580015 55.657229-104.49296 89.377139-165.576381 89.377139-103.330204 0-138.367903-89.60969-89.454656-148.600151 10.69735-12.867827 28.836336-25.115519 56.975019-32.014535 44.029674-10.69735 114.182589 6.666465 179.839515 28.2162 11.782589-21.549735 21.782286-45.347464 29.146405-70.618017H375.492506v-20.309462h104.415443v-36.433006H353.477668v-20.309462h126.430281v-52.013929s0-8.759425 8.914458-8.759425h51.006208v60.773354h125.034973v20.309462H539.906132v36.433006h102.089932c-9.767146 39.688721-24.572899 76.121726-43.176988 108.213777 31.006813 11.084936 58.757911 21.627252 79.454959 28.526268 74.416351 24.727933 91.392581 26.045723 91.470098 26.045723V136.507494C769.744133 91.082513 732.613475 54.261923 686.800908 54.261923H334.873581c-45.812566 0-82.943225 36.82059-82.943225 82.245571V485.256624c0 45.347464 37.130659 82.168055 82.943225 82.168054zM758.116578 630.988645h-41.936714v20.464497H641.065859V688.351249h40.076306v-22.014837h112.167146V688.351249h40.076306v-26.045723-0.155034c0-5.813777-4.651022-10.619833-10.387282-10.69735H758.116578V630.988645zM376.965329 887.570023H362.004542v82.943225h50.386071v-11.317487h-35.425284z"  /><path fill="#333333" d="M377.19788 333.32324c-12.945344 1.240273-37.208176 6.899016-50.541105 18.526571C286.81302 386.112339 310.688266 448.823618 391.228463 448.823618c46.820288 0 93.640575-29.611506 130.461166-76.974413-52.323997-25.193036-96.66374-43.254504-144.491749-38.525965zM617.035579 671.840121h-14.573202V630.988645H566.649508v40.928993H478.280091v14.960787h88.369417v133.871916c-0.310068 3.023164-2.713096 5.426192-5.813777 5.581226H542.619228v15.503407h46.432702c7.364118-0.310068 13.255413-6.356397 13.410447-13.875549v-141.081H617.035579v-15.038304zM747.806813 922.91779l-16.743679-35.347767H714.70704l25.425587 48.83573v34.107495h15.038304v-34.107495l0.077517-0.155034 25.34807-48.680696h-16.356094zM837.959122 838.966843l-12.557759-42.246782c-0.852687-2.713096-3.333232-4.651022-6.201363-4.651022h-33.332324l9.689629 32.402119h-39.223618v-62.788796h76.974413v-14.960787h-76.974413v-29.53399h76.974413V702.304315H641.065859v14.960787h76.974414v29.53399H641.065859v14.960787h76.974414v62.788796H641.065859v14.960788h196.893263l-0.155034-0.54262h0.155034zM459.676003 887.570023h14.728236v82.943225h-14.728236zM645.48433 887.570023L614.710068 970.513248h15.658441l5.813777-16.743679h30.851779l5.581226 16.743679H688.351249l-30.851779-82.943225h-12.01514z m-5.193641 55.812263l11.860106-34.882665 11.395004 34.882665h-23.25511zM397.662377 729.202725h31.394398V844.160484h34.262529V691.606964h-12.402726L476.72975 632.538986h-38.215897zM559.828009 887.570023H527.115821v82.943225h15.115822v-31.859501h17.596366c16.356094 0 27.751098-10.464799 27.751098-25.503104 0-15.115821-11.395004-25.580621-27.751098-25.58062z m-1.240272 39.533686H541.844058v-28.681302h16.743679c8.449357 0 13.487964 7.286601 13.487963 14.418168 0 6.899016-4.728539 14.263134-13.487963 14.263134z"  /><path fill="#333333" d="M526.573202 712.226495c-1.31779-2.635579-3.953369-4.495988-7.05405-4.495988H489.907646l23.100075 72.866011H548.04542l-21.472218-68.370023z"  /></svg>