<?xml version="1.0" standalone="no"?><!DOCTYPE svg PUBLIC "-//W3C//DTD SVG 1.1//EN" "http://www.w3.org/Graphics/SVG/1.1/DTD/svg11.dtd"><svg class="icon" width="200px" height="200.00px" viewBox="0 0 1024 1024" version="1.1" xmlns="http://www.w3.org/2000/svg"><path fill="#333333" d="M860.454 175h-697.09C119.518 175 84 210.519 84 254.363v515.81c0 43.844 35.519 79.363 79.363 79.363h697.091c43.845 0 79.363-35.519 79.363-79.364V254.363c0-43.844-35.518-79.363-79.363-79.363z m-22.555 218.381L545.846 567.917c-18.76 11.172-42.264 11.278-61.024 0l-292.37-174.536c-14.966-8.959-20.13-28.246-11.593-43.423 0.106-0.211 0.316-0.527 0.422-0.738 8.642-14.44 27.297-19.182 41.737-10.54l251.475 150.19a79.338 79.338 0 0 0 81.366 0l251.475-150.19c0.211-0.105 0.527-0.316 0.738-0.421 14.65-8.221 33.2-2.951 41.42 11.699 8.538 15.282 3.373 34.464-11.593 43.423z"  /></svg>