<?xml version="1.0" encoding="UTF-8"?>
<svg width="48px" height="48px" viewBox="0 0 48 48" version="1.1" xmlns="http://www.w3.org/2000/svg" xmlns:xlink="http://www.w3.org/1999/xlink">
    <title>MailOutline</title>
    <g id="MailOutline" stroke="none" stroke-width="1" fill="none" fill-rule="evenodd">
        <g id="编组">
            <rect id="矩形" fill="#FFFFFF" opacity="0" x="0" y="0" width="48" height="48"></rect>
            <path d="M39,6 C42.3137085,6 45,8.6862915 45,12 L45,36 C45,39.3137085 42.3137085,42 39,42 L9,42 C5.6862915,42 3,39.3137085 3,36 L3,12 C3,8.6862915 5.6862915,6 9,6 L39,6 Z M42,15.5 L24.1708025,23.9193433 C24.0626598,23.9704106 23.9373402,23.9704106 23.8291975,23.9193433 L6,15.5 L6,15.5 L6,36 C6,37.5976809 7.24891996,38.9036609 8.82372721,38.9949073 L9,39 L39,39 C40.5976809,39 41.9036609,37.75108 41.9949073,36.1762728 L42,36 L42,15.5 Z M39,9 L9,9 C7.40231912,9 6.09633912,10.24892 6.00509269,11.8237272 L6,12 L6,12.146 L23.8292039,20.5643558 C23.9373431,20.6154155 24.0626555,20.6154127 24.1707925,20.564348 L42,12.145 L42,12.145 L42,12 C42,10.4023191 40.75108,9.09633912 39.1762728,9.00509269 L39,9 Z" id="形状" fill="#333333" fill-rule="nonzero"></path>
        </g>
    </g>
</svg>