<?xml version="1.0" encoding="UTF-8"?>
<svg width="48px" height="48px" viewBox="0 0 48 48" version="1.1" xmlns="http://www.w3.org/2000/svg" xmlns:xlink="http://www.w3.org/1999/xlink">
    <title>MessageOutline</title>
    <g id="MessageOutline" stroke="none" stroke-width="1" fill="none" fill-rule="evenodd">
        <g id="编组">
            <rect id="矩形" fill="#FFFFFF" opacity="0" x="0" y="0" width="48" height="48"></rect>
            <path d="M24,5 C35.0454654,5 44,13.5065417 44,23.9999335 C44,34.3816935 35.234974,42.8187175 24.3517967,42.9970537 L24,42.999934 C20.5361038,43.0086689 17.1256565,42.1499296 14.0827434,40.5027329 L9.12272736,42.6506288 C8.20180797,43.0490167 7.13075643,42.6289802 6.73046083,41.7124519 C6.57362597,41.3533578 6.53805635,40.953324 6.6290919,40.5723965 L7.89727419,35.2705244 C5.44727043,32.1174388 4,28.2188348 4,23.999959 C4,13.5065671 12.9545346,5 24,5 Z M24.0000207,7.7142478 C14.4327303,7.7142478 6.7272871,15.0337886 6.7272871,23.9999335 C6.7272871,27.3746822 7.816377,30.5920198 9.81910787,33.2999345 L10.0545624,33.6102666 L10.851834,34.636263 L9.70274404,39.4387082 L14.2191094,37.4844293 L15.3900175,38.1213809 C17.9854744,39.5319012 20.9309429,40.2855624 24.0000207,40.2855624 C33.5672971,40.2855624 41.2727403,32.9660501 41.2727403,23.9999051 C41.2727403,15.0337601 33.5672971,7.7142478 24.0000207,7.7142478 Z M16.2500001,22 C17.2164956,22 18,22.7835004 18,23.75 C18,24.7164955 17.2164997,25.5 16.2500001,25.5 L16.2499999,25.5 C15.2835044,25.5 14.5,24.7164996 14.5,23.75 C14.5,22.7835045 15.2835003,22 16.2499999,22 L16.2500001,22 Z M32.2500001,22 C33.2164956,22 34,22.7835004 34,23.75 C34,24.7164955 33.2164997,25.5 32.2500001,25.5 L32.2499999,25.5 C31.2835044,25.5 30.5,24.7164996 30.5,23.75 C30.5,22.7835045 31.2835003,22 32.2499999,22 L32.2500001,22 Z M24.2500001,22 C25.2164956,22 26,22.7835004 26,23.75 C26,24.7164955 25.2164997,25.5 24.2500001,25.5 L24.2499999,25.5 C23.2835044,25.5 22.5,24.7164996 22.5,23.75 C22.5,22.7835045 23.2835003,22 24.2499999,22 L24.2500001,22 Z" id="形状结合" fill="#333333" fill-rule="nonzero"></path>
        </g>
    </g>
</svg>