<?xml version="1.0" standalone="no"?><!DOCTYPE svg PUBLIC "-//W3C//DTD SVG 1.1//EN" "http://www.w3.org/Graphics/SVG/1.1/DTD/svg11.dtd"><svg class="icon" width="200px" height="200.00px" viewBox="0 0 1024 1024" version="1.1" xmlns="http://www.w3.org/2000/svg"><path fill="#333333" d="M494.618 690.935c113.673 0 205.791-82.572 205.791-184.465V235.466C700.41 133.572 608.291 51 494.618 51s-205.792 82.572-205.792 184.466V506.47c0 101.893 92.119 184.465 205.792 184.465z m247.084-120.288c-72.031 142.587-154.965 213.88-248.8 213.88-94.93 0-181.406-72.967-259.427-218.902-8.126-15.197-26.383-21.849-42.38-15.44-14.765 5.917-21.94 22.682-16.023 37.447 0.283 0.707 0.594 1.403 0.932 2.085 79.203 159.706 173.062 244.57 281.579 254.59v65.14h-38.974c-17.55 0-31.776 14.227-31.776 31.777S401.059 973 418.609 973h148.586c17.55 0 31.777-14.227 31.777-31.776 0-17.55-14.227-31.776-31.777-31.776h-38.973v-65.142c107.412-9.917 201.18-93.164 281.304-249.74 7.951-15.537 1.8-34.58-13.738-42.531a31.603 31.603 0 0 0-4.407-1.85c-19.343-6.444-40.486 2.265-49.68 20.462z"  /></svg>