<?xml version="1.0" standalone="no"?><!DOCTYPE svg PUBLIC "-//W3C//DTD SVG 1.1//EN" "http://www.w3.org/Graphics/SVG/1.1/DTD/svg11.dtd"><svg class="icon" width="200px" height="200.00px" viewBox="0 0 1024 1024" version="1.1" xmlns="http://www.w3.org/2000/svg"><path fill="#333333" d="M216.4 67.4h591.8c79.9 0 145.1 63.4 147.9 142.7l0.1 5.3v523.5c0 18.9-15.3 34.1-34.1 34.1-17.7 0-32.3-13.5-34-30.9l-0.2-3.3V215.4c0-42.5-33.3-77.3-75.3-79.6l-4.4-0.1H216.4c-42.5 0-77.3 33.3-79.6 75.3l-0.1 4.4v591.8c0 42.5 33.3 77.3 75.3 79.6l4.4 0.1H831c18.9 0 34.1 15.3 34.1 34.1 0 17.7-13.5 32.3-30.9 34l-3.3 0.2H216.4c-79.9 0-145.1-63.4-147.9-142.7l-0.1-5.3V215.4c0-79.9 63.4-145.1 142.7-147.9l5.3-0.1h591.8-591.8z m45.5 404.5h500.8c18.9 0 34.1 15.3 34.1 34.1 0 17.7-13.5 32.3-30.9 34l-3.3 0.2H261.9c-18.9 0-34.1-15.3-34.1-34.1 0-17.7 13.5-32.3 30.9-34l3.2-0.2h500.8-500.8z"  /></svg>