<?xml version="1.0" standalone="no"?><!DOCTYPE svg PUBLIC "-//W3C//DTD SVG 1.1//EN" "http://www.w3.org/Graphics/SVG/1.1/DTD/svg11.dtd"><svg class="icon" width="200px" height="200.00px" viewBox="0 0 1024 1024" version="1.1" xmlns="http://www.w3.org/2000/svg"><path fill="#333333" d="M511.572 123.488c-214.352 0-388.17 173.869-388.17 388.411 0 214.543 173.818 388.412 388.17 388.412s388.172-173.87 388.172-388.412c0-51.162-9.874-100.897-28.827-147.177-6.801-16.607-16.407-33.705-28.672-51.591-9.63-14.044-6.009-33.205 8.09-42.798 14.098-9.592 33.334-5.984 42.964 8.06 14.571 21.248 26.263 42.06 34.866 63.066 21.965 53.635 33.407 111.268 33.407 170.44 0 248.5-201.442 450-450 450-248.557 0-450-201.5-450-450s201.443-450 450-450c82.34 0 161.495 22.177 230.641 63.526l2.27 1.366 0.177 0.11c12.456 7.772 22.49 15.086 31.753 22.86l0.866 0.73c4.479 3.792 15.488 13.812 17.053 15.128l0.714 0.594c13.178 10.814 15.06 30.221 4.203 43.347-10.856 13.127-30.34 15.001-43.517 4.187l-0.647-0.534-0.984-0.828-1.227-1.069c-4-3.518-12.363-11.101-15.428-13.72l-0.21-0.178c-6.997-5.925-14.549-11.49-24.272-17.617l-0.948-0.595c-59.99-36.271-128.753-55.718-200.444-55.718z"  /><path fill="#333333" d="M651.855 318.848l2.515 2.472c10.774 10.592 10.923 27.912 0.331 38.687-0.106 0.108-0.214 0.215-0.322 0.322l-80.478 79.186H692.5c15.74 0 28.5 12.76 28.5 28.5v3c0 15.74-12.76 28.5-28.5 28.5H543v79h149.5c15.74 0 28.5 12.76 28.5 28.5v3c0 15.74-12.76 28.5-28.5 28.5H543v115c0 16.569-13.431 30-30 30-16.569 0-30-13.431-30-30v-115H333.5c-15.74 0-28.5-12.76-28.5-28.5v-3c0-15.74 12.76-28.5 28.5-28.5H483v-79H333.5c-15.74 0-28.5-12.76-28.5-28.5v-3c0-15.74 12.76-28.5 28.5-28.5h110.805l-80.478-79.186a27.368 27.368 0 0 1-0.162-0.16l-0.16-0.162c-10.591-10.775-10.443-28.095 0.331-38.687l2.516-2.472c10.647-10.467 27.721-10.463 38.364 0.009l104.387 102.712L613.49 318.857c10.643-10.472 27.717-10.476 38.365-0.01z"  /></svg>