<?xml version="1.0" standalone="no"?><!DOCTYPE svg PUBLIC "-//W3C//DTD SVG 1.1//EN" "http://www.w3.org/Graphics/SVG/1.1/DTD/svg11.dtd"><svg class="icon" width="200px" height="200.00px" viewBox="0 0 1024 1024" version="1.1" xmlns="http://www.w3.org/2000/svg"><path fill="#333333" d="M781.9 416.6l3.3-0.2c17.3-1.7 30.8-16.2 30.8-34 0-18.9-15.3-34.1-34.1-34.1l-218.7 0.1c1.9-2.2 3.7-4.5 5.3-6.9l137.9-196.8 1.8-2.8c8.6-15.1 4.4-34.6-10.1-44.8-15.4-10.8-36.7-7.1-47.5 8.4l-138 196.8-1.3 1.7c-0.9 1.1-2 2-3.2 2.8-8.3 5.8-19.8 3.8-25.7-4.5L344.5 105.5l-2-2.6c-11.3-13.2-31-15.9-45.5-5.8-15.4 10.8-19.2 32.1-8.4 47.5l137.9 196.8 2.6 3.5 2.7 3.3H213.1l-3.3 0.2c-17.3 1.7-30.8 16.2-30.8 34 0 18.9 15.3 34.1 34.1 34.1h250.2v189.9H213.1l-3.3 0.2c-17.3 1.7-30.8 16.2-30.8 34 0 18.9 15.3 34.1 34.1 34.1h250.2v224.1l0.2 3.3c1.7 17.3 16.2 30.8 34 30.8l3.3-0.2c17.3-1.7 30.8-16.2 30.8-34V416.4l250.3 0.2z"  /><path fill="#333333" d="M781.9 606.5H626.8l-3.3 0.2c-17.3 1.7-30.8 16.2-30.8 34 0 18.9 15.3 34.1 34.1 34.1h155.1l3.3-0.2c17.3-1.7 30.8-16.2 30.8-34 0-18.8-15.3-34.1-34.1-34.1z"  /></svg>