<?xml version="1.0" standalone="no"?><!DOCTYPE svg PUBLIC "-//W3C//DTD SVG 1.1//EN" "http://www.w3.org/Graphics/SVG/1.1/DTD/svg11.dtd"><svg class="icon" width="200px" height="200.00px" viewBox="0 0 1024 1024" version="1.1" xmlns="http://www.w3.org/2000/svg"><path fill="#333333" d="M198.642 445.385m43.254 0l43.253 0q43.254 0 43.254 43.254l0 21.626q0 43.254-43.254 43.254l-43.253 0q-43.254 0-43.254-43.254l0-21.626q0-43.254 43.254-43.254Z"  /><path fill="#333333" d="M458.165 445.385m43.254 0l43.253 0q43.254 0 43.254 43.254l0 21.626q0 43.254-43.254 43.254l-43.253 0q-43.254 0-43.254-43.254l0-21.626q0-43.254 43.254-43.254Z"  /><path fill="#333333" d="M717.687 445.385m43.254 0l43.253 0q43.254 0 43.254 43.254l0 21.626q0 43.254-43.254 43.254l-43.253 0q-43.254 0-43.254-43.254l0-21.626q0-43.254 43.254-43.254Z"  /></svg>