<?xml version="1.0" encoding="UTF-8"?>
<svg width="48px" height="48px" viewBox="0 0 48 48" version="1.1" xmlns="http://www.w3.org/2000/svg" xmlns:xlink="http://www.w3.org/1999/xlink">
    <title>MoreOutline</title>
    <g id="MoreOutline" stroke="none" stroke-width="1" fill="none" fill-rule="evenodd">
        <g id="编组">
            <rect id="矩形" fill="#FFFFFF" opacity="0" x="0" y="0" width="48" height="48"></rect>
            <path d="M12,21 C13.6568542,21 15,22.3431458 15,24 C15,25.6568542 13.6568542,27 12,27 C10.3431458,27 9,25.6568542 9,24 C9,22.3431458 10.3431458,21 12,21 Z M24,21 C25.6568542,21 27,22.3431458 27,24 C27,25.6568542 25.6568542,27 24,27 C22.3431458,27 21,25.6568542 21,24 C21,22.3431458 22.3431458,21 24,21 Z M36,21 C37.6568542,21 39,22.3431458 39,24 C39,25.6568542 37.6568542,27 36,27 C34.3431458,27 33,25.6568542 33,24 C33,22.3431458 34.3431458,21 36,21 Z" id="形状结合" fill="#333333" fill-rule="nonzero"></path>
        </g>
    </g>
</svg>