<?xml version="1.0" standalone="no"?><!DOCTYPE svg PUBLIC "-//W3C//DTD SVG 1.1//EN" "http://www.w3.org/Graphics/SVG/1.1/DTD/svg11.dtd"><svg class="icon" width="200px" height="200.00px" viewBox="0 0 1024 1024" version="1.1" xmlns="http://www.w3.org/2000/svg"><path fill="#333333" d="M225.767 112.132h147.306c62.76 0 113.636 50.876 113.636 113.635v147.306c0 62.76-50.877 113.636-113.636 113.636H225.767c-62.759 0-113.635-50.877-113.635-113.636V225.767c0-61.228 48.424-111.147 109.065-113.545l4.57-0.09z m0 58.922l-3.46 0.107c-28.605 1.786-51.253 25.551-51.253 54.606v147.306c0 30.217 24.496 54.713 54.713 54.713h147.306c30.217 0 54.713-24.496 54.713-54.713V225.767c0-30.217-24.496-54.713-54.713-54.713H225.767zM225.767 536.646h147.306c62.76 0 113.636 50.877 113.636 113.636v147.305c0 62.76-50.877 113.636-113.636 113.636H225.767c-62.759 0-113.635-50.876-113.635-113.636V650.282c0-62.76 50.876-113.636 113.635-113.636z m0 58.922c-30.217 0-54.713 24.496-54.713 54.714v147.305c0 30.218 24.496 54.714 54.713 54.714h147.306c30.217 0 54.713-24.496 54.713-54.714V650.282c0-30.218-24.496-54.714-54.713-54.714H225.767zM650.282 112.132h147.305c62.76 0 113.636 50.876 113.636 113.635v147.306c0 62.76-50.876 113.636-113.636 113.636H650.282c-62.76 0-113.636-50.877-113.636-113.636V225.767c0-62.759 50.877-113.635 113.636-113.635z m0 58.922c-30.218 0-54.714 24.496-54.714 54.713v147.306c0 30.217 24.496 54.713 54.714 54.713h147.305c30.218 0 54.714-24.496 54.714-54.713V225.767c0-30.217-24.496-54.713-54.714-54.713H650.282zM802.848 852.301H645.021c-27.312 0-49.453-22.14-49.453-49.453V645.021c0-27.312 22.141-49.453 49.453-49.453h157.827c27.312 0 49.453 22.141 49.453 49.453v115.256c0 16.27 13.19 29.46 29.461 29.46s29.461-13.19 29.461-29.46V645.02c0-59.854-48.52-108.375-108.375-108.375H645.021c-59.854 0-108.375 48.521-108.375 108.375v157.827c0 59.854 48.521 108.375 108.375 108.375h157.827c16.271 0 29.461-13.19 29.461-29.46 0-16.272-13.19-29.462-29.46-29.462z"  /></svg>