<?xml version="1.0" standalone="no"?><!DOCTYPE svg PUBLIC "-//W3C//DTD SVG 1.1//EN" "http://www.w3.org/Graphics/SVG/1.1/DTD/svg11.dtd"><svg class="icon" width="200px" height="200.00px" viewBox="0 0 1024 1024" version="1.1" xmlns="http://www.w3.org/2000/svg"><path fill="#333333" d="M511.9 55.6C259.8 55.6 55.4 259.9 55.4 512s204.4 456.5 456.5 456.5c69.9 0 137.7-15.8 199.2-45.7 10.8-5.3 21.4-10.9 31.8-17 14.1-8.3 18.8-26.5 10.5-40.6-8.3-14.1-26.5-18.8-40.6-10.5-9 5.3-18.2 10.2-27.6 14.8-26.4 12.8-54.2 22.7-82.8 29.3 40-30.5 73.8-79.5 98.5-140.8 11.6 5.4 25.8 14 42.3 25.7 13.2 9.3 31.5 6.2 40.8-7 9.3-13.2 6.2-31.5-7-40.8-20.1-14.2-37.8-24.8-53.5-31.9-1.2-0.5-2.4-1.1-3.6-1.6 13.5-47.4 22.1-99.9 25-155.3h162.6c-3.9 44.3-15.1 87.2-33.1 127.3-3.8 8.5-8 16.9-12.4 25.2-7.7 14.4-2.3 32.4 12.1 40.1 14.4 7.7 32.4 2.3 40.1-12.1 5.1-9.5 9.8-19.1 14.2-28.9 26.1-58.2 39.8-121.5 39.8-186.7 0.1-252.1-204.2-456.4-456.3-456.4zM404 894.4c-56.6-15.9-108.1-44.1-151.4-81.5 18.8-17.6 39.6-32.7 62.6-45.2 23.1 54 53.3 97.7 88.8 126.7z m-35.1-149.9c32.6-10.9 68.5-17.7 107.9-20.4v145.6C435 855 396.7 809.6 368.9 744.5z m107.9-79c-46.1 2.9-88.6 10.9-127.4 23.9-12.4-42.6-20.7-90.7-23.6-142.2h151v118.3z m-152-176.9c1.3-56 9.1-108.5 21.6-155 39.6 13.6 83.1 21.9 130.4 24.9v130h-152z m210.5-345.9c45.3 15.9 86.5 68 114.6 142-34.6 9.8-72.8 15.3-114.6 16.4V142.7z m86.6-12.4c58.4 16.8 111.2 46.6 155.2 86.1-21.5 19.2-45.6 35.1-72.3 47.8-21-55.4-49.3-101.5-82.9-133.9z m-145.1 12.4V300c-41.1-2.9-78.4-10.2-112.1-21.9 28-70.5 68.1-120 112.1-135.4zM311.2 254.1c-21.4-12-40.9-26.4-58.6-43 38.4-33.1 83.1-59 132.2-75.5-29.2 30-54.2 70.5-73.6 118.5z m224.1 105.5c47.8-1.2 91.9-7.6 132.2-19.1 11.4 44.8 18.5 94.9 19.8 148.1h-152v-129z m187.5-39.2c35.2-15.8 66.9-36.4 95-61.8 52.4 63.2 85.6 142.8 90.7 230H745.8c-1.3-59.9-9.4-116.9-23-168.2z m-511.6-67.9c24.2 23 51.2 42.2 80.9 57.8-15.3 53.9-24.4 114.4-25.8 178.3H115.4c5.2-90 40.4-172 95.8-236.1z m-95 294.7h150.9c3.1 59.2 12.8 115.1 27.9 165-30.9 15.8-58.9 35.6-83.9 59.3-52.8-61.3-87.4-138.9-94.9-224.3z m419.1 322.5V723c40.1 1.1 77 6.3 110.5 15.3-28 68.4-67.4 116.3-110.5 131.4z m129.3-186.9c-39.5-11-82.6-17.1-129.3-18.3V547.2h151c-2.8 48.8-10.4 94.6-21.7 135.6z"  /></svg>