<?xml version="1.0" encoding="UTF-8"?>
<svg width="48px" height="48px" viewBox="0 0 48 48" version="1.1" xmlns="http://www.w3.org/2000/svg" xmlns:xlink="http://www.w3.org/1999/xlink">
    <title>PayOutline</title>
    <g id="PayOutline" stroke="none" stroke-width="1" fill="none" fill-rule="evenodd">
        <g id="编组">
            <rect id="矩形" fill="#FFFFFF" opacity="0" x="0" y="0" width="48" height="48"></rect>
            <path d="M31.808677,9.32925328 C31.9193365,9.14152353 32.1599055,9.07691512 32.3497274,9.18394612 L32.3497274,9.18394612 L34.2428849,10.2514021 C34.2451172,10.2526608 34.2473374,10.253941 34.2495452,10.2552424 C34.4398564,10.3674235 34.5031933,10.612642 34.3910121,10.8029532 L34.3910121,10.8029532 L28.08,21.5089746 L34.6,21.5090005 C34.8209139,21.5090005 35,21.6880866 35,21.9090005 L35,24.0527466 C35,24.2736605 34.8209139,24.4527466 34.6,24.4527466 L26,24.4519746 L26,27.4919746 L34.6,27.4920665 C34.8209139,27.4920665 35,27.6711526 35,27.8920665 L35,30.0358126 C35,30.2567265 34.8209139,30.4358126 34.6,30.4358126 L26,30.4349746 L26,40.7339746 C26,40.9548885 25.8209139,41.1339746 25.6,41.1339746 L23.4,41.1339746 C23.1790861,41.1339746 23,40.9548885 23,40.7339746 L23,30.4349746 L14.4,30.4358126 C14.1790861,30.4358126 14,30.2567265 14,30.0358126 L14,27.8920665 C14,27.6711526 14.1790861,27.4920665 14.4,27.4920665 L23,27.4919746 L23,24.4519746 L14.4,24.4527466 C14.1790861,24.4527466 14,24.2736605 14,24.0527466 L14,21.9090005 C14,21.6880866 14.1790861,21.5090005 14.4,21.5090005 L21.518,21.5089746 L15.2070641,10.8029531 C15.0948829,10.612642 15.1582198,10.3674235 15.348531,10.2552423 C15.3507388,10.253941 15.352959,10.2526608 15.3551913,10.2514021 L17.2483488,9.18394611 C17.4381707,9.07691511 17.6787397,9.14152352 17.7893992,9.32925327 L24.798,21.2199746 Z" id="形状结合" fill="#333333" fill-rule="nonzero"></path>
        </g>
    </g>
</svg>