<?xml version="1.0" standalone="no"?><!DOCTYPE svg PUBLIC "-//W3C//DTD SVG 1.1//EN" "http://www.w3.org/Graphics/SVG/1.1/DTD/svg11.dtd"><svg class="icon" width="200px" height="200.00px" viewBox="0 0 1024 1024" version="1.1" xmlns="http://www.w3.org/2000/svg"><path fill="#333333" d="M620.3 295.6c-19.2-19.3-50.4-19.2-69.7 0L145.4 701c-7.9 7.9-12.4 18.7-12.4 29.9V871c0 11.7 9.5 21.1 21.1 21.1h140c11.2 0 21.9-4.5 29.9-12.4l405.3-405.4c19.2-19.2 19.2-50.4 0-69.7l-109-109zM877.5 256.3l-109-108.9c-19.3-19.2-50.5-19.2-69.7 0l-27.9 27.9c-19.2 19.2-19.2 50.4 0 69.7l109 109c19.2 19.2 50.4 19.2 69.7 0l28-28c19.2-19.2 19.2-50.4-0.1-69.7z"  /></svg>