<?xml version="1.0" standalone="no"?><!DOCTYPE svg PUBLIC "-//W3C//DTD SVG 1.1//EN" "http://www.w3.org/Graphics/SVG/1.1/DTD/svg11.dtd"><svg class="icon" width="200px" height="200.00px" viewBox="0 0 1024 1024" version="1.1" xmlns="http://www.w3.org/2000/svg"><path fill="#333333" d="M540.026 550.941l4.67-6.15 15.668-19.115c6.134-7.614 11.112-14.3 15.726-21.348 34.378-52.5 44.856-107.668 44.856-170.152 0-82.89-29.383-142.623-79.814-179.322-34.326-24.979-75.5-36.578-106.115-36.578H418.1c-30.614 0-71.79 11.6-106.115 36.578-50.432 36.7-79.815 96.432-79.815 179.322 0 62.459 10.486 117.649 44.855 170.15 3.463 5.287 7.127 10.366 11.328 15.784l20.074 24.678 3.273 4.242c0.489 0.655 0.954 1.29 1.4 1.913 3.723 5.189 5.787 8.96 6.728 12.007l-16.881 6.93-14.823 6.239c-15.962 6.797-34.42 14.926-47.103 21.334l-15.628 7.93-15.386 8.084C112.07 665.91 54.882 716.525 54.882 778.146l-0.034 63.005c-0.02 24.62 14.82 46.972 37.735 55.81 94.372 36.399 211.048 54.398 350.105 54.398 58.858 1.58 112.994-0.916 161.547-7.546 18.491-2.526 31.434-19.563 28.909-38.054-2.526-18.491-19.563-31.434-38.054-28.909-44.72 6.107-95.233 8.436-151.503 6.937-129.384-0.011-236.177-16.06-321.15-47.783l0.029-57.858c0-28.464 55.157-72.58 141.614-116.63l7.277-3.67c23.793-12.02 76.718-33.367 79.532-34.769 24.137-12.03 37.163-29.518 37.163-56.212 0-20.117-7.05-37.217-20.035-55.317l-4.103-5.516-4.73-5.98-13.814-16.798c-4.848-6.017-8.567-11.01-11.804-15.953-25.508-38.965-33.81-82.665-33.81-133.125 0-61.609 19.328-100.903 51.996-124.675 12.23-8.9 26.007-15.279 40.307-19.307 10.425-2.937 20.273-4.334 26.042-4.334h16.916c5.768 0 15.617 1.397 26.042 4.334 14.3 4.028 28.077 10.407 40.307 19.307 32.667 23.772 51.996 63.066 51.996 124.675 0 50.483-8.296 94.16-33.813 133.13-2.43 3.71-5.13 7.45-8.375 11.627l-14.505 17.778c-4.806 5.843-8.286 10.274-11.56 14.839-12.983 18.1-20.034 35.199-20.034 55.315 0 26.694 13.026 44.182 37.162 56.212l37.925 15.966 13.73 5.933c9.103 3.988 17.856 7.947 24.753 11.322l2.974 1.477c90.763 45.318 149.033 91.114 149.033 120.37l0.036 66.1c0.015 18.662 15.156 33.78 33.82 33.764 18.662-0.015 33.779-15.156 33.764-33.819l-0.036-66.044c0-64.783-63.217-117.411-170.638-172.827l-15.645-7.938c-11.213-5.665-27.012-12.704-41.58-18.965l-37.075-15.465c0.942-3.049 3.005-6.82 6.728-12.01z"  /><path fill="#333333" d="M969.485 799.134l-0.036-66.044c0-64.783-63.217-117.411-170.638-172.827l-45.507-23.156-11.341-5.95c-11.961-6.39-17.368-9.778-20.796-12.698l-1.735-1.557a0.33 0.33 0 0 1-0.077-0.147l0.069-4.24c0-7.54 1.094-11.894 4.036-17.436 2.738-5.159 22.341-33.513 23.843-35.807 34.378-52.5 44.856-107.668 44.856-170.152 0-82.89-29.383-142.623-79.814-179.322C678.019 84.82 636.844 73.22 606.23 73.22h-16.916c-18.663 0-33.792 15.129-33.792 33.792 0 18.663 15.129 33.792 33.792 33.792h16.916c5.768 0 15.616 1.397 26.042 4.334 14.3 4.028 28.076 10.407 40.307 19.307 32.667 23.772 51.996 63.066 51.996 124.675 0 47.513-7.349 88.998-29.487 126.204l-4.327 6.926c0.713-1.089-22.08 31.88-26.996 41.142-8.098 15.256-11.925 30.483-11.925 49.124 0 22.154 5.813 38.743 21.193 53.497l3.993 3.689c8.854 7.822 18.45 13.657 45.862 27.785l29.943 15.232c90.763 45.318 149.034 91.114 149.034 120.37l0.036 66.1c0.015 18.662 15.156 33.78 33.819 33.764 18.663-0.015 33.78-15.156 33.765-33.819z"  /></svg>