<?xml version="1.0" standalone="no"?><!DOCTYPE svg PUBLIC "-//W3C//DTD SVG 1.1//EN" "http://www.w3.org/Graphics/SVG/1.1/DTD/svg11.dtd"><svg class="icon" width="200px" height="200.00px" viewBox="0 0 1024 1024" version="1.1" xmlns="http://www.w3.org/2000/svg"><path fill="#333333" d="M775.6 764.7c0-56.9-95-113.1-164.6-147.9-69.4-35.1-96.3-31.1-96.3-59.7 0-28.9 27.7-48.6 48.1-79.6 36.7-56 38.6-120.7 38.6-148.9 0-159.6-122.8-178.9-149.4-178.9H419.6c-26.6 0-149.4 19.2-149.4 178.9 0 28.2 1.9 92.9 38.6 148.9 20.3 31.1 48.1 50.8 48.1 79.6 0 28.6-26.9 24.6-96.3 59.7C191 651.7 96 707.8 96 764.7v61.9c0 10.6 6.5 18.7 15.8 23.8 61.1 33.3 166.4 50.3 316.1 51.2h15.8c153.6-0.8 259-17.9 316.1-51.2 9.3-5.4 15.8-13.2 15.8-23.8v-61.9z"  /><path fill="#333333" d="M961.2 737.4c0-21.4-8-42-22.2-61.7-11.5-15.9-27.2-31.4-46.6-46.7-30.5-24-68.8-46.6-114-69.2l-12.6-6.4c-35-17.8-44.3-23.1-49.4-27.8l-0.5-0.5v-0.1c-0.1-1-0.2-2.4-0.2-4.4 0-7.4 1.1-11.7 4-17.1l0.4-0.7 0.3-0.6c1.5-2.7 3.6-6 6.9-10.7l7.7-11.1 1.3-1.9 1.6-2.3c1.8-2.6 3.5-5.2 5.2-7.8 19.1-29.2 31.3-61.9 37.9-96.9 4.6-24.4 6.1-46.1 6.1-70.2 0-81.4-28.9-140.1-78.4-176.1C689.9 111.6 669.2 102 648 96c-16-4.5-31.7-6.7-43.6-6.7h-16.6c-18.3 0-33.2 14.9-33.2 33.2s14.9 33.2 33.2 33.2h16.6c5.7 0 15.3 1.4 25.6 4.3 14 4 27.6 10.2 39.6 19 14.4 10.5 26.2 24.2 34.9 41.8 10.5 21.3 16.2 47.9 16.2 80.6 0 20.3-1.2 38.2-5 57.9-5.1 27-14.3 51.6-28.2 72.9l-1 1.5c-1.5 2.2-2.9 4.4-4.5 6.8l-4.5 6.4c-1.6 2.4-3.4 4.9-4 5.7l-0.9 1.3-0.9 1.4c-4.7 6.9-7.8 11.9-10.7 17.4-8 15-11.7 29.9-11.7 48.3 0 21.8 5.7 38.1 20.8 52.5 7.4 7.1 16.5 13.3 29.9 20.8l3.9 2.2 3.4 1.9c6.5 3.5 14 7.3 31.8 16.3l9.5 4.8 2.9 1.4c40.4 20.3 74.2 40.4 99.9 60.6 29 22.8 43.5 42.8 43.5 56.1v64.9c0 18.3 14.9 33.2 33.2 33.2 18.3 0 33.2-14.9 33.2-33.2l-0.1-65.1z"  /></svg>