<?xml version="1.0" standalone="no"?><!DOCTYPE svg PUBLIC "-//W3C//DTD SVG 1.1//EN" "http://www.w3.org/Graphics/SVG/1.1/DTD/svg11.dtd"><svg class="icon" width="200px" height="200.00px" viewBox="0 0 1024 1024" version="1.1" xmlns="http://www.w3.org/2000/svg"><path fill="#333333" d="M582.76 492.447l4.866-6.407 16.32-19.911c6.39-7.93 11.575-14.896 16.381-22.237 35.81-54.688 46.726-112.154 46.726-177.242 0-86.344-30.608-148.566-83.14-186.793-35.757-26.02-78.647-38.103-110.537-38.103h-17.62c-31.89 0-74.781 12.083-110.538 38.103-52.532 38.227-83.14 100.449-83.14 186.793 0 65.06 10.923 122.55 46.724 177.24 3.607 5.507 7.424 10.797 11.8 16.44l20.91 25.708 3.41 4.418c0.51 0.682 0.993 1.343 1.459 1.992 3.878 5.406 6.027 9.334 7.007 12.508l-17.584 7.218-15.441 6.5c-16.627 7.08-35.853 15.548-49.065 22.223l-16.279 8.26-16.027 8.421c-102.018 54.629-161.59 107.352-161.59 171.54l-0.035 65.63c-0.02 25.647 15.438 48.93 39.307 58.137 98.304 37.915 219.842 56.664 364.692 56.664 61.311 1.646 117.703-0.954 168.279-7.861 19.261-2.63 32.743-20.378 30.113-39.64-2.63-19.26-20.378-32.743-39.64-30.112-46.582 6.361-99.2 8.787-157.815 7.226-134.775-0.012-246.018-16.73-334.532-49.774l0.03-60.27c0-29.649 57.457-75.604 147.516-121.488l7.58-3.823c24.784-12.521 79.915-34.758 82.845-36.218 25.144-12.531 38.713-30.748 38.713-58.555 0-20.955-7.346-38.767-20.87-57.621l-4.274-5.746-4.929-6.23-14.388-17.498c-5.05-6.267-8.924-11.469-12.296-16.617-26.571-40.59-35.22-86.11-35.22-138.672 0-64.176 20.135-105.107 54.164-129.87 12.74-9.27 27.09-15.915 41.986-20.111 10.86-3.06 21.118-4.515 27.127-4.515h17.62c6.01 0 16.268 1.455 27.128 4.515 14.895 4.196 29.247 10.84 41.987 20.111 34.028 24.763 54.163 65.694 54.163 129.87 0 52.586-8.642 98.084-35.223 138.677-2.53 3.865-5.343 7.76-8.724 12.112l-15.11 18.518c-5.005 6.087-8.63 10.702-12.041 15.457-13.524 18.854-20.869 36.666-20.869 57.62 0 27.806 13.569 46.023 38.711 58.555l39.505 16.63 17.662 7.659c9.667 4.268 18.747 8.431 25.522 11.854 17.351 8.767 38.524 1.809 47.292-15.543 8.767-17.35 1.808-38.524-15.543-47.291l-7.568-3.712c-14.741-7.052-33.768-15.278-49.03-21.703l-25.484-10.526c0.98-3.175 3.13-7.103 7.007-12.51z"  /><path fill="#333333" d="M801.443 558.182l3.39-0.161c18.297 0 33.334 13.96 35.04 31.81l0.16 3.39v93.854l82.134 0.012c18.297 0 33.333 13.96 35.039 31.81l0.16 3.39c0 18.297-13.96 33.333-31.81 35.04l-3.39 0.16-82.133-0.012v82.146c0 18.297-13.96 33.333-31.81 35.038l-3.39 0.162c-18.297 0-33.333-13.96-35.039-31.81l-0.16-3.39v-82.146l-93.867 0.012c-18.297 0-33.334-13.96-35.04-31.81l-0.16-3.39c0-18.297 13.96-33.333 31.81-35.039l3.39-0.16 93.866-0.013v-93.854c0-18.297 13.96-33.334 31.81-35.04l3.39-0.16-3.39 0.16z"  /></svg>