<?xml version="1.0" standalone="no"?><!DOCTYPE svg PUBLIC "-//W3C//DTD SVG 1.1//EN" "http://www.w3.org/Graphics/SVG/1.1/DTD/svg11.dtd"><svg class="icon" width="200px" height="200.00px" viewBox="0 0 1024 1024" version="1.1" xmlns="http://www.w3.org/2000/svg"><path fill="#333333" d="M634.527 524.526l18.496-21.94c6.52-7.83 11.81-14.707 16.715-21.958 36.615-54.112 47.79-111.056 47.79-175.5 0-85.537-31.305-147.125-84.815-184.809C596.503 94.82 553.147 83 521.018 83h-17.984c-32.13 0-75.486 11.82-111.695 37.32-53.51 37.683-84.817 99.271-84.817 184.809 0 64.416 11.184 121.383 47.79 175.497 3.682 5.44 7.576 10.664 12.04 16.235l9.43 11.34 7.47 8.744 6.281 7.58 3.133 4.063c3.735 5.038 5.87 8.733 6.914 11.68l-32.557 13.074-15.31 6.377c-13.002 5.492-26.16 11.264-36.01 16.08-124.206 60.024-197.665 115.891-197.665 186.108L118 826.73c-0.019 25.6 15.768 48.611 39.732 57.556 100.076 37.353 223.857 55.833 371.44 55.833 62.52 1.623 119.952-0.939 171.443-7.745 19.036-2.515 32.428-19.986 29.912-39.022-2.516-19.036-19.987-32.427-39.022-29.912-47.671 6.3-101.497 8.701-161.437 7.157-143.007 0.164-258.516-16.315-346.527-49.436l0.03-59.253c0-28.14 55.855-72.102 143.612-116.219l14.918-7.352c25.373-12.405 81.645-34.37 84.555-35.773 25.436-12.268 39.273-30.245 39.273-58.032 0-20.947-7.548-38.66-21.403-57.351l-4.36-5.672-5.027-6.15-14.685-17.283c-5.157-6.193-9.112-11.333-12.554-16.418-27.053-39.991-35.844-84.769-35.844-136.528 0-63.13 20.482-103.425 55.318-127.958 23.592-16.614 57.022-24.637 75.66-24.637h17.984c18.638 0 52.068 8.023 75.66 24.637 34.835 24.533 55.318 64.827 55.318 127.958 0 51.782-8.785 96.537-35.848 136.533-2.582 3.817-5.454 7.665-8.905 11.966l-15.426 18.295c-5.106 6.008-8.804 10.564-12.283 15.258-13.854 18.692-15.977 34.715-15.977 55.66 0 27.787 8.412 47.453 33.848 59.722l44.631 18.21 18.614 7.886c8.002 3.465 15.39 6.787 21.156 9.607l14.94 7.36c87.873 44.17 143.734 88.137 143.734 116.281l0.038 68.007c0.016 19.202 11.594 34.755 30.796 34.738 19.201-0.016 34.754-15.595 34.739-34.795l-0.04-67.95c0-68.623-70.171-123.552-189.41-182.088l-8.4-4.09c-21.722-10.623-59.77-25.983-76.41-32.584l-7.312-2.878c1.044-2.946 3.18-6.641 6.915-11.68l3.13-4.061z"  /></svg>