<?xml version="1.0" standalone="no"?><!DOCTYPE svg PUBLIC "-//W3C//DTD SVG 1.1//EN" "http://www.w3.org/Graphics/SVG/1.1/DTD/svg11.dtd"><svg class="icon" width="200px" height="200.00px" viewBox="0 0 1024 1024" version="1.1" xmlns="http://www.w3.org/2000/svg"><path fill="#333333" d="M616.5 857c-45.2 6.2-96.2 8.5-153.1 7-130.7 0-238.6-16.2-324.5-48.3v-58.5c0-28.8 55.7-73.3 143.1-117.8l7.4-3.7c24-12.1 77.5-33.7 80.4-35.1 24.4-12.2 37.6-29.8 37.6-56.8 0-20.3-7.1-37.6-20.2-55.9l-4.1-5.6-4.8-6-14-17c-4.9-6.1-8.7-11.1-11.9-16.1-25.8-39.4-34.2-83.5-34.2-134.5 0-62.3 19.5-102 52.5-126 12.4-9 26.3-15.4 40.7-19.5 10.5-3 20.5-4.4 26.3-4.4h17.1c5.8 0 15.8 1.4 26.3 4.4 14.4 4.1 28.4 10.5 40.7 19.5 33 24 52.5 63.7 52.5 126 0 51-8.4 95.1-34.2 134.5-2.5 3.7-5.2 7.5-8.5 11.7l-14.7 18c-4.9 5.9-8.4 10.4-11.7 15-13.1 18.3-20.2 35.6-20.2 55.9 0 27 13.2 44.6 37.5 56.8l38.3 16.1 17.1 7.4c9.4 4.1 18.2 8.2 24.8 11.5 16.8 8.5 37.4 1.8 45.9-15.1 8.5-16.8 1.8-37.4-15.1-45.9l-7.3-3.6c-14.3-6.8-32.8-14.8-47.6-21.1l-24.7-10.2c1-3.1 3-6.9 6.8-12.1l4.7-6.2 15.8-19.3c6.2-7.7 11.2-14.4 15.9-21.6 34.7-53 45.3-108.8 45.3-171.9 0-83.8-29.7-144.1-80.6-181.2-34.7-25.2-76.3-37-107.2-37h-17.1c-30.9 0-72.5 11.7-107.2 37-51 37.1-80.6 97.4-80.6 181.2 0 63.1 10.6 118.9 45.3 171.9 3.5 5.3 7.2 10.5 11.4 15.9l20.3 24.9 3.3 4.3c0.5 0.7 1 1.3 1.4 1.9 3.8 5.2 5.8 9.1 6.8 12.1l-17.1 7-15 6.3c-16.1 6.9-34.8 15.1-47.6 21.6l-15.8 8-15.5 8.2c-99 53-156.7 104.1-156.7 166.4v63.7c0 24.9 15 47.5 38.1 56.4 95.4 36.8 213.2 55 353.8 55 59.5 1.6 114.2-0.9 163.2-7.6 18.7-2.6 31.8-19.8 29.2-38.5s-19.6-31.6-38.3-29.1z"  /><path fill="#333333" d="M924.3 733.2h-20.5c-2.6-10.6-6.6-20.6-11.8-29.9l14.1-14.1c11.1-11.1 11.1-29.1 0-40.2-11.1-11.1-29.1-11.1-40.2 0l-12.7 12.7c-9.6-6.3-20.1-11.2-31.3-14.5v-16.3c0-15.7-12.7-28.5-28.5-28.5-15.7 0-28.5 12.7-28.5 28.5v13.6c-12.7 2.4-24.7 6.9-35.6 13L721 649c-11.1-11.1-29.1-11.1-40.2 0-11.1 11.1-11.1 29.1 0 40.2l7 7c-7.3 11.2-12.8 23.6-16.1 37h-9.1c-15.7 0-28.5 12.7-28.5 28.5s12.7 28.5 28.5 28.5h9.1c3.3 13.4 8.8 25.8 16.1 37l-7 7c-11.1 11.1-11.1 29.1 0 40.2 11.1 11.1 29.1 11.1 40.2 0l8.4-8.4c10.9 6.1 22.9 10.6 35.6 13v13.6c0 15.7 12.7 28.5 28.5 28.5 15.7 0 28.5-12.7 28.5-28.5v-16.3c11.2-3.3 21.7-8.3 31.3-14.6l12.7 12.7c11.1 11.1 29.1 11.1 40.2 0 11.1-11.1 11.1-29.1 0-40.2L892 820.1c5.2-9.3 9.2-19.3 11.8-29.9h20.5c15.7 0 28.5-12.7 28.5-28.5s-12.8-28.5-28.5-28.5z m-136.6 91.1c-34.6 0-62.6-28-62.6-62.6s28-62.6 62.6-62.6 62.6 28 62.6 62.6-28 62.6-62.6 62.6z"  /></svg>