<?xml version="1.0" standalone="no"?><!DOCTYPE svg PUBLIC "-//W3C//DTD SVG 1.1//EN" "http://www.w3.org/Graphics/SVG/1.1/DTD/svg11.dtd"><svg class="icon" width="200px" height="200.00px" viewBox="0 0 1024 1024" version="1.1" xmlns="http://www.w3.org/2000/svg"><path fill="#333333" d="M512 82C274.5 82 82 274.5 82 512s192.5 430 430 430 430-192.5 430-430S749.5 82 512 82z m261.8 689.5C747 755 718.2 740.2 692.6 728c-74.9-36.2-103.9-32.1-103.9-61.6 0-29.8 30-50.1 51.9-82.2 39.6-57.9 41.7-124.6 41.7-153.7 0-164.8-132.6-184.6-161.3-184.6h-18c-28.7 0-161.3 19.9-161.3 184.6 0 29.2 2.1 95.9 41.7 153.7 22 32.1 51.9 52.4 51.9 82.2 0 29.5-29 25.4-103.9 61.6-25.6 12.2-54.4 27-81.2 43.5-66-66.6-106.8-158.3-106.8-259.5 0-203.6 165-368.6 368.6-368.6s368.6 165 368.6 368.6c0 101.2-40.8 192.9-106.8 259.5z"  /></svg>