<?xml version="1.0" standalone="no"?><!DOCTYPE svg PUBLIC "-//W3C//DTD SVG 1.1//EN" "http://www.w3.org/Graphics/SVG/1.1/DTD/svg11.dtd"><svg class="icon" width="200px" height="200.00px" viewBox="0 0 1024 1024" version="1.1" xmlns="http://www.w3.org/2000/svg"><path fill="#333333" d="M606.44 580.82c-46.698-14.846-70.047-30.797-70.047-47.852 0-32.108 32.33-54.066 56.059-88.66 42.795-62.455 45.075-134.543 45.075-165.927C637.527 100.44 494.322 79 463.236 79h-19.274c-31.086 0-174.187 21.44-174.187 199.278 0 31.487 2.28 103.471 45.075 165.927 23.73 34.594 56.06 56.551 56.06 88.66 0 31.797-31.294 27.447-112.222 66.495-81.24 38.736-151.614 101.296-151.614 164.787 0 15.185-0.025 38.506-0.074 69.965-0.016 10.47 7.992 19.206 18.423 20.098 79.704 6.821 140.719 10.232 183.042 10.232h194.337c11.123 0 20.14-9.017 20.14-20.14 0-1.84-0.252-3.672-0.75-5.444-8.176-29.125-12.264-54.163-12.264-75.114 0.642-82.177 32.813-143.152 96.513-182.924z m145.244 1.668C851.828 582.488 933 663.56 933 763.697S851.828 945 751.684 945c-100.145 0-181.317-81.072-181.317-181.209 0-100.136 81.172-181.303 181.317-181.303z m60.75 78.22l-64.105 64.083-64.105-64.083c-9.737-9.734-25.46-9.831-35.317-0.292l-0.297 0.292c-9.735 9.739-9.83 25.456-0.292 35.305l0.292 0.297 64.105 64.083-64.105 64.084c-9.831 9.828-9.834 25.765-0.006 35.596l0.006 0.006c9.836 9.832 25.779 9.832 35.614 0l64.105-64.084 64.105 64.084c9.737 9.734 25.46 9.831 35.317 0.292l0.297-0.292c9.736-9.739 9.83-25.456 0.292-35.305l-0.292-0.297-64.105-64.084 64.105-64.083c9.831-9.828 9.834-25.765 0.006-35.596l-0.006-0.006c-9.835-9.832-25.778-9.832-35.614 0z"  /></svg>