<?xml version="1.0" standalone="no"?><!DOCTYPE svg PUBLIC "-//W3C//DTD SVG 1.1//EN" "http://www.w3.org/Graphics/SVG/1.1/DTD/svg11.dtd"><svg class="icon" width="200px" height="200.00px" viewBox="0 0 1024 1024" version="1.1" xmlns="http://www.w3.org/2000/svg"><path fill="#333333" d="M876.892 214.606c1.537-70.431-40.56-107.337-108.187-106.595-45.085 0.495-204.295 0.495-477.632 0-107.238-0.742-107.238 46.709-106.387 108.398v35.531h-16.09c-11.963 0-21.596 9.758-21.596 21.638V338.7c0 11.985 9.739 21.637 21.595 21.637h16.09V447.1h-16.09c-11.962 0-21.595 9.758-21.595 21.637v65.124c0 11.985 9.739 21.637 21.595 21.637h16.09v86.76h-16.09c-11.962 0-21.595 9.759-21.595 21.638v65.123c0 11.986 9.739 21.637 21.595 21.637h16.09v58.548c-0.85 62.553 14.936 104.732 108.188 106.595H749.12c87.211-1.863 129.308-33.497 127.665-130.035V216.409c0-0.602 0.036-1.203 0.106-1.803z m-178.9 502.215c-18.208 9.44-35.04 16.122-50.6 20.046h-0.741c-47.213 0-131.794-32.986-217.962-115.186-82.993-85.382-117.185-172.036-113.904-218.81 0-0.213-0.317-0.743-0.317-1.061 0.529-16.016 5.822-33.41 15.878-52.29 2.012-3.713 4.446-7.107 7.41-10.076 16.832-17.077 44.25-17.183 61.186-0.319l44.46 44.123c15.456 15.38 17.15 39.88 3.918 57.169l-12.28 16.122c-1.482 2.227-3.07 4.879-5.081 7.424-15.773 23.122 16.302 61.412 54.305 99.807 38.744 37.653 77.17 69.154 100.46 53.456 2.646-2.015 5.08-3.606 7.41-5.197l16.513-12.41c17.361-13.045 41.603-11.242 56.846 4.137l43.19 43.91a41.664 41.664 0 0 1 7.622 10.501c11.115 21.425 2.858 47.623-18.313 58.654z"  /></svg>