<?xml version="1.0" standalone="no"?><!DOCTYPE svg PUBLIC "-//W3C//DTD SVG 1.1//EN" "http://www.w3.org/Graphics/SVG/1.1/DTD/svg11.dtd"><svg class="icon" width="200px" height="200.00px" viewBox="0 0 1024 1024" version="1.1" xmlns="http://www.w3.org/2000/svg"><path fill="#333333" d="M638.208 671.198c-4.375 2.762-8.978 5.807-14.052 9.644-44.128 29.52-116.69-29.825-189.95-100.966-72.006-72.4-132.549-144.576-102.72-188.186 3.884-5.015 6.74-9.807 9.534-14.132l26.62-34.827c23.079-30.194 20.116-72.837-6.916-99.55l-94.008-92.895c-29.66-29.308-77.46-29.023-106.768 0.636a75.498 75.498 0 0 0-11.85 15.61c-22.343 39.104-34.042 75.012-35.098 107.726-0.019 0.548 0.494 1.441 0.494 1.989-6.101 88.237 58.57 251.755 215.342 412.655C491.668 843.772 651.726 906 741.01 906h1.54c31.705-7.922 66.372-22 104.003-42.233 36.724-19.746 50.487-65.524 30.742-102.248a75.497 75.497 0 0 0-12.798-17.317l-91.498-92.58c-26.55-26.862-68.865-29.973-99.057-7.28l-35.734 26.856z"  /></svg>