<?xml version="1.0" encoding="UTF-8"?>
<svg width="48px" height="48px" viewBox="0 0 48 48" version="1.1" xmlns="http://www.w3.org/2000/svg" xmlns:xlink="http://www.w3.org/1999/xlink">
    <title>PictureOutline</title>
    <g id="PictureOutline" stroke="none" stroke-width="1" fill="none" fill-rule="evenodd">
        <g id="编组">
            <rect id="矩形" fill="#FFFFFF" opacity="0" x="0" y="0" width="48" height="48"></rect>
            <path d="M38,4 C41.3137085,4 44,6.6862915 44,10 L44,38 C44,41.3137085 41.3137085,44 38,44 L10,44 C6.6862915,44 4,41.3137085 4,38 L4,10 C4,6.6862915 6.6862915,4 10,4 L38,4 Z M38,7 L10,7 C8.40231912,7 7.09633912,8.24891996 7.00509269,9.82372721 L7,10 L7,38 C7,39.5976809 8.24891996,40.9036609 9.82372721,40.9949073 L10,41 L38,41 C39.5976809,41 40.9036609,39.75108 40.9949073,38.1762728 L41,38 L41,37.332 L32.7808252,29.1126218 C32.0818755,28.4136721 30.9683937,28.3819016 30.2317592,29.0173105 L30.1291748,29.1126218 L17.242,41.9990101 L13,41.9990101 L28.6265729,26.372583 C30.18867,24.8104858 32.72133,24.8104858 34.2834271,26.372583 L40.3171606,32.4061764 C40.4733721,32.5623843 40.7266381,32.5623814 40.882846,32.4061699 C40.9578585,32.3311556 41,32.2294154 41,32.1233304 L41,10 C41,8.40231912 39.75108,7.09633912 38.1762728,7.00509269 L38,7 Z" id="形状" fill="#333333" fill-rule="nonzero"></path>
            <path d="M16,12 C18.7614237,12 21,14.2385763 21,17 C21,19.7614237 18.7614237,22 16,22 C13.2385763,22 11,19.7614237 11,17 C11,14.2385763 13.2385763,12 16,12 Z M16,15 C14.8954305,15 14,15.8954305 14,17 C14,18.1045695 14.8954305,19 16,19 C17.1045695,19 18,18.1045695 18,17 C18,15.8954305 17.1045695,15 16,15 Z" id="形状结合" fill="#333333" fill-rule="nonzero"></path>
        </g>
    </g>
</svg>