<?xml version="1.0" standalone="no"?><!DOCTYPE svg PUBLIC "-//W3C//DTD SVG 1.1//EN" "http://www.w3.org/Graphics/SVG/1.1/DTD/svg11.dtd"><svg class="icon" width="200px" height="200.00px" viewBox="0 0 1024 1024" version="1.1" xmlns="http://www.w3.org/2000/svg"><path fill="#333333" d="M887.176 732.211V221.677c0-44-35.67-79.669-79.67-79.669H215.678c-44 0-79.669 35.67-79.669 79.67v575.105c0 44 35.67 79.67 79.67 79.67h614.591c18.858 0 34.144 15.286 34.144 34.143 0 18.858-15.286 34.144-34.144 34.144H215.677C133.963 944.74 67.72 878.498 67.72 796.783V221.677C67.72 139.963 133.963 73.72 215.677 73.72h591.83C889.22 73.72 955.464 139.963 955.464 221.677v510.534c0 18.858-15.287 34.144-34.144 34.144s-34.144-15.286-34.144-34.144z"  /><path fill="#333333" d="M694.405 285.96a45.525 44.596 0 1 0 91.05 0 45.525 44.596 0 1 0-91.05 0Z"  /><path fill="#333333" d="M541.185 594.556L425.6 443.589c-13.667-17.85-40.555-17.85-54.222 0L234.803 621.974c-11.463 14.973-8.618 36.403 6.355 47.867 14.972 11.463 36.403 8.618 47.867-6.354L398.49 520.51l109.465 142.976c11.556 15.092 33.211 17.842 48.172 6.118l92.752-72.688 92.753 72.688c14.842 11.632 36.304 9.029 47.935-5.814 11.632-14.842 9.03-36.304-5.813-47.935L669.94 526.663c-12.368-9.692-29.754-9.692-42.122 0l-86.633 67.893z"  /></svg>