<?xml version="1.0" encoding="UTF-8"?>
<svg width="48px" height="48px" viewBox="0 0 48 48" version="1.1" xmlns="http://www.w3.org/2000/svg" xmlns:xlink="http://www.w3.org/1999/xlink">
    <title>PicturesOutline</title>
    <g id="PicturesOutline" stroke="none" stroke-width="1" fill="none" fill-rule="evenodd">
        <g id="编组">
            <rect id="矩形" fill="#FFFFFF" opacity="0" x="0" y="0" width="48" height="48"></rect>
            <path d="M32,10 C35.3137085,10 38,12.6862915 38,16 L38,38 C38,41.3137085 35.3137085,44 32,44 L10,44 C6.6862915,44 4,41.3137085 4,38 L4,16 C4,12.6862915 6.6862915,10 10,10 L32,10 Z M32,13 L10,13 C8.40231912,13 7.09633912,14.24892 7.00509269,15.8237272 L7,16 L7,38 C7,39.5976809 8.24891996,40.9036609 9.82372721,40.9949073 L10,41 C13.1111111,41 15.4444444,41 17,41 C20.3333333,41 25.3333333,41 32,41 C33.5976809,41 34.9036609,39.75108 34.9949073,38.1762728 L35,38 L35,33.332 L30.7808252,29.1126218 C30.0818755,28.4136721 28.9683937,28.3819016 28.2317592,29.0173105 L28.1291748,29.1126218 L16.8091025,40.4319451 L16.242,40.9990101 L12,40.9990101 L26.6265729,26.372583 C28.18867,24.8104858 30.72133,24.8104858 32.2834271,26.372583 L35,29.089 L35,16 C35,14.4023191 33.75108,13.0963391 32.1762728,13.0050927 L32,13 Z M38,4 C41.3137085,4 44,6.6862915 44,10 L44,34 L41,34 L41,10 C41,8.40231912 39.75108,7.09633912 38.1762728,7.00509269 L38,7 L14,7 L14,4 L38,4 Z M14.5,16 C16.9852814,16 19,18.0147186 19,20.5 C19,22.9852814 16.9852814,25 14.5,25 C12.0147186,25 10,22.9852814 10,20.5 C10,18.0147186 12.0147186,16 14.5,16 Z M14.5,19 C13.6715729,19 13,19.6715729 13,20.5 C13,21.3284271 13.6715729,22 14.5,22 C15.3284271,22 16,21.3284271 16,20.5 C16,19.6715729 15.3284271,19 14.5,19 Z" id="形状" fill="#333333" fill-rule="nonzero"></path>
        </g>
    </g>
</svg>