<?xml version="1.0" encoding="UTF-8"?>
<svg width="48px" height="48px" viewBox="0 0 48 48" version="1.1" xmlns="http://www.w3.org/2000/svg" xmlns:xlink="http://www.w3.org/1999/xlink">
    <title>PieOutline</title>
    <g id="PieOutline" stroke="none" stroke-width="1" fill="none" fill-rule="evenodd">
        <g id="编组">
            <rect id="矩形" fill="#FFFFFF" opacity="0" x="0" y="0" width="48" height="48"></rect>
            <path d="M24,2 C36.1502645,2 46,11.8497355 46,24 C46,36.1502645 36.1502645,46 24,46 C11.8497355,46 2,36.1502645 2,24 C2,11.8497355 11.8497355,2 24,2 Z M5,24 C5,34.4934102 13.5065898,43 24,43 C28.7011913,43 33.0035955,41.2925892 36.3209311,38.4640488 L23.6849707,26.2605272 C22.6716546,25.2847412 22.0731878,23.9603561 22.0062863,22.5617979 L22,22.298766 L22.000568,5.10394836 C12.4469657,6.1030808 5,14.1818744 5,24 Z M42.9741311,25.0000926 L26.698,25 L38.4444316,36.3439015 C41.0824856,33.2598601 42.7500619,29.320914 42.9741311,25.0000926 Z M25.0000926,5.02586892 L25,22 L42.8960516,22.000568 C41.9310576,12.7733932 34.361933,5.51135535 25.0000926,5.02586892 Z" id="形状结合" fill="#333333" fill-rule="nonzero"></path>
        </g>
    </g>
</svg>