<?xml version="1.0" encoding="UTF-8"?>
<svg width="48px" height="48px" viewBox="0 0 48 48" version="1.1" xmlns="http://www.w3.org/2000/svg" xmlns:xlink="http://www.w3.org/1999/xlink">
    <title>PlayOutline</title>
    <g id="PlayOutline" stroke="none" stroke-width="1" fill="none" fill-rule="evenodd">
        <g id="编组">
            <rect id="矩形" fill="#FFFFFF" opacity="0" x="0" y="0" width="48" height="48"></rect>
            <path d="M13.7542635,5 L13.7542635,5 C14.4346997,5 15.1023464,5.17879782 15.6858218,5.51730753 L42.1766882,20.8867866 L42.1766884,20.8867867 C43.954638,21.9182878 44.5311886,24.1481853 43.4644541,25.8674033 C43.1473985,26.3783891 42.7051305,26.8060484 42.1766884,27.1126297 L15.6858221,42.4821088 L15.6858224,42.4821086 C13.9078904,43.5136394 11.6018067,42.9561767 10.5350149,41.2369758 C10.1849222,40.6727702 10,40.0271653 10,39.3691893 L10,8.63023111 L10,8.63023166 C10,6.62531187 11.6808306,5 13.7542421,5 L13.7542635,5 Z M13.7542635,7.72267123 L13.7542635,7.72267123 C13.2784351,7.72267123 12.8779439,8.06709552 12.8222725,8.52404271 L12.8157026,8.63022688 L12.8157026,39.369185 L12.8157026,39.3692026 C12.8157026,39.8704336 13.2355864,40.2770731 13.7539409,40.2770731 C13.8870633,40.2770731 14.0186722,40.249778 14.1400304,40.1968699 L14.236702,40.1478619 L40.7284922,24.7774894 L40.7284923,24.7774894 C41.1728598,24.5194214 41.3167368,23.9618834 41.0498545,23.5321949 C40.9896328,23.4352363 40.9111988,23.3500171 40.8185937,23.2809268 L40.7284918,23.2219354 L14.2366576,7.85156296 L14.2366576,7.85156295 C14.0908783,7.76717376 13.9241432,7.72267123 13.7542388,7.72267123 L13.7542635,7.72267123 Z" id="形状" fill="#333333" fill-rule="nonzero"></path>
        </g>
    </g>
</svg>