<?xml version="1.0" standalone="no"?><!DOCTYPE svg PUBLIC "-//W3C//DTD SVG 1.1//EN" "http://www.w3.org/Graphics/SVG/1.1/DTD/svg11.dtd"><svg class="icon" width="200px" height="199.80px" viewBox="0 0 1025 1024" version="1.1" xmlns="http://www.w3.org/2000/svg"><path fill="#333333" d="M907.9 387.9L334.5 61.2c-18.6-10.6-39.6-16.2-61-16.2-67.9 0-123 54.9-123 122.7v544.5c0 18.9 15.3 34.1 34.1 34.1 18.9 0 34.1-15.3 34.1-34.1V167.7c0-30 24.5-54.4 54.7-54.4 9.6 0 18.9 2.5 27.2 7.2L874 447.2c26.2 14.9 35.3 48.1 20.3 74.1-5 8.7-12.4 15.9-21.2 20.7L299.7 854l-111.5 60c-16.6 8.9-22.8 29.6-13.9 46.2s29.6 22.8 46.2 13.9l111.7-60L905.8 602c20-10.9 36.5-27 47.8-46.7 33.8-58.8 13.3-133.8-45.7-167.4z"  /></svg>