<?xml version="1.0" standalone="no"?><!DOCTYPE svg PUBLIC "-//W3C//DTD SVG 1.1//EN" "http://www.w3.org/Graphics/SVG/1.1/DTD/svg11.dtd"><svg class="icon" width="200px" height="200.00px" viewBox="0 0 1024 1024" version="1.1" xmlns="http://www.w3.org/2000/svg"><path fill="#333333" d="M211.948 691.963h119.976V811.94H211.948V691.963zM68 475.985h407.985V68H161.5C109.861 68 68 109.861 68 161.5v314.485zM186.78 140.03h217.287v264.037H140.03V186.78c0-25.819 20.931-46.75 46.75-46.75zM161.5 956h314.485V548.015H68V862.5c0 51.639 41.861 93.5 93.5 93.5z m-21.47-335.954h264.037V883.97H186.78c-25.819 0-46.75-20.931-46.75-46.75V620.046z m71.918-408.098h119.976v119.976H211.948V211.948z m408.098 612.034h-72.03V956h264.036v-72.03H620.046v-59.988zM883.97 548.015H956v72.03h-72.03v-72.03zM691.963 211.948H811.94v119.976H691.963V211.948zM548.015 68v407.985H956V161.5c0-51.639-41.861-93.5-93.5-93.5H548.015zM883.97 403.954H620.046V140.03H837.22c25.819 0 46.75 20.931 46.75 46.75v217.174z m-263.924 276.08v-59.988h192.006v-72.03H548.015V751.95h192.006v-71.918H620.046zM740.02 751.95h72.03v72.03h-72.03v-72.03z m143.949 84.073H956v49.851C956 924.604 924.604 956 885.875 956h-1.905V836.024z m-71.918-155.99H956v72.03H812.052v-72.03z"  /></svg>