<?xml version="1.0" encoding="UTF-8"?>
<svg width="48px" height="48px" viewBox="0 0 48 48" version="1.1" xmlns="http://www.w3.org/2000/svg" xmlns:xlink="http://www.w3.org/1999/xlink">
    <title>QuestionCircleOutline</title>
    <g id="QuestionCircleOutline" stroke="none" stroke-width="1" fill="none" fill-rule="evenodd">
        <g id="编组">
            <rect id="矩形" fill="#FFFFFF" opacity="0" x="0" y="0" width="48" height="48"></rect>
            <path d="M24,2 C36.1502645,2 46,11.8497355 46,24 C46,36.1502645 36.1502645,46 24,46 C11.8497355,46 2,36.1502645 2,24 C2,11.8497355 11.8497355,2 24,2 Z M24,5 C13.5065898,5 5,13.5065898 5,24 C5,34.4934102 13.5065898,43 24,43 C34.4934102,43 43,34.4934102 43,24 C43,13.5065898 34.4934102,5 24,5 Z M26,32.4 L26,34.6 C26,34.8209139 25.8209139,35 25.6,35 L23.4,35 C23.1790861,35 23,34.8209139 23,34.6 L23,32.4 C23,32.1790861 23.1790861,32 23.4,32 L25.6,32 C25.8209139,32 26,32.1790861 26,32.4 Z M24,12 C27.8659932,12 31,15.1340068 31,19 C31,22.1706393 28.8919961,24.8489278 26.0010432,25.7098107 L26.0001268,28.6 C25.9999299,28.8208643 25.8208644,28.9998731 25.6,29 L23.4,29 C23.1790861,29 23,28.8209139 23,28.6 L23,23.4 C23,23.1790861 23.1790861,23 23.4,23 L24,23 L24,23 C26.209139,23 28,21.209139 28,19 C28,16.790861 26.209139,15 24,15 C21.790861,15 20,16.790861 20,19 L17,19 C17,15.1340068 20.1340068,12 24,12 Z" id="形状" fill="#333333" fill-rule="nonzero"></path>
        </g>
    </g>
</svg>