<?xml version="1.0" standalone="no"?><!DOCTYPE svg PUBLIC "-//W3C//DTD SVG 1.1//EN" "http://www.w3.org/Graphics/SVG/1.1/DTD/svg11.dtd"><svg class="icon" width="200px" height="200.00px" viewBox="0 0 1024 1024" version="1.1" xmlns="http://www.w3.org/2000/svg"><path fill="#333333" d="M512 82C274.9 82 82 274.9 82 512s192.9 430 430 430 430-192.9 430-430S749.1 82 512 82z m0 645c-17 0-30.7-13.8-30.7-30.7s13.8-30.7 30.7-30.7 30.7 13.8 30.7 30.7S529 727 512 727z m84.8-210.9c-2.2 2.1-10.4 9.9-12.3 11.7-16.9 16.2-27.9 29.6-34.3 44.6-1.1 2.6-2.1 5.2-2.9 7.9-0.5 1.5-2.2 7.8-5.3 18.7-4.1 14.8-18.9 23.8-34 20.8-15.3-3.1-25.8-17.3-24.3-32.8 0.7-6.8 1.2-11 1.5-12.7 0.6-2.9 1.3-5.8 2.1-8.6 8.6-30.7 26.4-55.1 54.6-82.2 2.1-2 10.4-9.8 12.3-11.7 22.4-21.5 29.4-33.1 29.4-51.9 0-38.6-26-61.4-71.7-61.4-27.9 0-48.7 17.6-62.6 52.7-6.4 16.3-24.3 25-41.1 20l-1.8-0.6c-17.6-6.4-26.7-25.8-20.3-43.4 3.9-10.8 8.3-20.5 13.2-29.2 21.8-38.4 59.8-61 112.7-61 78 0 133.1 48.4 133.1 122.9 0 39.4-15 64.2-48.3 96.2z"  /></svg>