<?xml version="1.0" standalone="no"?><!DOCTYPE svg PUBLIC "-//W3C//DTD SVG 1.1//EN" "http://www.w3.org/Graphics/SVG/1.1/DTD/svg11.dtd"><svg class="icon" width="200px" height="200.00px" viewBox="0 0 1024 1024" version="1.1" xmlns="http://www.w3.org/2000/svg"><path fill="#333333" d="M521.3 45.2c-257.4 0-466.1 208.7-466.1 466.1s208.7 466.1 466.1 466.1c71.4 0 140.5-16.1 203.4-46.6 11-5.4 21.9-11.2 32.4-17.4 17.1-10 22.8-32 12.7-49.1s-32-22.8-49.1-12.7c-8.9 5.3-18.1 10.2-27.4 14.7-53.1 25.8-111.6 39.4-172.1 39.4-217.8 0-394.4-176.6-394.4-394.4s176.6-394.4 394.4-394.4 394.4 176.6 394.4 394.4c0 56.4-11.8 111-34.4 161.2-3.8 8.5-7.9 16.8-12.3 25-9.4 17.4-2.8 39.2 14.6 48.5s39.2 2.8 48.5-14.6c5.2-9.7 10-19.5 14.5-29.6 26.7-59.4 40.6-124.1 40.6-190.6 0.3-257.3-208.4-466-465.8-466z"  /><path fill="#333333" d="M575.5 592.6c0-11.4 2.1-20.6 6.3-28.8 3.6-7.4 8.5-14.2 15.5-21.6l16.5-16.7 13-13.6 7.2-7.8c6.7-7.3 11.6-13.2 14.8-17.6 18.7-28 27.7-59.2 27.7-93.9 0-45.8-13.4-84-40.6-112.3-28.2-29.5-65.4-43.9-110.1-43.9-49.9 0-90.9 18.3-119.9 54.4-27 32.2-40.1 74.9-40.1 126.7 0 19.8 16.1 35.9 35.9 35.9 19.8 0 35.9-16.1 35.9-35.9 0-36 8.1-62.5 23.9-81.3 15.3-19.1 35.6-28.2 64.4-28.2 25.9 0 44.3 7.1 58.3 21.8 13.6 14.2 20.7 34.5 20.7 62.8 0 20.8-5 38.1-14.8 52.7l-2.9 3.5-5.8 6.5c-4.8 5.2-11.2 12-18.9 20l-16.7 17c-12.3 12.9-21.4 25.7-28 39.1-9.4 18-14 38.5-14 61.1v14.3c0 19.8 16.1 35.9 35.9 35.9 19.8 0 35.9-16.1 35.9-35.9v-14.2z"  /><path fill="#333333" d="M519.579143 747.583433a35.9 35.9 0 1 0 27.476671-66.33455 35.9 35.9 0 1 0-27.476671 66.33455Z"  /></svg>