<?xml version="1.0" standalone="no"?><!DOCTYPE svg PUBLIC "-//W3C//DTD SVG 1.1//EN" "http://www.w3.org/Graphics/SVG/1.1/DTD/svg11.dtd"><svg class="icon" width="200px" height="200.00px" viewBox="0 0 1024 1024" version="1.1" xmlns="http://www.w3.org/2000/svg"><path fill="#333333" d="M671.50894 463.1l3.3-0.2c17.3-1.7 30.9-16.2 30.9-34 0-18.9-15.3-34.1-34.1-34.1h-100c1.5-1.7 3-3.5 4.4-5.4l66-88 1.8-2.7c9.1-14.8 5.5-34.4-8.7-45.1-15.1-11.3-36.5-8.3-47.8 6.8l-66 88-1.1 1.2-1.2 1.1c-5 3.8-12.2 2.8-15.9-2.3l-66-88-2.1-2.5c-11.7-12.9-31.5-14.9-45.7-4.3-15.1 11.3-18.1 32.7-6.8 47.8l66 88 2.1 2.7 2.2 2.6h-100l-3.3 0.2c-17.3 1.7-30.9 16.2-30.9 34 0 18.9 15.3 34.1 34.1 34.1H477.90894v79.7H352.90894l-3.3 0.2c-17.3 1.7-30.9 16.2-30.9 34 0 18.9 15.3 34.1 34.1 34.1h125.2v102.4l0.2 3.3c1.7 17.3 16.2 30.9 34 30.9l3.3-0.2c17.3-1.7 30.9-16.2 30.9-34V611h125.2l3.3-0.2c17.3-1.7 30.9-16.2 30.9-34 0-18.9-15.3-34.1-34.1-34.1H546.30894V463h125.2z"  /><path fill="#333333" d="M1021.90894 723.4c-7.1-17.5-27-25.9-44.5-18.8L516.50894 891.2c-2.7 1.1-5.8 1.1-8.5 0L182.10894 759.3V196.4c0-35.5 26-63.4 56.9-63.4h546.3c30.9 0 56.9 27.9 56.9 63.4V571c0 18.9 15.3 34.1 34.1 34.1 18.9 0 34.1-15.3 34.1-34.1V196.4c0-72.2-55.5-131.7-125.2-131.7H239.10894c-69.7 0-125.2 59.5-125.2 131.7v535.2l-66.9-27.1c-17.5-7.1-37.4 1.4-44.5 18.8-7.1 17.5 1.4 37.4 18.8 44.5l460.9 186.6c19.2 7.8 40.6 7.8 59.8 0L1002.90894 767.8c17.6-7 26-26.9 19-44.4z"  /></svg>