<?xml version="1.0" standalone="no"?><!DOCTYPE svg PUBLIC "-//W3C//DTD SVG 1.1//EN" "http://www.w3.org/Graphics/SVG/1.1/DTD/svg11.dtd"><svg class="icon" width="200px" height="200.00px" viewBox="0 0 1024 1024" version="1.1" xmlns="http://www.w3.org/2000/svg"><path fill="#333333" d="M287.27 150.521l378.823 340.417c12.184 10.95 13.186 29.703 2.237 41.888a29.675 29.675 0 0 1-2.237 2.236L287.27 875.48c-15.2 13.658-16.449 37.052-2.79 52.251 13.658 15.2 37.052 16.448 52.251 2.79l378.823-340.417a103.655 103.655 0 0 0 7.817-7.817c38.266-42.583 34.766-108.124-7.817-146.39L336.731 95.48c-15.2-13.659-38.593-12.41-52.251 2.79-13.659 15.199-12.41 38.593 2.79 52.251z"  /></svg>