<?xml version="1.0" standalone="no"?><!DOCTYPE svg PUBLIC "-//W3C//DTD SVG 1.1//EN" "http://www.w3.org/Graphics/SVG/1.1/DTD/svg11.dtd"><svg class="icon" width="200px" height="200.00px" viewBox="0 0 1024 1024" version="1.1" xmlns="http://www.w3.org/2000/svg"><path fill="#333333" d="M512 82C275.5 82 82 275.5 82 512s193.5 430 430 430 430-193.5 430-430S748.5 82 512 82zM307.3 404.5c0-31.1 25.2-56.3 56.3-56.3 31.1 0 56.3 25.2 56.3 56.3s-25.2 56.3-56.3 56.3c-31.2 0-56.3-25.2-56.3-56.3z m348.2 260.9c-0.4 0.8-0.9 1.6-1.4 2.3-9.3 14-27.7 18.7-42.6 11-5.1-2.6-9.5-4.7-13.2-6.3-27.1-11.2-56.2-17.1-86.2-17.1s-59.1 5.9-86.2 17.1c-3.7 1.6-8.1 3.6-13.2 6.3-15 7.8-33.5 3.1-42.9-10.9-8.8-13.1-5.4-30.9 7.7-39.7l2.4-1.5c8.7-4.7 16.1-8.3 22.2-10.8 34.5-14.3 71.6-21.8 109.7-21.8 38.1 0 75.2 7.5 109.7 21.8 6.1 2.5 13.5 6.1 22.3 10.9 14 7.4 19.2 24.8 11.7 38.7z m5-204.6c-31.1 0-56.3-25.2-56.3-56.3s25.2-56.3 56.3-56.3 56.3 25.2 56.3 56.3-25.2 56.3-56.3 56.3z"  /></svg>