<?xml version="1.0" standalone="no"?><!DOCTYPE svg PUBLIC "-//W3C//DTD SVG 1.1//EN" "http://www.w3.org/Graphics/SVG/1.1/DTD/svg11.dtd"><svg class="icon" width="200px" height="200.00px" viewBox="0 0 1024 1024" version="1.1" xmlns="http://www.w3.org/2000/svg"><path fill="#333333" d="M911.963 735.069a447.7 447.7 0 0 0 14.021-28.499c25.712-57.31 39.182-119.623 39.182-183.768 0-248.177-201.187-449.365-449.364-449.365-248.177 0-449.365 201.188-449.365 449.365 0 248.177 201.188 449.364 449.365 449.364 68.824 0 135.511-15.509 196.118-44.95a448.321 448.321 0 0 0 31.277-16.756c16.458-9.673 21.958-30.857 12.285-47.315-9.674-16.458-30.857-21.959-47.316-12.285a379.189 379.189 0 0 1-26.453 14.171c-51.245 24.894-107.61 38.002-165.911 38.002-209.996 0-380.232-170.235-380.232-380.231 0-209.996 170.236-380.232 380.232-380.232 209.996 0 380.23 170.236 380.23 380.232 0 54.343-11.385 107.017-33.124 155.47a378.567 378.567 0 0 1-11.856 24.097c-9.03 16.82-2.714 37.775 14.106 46.805 16.82 9.03 37.775 2.715 46.805-14.105z"  /><path fill="#333333" d="M366.013 476.713c-31.816 0-57.61-25.793-57.61-57.61 0-31.818 25.793-57.612 57.61-57.612s57.611 25.793 57.611 57.611c0 31.817-25.793 57.61-57.61 57.61zM687.648 476.713c-31.817 0-57.61-25.793-57.61-57.61 0-31.818 25.793-57.612 57.61-57.612 31.818 0 57.611 25.794 57.611 57.611 0 31.817-25.793 57.61-57.61 57.61z"  /><path fill="#333333" d="M373.729 696.037a275.25 275.25 0 0 1 47.694-25.548c33.346-13.832 69.079-20.944 105.629-20.944 36.55 0 72.282 7.112 105.633 20.946a275.24 275.24 0 0 1 47.69 25.546c15.86 10.625 37.33 6.38 47.955-9.481s6.38-37.332-9.481-47.956a344.384 344.384 0 0 0-59.673-31.965c-41.754-17.32-86.488-26.223-132.124-26.223-45.637 0-90.371 8.904-132.12 26.222a344.393 344.393 0 0 0-59.678 31.966c-15.86 10.624-20.106 32.095-9.482 47.956 10.625 15.86 32.096 20.106 47.957 9.481z"  /></svg>