<?xml version="1.0" encoding="UTF-8"?>
<svg width="48px" height="48px" viewBox="0 0 48 48" version="1.1" xmlns="http://www.w3.org/2000/svg" xmlns:xlink="http://www.w3.org/1999/xlink">
    <title>ScanCodeOutline</title>
    <g id="ScanCodeOutline" stroke="none" stroke-width="1" fill="none" fill-rule="evenodd">
        <g id="编组">
            <rect id="矩形" fill="#FFFFFF" opacity="0" x="0" y="0" width="48" height="48"></rect>
            <path d="M6.6,32 C6.8209139,32 7,32.1790861 7,32.4 L7,38 C7,39.5976809 8.24891996,40.9036609 9.82372721,40.9949073 L10,41 L15.6,41 C15.8209139,41 16,41.1790861 16,41.4 L16,43.6 C16,43.8209139 15.8209139,44 15.6,44 L10,44 C6.6862915,44 4,41.3137085 4,38 L4,32.4 C4,32.1790861 4.1790861,32 4.4,32 L6.6,32 Z M43.6,32 C43.8209139,32 44,32.1790861 44,32.4 L44,38 C44,41.3137085 41.3137085,44 38,44 L32.4,44 C32.1790861,44 32,43.8209139 32,43.6 L32,41.4 C32,41.1790861 32.1790861,41 32.4,41 L38,41 C39.5976809,41 40.9036609,39.75108 40.9949073,38.1762728 L41,38 L41,32.4 C41,32.1790861 41.1790861,32 41.4,32 L43.6,32 Z M14.6,18 C14.8209139,18 15,18.1790861 15,18.4 L15,30.6 C15,30.8209139 14.8209139,31 14.6,31 L12.4,31 C12.1790861,31 12,30.8209139 12,30.6 L12,18.4 C12,18.1790861 12.1790861,18 12.4,18 L14.6,18 Z M21.6,18 C21.8209139,18 22,18.1790861 22,18.4 L22,30.6 C22,30.8209139 21.8209139,31 21.6,31 L19.4,31 C19.1790861,31 19,30.8209139 19,30.6 L19,18.4 C19,18.1790861 19.1790861,18 19.4,18 L21.6,18 Z M28.6,18 C28.8209139,18 29,18.1790861 29,18.4 L29,30.6 C29,30.8209139 28.8209139,31 28.6,31 L26.4,31 C26.1790861,31 26,30.8209139 26,30.6 L26,18.4 C26,18.1790861 26.1790861,18 26.4,18 L28.6,18 Z M35.6,18 C35.8209139,18 36,18.1790861 36,18.4 L36,30.6 C36,30.8209139 35.8209139,31 35.6,31 L33.4,31 C33.1790861,31 33,30.8209139 33,30.6 L33,18.4 C33,18.1790861 33.1790861,18 33.4,18 L35.6,18 Z M38,4 C41.3137085,4 44,6.6862915 44,10 L44,15.6 C44,15.8209139 43.8209139,16 43.6,16 L41.4,16 C41.1790861,16 41,15.8209139 41,15.6 L41,10 C41,8.40231912 39.75108,7.09633912 38.1762728,7.00509269 L38,7 L32.4,7 C32.1790861,7 32,6.8209139 32,6.6 L32,4.4 C32,4.1790861 32.1790861,4 32.4,4 L38,4 Z M15.6,4 C15.8209139,4 16,4.1790861 16,4.4 L16,6.6 C16,6.8209139 15.8209139,7 15.6,7 L10,7 C8.40231912,7 7.09633912,8.24891996 7.00509269,9.82372721 L7,10 L7,15.6 C7,15.8209139 6.8209139,16 6.6,16 L4.4,16 C4.1790861,16 4,15.8209139 4,15.6 L4,10 C4,6.6862915 6.6862915,4 10,4 L15.6,4 Z" id="形状结合" fill="#333333" fill-rule="nonzero"></path>
        </g>
    </g>
</svg>