<?xml version="1.0" standalone="no"?><!DOCTYPE svg PUBLIC "-//W3C//DTD SVG 1.1//EN" "http://www.w3.org/Graphics/SVG/1.1/DTD/svg11.dtd"><svg class="icon" width="200px" height="200.00px" viewBox="0 0 1024 1024" version="1.1" xmlns="http://www.w3.org/2000/svg"><path fill="#333333" d="M136.72 739.93v68.289c0 43.56 34.96 78.955 78.352 79.658l1.317 0.011h102.432c18.858 0 34.144 15.287 34.144 34.144 0 18.669-14.982 33.838-33.579 34.14l-0.565 0.004H216.39c-80.897 0-146.63-64.925-147.937-145.51l-0.02-2.447V703.93l68.283 0.564 0.004 35.435z m785.312-68.287c18.669 0 33.838 14.982 34.14 33.579l0.004 0.565V830.98c0 68.452-54.936 124.073-123.124 125.178l-2.07 0.017H705.786c-18.858 0-34.144-15.287-34.144-34.144 0-18.669 14.982-33.838 33.579-34.14l0.565-0.004H830.98c31.115 0 56.397-24.971 56.9-55.966l0.007-0.94V705.786c0-18.858 15.287-34.144 34.144-34.144zM136.72 705.787H68.432l0.02-1.352c1.312-43.29 65.63-43.719 68.19-1.286l0.058 1.299 0.02 1.339zM808.219 68.432c80.897 0 146.63 64.925 147.937 145.51l0.02 2.447v102.432c0 18.858-15.287 34.144-34.144 34.144-18.669 0-33.838-14.982-34.14-33.579l-0.004-0.565V216.39c0-43.56-34.96-78.955-78.352-79.658l-1.317-0.011H705.787c-18.858 0-34.144-15.287-34.144-34.144 0-18.669 14.982-33.838 33.579-34.14l0.565-0.004h102.432zM136.72 318.822c0 45.07-66.93 45.52-68.268 1.351l-0.02-1.352h68.288z m182.101-250.39c18.858 0 34.144 15.287 34.144 34.144 0 18.669-14.982 33.838-33.579 34.14l-0.565 0.004H216.39c-43.56 0-78.955 34.96-79.658 78.352l-0.011 1.317v68.288l-0.005 36.436-68.283 0.564V216.39c0-80.897 64.925-146.63 145.51-147.937l2.447-0.02h102.432z"  /><path fill="#333333" d="M944.795 500.923c0 18.857-15.287 34.144-34.144 34.144H113.957c-18.857 0-34.144-15.287-34.144-34.144S95.1 466.78 113.957 466.78l796.694-0.001c18.857 0 34.144 15.286 34.144 34.144z"  /></svg>