<?xml version="1.0" standalone="no"?><!DOCTYPE svg PUBLIC "-//W3C//DTD SVG 1.1//EN" "http://www.w3.org/Graphics/SVG/1.1/DTD/svg11.dtd"><svg class="icon" width="200px" height="200.00px" viewBox="0 0 1024 1024" version="1.1" xmlns="http://www.w3.org/2000/svg"><path fill="#333333" d="M318.5 887.6H216.1l-4.4-0.1c-42-2.3-75.3-37-75.3-79.6V705.5l-0.2-3.7-0.5-3.6c-6.7-37-64.1-35.8-67.5 3.6l-0.2 3.7h0.1L68 807.9l0.1 5.3C70.9 892.5 136 955.9 216 955.9h102.4l3.3-0.2c17.3-1.7 30.9-16.2 30.9-34 0.1-18.8-15.2-34.1-34.1-34.1zM318.5 68.1H216.1l-5.3 0.1C131.5 71 68.1 136.1 68.1 216.1v102.4l0.2 3.7c3.6 41.8 68.1 40.6 68.1-3.7V216.1l0.1-4.4c2.3-42 37-75.3 79.6-75.3h102.4l3.3-0.2c17.3-1.7 30.9-16.2 30.9-34 0-18.8-15.3-34.1-34.2-34.1zM955.8 210.8C953 131.5 887.9 68.1 807.9 68.1H705.5l-3.3 0.2c-17.3 1.7-30.9 16.2-30.9 34 0 18.9 15.3 34.1 34.1 34.1h102.4l4.4 0.1c42 2.3 75.3 37 75.3 79.6v102.4l0.2 3.3c1.7 17.3 16.2 30.9 34 30.9 18.9 0 34.1-15.3 34.1-34.1V210.8zM921.7 671.3c-18.9 0-34.1 15.3-34.1 34.1v125.2l-0.1 3.7c-1.9 29.7-26.6 53.2-56.8 53.2H705.5l-3.3 0.2c-17.3 1.7-30.9 16.2-30.9 34 0 18.9 15.3 34.1 34.1 34.1h125.2l5-0.1c66.8-2.6 120.2-57.6 120.2-125.1V705.5l-0.2-3.3c-1.5-17.3-16.1-30.9-33.9-30.9zM295.8 671.3V352.7c0-18.9-15.3-34.1-34.1-34.1-18.9 0-34.1 15.3-34.1 34.1v318.7c0 18.9 15.3 34.1 34.1 34.1s34.1-15.3 34.1-34.2zM420.9 318.5c-18.9 0-34.1 15.3-34.1 34.1v318.7c0 18.9 15.3 34.1 34.1 34.1 18.9 0 34.1-15.3 34.1-34.1V352.7c0.1-18.9-15.2-34.2-34.1-34.2zM603.1 318.5c-18.9 0-34.1 15.3-34.1 34.1v318.7c0 18.9 15.3 34.1 34.1 34.1 18.9 0 34.1-15.3 34.1-34.1V352.7c0-18.9-15.3-34.2-34.1-34.2zM807.9 671.3V352.7c0-18.9-15.3-34.1-34.1-34.1-18.9 0-34.1 15.3-34.1 34.1v318.7c0 18.9 15.3 34.1 34.1 34.1s34.1-15.3 34.1-34.2z"  /></svg>