<?xml version="1.0" encoding="UTF-8"?>
<svg width="48px" height="48px" viewBox="0 0 48 48" version="1.1" xmlns="http://www.w3.org/2000/svg" xmlns:xlink="http://www.w3.org/1999/xlink">
    <title>ScanningOutline</title>
    <g id="ScanningOutline" stroke="none" stroke-width="1" fill="none" fill-rule="evenodd">
        <g id="编组">
            <rect id="矩形" fill="#FFFFFF" opacity="0" x="0" y="0" width="48" height="48"></rect>
            <path d="M6.6,32 C6.8209139,32 7,32.1790861 7,32.4 L7,38 C7,39.5976809 8.24891996,40.9036609 9.82372721,40.9949073 L10,41 L15.6,41 C15.8209139,41 16,41.1790861 16,41.4 L16,43.6 C16,43.8209139 15.8209139,44 15.6,44 L10,44 C6.6862915,44 4,41.3137085 4,38 L4,32.4 C4,32.1790861 4.1790861,32 4.4,32 L6.6,32 Z M43.6,32 C43.8209139,32 44,32.1790861 44,32.4 L44,38 C44,41.3137085 41.3137085,44 38,44 L32.4,44 C32.1790861,44 32,43.8209139 32,43.6 L32,41.4 C32,41.1790861 32.1790861,41 32.4,41 L38,41 C39.5976809,41 40.9036609,39.75108 40.9949073,38.1762728 L41,38 L41,32.4 C41,32.1790861 41.1790861,32 41.4,32 L43.6,32 Z M43.6,23 C43.8209139,23 44,23.1790861 44,23.4 L44,25.6 C44,25.8209139 43.8209139,26 43.6,26 L4.4,26 C4.1790861,26 4,25.8209139 4,25.6 L4,23.4 C4,23.1790861 4.1790861,23 4.4,23 L43.6,23 Z M38,4 C41.3137085,4 44,6.6862915 44,10 L44,15.6 C44,15.8209139 43.8209139,16 43.6,16 L41.4,16 C41.1790861,16 41,15.8209139 41,15.6 L41,10 C41,8.40231912 39.75108,7.09633912 38.1762728,7.00509269 L38,7 L32.4,7 C32.1790861,7 32,6.8209139 32,6.6 L32,4.4 C32,4.1790861 32.1790861,4 32.4,4 L38,4 Z M15.6,4 C15.8209139,4 16,4.1790861 16,4.4 L16,6.6 C16,6.8209139 15.8209139,7 15.6,7 L10,7 C8.40231912,7 7.09633912,8.24891996 7.00509269,9.82372721 L7,10 L7,15.6 C7,15.8209139 6.8209139,16 6.6,16 L4.4,16 C4.1790861,16 4,15.8209139 4,15.6 L4,10 C4,6.6862915 6.6862915,4 10,4 L15.6,4 Z" id="形状结合" fill="#333333" fill-rule="nonzero"></path>
        </g>
    </g>
</svg>