<?xml version="1.0" standalone="no"?><!DOCTYPE svg PUBLIC "-//W3C//DTD SVG 1.1//EN" "http://www.w3.org/Graphics/SVG/1.1/DTD/svg11.dtd"><svg class="icon" width="200px" height="200.00px" viewBox="0 0 1024 1024" version="1.1" xmlns="http://www.w3.org/2000/svg"><path fill="#333333" d="M449.9 53.6c-220.7 0-399.6 178.9-399.6 399.6s178.9 399.6 399.6 399.6S849.6 674 849.6 453.2 670.7 53.6 449.9 53.6z m0 730.8c-182.9 0-331.1-148.3-331.1-331.1s148.3-331.1 331.1-331.1S781 270.5 781 453.3 632.8 784.4 449.9 784.4zM943.4 882.4L820.6 759l-0.2-0.2c-16-15.9-41.9-15.9-57.9 0.1-16 16.1-16 42.2 0 58.3l122.8 123.4 0.2 0.2c16 15.9 41.9 15.9 57.9-0.1 16.1-16.1 16.1-42.1 0-58.3z"  /></svg>