<?xml version="1.0" standalone="no"?><!DOCTYPE svg PUBLIC "-//W3C//DTD SVG 1.1//EN" "http://www.w3.org/Graphics/SVG/1.1/DTD/svg11.dtd"><svg class="icon" width="200px" height="200.00px" viewBox="0 0 1024 1024" version="1.1" xmlns="http://www.w3.org/2000/svg"><path fill="#333333" d="M947.3 468.3H870c-9-70.7-38-135.2-81-187.7l55.4-55.4c16.4-16.4 16.4-43.1 0-59.5l-1.7-1.7c-16.4-16.4-43-16.4-59.5 0l-56.5 56.5c-49.3-37.5-108.2-62.8-172.4-71.6V75.2c0-23.2-18.8-42.1-42.1-42.1h-2c-23.2 0-42.1 18.8-42.1 42v72.1c-78.4 7.6-149.7 39.9-206 89l-62.4-54.3c-17.5-15.2-44.1-13.4-59.4 4.1l-1.3 1.5c-15.3 17.5-13.4 44.1 4.1 59.3l61.1 53.1c-34.7 48.6-58.1 105.9-66 168.1h-63c-23.2 0-42.1 18.8-42.1 42.1v2c0 23.2 18.8 42.1 42 42.1h62c7 68.5 32.7 131.5 71.8 183.8l-45.1 45.1c-16.4 16.4-16.4 43.1 0 59.5l1.7 1.7c16.4 16.4 43 16.4 59.5 0l43.6-43.5c55.2 46 124 76.2 199.5 83.5v62.8c0 23.2 18.8 42.1 42.1 42.1h2c23.2 0 42.1-18.8 42.1-42v-64.6c14.4-2 28.6-4.8 42.7-8.4 18.2-4.7 29.2-23.4 24.4-41.6-4.7-18.2-23.4-29.2-41.6-24.4-24.5 6.4-49.8 9.6-75.6 9.6-166 0-300.6-135.2-300.6-302s134.6-302 300.6-302 300.6 135.2 300.6 302c0 8.4-0.3 16.7-1 24.9-1 12.3-2.7 24.4-5.2 36.3-4.9 23.8-12.6 46.8-22.9 68.6a303.97 303.97 0 0 1-52.4 77c-12.9 13.8-12.2 35.4 1.6 48.3 8.6 8 20.1 10.8 30.8 8.4l45.7 39.8c17.5 15.2 44.1 13.4 59.4-4.1l1.3-1.5c15.3-17.5 13.4-44.1-4.1-59.3l-43.5-37.8c8.5-13.2 16.2-27 23-41.3 12.7-26.7 22.2-55 28.2-84.2 2.5-12 4.3-24.2 5.6-36.4h76.2c23.2 0 42.1-18.8 42.1-42.1v-2c-0.3-23.3-19.1-42.1-42.3-42.1z"  /></svg>