<?xml version="1.0" standalone="no"?><!DOCTYPE svg PUBLIC "-//W3C//DTD SVG 1.1//EN" "http://www.w3.org/Graphics/SVG/1.1/DTD/svg11.dtd"><svg class="icon" width="200px" height="200.00px" viewBox="0 0 1024 1024" version="1.1" xmlns="http://www.w3.org/2000/svg"><path fill="#333333" d="M216 68h307.3c18.9 0 34.1 15.3 34.1 34.1 0 17.7-13.5 32.3-30.9 34l-3.3 0.2H216c-42.5 0-77.3 33.3-79.6 75.3l-0.1 4.4v591.8c0 42.5 33.3 77.3 75.3 79.6l4.4 0.1h591.8c42.5 0 77.3-33.3 79.6-75.3l0.1-4.4V500.5c0-18.9 15.3-34.1 34.1-34.1 17.7 0 32.3 13.5 34 30.9l0.2 3.3v307.3c0 79.9-63.4 145.1-142.7 147.9l-5.3 0.1H216c-80-0.2-145.1-63.5-147.9-142.8l-0.1-5.3V216c0-80 63.4-145.1 142.7-147.9l5.3-0.1z m478 0h113.8c79.9 0 145.1 63.4 147.9 142.7l0.1 5.3v113.8c0 18.9-15.3 34.1-34.1 34.1-17.7 0-32.3-13.5-34-30.9l-0.2-3.3V216c0-9-1.5-17.7-4.3-25.8L342.5 729.5c-13.4 13.3-35 13.3-48.3-0.1-12.5-12.5-13.2-32.3-2.3-45.7l2.3-2.6 541.3-539.9c-7.3-2.7-15.2-4.4-23.3-4.8l-4.4-0.1H694c-18.9 0-34.1-15.3-34.1-34.1 0-17.7 13.5-32.3 30.9-34l3.2-0.2z"  /></svg>