<?xml version="1.0" encoding="UTF-8"?>
<svg width="48px" height="48px" viewBox="0 0 48 48" version="1.1" xmlns="http://www.w3.org/2000/svg" xmlns:xlink="http://www.w3.org/1999/xlink">
    <title>SoundMuteOutline</title>
    <g id="SoundMuteOutline" stroke="none" stroke-width="1" fill="none" fill-rule="evenodd">
        <g id="编组">
            <rect id="矩形" fill="#FFFFFF" opacity="0" x="0" y="0" width="48" height="48"></rect>
            <path d="M4.93919346,7.05882353 L8.17450849,7.05882353 C8.28242443,7.05882353 8.38576192,7.10242791 8.46105696,7.17973578 L33.8343286,33.2312986 L33.8343286,33.2312986 L36.222217,35.6796599 L36.2209423,35.6828168 L38.5630629,38.0885795 L38.5644978,38.0842139 L40.0783176,39.6385668 L40.0651274,39.6322139 L41.7088635,41.3210069 C41.8629472,41.4793142 41.8595232,41.732557 41.701216,41.8866406 C41.6265361,41.9593281 41.5264368,42 41.4222229,42 L38.1767105,42 C38.0687616,42 37.9653955,41.9563691 37.8900958,41.8790198 L30.7801812,34.575574 C30.6260828,34.4172811 30.3728396,34.4138807 30.2145467,34.5679791 C30.1371803,34.6432954 30.093548,34.7466897 30.0935665,34.8546624 L30.094194,38.5112388 L30.094194,38.5112388 C30.094194,40.2607599 28.7127199,41.679027 27.0085852,41.679027 C26.3994089,41.679027 25.8038627,41.4939077 25.2969974,41.1469979 L15.6147978,34.5198329 C15.5482469,34.4742809 15.4694808,34.4499095 15.3888333,34.4499161 L10.552005,34.4503134 L10.552005,34.4503134 C8.2798254,34.4503134 6.43785991,32.5592906 6.43785991,30.2265958 L6.43785991,17.5554429 C6.43785991,15.3723764 8.05110209,13.576138 10.1204479,13.3546844 L4.65257539,7.73783981 C4.49847896,7.57954502 4.5018824,7.3263019 4.66017718,7.17220546 C4.73485919,7.0995042 4.83496834,7.05882353 4.93919346,7.05882353 Z M13.0127583,16.499068 L10.552005,16.4995135 L10.552005,16.4995135 C10.0245347,16.4995135 9.58980193,16.9071447 9.53038842,17.4322993 L9.52346871,17.5554429 L9.52346871,30.2265958 C9.52346871,30.7681142 9.92052504,31.2144253 10.4318583,31.2754212 L10.5517581,31.2825252 L16.3230216,31.2820511 C16.4036691,31.2820445 16.4824351,31.3064159 16.5489861,31.351968 L26.3825894,38.0827641 C26.5648892,38.2075427 26.8138256,38.1609125 26.9386042,37.9786126 C26.9841564,37.9120613 27.0085278,37.8332949 27.008521,37.7526471 L27.0079381,30.863571 C27.0079293,30.7593528 26.9672455,30.6592532 26.8945465,30.5845786 L13.2994391,16.6200417 C13.2241223,16.5426783 13.1207291,16.4990484 13.0127583,16.499068 Z M41.2131471,8.98941428 C41.3482405,9.28212023 41.4534485,9.51465494 41.5287713,9.68701842 C43.4872147,14.168587 44.5765495,19.1374508 44.5765495,24.3675185 C44.5765495,28.4020566 43.9283117,32.2811583 42.7329307,35.9010365 C42.6616943,36.1167561 42.5625995,36.4015994 42.4356464,36.7555664 C42.3610016,36.9634376 42.1320187,37.0715268 41.9241189,36.9969619 C41.866892,36.976437 41.815098,36.9431347 41.7726744,36.8995869 C41.6411004,36.764526 41.5363762,36.6570266 41.4585019,36.5770886 C41.0728512,36.1812178 40.761674,35.8617941 40.5249703,35.6188176 C40.3952128,35.4856215 40.2124978,35.2980644 39.9768253,35.0561463 C39.8740246,34.9505587 39.8375693,34.7970057 39.8819811,34.6564913 C40.03468,34.1733663 40.1481934,33.8008239 40.2225213,33.5388643 C41.0482153,30.6288059 41.4909407,27.5512412 41.4909407,24.3675185 C41.4909407,19.6204345 40.5066627,15.1093636 38.7361963,11.0376712 C38.662891,10.8690847 38.5599786,10.6410496 38.4274593,10.353566 C38.3370421,10.1573971 38.4186956,9.92487435 38.6119151,9.8283147 C38.8235558,9.72254918 38.9928292,9.63795634 39.1197353,9.57453616 C39.3612151,9.45385881 39.6710405,9.29902643 40.0492112,9.11003903 C40.1870067,9.04117702 40.3943398,8.93756416 40.6712107,8.79920045 C40.8688195,8.7005204 41.1090328,8.78064683 41.2077714,8.97822638 C41.2096211,8.98192765 41.2114132,8.9856574 41.2131471,8.98941428 Z M35.6629736,11.7637257 C35.7796781,12.0177132 35.8709713,12.2208091 35.9368532,12.3730134 C37.523598,16.0388038 38.4053319,20.0974487 38.4053319,24.3675185 C38.4053319,26.6712822 38.1486806,28.9135052 37.6631305,31.0656959 C37.6278358,31.2221389 37.5802654,31.4199369 37.5204191,31.6590899 C37.4668835,31.8734821 37.2496196,32.0037729 37.0352544,31.9501296 C36.9631705,31.9320911 36.8975339,31.8943357 36.8456995,31.841094 C36.7808622,31.7744964 36.7254379,31.7175674 36.6794265,31.6703068 C36.083922,31.0586342 35.6153416,30.5773318 35.2736853,30.2263995 C35.191657,30.1421442 35.0783856,30.0257975 34.9338712,29.8773595 C34.8432842,29.7841563 34.8035339,29.6527757 34.8273654,29.5250068 C34.9095855,29.0841967 34.9689698,28.7446473 35.0055183,28.5063586 C35.2123385,27.1579347 35.3197231,25.7756011 35.3197231,24.3675185 C35.3197231,20.5464685 34.5289514,16.915032 33.1062529,13.6362843 C33.0504954,13.5077857 32.9740333,13.3378027 32.8768668,13.1263352 C32.7867374,12.9302011 32.8684835,12.6979357 33.0615847,12.6014794 C33.2112095,12.5267401 33.3329844,12.4659121 33.4269094,12.4189955 C33.7267584,12.2692174 34.1246893,12.0704463 34.620702,11.8226822 C34.7367804,11.7646997 34.9034904,11.6814261 35.120832,11.5728614 C35.3184584,11.4742317 35.5586495,11.5543998 35.6573488,11.7519913 C35.6592873,11.755872 35.6611625,11.759784 35.6629736,11.7637257 Z M29.5759669,7.41095212 C29.9138771,7.93131683 30.094194,8.54272432 30.094194,9.16812486 L30.0934473,23.9253448 C30.0934362,24.1462587 29.914341,24.3253357 29.6934271,24.3253245 C29.5855172,24.3253191 29.4821872,24.2817143 29.4068969,24.2044103 L27.1213825,21.8577655 C27.0486346,21.7830718 27.0079274,21.6829246 27.0079329,21.5786587 L27.0085453,9.92655651 C27.008557,9.70564261 26.8294803,9.52654709 26.6085664,9.52653548 C26.5279423,9.52653124 26.4491987,9.55089085 26.3826606,9.59642023 L19.9366351,14.0071796 C19.7761504,14.1169929 19.5599411,14.095479 19.4242428,13.9561942 L17.7658033,12.2539205 C17.6116441,12.0956868 17.6149472,11.8424423 17.773181,11.6882832 C17.7896392,11.6722487 17.8074485,11.6576623 17.8264112,11.6446856 L25.2969974,6.53236575 L25.2969974,6.53236575 C26.7149232,5.56190604 28.6306831,5.95526256 29.5759669,7.41095212 Z" id="形状" fill="#333333" fill-rule="nonzero"></path>
        </g>
    </g>
</svg>