<?xml version="1.0" encoding="UTF-8"?>
<svg width="48px" height="48px" viewBox="0 0 48 48" version="1.1" xmlns="http://www.w3.org/2000/svg" xmlns:xlink="http://www.w3.org/1999/xlink">
    <title>SoundMuteFill</title>
    <g id="SoundMuteFill" stroke="none" stroke-width="1" fill="none" fill-rule="evenodd">
        <g id="编组">
            <rect id="矩形" fill="#FFFFFF" opacity="0" x="0" y="0" width="48" height="48"></rect>
            <path d="M7.94295386,8.45220137 L7.94295385,8.45220137 C8.05316263,8.45220137 8.15888927,8.49244975 8.23686194,8.56430951 L42.7165747,40.3761737 L42.7165747,40.3761737 C42.8783224,40.5262965 42.8775406,40.7689718 42.7148282,40.9182043 C42.6371686,40.9894307 42.5321688,41.0296581 42.4226663,41.0296581 L39.1927895,41.0296581 L39.1927896,41.0296581 C39.0825808,41.0296581 38.9768541,40.9894097 38.8988815,40.9175499 L29.6734856,32.4059639 L29.6745241,36.6104953 L29.6745241,36.6105323 C29.6745241,38.7273033 27.8146359,40.4432837 25.5203454,40.4432837 C24.7674035,40.4432837 24.0286231,40.2544805 23.3829856,39.8970625 L15.046568,35.2805116 L9.94213519,35.2814888 L9.94213501,35.2814888 C7.64784451,35.2814887 5.78795632,33.5655084 5.78795632,31.4487373 C5.78795632,31.4487373 5.78795632,31.4487373 5.78795632,31.4487373 L5.78795632,16.1177406 L5.78795633,16.1177604 C5.7873922,14.6107879 6.74402308,13.2433619 8.23267359,12.6232375 L4.42017299,9.10668817 L4.42017296,9.10668814 C4.25784691,8.95709759 4.25769259,8.71442145 4.41982826,8.56465303 C4.49783549,8.49259713 4.60371743,8.45220137 4.71410098,8.45220137 L7.94397779,8.45220137 L7.94295386,8.45220137 Z M40.9053522,10.2679697 L40.9074294,10.2718025 L40.9074287,10.2718013 C43.1462123,14.6295875 44.3045567,19.39284 44.2983022,24.2153714 L44.2983022,24.215161 C44.3034356,28.1949015 43.5163446,32.1416833 41.9761692,35.8590793 L39.5387056,33.610213 L39.5387055,33.6102133 C40.6309937,30.5805344 41.1861366,27.4080704 41.182724,24.2151926 L41.1827243,24.2149709 C41.1884146,19.8254657 40.1358465,15.4897687 38.1012588,11.5218813 L38.1012588,11.5218813 C38.0043333,11.3323451 38.0903813,11.1061263 38.2944282,11.0140401 L38.9902517,10.7007125 L39.7795444,10.347141 L40.3497056,10.0903467 L40.3497056,10.0903468 C40.5559762,9.99766944 40.8046219,10.0768164 40.9050725,10.2671266 C40.9051577,10.2672882 40.9052428,10.2674497 40.9053279,10.2676114 L40.9053522,10.2679697 Z M35.3013468,12.7851317 L35.3034239,12.7889644 L35.3034246,12.7889657 C37.1279503,16.3626785 38.0714085,20.2650348 38.0659796,24.2153604 C38.0659796,26.6692819 37.7097353,29.0465604 37.0409121,31.3049801 L34.4518192,28.9152602 L34.4518191,28.9152607 C34.7845592,27.3674873 34.9515281,25.7932723 34.9503208,24.2153474 L34.9503215,24.2147387 C34.9544844,20.6969812 34.1160274,17.2218211 32.4949186,14.0378814 L32.4949186,14.0378814 C32.3981382,13.8480896 32.4846848,13.6217765 32.6891263,13.5300401 C32.8386768,13.4629671 32.9591482,13.4083504 33.054694,13.367148 L34.3861072,12.7682818 L34.7454436,12.6073062 L34.7454436,12.6073062 C34.9517142,12.5146289 35.2003599,12.5937758 35.3008105,12.7840861 C35.3008957,12.7842476 35.3009809,12.7844092 35.3010659,12.7845709 L35.3013468,12.7851317 Z M29.0825389,8.8910532 L29.0825389,8.8910532 C29.4699058,9.48673038 29.6745096,10.1683391 29.6745096,10.8630046 L29.673471,24.5076199 L15.8431663,11.7493586 L23.3830035,7.57644739 L23.3830032,7.57644758 C25.3503321,6.48736485 27.902086,7.0759185 29.0825223,8.89102644 C29.0825341,8.89104452 29.0825458,8.89106259 29.0825576,8.89108067 L29.0825389,8.8910532 Z" id="形状" fill="#444444" fill-rule="nonzero"></path>
        </g>
    </g>
</svg>