<?xml version="1.0" encoding="UTF-8"?>
<svg width="48px" height="48px" viewBox="0 0 48 48" version="1.1" xmlns="http://www.w3.org/2000/svg" xmlns:xlink="http://www.w3.org/1999/xlink">
    <title>StarFill</title>
    <g id="StarFill" stroke="none" stroke-width="1" fill="none" fill-rule="evenodd">
        <g id="编组">
            <rect id="矩形" fill="#FFFFFF" opacity="0" x="0" y="0" width="48" height="48"></rect>
            <path d="M25.845596,4.44900551 C26.6681364,4.87129848 27.3339158,5.56388467 27.7398638,6.41954369 L31.6608321,14.6841788 L40.4283838,16.0094747 C42.70793,16.354049 44.2873463,18.5557239 43.9561089,20.9270533 C43.8242084,21.8713291 43.3967517,22.7440386 42.7399141,23.4100762 L36.3956541,29.8431975 L37.8933307,38.9269105 C38.2827237,41.2886581 36.7579187,43.531608 34.4875834,43.9366794 C33.5835239,44.097981 32.6535618,43.9447589 31.8416658,43.5007338 L23.9997292,39.2119863 L16.1577926,43.5007338 C14.1189044,44.6157998 11.5971068,43.8003441 10.5251999,41.6793627 C10.0983609,40.8347767 9.95106936,39.8673708 10.1061277,38.9269105 L11.6038043,29.8431975 L5.25954433,23.4100762 C3.61004918,21.7374773 3.57629754,18.9905481 5.18415792,17.274638 C5.82441637,16.5913537 6.66334736,16.146686 7.57107463,16.0094747 L16.3386263,14.6841788 L20.2595946,6.41954369 C21.2790387,4.27075478 23.7799767,3.38851478 25.845596,4.44900551 Z" id="路径" fill="#333333" fill-rule="nonzero"></path>
        </g>
    </g>
</svg>