<?xml version="1.0" standalone="no"?><!DOCTYPE svg PUBLIC "-//W3C//DTD SVG 1.1//EN" "http://www.w3.org/Graphics/SVG/1.1/DTD/svg11.dtd"><svg class="icon" width="200px" height="200.00px" viewBox="0 0 1024 1024" version="1.1" xmlns="http://www.w3.org/2000/svg"><path fill="#333333" d="M915.2 390.1c-10.7-10.9-24.7-18.1-39.8-20.3l-214.1-31.2-95.6-194.3c-17-34.6-58.9-48.8-93.5-31.8-13.8 6.8-25 18-31.8 31.8l-95.6 194.3-214.2 31.2c-38.2 5.6-64.6 41-59 79.2 2.2 15.1 9.3 29.1 20.3 39.8L247 640.5l-36.6 213.9c-6.5 38 19 74.1 57.1 80.6 15.2 2.6 30.7 0.1 44.3-7.1L503 827.1l191.2 100.8c34.1 18 76.3 4.9 94.3-29.2 7.2-13.6 9.7-29.2 7.1-44.3L759 640.5l155.1-151.7c27.6-26.9 28.1-71.1 1.1-98.7z"  /></svg>