<?xml version="1.0" encoding="UTF-8"?>
<svg width="48px" height="48px" viewBox="0 0 48 48" version="1.1" xmlns="http://www.w3.org/2000/svg" xmlns:xlink="http://www.w3.org/1999/xlink">
    <title>TeamOutline</title>
    <g id="TeamOutline" stroke="none" stroke-width="1" fill="none" fill-rule="evenodd">
        <g id="编组">
            <rect id="矩形" fill="#FFFFFF" opacity="0" x="0" y="0" width="48" height="48"></rect>
            <path d="M21.5113958,7.00092483 C26.2072858,7.00092463 30.0140237,10.7336628 30.0140237,15.3382112 L30.0140237,19.2472686 C30.0140238,21.5677177 29.0587416,23.7909682 27.3645328,25.4124913 L25.6102126,27.0922634 C25.5802784,27.1210825 25.5633969,27.160479 25.5633556,27.2016143 L25.5624184,27.3835591 L36.7706473,33.0026998 C38.2937333,33.7021493 39.2961418,35.1715693 39.3740135,36.8189454 L39.3786991,37.0247822 L39.3786991,37.3491587 C39.3786991,39.3654642 37.7117435,41 35.6554557,41 L6.7232463,41 C4.76135606,41 3.13588628,39.5076905 3.00749707,37.5880733 L3.00281141,37.4796417 L3,37.2974781 L3.00093712,37.0245608 C3.00093712,35.3980842 3.90714702,33.9020918 5.36252207,33.1246912 L5.4496758,33.0805833 L5.64647454,32.9840974 L16.8153437,27.3842539 L16.8162808,27.2013903 C16.8165104,27.1775149 16.8110554,27.1539165 16.8003494,27.1324717 L16.7881667,27.1159312 L16.7572412,27.0819314 L15.0141665,25.4122645 C13.4694373,23.9299614 12.5345159,21.9424337 12.3873737,19.8280141 L12.3705052,19.5210972 L12.3648824,19.2196938 L12.3648824,15.3372864 C12.3648824,10.8364345 16.0103464,7.14701178 20.6397864,7.00275674 L20.890002,7 L21.5113958,7.00092483 Z M20.8891384,9.75764844 L20.682031,9.76042158 C17.6122646,9.85811572 15.1753119,12.3265675 15.1753997,15.3382112 L15.1753997,19.2206186 L15.1800854,19.4724007 C15.2390004,20.9718962 15.8823447,22.3920954 16.9775078,23.440264 L18.7814978,25.1696574 L18.9351884,25.3350618 C19.381267,25.857925 19.6267954,26.5186208 19.6267954,27.2022923 L19.6258583,27.4752096 L19.6146126,27.6700193 C19.5203773,28.6264904 18.9182834,29.4631653 18.0308529,29.8708182 L6.83852607,35.4816887 L6.70732676,35.5460125 C6.15629027,35.8400649 5.81142244,36.4079546 5.81142244,37.0254644 L5.81142244,37.3057331 L5.81329668,37.4104892 C5.84580889,37.8793977 6.24300762,38.243576 6.72231799,38.2439421 L35.6547031,38.2439421 C36.158297,38.2439421 36.5665358,37.8436389 36.5665358,37.3498409 L36.5665358,37.0254643 C36.5665358,36.3721169 36.1813725,35.7766611 35.5769192,35.5000696 L24.3471216,29.8708065 C23.3731125,29.4233229 22.751022,28.4637405 22.7511758,27.4090376 L22.7511758,27.2022821 C22.7511758,26.4184504 23.073551,25.6676954 23.6452044,25.1200259 L25.4004603,23.4402537 C26.5526293,22.3376609 27.2023815,20.8258819 27.2025747,19.247252 L27.2025747,15.3381946 C27.2025747,12.2561379 24.654523,9.75764844 21.5113571,9.75764844 L20.8891384,9.75764844 Z M37.8194227,16.2332615 L37.8231713,16.4574762 L37.8231713,19.4062706 C37.8231714,21.2065508 37.104689,22.9341998 35.8215963,24.2203396 L35.6247976,24.4096359 L34.4383823,25.5095752 L42.5615712,29.5794409 C43.9137982,30.1812416 44.8358399,31.4447589 44.9803201,32.8939599 L44.9953143,33.0906072 L45,33.2900113 C45,34.885249 43.7723316,36.2225221 42.1551028,36.3895762 C41.9114471,35.1370988 41.6340562,34.223696 41.3238609,33.6484591 L41.8214806,33.6493781 C42.0233307,33.6498856 42.1873822,33.4898468 42.1879001,33.2919219 C42.1879013,32.8159251 41.9283145,32.3812777 41.5150385,32.148794 L41.3988337,32.0899837 L38.6342813,30.8586384 C38.4163626,30.7299727 38.1917695,30.6124998 37.9614184,30.5066944 L32.2429081,27.4099579 C31.7660666,26.9591707 31.4969311,26.3374569 31.4974846,25.6879732 C31.4974846,24.9592764 31.7786257,24.2608994 32.2781211,23.7279311 L32.4205661,23.5873374 L33.6950707,22.4065352 C34.4775171,21.680875 34.9464077,20.6886425 35.0051881,19.6341722 L35.0117481,19.4062815 L35.0117481,16.4565697 C35.0117482,14.8613475 34.0325734,13.4236904 32.5304938,12.812814 C32.3711803,12.1401694 31.9588417,11.1229324 31.2953488,9.76294206 C34.8591566,9.92043674 37.7002013,12.737866 37.8194227,16.2332615 Z" id="形状" fill="#333333" fill-rule="nonzero"></path>
        </g>
    </g>
</svg>