<?xml version="1.0" standalone="no"?><!DOCTYPE svg PUBLIC "-//W3C//DTD SVG 1.1//EN" "http://www.w3.org/Graphics/SVG/1.1/DTD/svg11.dtd"><svg class="icon" width="200px" height="200.00px" viewBox="0 0 1024 1024" version="1.1" xmlns="http://www.w3.org/2000/svg"><path fill="#333333" d="M900.482 757.635V216.389c0-81.714-66.243-147.957-147.957-147.957h-481.61c-81.715 0-147.958 66.243-147.958 147.957v614.592c0 81.715 66.243 147.958 147.958 147.958h516.619c18.857 0 34.144-15.287 34.144-34.144 0-18.858-15.287-34.144-34.144-34.144h-516.62c-44 0-79.669-35.67-79.669-79.67V216.39c0-44 35.67-79.669 79.67-79.669h481.61c44 0 79.67 35.67 79.67 79.67v541.245c0 18.857 15.286 34.144 34.143 34.144s34.144-15.287 34.144-34.144z"  /><path fill="#333333" d="M316.44 398.49h409.728c18.857 0 34.144-15.286 34.144-34.143 0-18.858-15.287-34.144-34.144-34.144H316.44c-18.857 0-34.144 15.286-34.144 34.144 0 18.857 15.287 34.144 34.144 34.144zM316.44 580.592h318.677c18.858 0 34.144-15.287 34.144-34.144s-15.286-34.144-34.144-34.144H316.44c-18.857 0-34.144 15.287-34.144 34.144s15.287 34.144 34.144 34.144zM316.44 739.93h409.728c18.857 0 34.144-15.286 34.144-34.143 0-18.858-15.287-34.144-34.144-34.144H316.44c-18.857 0-34.144 15.286-34.144 34.144 0 18.857 15.287 34.144 34.144 34.144z"  /></svg>