<?xml version="1.0" encoding="UTF-8"?>
<svg width="48px" height="48px" viewBox="0 0 48 48" version="1.1" xmlns="http://www.w3.org/2000/svg" xmlns:xlink="http://www.w3.org/1999/xlink">
    <title>TextDeletionOutline</title>
    <g id="TextDeletionOutline" stroke="none" stroke-width="1" fill="none" fill-rule="evenodd">
        <g id="编组">
            <rect id="矩形" fill="#FFFFFF" opacity="0" x="0" y="0" width="48" height="48"></rect>
            <path d="M38.5492302,6 C41.5596051,6 44,8.46240906 44,11.499981 L44,35.5 C44,38.5375742 41.5596051,41.000013 38.54923,41.000013 L17.3058462,41.000013 C14.6665152,41.000013 12.2347138,39.555982 10.9529738,37.2279238 L4.91451284,27.0612608 C3.6951623,24.8464932 3.6951623,22.1535354 4.91451335,19.9387516 L10.9529743,9.77208856 C12.234697,7.44403098 14.6665154,6 17.3058464,6 L38.5492302,6 Z M38.5492273,8.74994707 L17.3058465,8.74994707 C15.7329163,8.74994707 14.2719651,9.57120176 13.4439762,10.9206455 L13.3349608,11.1076457 L7.29739408,21.2743087 C6.57566975,22.5850072 6.53495505,24.1690434 7.18837846,25.5157286 L7.29739386,25.7265623 L13.3349605,35.8932253 C14.0992225,37.2803788 15.5202936,38.1698544 17.0914483,38.2444783 L17.3058454,38.2499783 L38.5492292,38.2499783 C39.9923716,38.2499783 41.1854088,37.114979 41.2700704,35.6613101 L41.2746127,35.4999769 L41.2746127,11.4999513 C41.2746127,10.0436198 40.1496291,8.83987037 38.7089651,8.75452144 L38.5492273,8.74994707 Z M22.3492842,17 C22.4547968,17 22.556036,17.0416892 22.6309531,17.1159883 L26.757,21.208 L30.8830469,17.1159883 C30.957964,17.0416892 31.0592032,17 31.1647158,17 L34.2719196,17 C34.4928335,17 34.6719196,17.1790861 34.6719196,17.4 C34.6719196,17.5067321 34.6292639,17.6090378 34.5534423,17.6841566 L28.879,23.306 L34.8245071,29.1968543 C34.9814364,29.3523411 34.9826059,29.6056044 34.8271191,29.7625337 C34.7520011,29.8383486 34.6497001,29.881 34.5429734,29.881 L31.4366959,29.881 C31.331195,29.881 31.2299662,29.8393201 31.1550512,29.7650357 L26.758,25.405 L22.3599432,29.7650669 C22.2850309,29.8393322 22.1838155,29.881 22.07833,29.881 L18.9720266,29.881 C18.7511127,29.881 18.5720266,29.7019139 18.5720266,29.481 C18.5720266,29.3742733 18.614678,29.2719723 18.6904929,29.1968543 L24.636,23.306 L18.9624269,17.6841345 C18.8055037,17.5286415 18.8043444,17.2753782 18.9598374,17.118455 C19.0349545,17.042647 19.1372506,17 19.2439719,17 L22.3492842,17 Z" id="形状结合" fill="#333333" fill-rule="nonzero"></path>
        </g>
    </g>
</svg>