<?xml version="1.0" standalone="no"?><!DOCTYPE svg PUBLIC "-//W3C//DTD SVG 1.1//EN" "http://www.w3.org/Graphics/SVG/1.1/DTD/svg11.dtd"><svg class="icon" width="200px" height="200.00px" viewBox="0 0 1024 1024" version="1.1" xmlns="http://www.w3.org/2000/svg"><path fill="#333333" d="M512 82C275.5 82 82 275.5 82 512s193.5 430 430 430 430-193.5 430-430S748.5 82 512 82z m231.9 510.8H517.1c-30.9 0-56-25.1-56-56V265.9c0-19.4 15.8-35.2 35.2-35.2 19.4 0 35.2 15.8 35.2 35.2v236.9c0 12.2 9.8 22 22 22h190.4c18.8 0 34 15.2 34 34s-15.2 34-34 34z"  /></svg>