<?xml version="1.0" standalone="no"?><!DOCTYPE svg PUBLIC "-//W3C//DTD SVG 1.1//EN" "http://www.w3.org/Graphics/SVG/1.1/DTD/svg11.dtd"><svg class="icon" width="200px" height="200.00px" viewBox="0 0 1024 1024" version="1.1" xmlns="http://www.w3.org/2000/svg"><path fill="#333333" d="M512.2 54.7c-253.9 0-459.3 204.5-459.3 456.5s205.5 456.5 459.3 456.5c70.5 0 138.7-15.8 200.7-45.8 10.9-5.3 21.6-11 32-17.1 17.1-10 22.6-31.5 12.4-48.2s-32.4-22-49.4-12c-8.8 5.1-17.8 9.9-26.9 14.4-52.1 25.2-109.5 38.5-168.7 38.5-213.7 0-387.3-172.8-387.3-386.2S298.5 125 512.2 125s387.3 172.8 387.3 386.2c0 55.3-11.6 108.9-33.9 158.2-3.7 8.3-7.8 16.5-12.1 24.5-9.3 17.2-2.5 38.4 15.1 47.4s39.4 2.4 48.6-14.7c5.1-9.5 9.9-19.1 14.3-28.9 26.2-58.2 39.9-121.4 39.9-186.4 0.2-252-205.3-456.6-459.2-456.6z"  /><path fill="#333333" d="M501.5 230.3c-19.5 0-35.3 15.8-35.3 35.3v244.5l-0.5 0.5 0.5 0.5v0.1h0.1l173.1 173.1c13.8 13.8 36.1 13.8 49.9 0s13.8-36.1 0-49.9L536.7 481.9V265.6c0-19.5-15.8-35.3-35.2-35.3z"  /></svg>