<?xml version="1.0" standalone="no"?><!DOCTYPE svg PUBLIC "-//W3C//DTD SVG 1.1//EN" "http://www.w3.org/Graphics/SVG/1.1/DTD/svg11.dtd"><svg class="icon" width="200px" height="200.00px" viewBox="0 0 1024 1024" version="1.1" xmlns="http://www.w3.org/2000/svg"><path fill="#333333" d="M512 82C274.8 82 82 274.8 82 512s192.8 430 430 430 430-192.8 430-430S749.2 82 512 82z m179.2 606.7c-12 12-31.4 12-43.4 0L489.2 530.1c-5.1-5.1-7.9-11.9-7.9-19.1V286.8c0-17 13.8-30.7 30.7-30.7s30.7 13.8 30.7 30.7v198.9c0 7.1 2.8 14 7.9 19.1l140.6 140.6c12 11.9 12 31.3 0 43.3z"  /></svg>