<?xml version="1.0" standalone="no"?><!DOCTYPE svg PUBLIC "-//W3C//DTD SVG 1.1//EN" "http://www.w3.org/Graphics/SVG/1.1/DTD/svg11.dtd"><svg class="icon" width="200px" height="200.00px" viewBox="0 0 1024 1024" version="1.1" xmlns="http://www.w3.org/2000/svg"><path fill="#333333" d="M939.8 211.7h-865c-18.9 0-34.1 15.3-34.1 34.1 0 18.9 15.3 34.1 34.1 34.1h102.4v557.7c0 81.7 66.2 148 148 148h412.3c18.9 0 34.1-15.3 34.1-34.1 0-18.9-15.3-34.1-34.1-34.1H325.2c-44 0-79.7-35.7-79.7-79.7V280H769v514.7c0 18.9 15.3 34.1 34.1 34.1 18.9 0 34.1-15.3 34.1-34.1V280h102.4c18.9 0 34.1-15.3 34.1-34.1 0.2-18.9-15-34.2-33.9-34.2z"  /><path fill="#333333" d="M359.3 405.2V758c0 18.9 15.3 34.1 34.1 34.1s34.1-15.3 34.1-34.1V405.2c0-18.9-15.3-34.1-34.1-34.1s-34.1 15.2-34.1 34.1zM587 405.2V758c0 18.9 15.3 34.1 34.1 34.1 18.9 0 34.1-15.3 34.1-34.1V405.2c0-18.9-15.3-34.1-34.1-34.1-18.8-0.1-34.1 15.2-34.1 34.1zM348 120.6h330c18.9 0 34.1-15.3 34.1-34.1 0-18.9-15.3-34.1-34.1-34.1H348c-18.9 0-34.1 15.3-34.1 34.1-0.1 18.9 15.2 34.1 34.1 34.1z"  /></svg>