<?xml version="1.0" encoding="UTF-8"?>
<svg width="48px" height="48px" viewBox="0 0 48 48" version="1.1" xmlns="http://www.w3.org/2000/svg" xmlns:xlink="http://www.w3.org/1999/xlink">
    <title>TravelOutline</title>
    <g id="TravelOutline" stroke="none" stroke-width="1" fill="none" fill-rule="evenodd">
        <g id="编组">
            <rect id="矩形" fill="#FFFFFF" opacity="0" x="0" y="0" width="48" height="48"></rect>
            <path d="M44,31 L44,38 C44,41.3137085 41.3137085,44 38,44 L31,44 L31,41 L38,41 C39.5976809,41 40.9036609,39.75108 40.9949073,38.1762728 L41,38 L41,31 L44,31 Z M7,31 L7,38 C7,39.5976809 8.24891996,40.9036609 9.82372721,40.9949073 L10,41 L17,41 L17,44 L10,44 C6.6862915,44 4,41.3137085 4,38 L4,31 L7,31 Z M35.0117916,13.4953015 C35.1166207,13.7467969 35.1142891,14.0301778 35.0053359,14.2799142 L25.6937022,35.6235281 C25.5554891,35.9405947 25.1859051,36.0858047 24.8682132,35.9478636 C24.7040314,35.8765762 24.5781952,35.7386683 24.5223976,35.568873 L22.8381152,30.2710706 C22.4583134,29.0764282 22.6605228,27.7728272 23.3843858,26.749381 L27.7570153,20.567063 L20.9489383,24.5446033 C19.9288237,25.1405934 18.6974178,25.2551281 17.5848853,24.8574981 L12.4105493,23.0081401 C12.0854696,22.888567 11.9190648,22.5286234 12.0388737,22.2041835 C12.0990839,22.0411356 12.2244836,21.9103966 12.3850699,21.843247 L33.7040276,12.9570142 C34.2138006,12.7445291 34.7993065,12.9855285 35.0117916,13.4953015 Z M38,4 C41.3137085,4 44,6.6862915 44,10 L44,17 L41,17 L41,10 C41,8.40231912 39.75108,7.09633912 38.1762728,7.00509269 L38,7 L31,7 L31,4 L38,4 Z M17,4 L17,7 L10,7 C8.40231912,7 7.09633912,8.24891996 7.00509269,9.82372721 L7,10 L7,17 L4,17 L4,10 C4,6.6862915 6.6862915,4 10,4 L17,4 Z" id="形状结合" fill="#333333" fill-rule="nonzero"></path>
        </g>
    </g>
</svg>