<?xml version="1.0" encoding="UTF-8"?>
<svg width="48px" height="48px" viewBox="0 0 48 48" version="1.1" xmlns="http://www.w3.org/2000/svg" xmlns:xlink="http://www.w3.org/1999/xlink">
    <title>UpCircleOutline</title>
    <g id="UpCircleOutline" stroke="none" stroke-width="1" fill="none" fill-rule="evenodd">
        <g id="编组">
            <rect id="矩形" fill="#FFFFFF" opacity="0" x="0" y="0" width="48" height="48"></rect>
            <path d="M24,2 C36.1502645,2 46,11.8497355 46,24 C46,36.1502645 36.1502645,46 24,46 C11.8497355,46 2,36.1502645 2,24 C2,11.8497355 11.8497355,2 24,2 Z M24,5 C13.5065898,5 5,13.5065898 5,24 C5,34.4934102 13.5065898,43 24,43 C34.4934102,43 43,34.4934102 43,24 C43,13.5065898 34.4934102,5 24,5 Z M24.6342571,17.9537046 C24.9541516,17.9465077 25.2763361,18.0411018 25.5483174,18.2386679 L25.6798814,18.3460374 L32.8698331,24.9163737 C32.952761,24.992155 33,25.0993153 33,25.2116534 L33,28.1878801 C33,28.408794 32.8209139,28.5878801 32.6,28.5878801 C32.5001308,28.5878801 32.403874,28.5505211 32.3301537,28.4831477 L24.614,21.431323 L24.614,21.431323 L16.6698394,28.6911828 C16.5067641,28.840211 16.2537542,28.8288236 16.1047261,28.6657483 C16.0373566,28.5920287 16,28.4957749 16,28.3959089 L16,25.4196582 C16,25.3073173 16.0472414,25.2001546 16.1301729,25.124373 L23.5480406,18.3460374 L23.5480406,18.3460374 C23.8119743,18.1048436 24.1396674,17.9752317 24.4720765,17.9558732 L24.6342571,17.9537046 Z" id="形状" fill="#333333" fill-rule="nonzero"></path>
        </g>
    </g>
</svg>