<?xml version="1.0" encoding="UTF-8"?>
<svg width="48px" height="48px" viewBox="0 0 48 48" version="1.1" xmlns="http://www.w3.org/2000/svg" xmlns:xlink="http://www.w3.org/1999/xlink">
    <title>UserAddOutline</title>
    <g id="UserAddOutline" stroke="none" stroke-width="1" fill="none" fill-rule="evenodd">
        <g id="编组">
            <rect id="矩形" fill="#FFFFFF" opacity="0" x="0" y="0" width="48" height="48"></rect>
            <path d="M24.5410208,4 C30.0638683,4 34.5410208,8.4771525 34.5410208,14 L34.5410208,18 C34.5410208,21.7010047 32.5304699,24.9324201 29.5420069,26.6616075 L29.5410208,27 L30.7882123,27.6650643 C30.9185705,27.7345777 31,27.8702836 31,28.0180177 L31,30.5113494 C31,30.7322633 30.8209139,30.9113494 30.6,30.9113494 C30.5343466,30.9113494 30.4697024,30.8951891 30.4117722,30.8642946 L26.7482432,28.9105128 C26.6175244,28.8407997 26.5360409,28.7045476 26.5364726,28.556402 L26.5463744,25.1584556 C26.5467893,25.0161024 26.6228287,24.8846961 26.7460429,24.8134017 L28.0395329,24.0649613 L28.0395329,24.0649613 C30.1139854,22.8646395 31.4435559,20.691612 31.5358792,18.2700486 L31.5410208,18 L31.5410208,14 C31.5410208,10.1340068 28.4070141,7 24.5410208,7 C20.7555691,7 17.6719221,10.0047834 17.5450798,13.7593502 L17.5410208,14 L17.5410208,18 C17.5410208,20.439257 18.7967922,22.6567406 20.815762,23.9280407 L21.0432077,24.0653657 L22.3413807,24.8163156 C22.4649825,24.8878151 22.5410963,25.0197814 22.5410908,25.1625735 L22.5409614,28.5600469 C22.5409557,28.7077663 22.4595372,28.8434579 22.3291967,28.9129729 L9.94780837,35.51638 L9.94780837,35.51638 C8.61905055,36.2250508 7.85637036,37.6719905 8.02267201,39.1687054 C8.13271988,40.1591363 8.93352957,40.9204919 9.9127,40.9941513 L10.0687134,41 L30.6,41 C30.8209139,41 31,41.1790861 31,41.4 L31,43.6 C31,43.8209139 30.8209139,44 30.6,44 L10.0687134,44 L10.0687134,44 C7.49109114,44 5.32567157,42.0618568 5.04102081,39.5 C4.73910553,36.7827625 6.12372678,34.1558902 8.53604366,32.8693211 L19.5410208,27 L19.5410337,26.6621855 C16.5520197,24.9331402 14.5410208,21.7014171 14.5410208,18 L14.5410208,14 C14.5410208,8.4771525 19.0181733,4 24.5410208,4 Z M39,31.4 L39,36 L39,36 L43.6,36 C43.8209139,36 44,36.1790861 44,36.4 L44,38.6 C44,38.8209139 43.8209139,39 43.6,39 L39,39 L39,39 L39,43.6 C39,43.8209139 38.8209139,44 38.6,44 L36.4,44 C36.1790861,44 36,43.8209139 36,43.6 L36,39 L36,39 L31.4,39 C31.1790861,39 31,38.8209139 31,38.6 L31,36.4 C31,36.1790861 31.1790861,36 31.4,36 L36,36 L36,36 L36,31.4 C36,31.1790861 36.1790861,31 36.4,31 L38.6,31 C38.8209139,31 39,31.1790861 39,31.4 Z" id="形状" fill="#333333" fill-rule="nonzero"></path>
        </g>
    </g>
</svg>