<?xml version="1.0" standalone="no"?><!DOCTYPE svg PUBLIC "-//W3C//DTD SVG 1.1//EN" "http://www.w3.org/Graphics/SVG/1.1/DTD/svg11.dtd"><svg class="icon" width="200px" height="200.00px" viewBox="0 0 1024 1024" version="1.1" xmlns="http://www.w3.org/2000/svg"><path fill="#333333" d="M980.1 509.6c2-116-49.6-229.1-148.8-325-13.7-13.3-35.6-12.9-48.9 0.8-13.3 13.7-12.9 35.6 0.8 48.9 86 83.1 129.4 178.2 127.7 274.1-1.6 92.4-45 183.8-127.7 263.8l-0.9 0.9-62.7-69.4c133.9-116 132.1-303.1-5.6-417.1-14.7-12.2-36.5-10.1-48.7 4.6-12.1 14.6-10.2 36 4.1 48.3l0.4 0.4c105.1 87 106.2 224.5 3.3 312.6l-96.5-106.8V201.3c-0.4-25.1-20.9-45.3-46.1-45.3-8.6 0-17.1 2.4-24.4 7l-176 109.7-93.3-103.3c-12.8-14.2-34.6-15.3-48.8-2.5s-15.3 34.6-2.5 48.8L831 930c12.8 14.2 34.6 15.3 48.8 2.5 14.2-12.8 15.3-34.6 2.5-48.8l-53.7-59.4c0.9-0.7 1.8-1.5 2.7-2.4 95.3-92.2 146.9-200.7 148.8-312.3zM119.6 310.3h-1.2C78.8 311 47 343.2 47 382.9v285.8c0 40.1 32.5 72.6 72.6 72.6h150.5l236.1 149.4c7.4 4.7 15.9 7.1 24.6 7.1 25.4 0 46.1-20.6 46.1-46.1V693L231.3 310.3H119.6z"  /></svg>