<?xml version="1.0" standalone="no"?><!DOCTYPE svg PUBLIC "-//W3C//DTD SVG 1.1//EN" "http://www.w3.org/Graphics/SVG/1.1/DTD/svg11.dtd"><svg class="icon" width="200px" height="200.00px" viewBox="0 0 1024 1024" version="1.1" xmlns="http://www.w3.org/2000/svg"><path fill="#333333" d="M807.363 838.081c94.662-91.956 145.123-205.493 143.428-325.933-1.823-129.49-41.362-222.407-143.024-324.586-13.01-13.078-34.106-13.078-47.117 0-13.011 13.077-13.011 34.28 0 47.357 89.47 89.926 121.938 166.225 123.513 278.176 1.426 101.29-41.25 197.31-123.108 276.829-13.231 12.853-13.59 34.052-0.803 47.35 12.788 13.299 33.88 13.66 47.11 0.807z"  /><path fill="#333333" d="M705.512 717.005c134.544-112.027 134.544-296.74 0-408.767-14.17-11.798-35.173-9.818-46.911 4.424-11.739 14.242-9.768 35.352 4.402 47.15 102.377 85.245 102.377 220.374 0 305.618-14.17 11.799-16.14 32.909-4.402 47.15 11.738 14.243 32.741 16.224 46.911 4.425zM495.46 234.164V791.08L300.407 684.144a33.184 33.184 0 0 0-15.954-4.089h-88.845c-18.4 0-33.317 14.993-33.317 33.487 0 18.495 14.916 33.487 33.317 33.487h80.35l236.867 129.858c22.201 12.172 49.27-3.98 49.27-29.398V177.754c0-25.419-27.069-41.57-49.27-29.398L275.957 278.214H173.432c-55.297 0-99.988 44.949-99.988 100.468v156.264c0 18.494 14.917 33.487 33.317 33.487s33.317-14.993 33.317-33.487V378.682c0-18.541 14.868-33.494 33.354-33.494h111.02c5.575 0 11.06-1.406 15.954-4.09l195.055-106.934z"  /></svg>