<?xml version="1.0" standalone="no"?><!DOCTYPE svg PUBLIC "-//W3C//DTD SVG 1.1//EN" "http://www.w3.org/Graphics/SVG/1.1/DTD/svg11.dtd"><svg class="icon" width="200px" height="200.00px" viewBox="0 0 1024 1024" version="1.1" xmlns="http://www.w3.org/2000/svg"><path fill="#333333" d="M805.112 795.471c89.464-86.467 137.83-188.335 139.652-293.098 1.894-108.883-46.575-215.081-139.652-305.04-12.882-12.45-33.42-12.101-45.87 0.782-12.452 12.882-12.102 33.42 0.781 45.87 80.694 77.992 121.436 167.258 119.87 257.26-1.508 86.729-42.263 172.566-119.87 247.574-12.883 12.45-13.233 32.988-0.781 45.87 12.45 12.883 32.988 13.233 45.87 0.782z"  /><path fill="#333333" d="M695.129 688.992c131.003-108.527 131.003-287.467 0-395.993-13.797-11.43-34.248-9.511-45.677 4.286-11.43 13.797-9.511 34.247 4.286 45.677 99.683 82.58 99.683 213.486 0 296.067-13.797 11.43-15.716 31.88-4.286 45.677s31.88 15.716 45.677 4.286zM490.605 221.24V760.75L300.684 657.158a32.44 32.44 0 0 0-15.535-3.961h-86.507c-17.916 0-32.44 14.524-32.44 32.44 0 17.917 14.524 32.44 32.44 32.44h78.235l230.634 125.8c21.617 11.792 47.974-3.854 47.974-28.478V166.592c0-24.624-26.357-40.27-47.974-28.48L276.877 263.914h-99.826c-53.843 0-97.357 43.544-97.357 97.328v151.381c0 17.917 14.524 32.44 32.44 32.44 17.917 0 32.44-14.523 32.44-32.44v-151.38c0-17.962 14.477-32.448 32.477-32.448H285.15a32.44 32.44 0 0 0 15.535-3.961l189.92-103.594z"  /><path fill="#333333" d="M196.195 209.963l605.552 670.434c12.01 13.295 32.523 14.338 45.819 2.33 13.295-12.01 14.339-32.523 2.33-45.819L244.342 166.475c-12.01-13.296-32.523-14.34-45.819-2.33-13.295 12.009-14.338 32.523-2.33 45.818z"  /></svg>