<?xml version="1.0" standalone="no"?><!DOCTYPE svg PUBLIC "-//W3C//DTD SVG 1.1//EN" "http://www.w3.org/Graphics/SVG/1.1/DTD/svg11.dtd"><svg class="icon" width="200px" height="200.00px" viewBox="0 0 1024 1024" version="1.1" xmlns="http://www.w3.org/2000/svg"><path fill="#333333" d="M604.977 304H402.543c-26.79 0-48.506 21.717-48.506 48.505a48.505 48.505 0 0 0 11.239 31.048l82.732 99.306c14.987 17.989 14.984 44.117-0.007 62.103l-82.688 99.207c-17.152 20.578-14.374 51.164 6.204 68.316a48.505 48.505 0 0 0 31.056 11.245h202.374c26.788 0 48.505-21.717 48.505-48.505a48.505 48.505 0 0 0-11.254-31.066l-82.717-99.187c-15.002-17.99-15.005-44.13-0.007-62.123l82.761-99.286c17.153-20.578 14.377-51.164-6.2-68.316A48.505 48.505 0 0 0 604.976 304zM514 89c236.5 0 430 193.5 430 430S750.5 949 514 949 84 755.5 84 519 277.5 89 514 89z"  /></svg>