<?xml version="1.0" standalone="no"?><!DOCTYPE svg PUBLIC "-//W3C//DTD SVG 1.1//EN" "http://www.w3.org/Graphics/SVG/1.1/DTD/svg11.dtd"><svg class="icon" width="200px" height="200.00px" viewBox="0 0 1024 1024" version="1.1" xmlns="http://www.w3.org/2000/svg"><path fill="#333333" d="M807.9 68.1H216.1c-81.7 0-148 66.2-148 148v591.8c0 81.7 66.2 148 148 148h614.6c18.9 0 34.1-15.3 34.1-34.1 0-18.9-15.3-34.1-34.1-34.1H216.1c-44 0-79.7-35.7-79.7-79.7V600h244c34.9 44.7 79.3 68.3 131.3 68.3 52 0 96.4-23.6 131.3-68.3h244.6v139.7c0 18.9 15.3 34.1 34.1 34.1 18.9 0 34.1-15.3 34.1-34.1V216.1c0.1-81.7-66.2-148-147.9-148z m-591.8 68.3h591.8c44 0 79.7 35.7 79.7 79.7v89.3H136.4v-89.3c0-44 35.7-79.7 79.7-79.7z m391.2 395.2l-10.1 15.2c-24.3 36.5-52 53.1-85.4 53.1-33.4 0-61.1-16.6-85.4-53.1l-10.1-15.2H136.4V373.4h751.2v158.2H607.3z"  /></svg>