<?xml version="1.0" standalone="no"?><!DOCTYPE svg PUBLIC "-//W3C//DTD SVG 1.1//EN" "http://www.w3.org/Graphics/SVG/1.1/DTD/svg11.dtd"><svg class="icon" width="200px" height="200.00px" viewBox="0 0 1024 1024" version="1.1" xmlns="http://www.w3.org/2000/svg"><path fill="#333333" d="M512 54.7c-252.1 0-456.5 204.4-456.5 456.5S259.9 967.6 512 967.6c69.9 0 137.6-15.8 199.2-45.7 10.8-5.3 21.4-10.9 31.8-17 16.7-9.8 22.3-31.3 12.5-48.1-9.8-16.7-31.3-22.3-48.1-12.5-8.8 5.2-17.7 10-26.9 14.4-52.1 25.3-109.3 38.6-168.5 38.6-213.3 0-386.2-172.9-386.2-386.2S298.7 125 512 125s386.2 172.9 386.2 386.2c0 55.2-11.6 108.7-33.6 157.9-3.7 8.3-7.7 16.5-12 24.5-9.2 17.1-2.8 38.4 14.3 47.5 17.1 9.2 38.4 2.8 47.5-14.3 5.1-9.5 9.8-19.1 14.2-28.9 26.1-58.2 39.8-121.5 39.8-186.7 0.1-252.1-204.3-456.5-456.4-456.5z"  /><path fill="#333333" d="M558.9 288.8c0-19.4-15.7-35.1-35.1-35.1s-35.1 15.7-35.1 35.1v304.3c0 19.4 15.7 35.1 35.1 35.1s35.1-15.7 35.1-35.1V288.8z"  /><path fill="#333333" d="M523.7 710.2m-35.1 0a35.1 35.1 0 1 0 70.2 0 35.1 35.1 0 1 0-70.2 0Z"  /></svg>