<?xml version="1.0" standalone="no"?><!DOCTYPE svg PUBLIC "-//W3C//DTD SVG 1.1//EN" "http://www.w3.org/Graphics/SVG/1.1/DTD/svg11.dtd"><svg class="icon" width="200px" height="200.00px" viewBox="0 0 1024 1024" version="1.1" xmlns="http://www.w3.org/2000/svg"><path fill="#333333" d="M512 82C274.8 82 82 274.8 82 512s192.8 430 430 430 430-192.8 430-430S749.2 82 512 82z m0 665.5c-17 0-30.7-13.8-30.7-30.7S495 686 512 686s30.7 13.8 30.7 30.7-13.7 30.8-30.7 30.8z m30.7-153.6c0 17-13.8 30.7-30.7 30.7s-30.7-13.8-30.7-30.7V307.2c0-17 13.8-30.7 30.7-30.7s30.7 13.8 30.7 30.7v286.7z"  /></svg>