<?xml version="1.0" standalone="no"?><!DOCTYPE svg PUBLIC "-//W3C//DTD SVG 1.1//EN" "http://www.w3.org/Graphics/SVG/1.1/DTD/svg11.dtd"><svg class="icon" width="200px" height="200.00px" viewBox="0 0 1024 1024" version="1.1" xmlns="http://www.w3.org/2000/svg"><path fill="#333333" d="M908.2 829.4L651.9 590.3h165.2l3.5-0.2c18.2-1.7 32.4-17.1 32.4-35.7 0-19.8-16.1-35.9-35.9-35.9H604.8l-4.5 0.1c-41.5 2.3-74.4 36.7-74.4 78.7v204.4l0.2 3.5c1.7 18.2 17.1 32.4 35.7 32.4l3.5-0.2c18.2-1.7 32.4-17.1 32.4-35.7V637.6l261.6 244.1 2.8 2.4c14.5 11 35.2 9.4 47.9-4.1l2.4-2.8c10.9-14.4 9.3-35.2-4.2-47.8zM461.8 185.2l-3.5 0.2c-18.2 1.7-32.4 17.1-32.4 35.7v164.1L164.3 141l-2.8-2.4c-14.5-11-35.2-9.4-47.9 4.1l-2.4 2.8c-11 14.5-9.4 35.2 4.1 47.9l256.3 239.1H206.4l-3.5 0.2c-18.2 1.7-32.4 17.1-32.4 35.7 0 19.8 16.1 35.9 35.9 35.9h212.3l4.5-0.1c41.5-2.3 74.4-36.7 74.4-78.7V221l-0.2-3.5c-1.6-18.1-16.9-32.3-35.6-32.3z"  /></svg>