<?xml version="1.0" standalone="no"?><!DOCTYPE svg PUBLIC "-//W3C//DTD SVG 1.1//EN" "http://www.w3.org/Graphics/SVG/1.1/DTD/svg11.dtd"><svg class="icon" width="200px" height="200.00px" viewBox="0 0 1024 1024" version="1.1" xmlns="http://www.w3.org/2000/svg"><path fill="#333333" d="M541.31 539.454l2.353-2.681c12.572-12.946 32.76-14.048 46.624-3.096l2.684 2.35L827.87 763.706l0.023-157.388c0-18.108 13.83-32.989 31.512-34.677l3.358-0.16c18.126 0 33.021 13.817 34.711 31.482l0.16 3.355V804.88c0 40.867-32.019 74.263-72.362 76.518l-4.353 0.121h-198.76c-19.259 0-34.87-15.597-34.87-34.836 0-18.107 13.829-32.988 31.511-34.676l3.359-0.16H777.4L544.41 586.032c-12.959-12.56-14.062-32.728-3.1-46.578l2.354-2.681-2.353 2.681zM479.985 477.91l-2.335 2.697c-12.483 13.032-32.663 14.273-46.602 3.417l-2.7-2.332-231.584-221.388-0.024 157.9c0 18.107-13.829 32.987-31.512 34.676l-3.358 0.159c-18.125 0-33.02-13.816-34.71-31.48l-0.16-3.356V219.64c0-40.867 32.018-74.263 72.361-76.518l4.354-0.121h198.76c19.258 0 34.87 15.596 34.87 34.836 0 18.107-13.829 32.988-31.512 34.676l-3.358 0.16H247.814l228.75 218.681c13.044 12.47 14.287 32.631 3.42 46.556l-2.334 2.698 2.335-2.698z"  /></svg>